<?xml version="1.0" encoding="UTF-8" standalone="no"?>
<!-- Created with Inkscape (http://www.inkscape.org/) -->

<svg
   width="173.39734mm"
   height="173.39734mm"
   viewBox="0 0 173.39734 173.39734"
   version="1.1"
   id="svg1"
   xml:space="preserve"
   xmlns="http://www.w3.org/2000/svg"
   xmlns:svg="http://www.w3.org/2000/svg"><defs
     id="defs1" /><g
     id="layer1"
     transform="translate(-18.340921,-61.73259)"><path
       style="fill:#ffffff"
       d="m 63.76459,229.35979 c -1.970589,-0.0989 -3.683205,-0.24199 -4.477599,-0.37406 l -0.752265,-0.12508 -0.242677,-0.14335 c -0.133472,-0.0788 -0.264435,-0.21191 -0.291028,-0.2957 l -0.04835,-0.15234 0.09727,-0.29474 0.09727,-0.29474 0.181692,-0.12727 0.181693,-0.12726 h 1.388745 1.388744 l -0.07212,-0.27517 -0.07212,-0.27516 -0.01054,-8.33967 -0.01054,-8.33966 -0.139053,-1.56634 c -0.07648,-0.86148 -0.139295,-1.58908 -0.139592,-1.61688 -2.96e-4,-0.0278 -0.07647,-0.13809 -0.169282,-0.2451 -0.333417,-0.38444 -0.4273,-1.05853 -0.188498,-1.35344 l 0.150759,-0.18618 -0.05805,-0.60636 c -0.08001,-0.83573 -0.22607,-4.19492 -0.331013,-7.6128 -0.121998,-3.97336 -0.467442,-8.61611 -0.654392,-8.79502 -0.03432,-0.0328 -0.834646,-0.2181 -1.778508,-0.41167 -1.977266,-0.40552 -2.169628,-0.45548 -2.442942,-0.63457 l -0.201278,-0.13188 v -0.36619 -0.36619 l 0.3175,-0.13719 c 0.174625,-0.0755 0.460795,-0.16177 0.635935,-0.19179 0.175139,-0.03 0.338284,-0.0867 0.362545,-0.12597 0.06367,-0.10303 0.292686,0.004 0.292686,0.13625 0,0.14321 0.149776,0.18355 0.931334,0.25085 0.34925,0.0301 0.877984,0.0915 1.174965,0.13642 l 0.539965,0.0817 0.148041,-0.13398 0.148041,-0.13397 2.105994,-0.0356 c 2.400369,-0.0406 3.294291,-0.0898 4.728132,-0.26008 1.20578,-0.14323 2.198744,-0.15367 2.886811,-0.0304 0.759734,0.13617 3.365898,0.89856 4.227716,1.23676 0.874362,0.34311 3.099167,1.47419 3.725333,1.89393 0.232834,0.15608 0.664559,0.53349 0.95939,0.83869 l 0.536056,0.55492 0.793503,1.18533 c 1.644628,2.45674 2.245321,4.11322 2.502867,6.9019 l 0.09759,1.05677 -0.05387,0.96347 -0.05387,0.96348 -0.17418,0.68752 c -0.0958,0.37814 -0.247814,0.81364 -0.337812,0.96778 -0.09,0.15414 -0.122772,0.255 -0.07283,0.22414 0.04994,-0.0309 -0.106704,0.22402 -0.348098,0.56641 -1.134413,1.60904 -2.16436,2.30424 -4.426522,2.98783 -1.208201,0.3651 -2.254108,0.55535 -4.906649,0.89249 l -2.013094,0.25588 -1.034906,-0.002 -1.034905,-0.002 -0.635,-0.1157 c -0.34925,-0.0636 -1.22555,-0.23169 -1.947334,-0.37343 -0.721783,-0.14175 -1.650803,-0.28327 -2.064489,-0.3145 l -0.752156,-0.0568 0.04827,0.19905 c 0.02655,0.10947 0.08992,0.67529 0.140825,1.25737 0.05091,0.58209 0.113124,1.21074 0.138266,1.397 0.02514,0.18627 0.07618,4.05342 0.113418,8.59367 0.03724,4.54025 0.08883,8.3312 0.114641,8.42433 0.02581,0.0931 0.04985,0.23601 0.05341,0.3175 l 0.0065,0.14817 1.502834,10e-4 c 0.826558,6.4e-4 1.582334,0.0225 1.679502,0.0486 l 0.176669,0.0474 0.187454,0.38584 0.187455,0.38584 -0.05054,0.23008 -0.05054,0.23009 -0.271254,0.25699 -0.271255,0.257 -0.592666,0.0332 c -0.325967,0.0182 -1.126067,0.006 -1.778,-0.0263 z M 71.716,205.87624 c 3.411261,-0.43581 4.801965,-0.76296 6.172437,-1.45198 l 0.577181,-0.29019 0.608152,-0.60991 0.608152,-0.60991 0.307164,-0.635 c 0.16894,-0.34925 0.35944,-0.84455 0.423333,-1.10066 l 0.11617,-0.46567 -0.0116,-1.397 -0.0116,-1.397 -0.185884,-0.889 -0.185884,-0.889 -0.301073,-0.762 -0.301074,-0.762 -0.635414,-1.05833 c -1.553126,-2.58686 -2.180635,-3.17517 -4.703259,-4.40946 l -1.171121,-0.57302 -1.919212,-0.63776 c -1.055566,-0.35077 -2.147812,-0.67267 -2.427212,-0.71534 l -0.508,-0.0776 -2.667,0.0336 -2.666999,0.0336 -0.02415,0.18847 c -0.01328,0.10365 -0.0816,0.34644 -0.151825,0.53953 l -0.127678,0.35108 -0.271508,0.11334 -0.271508,0.11333 -0.657761,-0.0198 -0.657762,-0.0198 0.04344,0.19043 c 0.02389,0.10473 0.100143,0.59048 0.169444,1.07943 0.357316,2.521 0.586526,5.12445 0.808772,9.18633 0.1228,2.24436 0.330226,4.86884 0.448339,5.67267 l 0.09953,0.67733 0.889,0.0537 c 0.854796,0.0516 2.295303,0.28942 3.328582,0.54953 0.729913,0.18375 1.367827,0.26394 2.191438,0.27548 l 0.736354,0.0103 z m 5.722256,-14.13799 c 0,-0.0233 0.01905,-0.0423 0.04233,-0.0423 0.02328,0 0.04233,0.019 0.04233,0.0423 0,0.0233 -0.01905,0.0423 -0.04233,0.0423 -0.02328,0 -0.04233,-0.019 -0.04233,-0.0423 z M 49.969539,229.154 c -0.406722,-0.14897 -0.640615,-0.35027 -0.640615,-0.55135 v -0.15102 l -0.402167,-0.0545 c -0.221191,-0.03 -0.734828,-0.1054 -1.141414,-0.16763 l -0.739248,-0.11315 -0.255586,-0.18199 c -0.140571,-0.1001 -0.255585,-0.21939 -0.255585,-0.2651 0,-0.16843 0.260735,-0.58034 0.421972,-0.66663 l 0.166219,-0.089 0.975905,-0.009 c 0.536747,-0.005 0.975795,-0.0329 0.975661,-0.0617 -3.71e-4,-0.0803 -0.316351,-1.94458 -0.4107,-2.42313 -0.0459,-0.23283 -0.125152,-0.65193 -0.176105,-0.93133 -0.519209,-2.8471 -1.24279,-6.18599 -1.743095,-8.04333 -0.06272,-0.23283 -0.175607,-0.67098 -0.250865,-0.97367 -0.07526,-0.30268 -0.192837,-0.75988 -0.261284,-1.016 -0.06845,-0.25611 -0.144735,-0.56091 -0.169528,-0.67733 -0.12683,-0.59554 -1.170177,-4.12198 -1.24842,-4.21957 l -0.09079,-0.11324 -3.306653,0.0374 -3.306654,0.0374 -2.032,0.31689 c -1.1176,0.17428 -2.222499,0.34814 -2.455333,0.38635 -0.232833,0.0382 -0.956733,0.15237 -1.608666,0.25369 -0.651934,0.10131 -1.218459,0.21567 -1.258946,0.25413 -0.04049,0.0384 -0.241547,0.93976 -0.4468,2.0029 -0.54316,2.81338 -0.729991,3.66119 -1.479016,6.71152 -0.976564,3.97695 -1.719677,7.41663 -1.784532,8.26013 l -0.02604,0.33867 0.762,0.0561 c 0.4191,0.0309 1.10131,0.10393 1.516023,0.16233 l 0.754024,0.1062 0.277195,0.24338 0.277195,0.24338 0.05365,0.24427 0.05365,0.24428 -0.124325,0.23901 c -0.06838,0.13146 -0.224529,0.33263 -0.346999,0.44705 l -0.222674,0.20804 -0.737871,-0.14584 c -0.405829,-0.0802 -2.047577,-0.35603 -3.648328,-0.61292 -1.600752,-0.25689 -2.980238,-0.50441 -3.065523,-0.55005 l -0.155066,-0.083 -0.05603,-0.29869 -0.05604,-0.29869 0.150503,-0.16631 c 0.08278,-0.0915 0.29962,-0.20646 0.481874,-0.25553 l 0.33137,-0.0892 0.734684,0.0486 c 0.404077,0.0267 0.970065,0.0698 1.257751,0.0957 l 0.523066,0.0471 0.05949,-0.3967 c 0.03272,-0.21819 0.03538,-0.62741 0.0059,-0.90937 l -0.05358,-0.51267 0.119529,-0.13388 c 0.06574,-0.0736 0.140459,-0.26723 0.16604,-0.43022 0.145636,-0.92788 0.685313,-3.73376 0.985217,-5.12233 0.663447,-3.07177 1.090679,-5.26103 1.444221,-7.4006 l 0.355475,-2.15128 -0.222713,-0.4541 c -0.122492,-0.24976 -0.222712,-0.50192 -0.222712,-0.56036 0,-0.0584 0.112152,-0.22904 0.249227,-0.37912 l 0.249227,-0.27287 0.152939,-2.6e-4 0.15294,-2.6e-4 0.200165,-0.82524 c 0.351718,-1.45007 0.850995,-3.23926 1.317095,-4.71991 0.249203,-0.79163 0.549144,-1.82033 0.666537,-2.286 0.558399,-2.21503 0.884803,-3.43888 1.343559,-5.03766 l 0.498033,-1.73567 0.214779,-1.22767 c 0.207164,-1.18413 0.446818,-2.19375 0.924475,-3.89466 0.499415,-1.77839 0.71472,-2.5813 0.777608,-2.89984 l 0.04597,-0.23283 h -0.843135 c -0.463725,0 -1.439985,0.0413 -2.169468,0.0918 l -1.326332,0.0918 -0.380142,-0.18402 -0.380142,-0.18403 0.0012,-0.26761 c 6.36e-4,-0.14719 0.02344,-0.35071 0.05068,-0.45226 l 0.04952,-0.18465 0.320686,-0.12831 c 0.443406,-0.17742 1.580296,-0.36627 2.860439,-0.47517 1.521683,-0.12945 3.170351,-0.32303 3.914187,-0.4596 l 0.635,-0.11659 1.766588,0.0125 1.766588,0.0125 0.286578,0.33161 0.286579,0.33161 v 0.18098 c 0,0.0995 -0.109784,0.3541 -0.243965,0.56568 l -0.243964,0.38469 -0.402853,0.0552 c -0.221568,0.0304 -0.978559,0.0558 -1.682201,0.0565 -0.703643,7.1e-4 -1.322306,0.0293 -1.374808,0.0635 l -0.09546,0.0622 0.282837,0.635 c 0.299098,0.67151 0.508602,1.17199 0.549353,1.31234 0.01352,0.0466 0.268961,0.67521 0.567644,1.397 0.298684,0.72178 0.578901,1.43478 0.622706,1.58444 0.0438,0.14966 0.116957,0.29516 0.162559,0.32335 0.0456,0.0282 0.06099,0.0867 0.0342,0.13006 l -0.04871,0.0788 h 0.08701 0.08701 l -0.04873,0.127 -0.04874,0.127 h 0.07961 c 0.04379,0 0.08065,0.0476 0.08192,0.10584 0.0037,0.16788 1.23783,3.06235 1.335178,3.13137 0.04825,0.0342 0.06073,0.0628 0.02773,0.0635 -0.033,7.1e-4 0.02913,0.18227 0.138079,0.40346 0.108947,0.22119 0.24368,0.54504 0.299406,0.71967 0.05573,0.17462 0.142815,0.3175 0.193532,0.3175 0.05072,0 0.07025,0.022 0.04341,0.0488 -0.02684,0.0268 0.0467,0.26496 0.163419,0.52916 0.11672,0.2642 0.268491,0.61372 0.337269,0.7767 0.06878,0.16299 0.177977,0.41064 0.242666,0.55034 0.270273,0.58367 0.489234,1.10932 0.514864,1.23601 0.01506,0.0744 0.108198,0.32208 0.206973,0.55033 0.367227,0.84857 1.417132,4.04576 2.040794,6.21466 l 0.255631,0.889 0.211318,0.31171 0.211318,0.31171 0.04164,0.53495 c 0.0229,0.29423 0.133368,0.83976 0.245476,1.21229 0.592374,1.96845 1.036859,3.60696 1.724231,6.35603 l 0.760607,3.04197 0.505152,2.58234 c 0.6461,3.30285 0.817041,4.22695 0.997262,5.39118 l 0.146469,0.94619 0.258576,0.0452 c 0.142217,0.0248 0.759299,0.0709 1.371294,0.10242 l 1.112718,0.0572 0.368948,0.18508 0.368949,0.18508 0.07796,0.30956 0.07796,0.30956 -0.09574,0.21014 -0.09574,0.21013 -0.350183,0.17865 -0.350183,0.17865 -0.56337,-0.0534 c -0.728213,-0.069 -1.046853,-0.11123 -1.644724,-0.21793 l -0.488688,-0.0872 -0.28331,0.30039 c -0.31312,0.33201 -0.36872,0.34289 -0.850366,0.16648 z M 31.955545,207.74549 c 1.867847,-0.40109 4.864908,-0.87278 6.493713,-1.02202 l 1.354667,-0.12413 2.220383,-0.001 2.220383,-0.001 -0.05091,-0.27516 c -0.05226,-0.28248 -0.275046,-1.0567 -0.858813,-2.9845 -0.324351,-1.07113 -1.029,-3.1291 -1.246561,-3.64067 -0.05941,-0.1397 -0.223635,-0.53975 -0.364939,-0.889 -0.315014,-0.77859 -1.438391,-3.41238 -1.751456,-4.10633 -0.295095,-0.65413 -1.189648,-2.8643 -1.816219,-4.48734 -1.011665,-2.62056 -1.278404,-3.25966 -1.360474,-3.25966 -0.107946,0 -1.184242,4.01831 -1.386856,5.17778 -0.275231,1.57501 -0.601598,2.97592 -0.823381,3.5343 -0.04436,0.1117 -0.133114,0.4165 -0.197222,0.67733 -0.06411,0.26084 -0.192723,0.74095 -0.285812,1.06692 -0.09309,0.32597 -0.364302,1.35467 -0.602696,2.286 -0.366756,1.43281 -0.766542,2.79507 -1.403872,4.78367 -0.47156,1.47136 -0.904519,3.11761 -0.845175,3.21363 0.02512,0.0406 -0.0022,0.0932 -0.06069,0.11678 l -0.106361,0.0429 0.15262,0.007 c 0.08394,0.004 0.407791,-0.0481 0.719667,-0.11508 z m 88.199215,21.20797 c -0.071,-0.13739 -0.12778,-0.33742 -0.12607,-0.4445 0.002,-0.10709 0.2472,-0.66995 0.54554,-1.2508 l 0.54244,-1.0561 -0.17507,-0.28326 c -0.0963,-0.15579 -0.52275,-0.58143 -0.94771,-0.94586 -0.90479,-0.77593 -3.49178,-3.50816 -4.13141,-4.36335 -0.2438,-0.32597 -1.12387,-1.27847 -1.95571,-2.11667 -1.73054,-1.74376 -1.80456,-1.82949 -2.8145,-3.25967 -0.98982,-1.40169 -1.26112,-1.73035 -2.366,-2.86633 -1.27424,-1.31011 -2.7289,-2.46612 -3.85602,-3.06438 -0.20955,-0.11122 -0.69649,-0.38442 -1.08209,-0.60709 -0.38561,-0.22268 -0.71889,-0.40486 -0.74064,-0.40486 -0.13297,0 -1.61123,-1.14941 -2.32593,-1.80851 -0.72014,-0.66411 -1.445533,-1.26152 -1.484484,-1.22257 -0.02145,0.0215 -7.02e-4,0.34075 0.04611,0.70954 0.1151,0.90673 0.159024,3.45482 0.160425,9.30654 6.46e-4,2.70086 0.0056,6.37751 0.01101,8.17033 l 0.0098,3.25966 0.776719,-0.0268 c 0.85756,-0.0296 1.71249,-0.1425 2.05009,-0.27085 0.12062,-0.0459 0.29292,-0.0834 0.38289,-0.0834 h 0.16358 l 0.33891,0.30619 0.33891,0.30619 v 0.21018 c 0,0.26015 -0.21423,0.72388 -0.42076,0.91078 l -0.15477,0.14006 -0.66474,0.11445 -0.66473,0.11444 -1.56634,0.0131 c -2.213164,0.0185 -5.225545,-0.22092 -5.804032,-0.46133 l -0.258368,-0.10738 -0.102209,-0.34114 c -0.123729,-0.41297 -0.08571,-0.52953 0.254862,-0.78132 l 0.262684,-0.19421 0.786586,0.0967 c 0.432622,0.0532 1.224614,0.0967 1.759981,0.0967 h 0.973394 l 0.03582,-3.40783 0.03582,-3.40784 0.08944,-0.97366 0.08944,-0.97367 0.02124,-5.88433 0.02125,-5.88434 -0.08564,-0.8703 -0.08564,-0.8703 -0.174741,-0.16279 c -0.09611,-0.0895 -0.221524,-0.30455 -0.278704,-0.47781 l -0.103963,-0.31501 0.151719,-0.28173 c 0.08345,-0.15495 0.174295,-0.28174 0.201887,-0.28176 0.02759,-2e-5 0.0469,-3.13374 0.0429,-6.96383 l -0.0073,-6.9638 0.07052,-1.35467 c 0.03879,-0.74506 0.09192,-1.56421 0.118075,-1.82033 l 0.04755,-0.46567 -0.115657,-0.15634 -0.115657,-0.15635 -0.71482,0.12909 c -0.393151,0.071 -0.92437,0.15568 -1.180486,0.18816 l -0.465667,0.0591 -0.239329,0.20103 c -0.131631,0.11056 -0.280411,0.20102 -0.330623,0.20102 h -0.09129 l 0.153244,-0.16933 0.153245,-0.16934 -0.161289,-0.0125 c -0.08871,-0.007 -0.351789,-0.0194 -0.584623,-0.0277 -0.232833,-0.008 -0.526742,-0.0412 -0.653132,-0.073 l -0.229799,-0.0578 -0.09208,-0.34198 -0.09209,-0.34198 0.05002,-0.15759 c 0.02751,-0.0867 0.141969,-0.21785 0.254354,-0.29149 l 0.204334,-0.13388 0.829531,-0.12492 c 1.628297,-0.24521 3.138877,-0.61412 4.181542,-1.02123 l 0.388679,-0.15176 0.480206,0.24315 0.480206,0.24315 0.0831,0.29928 c 0.0457,0.16461 0.0834,0.34618 0.0836,0.4035 l 4.7e-4,0.10422 0.1905,0.0438 c 0.10478,0.0241 0.53102,0.12138 0.94721,0.21622 0.41618,0.0948 1.42583,0.24603 2.24366,0.33597 3.35214,0.36866 3.88337,0.4626 4.91596,0.86931 1.62078,0.63836 2.66864,1.26614 4.15831,2.49125 0.99433,0.81774 1.33002,1.3575 1.63969,2.63643 l 0.15029,0.62073 -0.0454,1.11494 -0.0454,1.11493 -0.14618,0.55034 c -0.21354,0.80393 -0.7142,1.92178 -1.16017,2.5904 -0.45702,0.68518 -1.19173,1.45078 -2.27969,2.37552 -0.42991,0.36543 -0.84437,0.72156 -0.921,0.79141 -0.19023,0.17339 -0.56148,0.43947 -0.8269,0.59267 -0.12102,0.0698 -0.28576,0.18415 -0.36609,0.254 -0.0803,0.0699 -0.2915,0.20212 -0.46927,0.29393 -0.17776,0.0918 -0.47561,0.26033 -0.66187,0.37449 -0.18627,0.11415 -0.96732,0.52084 -1.73567,0.90374 l -1.397,0.69619 -0.90609,0.30846 c -0.49834,0.16965 -1.20319,0.36526 -1.56633,0.43468 -0.36313,0.0694 -0.8068,0.16566 -0.98592,0.21384 l -0.32568,0.0876 0.14649,0.16187 0.1465,0.16187 0.0945,-0.0539 0.0945,-0.0539 -0.0574,0.0639 -0.0574,0.0639 0.30564,0.26719 c 0.16809,0.14696 0.33961,0.25673 0.38115,0.24393 0.0415,-0.0128 0.0549,0.0101 0.0297,0.051 l -0.0459,0.0742 0.52641,0.42726 c 0.28952,0.23499 0.65367,0.53844 0.80922,0.67433 0.39938,0.34893 1.47389,1.03034 2.80752,1.78042 0.62865,0.35357 1.30958,0.76918 1.51318,0.92358 l 0.37018,0.28071 0.0874,-0.054 0.0874,-0.054 -0.0471,0.0766 -0.0471,0.0766 0.29707,0.21167 c 0.51788,0.369 2.9429,2.80849 3.5057,3.52661 0.29754,0.37965 0.86258,1.15778 1.25566,1.72919 l 0.71468,1.03892 1.62723,1.65747 c 1.50322,1.53117 1.99685,2.07107 2.314,2.53092 l 0.12125,0.17582 0.0823,-0.0509 0.0823,-0.0509 -0.0602,0.0974 -0.0602,0.0974 0.19805,0.19088 c 0.10893,0.10498 0.26515,0.29686 0.34715,0.4264 l 0.14911,0.23553 0.094,-0.0581 0.094,-0.0581 -0.0484,0.0784 -0.0484,0.0784 0.81851,0.8661 c 0.45018,0.47635 0.80168,0.86607 0.78112,0.86605 -0.0206,-2e-5 0.31995,0.34069 0.7567,0.75715 0.43676,0.41645 0.82272,0.7395 0.85769,0.71788 0.035,-0.0216 0.10118,0.0279 0.14712,0.10994 0.10315,0.18433 0.10039,0.18741 0.43471,-0.48435 0.44724,-0.89864 1.61147,-2.96892 1.96242,-3.48964 l 0.32618,-0.48397 0.38002,-0.22271 0.38002,-0.2227 0.31726,0.16423 0.31727,0.16422 0.0255,0.48247 0.0255,0.48247 -0.2404,0.31398 c -0.42198,0.55117 -1.39562,2.16747 -2.39997,3.98413 l -0.48438,0.87614 0.0721,0.25141 0.0721,0.25141 -0.0863,0.22696 c -0.0475,0.12483 -0.14669,0.29371 -0.22052,0.37528 l -0.13422,0.14832 h -0.23518 -0.23517 l -0.051,0.16082 c -0.0281,0.0884 -0.23944,0.47429 -0.46972,0.85743 -0.23027,0.38313 -0.39754,0.73081 -0.3717,0.77261 0.0258,0.0418 0.0156,0.0692 -0.0228,0.0608 -0.0384,-0.008 -0.21145,0.0479 -0.38458,0.12491 -0.17313,0.077 -0.39122,0.14007 -0.48466,0.14007 h -0.16987 z m -19.51784,-26.89347 c 2.09859,-0.43589 2.8554,-0.6988 4.78367,-1.66182 2.23153,-1.11448 3.57457,-2.02307 4.98847,-3.37477 0.9047,-0.86489 1.20566,-1.25621 1.61835,-2.10419 l 0.27227,-0.55946 0.19112,-0.82708 0.19112,-0.82707 -0.0452,-0.82234 -0.0452,-0.82234 -0.14672,-0.42333 c -0.0807,-0.23284 -0.23796,-0.5461 -0.34948,-0.69614 -0.23476,-0.31586 -1.68969,-1.54257 -2.18741,-1.8443 -0.38206,-0.2316 -1.79341,-0.92756 -2.24367,-1.10638 -0.3293,-0.13078 -1.71611,-0.36141 -3.76766,-0.62657 -0.74507,-0.0963 -1.67852,-0.25095 -2.07434,-0.34367 -1.69341,-0.39666 -2.272169,-0.50312 -2.74095,-0.50416 l -0.497288,-0.001 0.04992,2.81517 c 0.02746,1.54834 0.08696,3.32952 0.13223,3.95817 l 0.08231,1.143 0.0068,3.72533 c 0.0037,2.04893 0.03088,4.07963 0.06035,4.51265 l 0.05358,0.78732 0.135378,-0.0534 c 0.07446,-0.0293 0.764028,-0.18394 1.53238,-0.34353 z m 6.18067,-2.61707 c 0,-0.0233 0.0191,-0.0423 0.0423,-0.0423 0.0233,0 0.0423,0.019 0.0423,0.0423 0,0.0233 -0.019,0.0423 -0.0423,0.0423 -0.0233,0 -0.0423,-0.0191 -0.0423,-0.0423 z m 73.65999,29.62046 c -1.56785,-0.28312 -2.54434,-0.47457 -2.75166,-0.53949 -0.1397,-0.0437 -0.69215,-0.17163 -1.22767,-0.2842 l -0.97367,-0.20468 -1.143,-0.0947 c -0.62865,-0.0521 -1.3335,-0.11451 -1.56633,-0.13875 -0.23283,-0.0242 -1.68063,-0.0786 -3.21733,-0.12087 l -2.794,-0.0768 -1.143,-0.12894 c -0.62865,-0.0709 -1.55749,-0.16775 -2.06408,-0.2152 l -0.92107,-0.0863 -1.05102,0.0936 -1.05101,0.0936 -1.20778,-0.0604 -1.20778,-0.0604 -0.27698,-0.24182 -0.27697,-0.24183 -0.35316,-0.0437 c -0.19423,-0.024 -0.99015,-0.0821 -1.7687,-0.12895 l -1.41555,-0.0853 -0.27779,-0.11612 c -0.15278,-0.0639 -0.33267,-0.1823 -0.39977,-0.2632 l -0.12198,-0.14709 0.12198,-0.35265 0.12199,-0.35266 0.31715,-0.10374 c 0.36366,-0.11895 2.14528,-0.27767 3.11678,-0.27767 h 0.65767 l 0.0373,-3.83116 c 0.0205,-2.10715 0.0593,-3.92642 0.0862,-4.04284 0.10015,-0.43317 0.31302,-2.45769 0.39973,-3.80176 l 0.0896,-1.38876 -0.005,-9.19457 -0.005,-9.19457 -0.0961,-3.59834 c -0.0529,-1.97908 -0.098,-4.0815 -0.10035,-4.67204 l -0.004,-1.07371 0.15849,-0.17512 0.15848,-0.17513 h 0.22776 0.22775 l 0.13004,0.14817 0.13004,0.14817 0.091,0.55033 c 0.3012,1.82048 0.56309,5.55511 0.6917,9.86367 0.0486,1.62983 0.12507,4.01108 0.16984,5.29166 0.0448,1.28059 0.0819,4.7115 0.0825,7.62424 l 10e-4,5.29591 -0.089,1.13876 c -0.0489,0.62632 -0.16927,1.80551 -0.26744,2.62043 l -0.17848,1.48166 -0.0352,3.61067 -0.0352,3.61067 0.48023,0.006 c 0.60103,0.007 0.78899,0.0635 1.0611,0.31779 l 0.21632,0.20217 0.6621,-0.0839 0.66209,-0.084 1.15359,0.0838 c 0.63447,0.0461 1.47743,0.12306 1.87325,0.17103 0.39582,0.048 2.03412,0.12253 3.64067,0.16571 2.82995,0.0761 5.34152,0.2415 6.56166,0.43223 0.32597,0.051 1.10702,0.22026 1.73567,0.37624 1.22924,0.305 2.7943,0.58427 3.79906,0.6779 l 0.62406,0.0582 0.0709,-0.11475 c 0.039,-0.0631 0.0504,-0.19639 0.0254,-0.29617 -0.025,-0.0998 -0.004,-1.1288 0.0472,-2.28671 l 0.0927,-2.10527 0.34823,-0.3175 0.34823,-0.3175 0.22194,3.1e-4 c 0.12207,1.8e-4 0.34577,0.0758 0.49711,0.16809 l 0.27517,0.16777 v 0.21644 c 0,0.11903 -0.0585,0.70062 -0.1301,1.29241 -0.0716,0.59179 -0.19844,1.94445 -0.28196,3.00592 l -0.15187,1.92994 -0.14415,0.14439 -0.14415,0.14439 -1.16139,0.0127 c -0.63876,0.007 -1.25663,-0.005 -1.37305,-0.0256 z m -44.4307,-2.74178 -0.6157,-0.0647 -0.21442,-0.14049 -0.21442,-0.1405 0.0258,-0.35183 0.0258,-0.35183 0.4787,-0.14528 c 0.26328,-0.0799 0.93524,-0.191 1.49324,-0.24688 l 1.01455,-0.1016 0.0616,-2.88881 c 0.0723,-3.39024 -0.001,-13.30276 -0.11715,-15.80047 l -0.0806,-1.73566 -0.17221,-0.90397 c -0.0947,-0.49719 -0.23076,-1.6289 -0.30232,-2.51493 -0.0716,-0.88603 -0.20685,-2.23027 -0.30064,-2.98722 -0.0938,-0.75694 -0.20979,-2.00647 -0.25777,-2.77674 -0.048,-0.77026 -0.18853,-2.29583 -0.31235,-3.39014 l -0.22513,-1.98967 -0.004,-2.24367 -0.004,-2.24366 0.10771,-0.47007 0.10772,-0.47007 0.24337,-0.14376 c 0.13386,-0.0791 0.33637,-0.14377 0.45003,-0.14377 h 0.20664 l 0.14013,0.15483 0.14012,0.15484 v 1.40689 c 0,1.7419 0.10642,3.06306 0.43118,5.35311 0.13869,0.9779 0.30883,2.44475 0.37809,3.25966 0.0693,0.81492 0.22171,2.20414 0.33876,3.08715 0.11706,0.88302 0.26885,2.33082 0.33731,3.21733 0.0685,0.88652 0.19764,1.99286 0.28704,2.45852 0.2488,1.29596 0.25117,1.3212 0.30173,3.21734 0.0261,0.9779 0.0705,1.91135 0.0987,2.07433 0.0282,0.16298 0.0453,3.15048 0.0379,6.63887 l -0.0134,6.34254 -0.0813,0.98113 c -0.0447,0.53962 -0.0819,1.26294 -0.0827,1.60738 l -10e-4,0.62626 0.65617,-0.064 c 0.36089,-0.0352 1.22766,-0.0885 1.92616,-0.11858 l 1.27,-0.0546 0.23014,0.23922 0.23013,0.23923 0.0571,0.30409 0.0571,0.30409 -0.0834,0.13435 c -0.0459,0.0739 -0.25131,0.24864 -0.45652,0.38834 l -0.3731,0.254 -1.397,0.0553 c -1.85501,0.0735 -5.05431,0.0647 -5.82271,-0.016 z m -23.38729,-8.84468 c 0,-0.0233 0.0191,-0.0423 0.0423,-0.0423 0.0233,0 0.0423,0.0191 0.0423,0.0423 0,0.0233 -0.019,0.0423 -0.0423,0.0423 -0.0233,0 -0.0423,-0.019 -0.0423,-0.0423 z m -2.286,-6.51933 c 0,-0.0233 0.0191,-0.0423 0.0423,-0.0423 0.0233,0 0.0423,0.0191 0.0423,0.0423 0,0.0233 -0.0191,0.0423 -0.0423,0.0423 -0.0233,0 -0.0423,-0.019 -0.0423,-0.0423 z m -1.27,-1.27 c 0,-0.0233 0.0191,-0.0423 0.0423,-0.0423 0.0233,0 0.0423,0.019 0.0423,0.0423 0,0.0233 -0.019,0.0423 -0.0423,0.0423 -0.0233,0 -0.0423,-0.019 -0.0423,-0.0423 z m -8.636,-3.21734 c 0,-0.0233 0.019,-0.0423 0.0423,-0.0423 0.0233,0 0.0423,0.019 0.0423,0.0423 0,0.0233 -0.0191,0.0423 -0.0423,0.0423 -0.0233,0 -0.0423,-0.019 -0.0423,-0.0423 z M 78.792922,189.87559 c 0,-0.0233 0.01905,-0.0423 0.04233,-0.0423 0.02328,0 0.04233,0.0191 0.04233,0.0423 0,0.0233 -0.01905,0.0423 -0.04233,0.0423 -0.02328,0 -0.04233,-0.0191 -0.04233,-0.0423 z m 54.687208,-5.01967 -0.26413,-0.236 0.10859,-0.36242 0.10858,-0.36242 0.21771,-0.17126 c 0.11974,-0.0942 0.86541,-0.48952 1.65704,-0.87849 l 1.43933,-0.70722 0.762,-0.16961 c 0.79035,-0.17591 2.19152,-0.35058 3.01422,-0.37574 l 0.47421,-0.0145 0.22301,0.11946 0.223,0.11945 0.053,0.28272 c 0.0601,0.3202 -0.0217,0.86456 -0.15391,1.02453 -0.0485,0.0587 -0.26421,0.18634 -0.47925,0.28353 l -0.39098,0.17672 -1.27,0.0741 -1.27,0.0741 -0.42334,0.11754 c -0.23283,0.0647 -0.84243,0.27931 -1.35466,0.47702 -1.10286,0.42567 -2.11699,0.76458 -2.28789,0.76458 -0.0674,0 -0.2413,-0.1062 -0.38657,-0.236 z m 20.47562,-1.12545 -0.14817,-0.0863 v -0.36367 -0.36367 l 0.14899,-0.13483 c 0.0819,-0.0742 0.73917,-0.34331 1.4605,-0.59813 0.72133,-0.25482 1.74732,-0.61978 2.27996,-0.81103 l 0.96845,-0.34773 0.85188,-0.1659 c 0.46854,-0.0913 0.94714,-0.18185 1.06356,-0.20134 0.11641,-0.0195 0.67373,-0.12147 1.23848,-0.22662 l 1.02682,-0.19119 0.34781,0.24576 c 0.1913,0.13517 0.37067,0.31465 0.39862,0.39885 l 0.0508,0.15308 -0.1014,0.42267 -0.10139,0.42267 -0.18104,0.1184 -0.18104,0.11841 -0.97366,0.17226 c -0.53552,0.0947 -1.47498,0.23 -2.08769,0.30058 l -1.11402,0.12831 -1.00265,0.2973 c -0.55145,0.16351 -1.45889,0.41121 -2.01652,0.55043 l -1.01387,0.25314 -0.38313,-0.003 c -0.21072,-0.001 -0.4498,-0.0414 -0.53129,-0.0889 z m -89.049426,-6.5408 c -0.281711,-0.10171 -1.381594,-0.74775 -2.643476,-1.55271 -0.313725,-0.20012 -0.98242,-0.57049 -1.485988,-0.82304 l -0.915579,-0.45918 -0.313179,-0.34665 -0.313179,-0.34666 v -0.21479 c 0,-0.23844 0.2566,-0.79199 0.547788,-1.18172 0.104379,-0.1397 0.271265,-0.4064 0.370857,-0.59267 0.09959,-0.18626 0.275217,-0.49106 0.390278,-0.67733 0.115061,-0.18627 0.350622,-0.58632 0.523469,-0.889 0.348057,-0.6095 1.59291,-2.69446 2.12846,-3.56487 0.189238,-0.30756 0.5699,-1.01241 0.845915,-1.56633 0.276015,-0.55392 0.905231,-1.79771 1.398258,-2.76396 0.493026,-0.96626 0.870214,-1.75742 0.838194,-1.75813 -0.03202,-7.2e-4 -0.0149,-0.0293 0.03805,-0.0635 0.192074,-0.12412 0.81853,-1.32826 1.596054,-3.06787 0.969103,-2.16825 2.260909,-4.51556 3.983314,-7.238 l 0.749288,-1.18432 0.391757,-0.89001 c 0.215466,-0.4895 0.526144,-1.13766 0.690396,-1.44034 0.164252,-0.30268 0.454331,-0.83608 0.644619,-1.18533 0.190289,-0.34925 0.447119,-0.9398 0.570734,-1.31234 0.123615,-0.37253 0.474568,-1.19168 0.779896,-1.82033 0.627013,-1.29098 0.804619,-1.69333 0.747462,-1.69333 -0.121018,0 -0.470786,0.20928 -0.470786,0.2817 0,0.0469 -0.02149,0.0637 -0.04776,0.0374 -0.02627,-0.0263 -0.397743,0.10474 -0.8255,0.29114 l -0.777741,0.3389 -1.100667,0.10582 -1.100667,0.10583 -1.338317,0.39313 c -1.304031,0.38306 -1.646452,0.46606 -3.403016,0.8249 l -0.846666,0.17295 -0.931334,0.0456 -0.931333,0.0456 -0.6937,-0.17444 c -1.46986,-0.36961 -3.721307,-1.31987 -4.851966,-2.04785 -0.20955,-0.13492 -0.4953,-0.30939 -0.635,-0.3877 -0.411903,-0.23091 -1.141498,-0.82455 -1.804187,-1.46798 l -0.618853,-0.60087 -0.09273,0.0573 -0.09273,0.0573 0.05249,-0.0849 0.05249,-0.0849 -0.148116,-0.16098 c -0.223907,-0.24337 -1.035869,-1.14459 -1.365013,-1.51507 -0.936126,-1.0537 -3.259397,-5.16057 -3.669015,-6.48577 -0.186902,-0.60467 -0.290885,-1.45891 -0.390634,-3.20915 l -0.07962,-1.397 0.07194,-0.80434 c 0.195025,-2.18037 0.57508,-3.69683 1.379243,-5.50333 0.610135,-1.37063 1.786079,-3.70358 2.16299,-4.29115 l 0.43112,-0.67208 1.758977,-1.73312 c 2.738735,-2.69848 4.476252,-3.97014 6.754309,-4.9434 0.85524,-0.36538 1.342491,-0.57247 1.905,-0.80965 0.34925,-0.14726 0.947882,-0.41812 1.330294,-0.60192 l 0.695294,-0.33416 1.294373,-0.085 c 0.711905,-0.0468 1.776867,-0.13503 2.366583,-0.1961 l 1.072212,-0.11105 0.409455,0.0688 c 0.2252,0.0378 0.523755,0.1045 0.663455,0.14819 0.368262,0.11518 3.14382,1.14739 3.471334,1.29097 0.09313,0.0408 0.488854,0.20704 0.879379,0.36936 0.907765,0.3773 1.971995,0.98087 3.33376,1.89072 l 1.080472,0.7219 0.619833,0.64877 0.619832,0.64877 0.519835,0.79896 c 0.28591,0.43942 0.549472,0.83939 0.585695,0.88882 0.673921,0.91963 1.725555,4.2302 2.36512,7.44546 l 0.11789,0.59267 0.05144,2.413 0.05144,2.413 -0.09829,1.016 c -0.119171,1.23179 -0.334436,2.73836 -0.768194,5.37633 l -0.327158,1.98967 -0.392313,1.524 c -0.415121,1.6126 -0.781818,2.71544 -1.928411,5.79966 -0.812025,2.18427 -1.111088,2.82532 -1.89593,4.064 -0.309805,0.48895 -0.816681,1.32715 -1.126391,1.86267 l -0.56311,0.97367 -0.546001,1.31233 c -0.300301,0.72178 -0.548157,1.33138 -0.550791,1.35467 -0.0026,0.0233 -0.208193,0.44238 -0.456798,0.93133 -0.485021,0.95393 -1.180801,2.53801 -1.357376,3.09033 -0.105982,0.33151 -0.152013,0.44317 -0.645721,1.56634 -0.13305,0.30268 -0.502653,1.02658 -0.821341,1.60866 -1.220852,2.22989 -1.72027,3.33373 -2.470763,5.461 -0.777067,2.20261 -2.81121,6.73359 -3.545768,7.89808 -0.109144,0.17302 -0.382999,0.65749 -0.608565,1.07659 -0.225567,0.4191 -0.554449,1.0287 -0.73085,1.35466 -0.1764,0.32597 -0.578473,1.08292 -0.893494,1.68212 l -0.572766,1.08945 -0.169334,0.10874 c -0.09313,0.0598 -0.283633,0.1303 -0.423333,0.15665 l -0.254,0.0479 z m 2.710599,-40.91214 c 0,-0.1621 0.209336,-0.20755 0.959425,-0.2083 0.913017,-9.2e-4 2.059757,-0.13633 2.877901,-0.33984 1.198835,-0.29819 2.104641,-0.85707 3.285244,-2.02696 1.245394,-1.23409 2.09123,-2.42067 2.869046,-4.02484 l 0.410525,-0.84667 0.15125,-0.80433 0.151251,-0.80433 0.0028,-1.73567 0.0028,-1.73567 -0.236909,-1.18533 c -0.282234,-1.41211 -0.517983,-2.29051 -0.758115,-2.82472 -0.09706,-0.21594 -0.181387,-0.41166 -0.187388,-0.43495 -0.0847,-0.32863 -0.650969,-1.17255 -1.103588,-1.64468 -0.09313,-0.0972 -0.455083,-0.49719 -0.804333,-0.88898 -0.34925,-0.39179 -0.716674,-0.80234 -0.816497,-0.91232 -0.09982,-0.10999 -0.493633,-0.4089 -0.875134,-0.66426 -0.381501,-0.25535 -0.821984,-0.56217 -0.978853,-0.68182 -0.396229,-0.30222 -0.937513,-0.44686 -1.890498,-0.50517 l -0.815351,-0.0499 -0.656167,-0.22483 -0.656167,-0.22482 v -0.14462 c 0,-0.0795 0.0381,-0.16817 0.08467,-0.19695 0.04657,-0.0288 0.08467,-0.0905 0.08467,-0.13718 v -0.0849 l -0.402167,0.0576 c -0.221192,0.0317 -0.764117,0.17071 -1.2065,0.30899 l -0.804333,0.25141 -1.016,0.5081 c -3.154264,1.57747 -6.1438,4.20053 -7.461272,6.54664 -0.762556,1.35793 -1.075862,2.29746 -1.225611,3.67532 l -0.09745,0.89668 0.05217,0.86736 c 0.06518,1.0837 0.250995,2.00399 0.56238,2.78529 0.247437,0.62085 1.034062,1.95865 1.347484,2.29164 0.09678,0.10283 0.175972,0.2132 0.175972,0.24528 0,0.0851 0.558072,0.76277 1.097692,1.3329 l 0.468641,0.49514 0.879719,0.58928 c 1.173859,0.78631 1.868345,1.1253 3.184058,1.5542 l 1.100889,0.35886 0.943774,0.15382 0.943773,0.15382 -0.127583,0.19472 c 0,0 0.483782,0.12264 0.483782,0.065 z m -9.397999,-5.83794 c 0,-0.0233 0.01905,-0.0423 0.04233,-0.0423 0.02328,0 0.04233,0.0191 0.04233,0.0423 0,0.0233 -0.01905,0.0423 -0.04233,0.0423 -0.02328,0 -0.04233,-0.019 -0.04233,-0.0423 z m 45.719996,37.65782 -1.905,-0.12379 -0.20325,-0.098 c -0.11179,-0.0539 -0.23436,-0.18369 -0.27239,-0.28839 l -0.0691,-0.19037 0.208,-0.13629 0.20801,-0.13628 0.88988,-0.0936 0.88989,-0.0935 v -0.6061 -0.6061 l -0.22298,-0.83636 -0.22298,-0.83635 -0.0631,-3.048 c -0.0558,-2.69484 -0.25785,-6.97986 -0.38821,-8.23384 l -0.0462,-0.4445 -0.3114,-4.9e-4 c -0.17128,-2.7e-4 -0.53785,-0.0376 -0.81461,-0.0829 l -0.50321,-0.0824 -0.11556,-0.11556 -0.11556,-0.11556 0.057,-0.22712 0.057,-0.22711 0.15448,-0.0827 c 0.085,-0.0455 0.69971,-0.16293 1.3661,-0.26101 l 1.2116,-0.17833 1.05834,0.0442 1.05833,0.0442 0.49144,0.14753 0.49144,0.14754 0.12239,0.23669 c 0.1681,0.32505 0.1597,0.36605 -0.14632,0.71459 l -0.26873,0.30606 -0.47211,-0.0364 c -0.25966,-0.02 -0.78521,-0.0878 -1.16788,-0.15062 l -0.69577,-0.11423 -0.0593,0.0593 -0.0593,0.0593 0.22717,2.5187 c 0.12495,1.38529 0.22719,2.65206 0.22721,2.81504 2e-5,0.16298 0.0296,0.34282 0.0657,0.39963 l 0.0656,0.1033 1.5629,-0.0788 c 0.8596,-0.0434 2.15345,-0.15638 2.87524,-0.25115 l 1.31233,-0.17231 1.04169,-3.2e-4 1.04168,-3.1e-4 -0.068,-2.4765 c -0.0374,-1.36208 -0.068,-2.83091 -0.068,-3.26409 v -0.78758 l -0.16933,0.0449 c -0.60821,0.16125 -1.06232,0.23453 -1.17807,0.19012 l -0.13426,-0.0515 v -0.16547 -0.16548 l 0.26298,-0.26299 c 0.3443,-0.3443 0.66663,-0.50546 1.38802,-0.69403 l 0.59266,-0.15491 1.42813,-0.10128 1.42813,-0.10129 0.37259,0.19766 0.37258,0.19765 0.0515,0.20532 0.0515,0.20533 -0.0956,0.20982 -0.0956,0.20982 -0.31731,0.14218 -0.31731,0.14217 -1.07712,0.002 -1.07711,0.002 0.0367,0.29633 c 0.0202,0.16299 0.0576,0.79164 0.0833,1.397 0.0738,1.74321 0.28945,6.18278 0.34546,7.112 0.0281,0.46567 0.10521,1.24383 0.17144,1.72924 l 0.12041,0.88257 -0.007,0.93776 c -0.004,0.51577 -0.0371,1.16636 -0.0737,1.44576 l -0.0666,0.508 0.0605,0.0672 0.0605,0.0672 0.56548,-0.0903 0.56548,-0.0903 0.18856,0.0988 c 0.1037,0.0543 0.31453,0.23617 0.46851,0.40411 l 0.27995,0.30532 -0.0433,0.28413 c -0.0238,0.15626 -0.10027,0.37114 -0.16996,0.47749 l -0.12671,0.19338 -0.74499,0.10768 -0.745,0.10767 -1.62747,0.007 -1.62747,0.007 -0.26709,-0.26636 -0.2671,-0.26635 -0.0104,-0.32064 -0.0104,-0.32063 0.27816,-0.18976 0.27816,-0.18976 0.53584,-0.0574 0.53584,-0.0574 0.0694,-0.77453 c 0.10686,-1.19228 0.0926,-2.58333 -0.0425,-4.1395 l -0.12304,-1.41764 -1.14696,0.0423 c -0.63083,0.0233 -1.52796,0.10069 -1.99363,0.17208 l -0.84667,0.12978 -1.92713,0.0512 -1.92714,0.0512 0.0466,0.64404 c 0.0256,0.35422 0.0599,1.29174 0.0761,2.08337 l 0.0295,1.43933 0.17826,0.71967 0.17826,0.71966 6e-4,0.62319 5.9e-4,0.62319 1.01809,-0.0612 1.01809,-0.0612 0.28354,0.19428 c 0.15594,0.10686 0.32759,0.26483 0.38144,0.35105 l 0.0979,0.15677 -0.10051,0.33546 -0.1005,0.33546 -0.30419,0.0845 c -0.38725,0.10757 -1.18751,0.094 -3.56386,-0.0604 z m -12.107332,-0.70764 c -0.34925,-0.0382 -0.9017,-0.10703 -1.227666,-0.15289 -0.718875,-0.10113 -1.687835,-0.22711 -2.709333,-0.35225 -0.4191,-0.0513 -0.880115,-0.12968 -1.024478,-0.17407 l -0.262477,-0.0807 -0.0981,-0.32742 -0.0981,-0.32743 0.05214,-0.13586 c 0.02867,-0.0747 0.07897,-0.13587 0.111779,-0.13587 0.0328,0 0.151313,-0.0854 0.263354,-0.18978 l 0.203711,-0.18979 0.926217,-0.0317 0.926216,-0.0317 -0.0551,-2.17035 -0.0551,-2.17034 0.124444,-0.80433 0.124444,-0.80434 0.09012,-2.159 c 0.04957,-1.18745 0.126436,-2.46087 0.170822,-2.82981 0.04439,-0.36895 0.07142,-0.67853 0.06007,-0.68795 -0.01135,-0.009 -0.823816,-0.0441 -1.805489,-0.0771 l -1.784862,-0.06 0.0061,1.30312 0.0061,1.30312 -0.142617,0.21766 -0.142618,0.21767 -0.23764,0.0321 c -0.130702,0.0177 -0.323984,0.0196 -0.429515,0.004 l -0.191876,-0.0279 -0.183474,-0.35377 -0.183474,-0.35376 -0.04954,-1.82033 -0.04954,-1.82034 0.07604,-0.18478 0.07604,-0.18477 0.221851,-0.0874 0.22185,-0.0874 2.54,0.024 c 1.397,0.0132 3.2639,-0.008 4.148666,-0.0467 0.884767,-0.0389 2.199134,-0.0684 2.920816,-0.0654 l 1.312148,0.005 0.381185,0.32236 0.381184,0.32237 0.02849,0.19265 c 0.01567,0.10596 -0.02998,0.34965 -0.101438,0.54154 l -0.129927,0.34889 -0.05198,1.31233 -0.05198,1.31234 -0.12652,0.35399 -0.126519,0.35399 -0.389335,0.083 -0.389335,0.083 -0.140758,-0.0879 c -0.07742,-0.0483 -0.233076,-0.22263 -0.345907,-0.3873 l -0.205149,-0.29939 0.01906,-0.6424 c 0.01048,-0.35332 0.04307,-0.94242 0.07243,-1.30911 l 0.05337,-0.66671 -1.046912,0.0518 c -0.575802,0.0285 -1.509787,0.0759 -2.075522,0.10534 l -1.028609,0.0536 -0.05089,0.25446 c -0.02799,0.13995 -0.05329,1.42126 -0.05622,2.84737 -0.0029,1.4261 -0.03762,2.91676 -0.07709,3.31258 l -0.07176,0.71967 0.04801,2.29846 0.04801,2.29847 0.304246,0.0485 c 0.167334,0.0267 0.946728,0.0748 1.731984,0.10689 l 1.42774,0.0584 0.233445,0.19644 c 0.128395,0.10803 0.281109,0.3115 0.339365,0.45214 l 0.105921,0.25571 -0.10121,0.24435 c -0.05566,0.13438 -0.217208,0.36298 -0.358984,0.508 l -0.257776,0.26365 -0.603787,-0.011 c -0.332083,-0.006 -0.889537,-0.0423 -1.238787,-0.0805 z M 56.610257,139.58359 c 0,-0.0233 0.01905,-0.0423 0.04233,-0.0423 0.02328,0 0.04233,0.019 0.04233,0.0423 0,0.0233 -0.01905,0.0423 -0.04233,0.0423 -0.02328,0 -0.04233,-0.0191 -0.04233,-0.0423 z m -1.524,-1.43933 c 0,-0.0233 0.01905,-0.0423 0.04233,-0.0423 0.02328,0 0.04233,0.019 0.04233,0.0423 0,0.0233 -0.01905,0.0423 -0.04233,0.0423 -0.02328,0 -0.04233,-0.019 -0.04233,-0.0423 z m 103.598583,-43.92501 -0.15045,-0.110008 0.0284,-0.249825 0.0284,-0.249825 1.52834,-0.762 c 0.84058,-0.4191 1.92643,-0.989093 2.413,-1.266652 0.48656,-0.277558 1.2966,-0.68895 1.80009,-0.914202 l 0.91542,-0.409551 0.16501,0.05237 c 0.17701,0.05618 0.41714,0.448968 0.41714,0.682334 v 0.142374 l -0.30142,0.284278 -0.30142,0.284278 -0.48175,0.13935 c -0.49908,0.144366 -1.85736,0.753495 -3.61441,1.620906 -0.96853,0.478141 -1.94761,0.866182 -2.18549,0.866182 -0.0608,0 -0.17818,-0.0495 -0.26092,-0.110009 z m -11.54896,-0.05999 c -0.45685,-0.09614 -1.16267,-0.114873 -1.51025,-0.04008 l -0.26561,0.05716 -0.20005,-0.125323 -0.20005,-0.125324 -0.69902,-0.05424 c -0.38446,-0.02983 -1.03157,-0.112235 -1.43802,-0.183114 l -0.73901,-0.128872 -0.19181,-0.180196 c -0.21223,-0.199385 -0.24508,-0.402209 -0.0902,-0.557079 l 0.1016,-0.1016 h 1.59174 1.59173 v -0.516215 -0.516215 l 0.33326,-1.494618 c 0.1833,-0.82204 0.45203,-2.047068 0.59718,-2.722285 0.14516,-0.675216 0.39061,-1.589616 0.54545,-2.032 0.15484,-0.442383 0.47666,-1.354253 0.71515,-2.026377 0.2385,-0.672125 0.43363,-1.25315 0.43363,-1.291167 0,-0.03802 -0.13248,-0.06912 -0.29439,-0.06912 h -0.29438 l -0.13087,-0.199737 -0.13087,-0.199736 0.0571,-0.148772 0.0571,-0.148772 0.43166,-0.200998 c 0.23742,-0.110548 0.47841,-0.20137 0.53555,-0.201825 0.0571,-4.54e-4 0.15892,-0.08655 0.2262,-0.191327 0.19152,-0.298255 1.95318,-5.671955 2.19968,-6.709833 0.12166,-0.512233 0.35372,-1.488838 0.51568,-2.170232 0.16196,-0.681395 0.38599,-1.49102 0.49784,-1.799167 l 0.20336,-0.560267 -0.26465,0.0015 c -0.14557,8.35e-4 -0.62661,0.0573 -1.06899,0.125481 -0.44239,0.06818 -0.94816,0.124646 -1.12393,0.125481 l -0.3196,0.0015 -0.0826,-0.217178 c -0.0454,-0.119449 -0.0826,-0.272409 -0.0826,-0.339912 v -0.122732 l 0.27019,-0.164312 0.27019,-0.164313 1.09859,-0.265697 c 1.63989,-0.396609 2.78852,-0.57648 4.31297,-0.675389 0.75445,-0.04895 1.43898,-0.109332 1.52117,-0.13418 l 0.14945,-0.04518 0.29505,0.182352 0.29505,0.182351 v 0.236511 c 0,0.130081 -0.0233,0.353148 -0.0518,0.495705 l -0.0518,0.259193 -0.35033,0.148831 -0.35033,0.14883 -1.30695,0.02757 c -0.71882,0.01516 -1.32067,0.04129 -1.33744,0.05806 -0.0168,0.01677 0.0465,0.178118 0.1405,0.358551 0.0941,0.180434 0.34257,0.937485 0.55228,1.682336 l 0.38128,1.354275 0.84977,1.693334 0.84977,1.693333 0.46566,1.439333 c 0.25611,0.791633 0.56618,1.695864 0.68904,2.009401 l 0.22339,0.570067 0.30468,0.05508 c 0.16758,0.03029 0.405,0.105809 0.5276,0.16781 l 0.22291,0.112728 0.0495,0.197387 c 0.0273,0.108563 0.0197,0.309918 -0.0167,0.447456 l -0.0663,0.250069 -0.22168,0.10773 -0.22168,0.10773 0.38226,0.865937 c 0.57887,1.311307 1.55419,3.358105 2.63157,5.522603 0.53311,1.071033 1.08144,2.227702 1.2185,2.570375 l 0.2492,0.623042 -0.0483,0.152303 c -0.0584,0.1839 -0.26784,0.276725 -0.42544,0.188527 -0.0633,-0.0354 -0.7934,-1.41849 -1.62256,-3.073543 -1.75455,-3.502208 -2.05427,-4.126505 -2.71896,-5.663518 l -0.49249,-1.138815 -0.37843,-0.09654 -0.37843,-0.09654 -1.81762,-0.07369 c -0.99969,-0.04053 -2.25578,-0.07097 -2.79129,-0.06764 l -0.97367,0.0061 -0.95021,0.148566 -0.95022,0.148566 -0.0756,0.0961 c -0.0416,0.05285 -0.23887,0.591397 -0.4384,1.196764 -0.19954,0.605367 -0.5468,1.5886 -0.7717,2.184964 l -0.4089,1.084298 -0.29867,1.413369 c -0.16427,0.777353 -0.43247,2.061069 -0.59599,2.852702 -0.16353,0.791633 -0.35372,1.547196 -0.42264,1.679028 -0.0689,0.131832 -0.12532,0.312807 -0.12532,0.402166 v 0.162472 h 0.79251 c 0.43589,0 0.96886,0.02417 1.18439,0.05371 l 0.39188,0.05371 0.31458,0.271932 0.31457,0.271933 -0.10274,0.342927 -0.10274,0.342927 -0.14039,0.05387 c -0.25618,0.0983 -1.08036,0.125395 -1.44977,0.04765 z m 3.58137,-13.947051 0.67733,-0.134334 2.159,-0.01744 2.159,-0.01744 0.39949,-0.08444 c 0.21972,-0.04644 0.42496,-0.06101 0.45609,-0.03237 0.0311,0.02864 0.0345,-0.0051 0.008,-0.07493 -0.027,-0.06985 -0.2443,-0.7366 -0.48293,-1.481667 -0.62808,-1.961054 -0.63354,-1.974672 -1.4522,-3.627444 l -0.74833,-1.510778 -0.25619,-0.859889 c -0.1409,-0.472939 -0.3138,-1.069438 -0.38422,-1.325555 -0.1384,-0.503338 -0.54511,-1.439333 -0.62543,-1.439333 -0.0609,0 -0.45617,1.131609 -0.6359,1.820333 -0.11551,0.442655 -0.83918,3.513619 -0.93772,3.979333 -0.0197,0.09313 -0.30568,0.988483 -0.63549,1.989667 -0.825,2.504354 -0.9277,2.831905 -0.9277,2.958718 v 0.110448 l 0.27516,-0.05927 c 0.15134,-0.0326 0.57997,-0.119724 0.9525,-0.193608 z m 24.12173,13.105382 -3.05627,-0.04667 -0.1399,-0.116201 c -0.0769,-0.06391 -0.13989,-0.169502 -0.13989,-0.234648 v -0.118448 l 0.1905,-0.07824 c 0.10477,-0.04303 1.0287,-0.141753 2.05316,-0.219376 1.02447,-0.07762 1.87236,-0.149713 1.8842,-0.160199 0.0119,-0.01049 -0.0392,-0.140871 -0.11349,-0.289745 l -0.13504,-0.270679 0.0472,-0.483898 c 0.026,-0.266144 0.0845,-1.417347 0.13015,-2.558231 0.0456,-1.140883 0.12186,-2.569633 0.16941,-3.175 0.14248,-1.813849 0.17335,-2.542644 0.18291,-4.317999 l 0.009,-1.693334 -0.20286,-0.07403 -0.20287,-0.07403 -0.50335,-0.724952 c -0.27685,-0.398723 -0.61766,-0.867452 -0.75736,-1.04162 -0.1397,-0.174168 -0.39706,-0.520067 -0.57192,-0.768665 -0.17485,-0.248597 -0.40383,-0.546652 -0.50884,-0.662344 -0.63042,-0.694576 -1.11268,-1.312472 -1.51884,-1.946016 -0.25375,-0.395817 -0.73816,-1.043517 -1.07646,-1.439333 -0.3383,-0.395817 -0.90688,-1.060775 -1.26351,-1.477685 -0.35664,-0.41691 -0.89608,-1.018423 -1.19876,-1.336696 l -0.55033,-0.578679 -1.86267,-0.075 c -1.02447,-0.04125 -1.92789,-0.100479 -2.00761,-0.131625 -0.0797,-0.03114 -0.16943,-0.133786 -0.19936,-0.228091 l -0.0544,-0.171462 0.16954,-0.169543 0.16954,-0.169543 1.51149,-0.0697 c 0.83132,-0.03833 2.04218,-0.07186 2.69081,-0.07451 l 1.17932,-0.0048 0.27092,-0.09797 0.27092,-0.09797 0.35064,0.140298 c 0.19285,0.07716 0.49274,0.140441 0.66642,0.140615 l 0.31579,3.16e-4 -0.29633,0.177289 c -0.16299,0.09751 -0.43771,0.313182 -0.6105,0.479274 l -0.31416,0.301986 -0.47143,0.03909 -0.47142,0.03909 0.82792,0.85577 c 0.45536,0.470674 0.8565,0.846865 0.89142,0.835982 0.0349,-0.01088 0.054,0.01049 0.0423,0.04749 -0.0116,0.037 0.32925,0.428572 0.75753,0.870158 0.42828,0.441587 1.03581,1.144739 1.35005,1.56256 0.31425,0.417821 0.87824,1.104736 1.25331,1.526477 0.6817,0.766524 1.58684,1.902426 1.82339,2.288257 0.069,0.112534 0.14971,0.204608 0.17938,0.204608 0.0485,0 1.37328,-2.762239 1.98969,-4.148667 0.43542,-0.979339 1.14306,-2.311311 1.60807,-3.026833 0.24967,-0.384175 0.43304,-0.6985 0.40747,-0.6985 -0.0256,0 0.0204,-0.06667 0.10215,-0.148167 0.14223,-0.141781 0.96413,-1.800519 0.96413,-1.945785 v -0.07 l -1.60335,0.18225 c -0.88184,0.100237 -1.70215,0.163363 -1.8229,0.14028 l -0.21955,-0.04197 -0.0855,-0.159773 -0.0855,-0.159773 0.20454,-0.07777 c 0.39651,-0.15075 0.87205,-0.252549 1.98244,-0.424371 0.61701,-0.09548 1.6076,-0.249028 2.20133,-0.341226 0.59372,-0.0922 1.35405,-0.192764 1.68961,-0.223479 l 0.61012,-0.05585 0.25879,0.107197 0.2588,0.107197 0.0534,0.212619 0.0534,0.212618 -0.20261,0.155781 -0.20261,0.155781 -0.762,0.003 c -0.4191,0.0017 -0.84772,0.02601 -0.9525,0.05409 l -0.1905,0.05105 v 0.126188 c 0,0.215558 -1.11603,2.489639 -1.5281,3.113729 -0.58898,0.892014 -0.92944,1.538767 -1.71595,3.259666 -0.39373,0.861483 -0.95837,2.063156 -1.25474,2.670384 -0.75477,1.546391 -0.96565,2.016667 -0.93967,2.09549 0.0124,0.0376 0.0237,2.781137 0.0251,6.096746 l 0.003,6.028379 -0.0882,0.508 c -0.0485,0.2794 -0.0884,0.533854 -0.0886,0.565452 -2.7e-4,0.0316 -0.065,0.12197 -0.14386,0.200824 l -0.14337,0.14337 0.96887,-0.0581 c 0.53288,-0.03196 1.19289,-0.09633 1.4667,-0.143042 l 0.49782,-0.08494 0.25072,0.103851 0.25072,0.103851 0.0594,0.160587 c 0.0327,0.08832 0.0438,0.294459 0.0247,0.45808 l -0.0347,0.297492 -0.18055,0.0666 c -0.31479,0.116114 -1.69946,0.143351 -4.84549,0.09531 z m -50.77056,-0.13061 -0.23283,-0.133133 v -0.31978 -0.319781 l 0.10583,-0.130109 0.10583,-0.13011 0.65142,-0.187839 c 0.35827,-0.103311 1.23457,-0.309509 1.94733,-0.458219 l 1.29592,-0.27038 -0.003,-0.59202 c -0.002,-0.325611 -0.10633,-1.461198 -0.23284,-2.523527 l -0.23001,-1.931507 -6.7e-4,-1.285826 c -3.7e-4,-0.707205 -0.0772,-2.466927 -0.17084,-3.910493 -0.34643,-5.343175 -0.50187,-7.998847 -0.55806,-9.534259 l -0.0577,-1.575593 -0.22022,-0.07971 -0.22021,-0.07972 -0.36836,0.108656 c -0.2026,0.05976 -0.61675,0.134106 -0.92035,0.165211 l -0.552,0.05655 0.1906,0.102005 0.19059,0.102005 -0.41204,0.04644 -0.41204,0.04644 -0.23315,-0.120566 c -0.12823,-0.06631 -0.26212,-0.124915 -0.29753,-0.130231 -0.10864,-0.01631 -0.25138,-0.269256 -0.31378,-0.556043 l -0.0594,-0.272806 0.20729,-0.207289 0.20729,-0.207289 0.62442,-0.178857 c 0.61446,-0.176004 1.93266,-0.630981 3.06243,-1.056998 0.67286,-0.253723 0.89818,-0.262271 1.41297,-0.0536 l 0.37965,0.153891 0.0473,0.201211 0.0473,0.201212 0.76956,0.05949 0.76956,0.05949 0.83548,0.209919 c 0.45951,0.115456 1.08313,0.254699 1.38581,0.309429 0.30269,0.05473 0.58844,0.106962 0.635,0.116069 0.69294,0.135517 2.15651,0.823486 3.175,1.492445 l 0.80434,0.528299 0.64449,0.644426 0.6445,0.644426 0.22281,0.440645 c 0.12254,0.242355 0.4611,1.061505 0.75235,1.820333 l 0.52953,1.379688 -0.0123,1.3573 -0.0123,1.357299 -0.14133,1.182701 c -0.15774,1.320027 -0.25514,1.802474 -0.73445,3.638033 -0.4108,1.573207 -0.58706,2.070977 -1.09423,3.090333 -0.7758,1.55926 -2.31057,3.607287 -3.16085,4.217911 -0.76311,0.548028 -2.4109,1.156202 -3.842,1.418025 l -0.76219,0.139444 -0.0924,0.202838 c -0.0508,0.111561 -0.20786,0.27304 -0.34895,0.358843 l -0.25653,0.156005 -1.16337,0.05787 c -0.63985,0.03183 -1.33481,0.09338 -1.54436,0.136778 -0.20955,0.0434 -0.9144,0.101016 -1.56633,0.12803 l -1.18534,0.04912 z m 6.73445,-2.423371 c 1.58075,-0.322262 2.73752,-0.780009 3.33695,-1.320467 1.08232,-0.975858 2.58849,-3.342837 3.11002,-4.887482 0.26742,-0.792052 0.89929,-3.439392 1.02721,-4.303758 l 0.12822,-0.866313 0.043,-1.656843 0.043,-1.656843 -0.22637,-0.54449 c -0.1245,-0.29947 -0.27586,-0.65879 -0.33636,-0.79849 -0.0605,-0.1397 -0.13827,-0.367375 -0.17283,-0.505944 -0.11802,-0.473171 -0.5279,-1.271634 -0.81075,-1.579382 -0.15536,-0.169029 -0.46669,-0.4455 -0.69184,-0.61438 l -0.40937,-0.307054 -0.0986,0.05645 -0.0986,0.05645 0.0645,-0.07107 0.0646,-0.07107 -0.53022,-0.306757 c -0.77236,-0.446842 -1.5431,-0.732877 -2.48935,-0.923838 -0.45918,-0.09267 -1.23493,-0.265919 -1.72388,-0.385003 l -0.889,-0.216515 -1.19031,-1.1e-4 -1.19032,-1.09e-4 -0.14899,0.108945 -0.14899,0.108945 0.0928,1.055221 c 0.051,0.580372 0.22619,2.598272 0.38922,4.484222 0.16303,1.88595 0.39012,4.381499 0.50464,5.545666 0.11453,1.164167 0.24659,2.916766 0.29348,3.894666 l 0.0853,1.778 0.22397,1.566334 c 0.12319,0.861483 0.24099,1.805565 0.26178,2.09796 l 0.0378,0.531628 0.31016,-0.04979 c 0.17059,-0.02738 0.6832,-0.125834 1.13912,-0.218781 z m 3.53138,-1.72602 c 0,-0.02328 0.019,-0.04233 0.0423,-0.04233 0.0233,0 0.0423,0.01905 0.0423,0.04233 0,0.02328 -0.0191,0.04233 -0.0423,0.04233 -0.0233,0 -0.0423,-0.01905 -0.0423,-0.04233 z m -40.189673,3.327358 c -0.263396,-0.339469 -0.191407,-0.673912 0.348962,-1.621174 l 0.379056,-0.664482 -0.133241,-0.203351 c -0.07328,-0.111844 -0.158675,-0.203351 -0.189761,-0.203351 -0.03109,0 -0.781803,-0.714375 -1.668261,-1.5875 l -1.611742,-1.5875 -0.756168,-1.013146 -0.756167,-1.013145 -0.931333,-0.938761 c -0.512233,-0.516318 -1.140883,-1.078166 -1.397,-1.24855 l -0.465667,-0.309789 -0.02683,0.302502 c -0.01476,0.166376 0.03287,0.962133 0.105833,1.768349 l 0.132666,1.465848 v 1.82114 1.821141 l 0.148167,0.04352 c 0.08149,0.02394 0.300566,0.06781 0.486833,0.0975 0.186267,0.02969 0.462754,0.09191 0.614416,0.138272 l 0.275749,0.0843 0.261357,0.37987 0.261358,0.379871 -0.100917,0.243635 -0.100916,0.243634 -0.331464,0.163995 -0.331464,0.163995 -0.866726,-0.20264 C 86.0994,90.563707 84.117785,90.010883 83.853731,89.874335 l -0.243545,-0.125942 -0.06766,-0.182909 c -0.09313,-0.251766 -0.02111,-0.472186 0.192808,-0.590073 l 0.179924,-0.09915 0.796208,0.0062 0.796208,0.0062 -0.05226,-1.87288 c -0.02874,-1.030084 -0.09633,-2.36818 -0.1502,-2.973547 l -0.09794,-1.100666 0.04823,-4.233333 0.04823,-4.233333 0.09759,-1.27 c 0.05367,-0.6985 0.103217,-1.5367 0.110098,-1.862667 l 0.01251,-0.592666 -0.719667,-0.06443 c -0.395816,-0.03544 -0.921192,-0.122664 -1.167501,-0.193834 l -0.447834,-0.129401 -0.171515,-0.171515 -0.171514,-0.171515 0.05616,-0.26965 c 0.03089,-0.148308 0.110448,-0.355376 0.176801,-0.460151 l 0.12064,-0.1905 h 2.117435 2.117434 l 0.279028,0.116585 0.279028,0.116586 0.10997,0.265491 0.109971,0.265492 0.179782,0.03579 c 0.09888,0.01968 0.369985,0.05784 0.602455,0.08478 0.720822,0.08355 1.505669,0.307248 1.959677,0.558556 l 0.435017,0.240796 0.05887,-0.05887 0.05887,-0.05887 -0.02156,0.08467 c -0.01186,0.04657 0.242906,0.351366 0.566143,0.677333 0.791781,0.798469 1.41194,1.638723 1.812188,2.455333 l 0.331984,0.677333 0.188945,0.762 0.188946,0.762 0.0048,1.185334 0.0048,1.185333 -0.186981,0.592666 c -0.10284,0.325967 -0.296512,0.764948 -0.430383,0.975513 l -0.243401,0.382846 -0.50957,0.271598 -0.50957,0.271598 -0.775836,0.207627 c -0.42671,0.114195 -1.13468,0.254575 -1.573265,0.311956 l -0.797429,0.104329 0.346632,0.363703 0.346631,0.363704 0.09225,-0.05251 0.09225,-0.05251 -0.05883,0.06535 -0.05883,0.06535 0.736161,0.91072 c 0.404888,0.500896 0.964761,1.20697 1.244161,1.569053 l 0.508,0.658333 1.505974,1.448341 c 0.828286,0.796588 1.535261,1.458574 1.571055,1.471082 0.03579,0.01251 0.317171,-0.349443 0.625281,-0.804334 0.308111,-0.45489 0.675548,-0.937144 0.816528,-1.071674 l 0.256327,-0.244602 0.279417,0.04667 c 0.15368,0.02567 0.383129,0.08677 0.509886,0.135773 l 0.230469,0.0891 0.0558,0.222331 0.0558,0.222332 -0.09959,0.3324 c -0.05478,0.18282 -0.205473,0.455593 -0.334886,0.606163 -0.431665,0.502235 -1.619732,2.197376 -1.619732,2.311043 0,0.06167 -0.07425,0.164124 -0.164997,0.227686 -0.09075,0.06356 -0.481274,0.532449 -0.867833,1.041968 l -0.702837,0.926399 -0.345987,0.02536 -0.345988,0.02536 z m -5.318655,-12.68329 1.608666,-0.07767 0.654277,-0.169547 c 1.131939,-0.293328 1.336924,-0.459243 1.539908,-1.246405 l 0.134149,-0.520221 -0.0013,-0.792113 -0.0013,-0.792112 -0.127866,-0.542453 c -0.272156,-1.155 -1.359426,-2.64835 -2.49866,-3.432005 l -0.417784,-0.287384 -0.572045,-0.127957 c -0.314625,-0.07038 -0.918682,-0.154148 -1.342349,-0.186159 l -0.770304,-0.0582 -0.06086,0.158081 c -0.03347,0.08695 -0.0834,1.958306 -0.110955,4.158581 l -0.05009,4.0005 0.203926,-0.0036 c 0.112159,-0.002 0.927825,-0.03858 1.812592,-0.0813 z m 14.951778,11.883617 -0.1989,-0.139314 0.0427,-0.813186 0.0427,-0.813185 0.27403,-1.058334 c 0.15071,-0.582083 0.28189,-1.115483 0.29151,-1.185333 0.01,-0.06985 0.0425,-0.18415 0.0732,-0.254 0.0306,-0.06985 0.19181,-0.56515 0.35817,-1.100667 0.16637,-0.535516 0.35817,-1.058786 0.42624,-1.162822 l 0.12374,-0.189156 0.22488,-0.05644 0.22488,-0.05644 0.15505,0.191476 c 0.18802,0.232196 0.19159,0.390227 0.0281,1.24477 -0.0699,0.364988 -0.12684,0.701714 -0.12666,0.748281 l 3.3e-4,0.08467 1.16051,0.02176 1.1605,0.02176 0.78557,0.12641 c 1.50317,0.241884 3.46995,0.112541 5.19006,-0.341315 0.28645,-0.07558 0.88299,-0.309364 1.19312,-0.467576 l 0.33069,-0.16871 0.20804,-0.315827 c 0.26057,-0.395569 0.45991,-1.142921 0.52462,-1.966827 l 0.0499,-0.635 -0.12943,-0.677334 c -0.0712,-0.372533 -0.21032,-0.892323 -0.30919,-1.15509 l -0.17976,-0.477756 -0.40999,-0.538243 c -0.79959,-1.049698 -2.25618,-2.318019 -3.43098,-2.98751 l -0.66845,-0.380932 -1.3048,-0.42258 -1.3048,-0.422579 -0.52435,-0.293238 c -0.2884,-0.16128 -0.70331,-0.450756 -0.92203,-0.643278 l -0.39767,-0.35004 -0.25792,-0.52471 -0.25792,-0.52471 -0.26091,-1.016 -0.26091,-1.016 -0.0435,-0.931333 -0.0435,-0.931333 0.13507,-0.573306 c 0.23879,-1.013588 0.63624,-1.618598 1.59649,-2.430273 l 0.57082,-0.482502 0.53338,-0.260063 c 0.29335,-0.143034 0.7719,-0.30699 1.06343,-0.364345 l 0.53006,-0.104283 0.60941,0.05105 0.60941,0.05106 0.65939,0.214831 c 0.36266,0.118157 0.69604,0.214831 0.74083,0.214831 h 0.0814 l 0.001,-0.783167 0.001,-0.783166 0.1066,-0.211667 0.10661,-0.211667 0.39528,-0.02561 0.39529,-0.02561 0.13942,0.21278 0.13942,0.21278 0.11159,0.87116 c 0.0614,0.479139 0.13817,1.334125 0.17063,1.899971 l 0.059,1.02881 -0.0591,0.349961 -0.0591,0.349962 -0.21126,0.251062 -0.21125,0.251061 -0.14064,-4.72e-4 c -0.0773,-2.6e-4 -0.28008,-0.0392 -0.45051,-0.08654 l -0.30987,-0.08607 -0.0923,-0.264761 -0.0923,-0.264761 v -1.075882 -1.075881 l -0.23283,0.0052 c -0.12806,0.0028 -0.64094,-0.04773 -1.13973,-0.11237 l -0.9069,-0.117535 -0.50635,0.09417 -0.50635,0.09417 -0.56793,0.28122 -0.56793,0.281219 -0.53758,0.518233 -0.53758,0.518233 -0.16608,0.375465 c -0.0914,0.206506 -0.20993,0.658052 -0.26352,1.003435 l -0.0974,0.627971 0.0547,0.465281 c 0.0674,0.573691 0.33482,1.635797 0.57022,2.264962 l 0.17644,0.471573 0.2913,0.322445 c 0.47094,0.521274 1.19473,0.882432 2.35524,1.175222 1.54353,0.389424 3.31622,1.256318 4.1275,2.018463 0.12806,0.120302 0.23283,0.192509 0.23283,0.16046 0,-0.03205 0.1446,0.08465 0.32133,0.259326 0.17673,0.174679 0.60058,0.584297 0.9419,0.910264 1.03256,0.986134 1.58426,1.93676 1.96544,3.386666 l 0.20033,0.762 v 1.143 1.143 l -0.20323,0.620401 -0.20322,0.620402 -0.31571,0.488455 c -0.17364,0.26865 -0.48223,0.651628 -0.68577,0.851062 l -0.37007,0.362607 -0.67733,0.319721 c -0.80643,0.380659 -1.57559,0.613964 -2.667,0.808972 l -0.80433,0.143714 -1.35467,-0.0024 -1.35467,-0.0024 -0.762,-0.134091 c -0.4191,-0.07375 -1.12395,-0.177285 -1.56633,-0.230077 -0.44238,-0.05279 -0.98531,-0.164645 -1.2065,-0.248564 -0.22119,-0.08392 -0.40217,-0.14296 -0.40217,-0.131205 0,0.01176 -0.0916,0.436721 -0.20353,0.944366 -0.11194,0.507646 -0.23167,1.150433 -0.26607,1.428416 l -0.0625,0.505425 -0.23541,0.235409 -0.23541,0.235408 h -0.19934 c -0.10964,0 -0.28885,-0.06269 -0.39824,-0.139314 z m -44.648938,0.0049 c -0.01205,-0.01205 -0.419295,-0.06564 -0.904987,-0.119083 l -0.883076,-0.09717 -0.232852,-0.120413 c -0.311546,-0.161106 -0.354855,-0.24962 -0.290359,-0.593417 l 0.05468,-0.291481 0.192386,-0.126055 0.192385,-0.126056 0.510937,-0.0534 0.510938,-0.0534 0.05519,-2.6774 c 0.04782,-2.319821 0.07424,-4.47744 0.05893,-4.811397 l -0.0047,-0.101996 -0.3175,-0.05194 c -0.174625,-0.02857 -0.56515,-0.10403 -0.867833,-0.167693 -0.594063,-0.12495 -2.344586,-0.25603 -4.572,-0.342353 -0.76835,-0.02978 -1.525032,-0.06994 -1.681515,-0.08926 l -0.284516,-0.03512 0.04606,0.191178 c 0.04492,0.186441 0.132719,1.376729 0.310756,4.212845 0.04823,0.76835 0.08714,1.880379 0.08646,2.471177 l -0.0012,1.074176 0.3175,-0.04535 c 0.174625,-0.02494 0.434116,-0.07464 0.576647,-0.110429 0.142531,-0.03579 0.385246,-0.05516 0.539367,-0.04304 l 0.280221,0.02204 0.211568,0.211568 0.211568,0.211568 -0.122188,0.368974 -0.122187,0.368973 -0.211434,0.103193 c -0.234009,0.114212 -2.245531,0.371245 -2.496252,0.318972 -0.08716,-0.01817 -0.380164,-0.0505 -0.651115,-0.07185 l -0.492639,-0.03881 0.153972,0.11672 0.153972,0.116719 -0.110038,0.0027 c -0.06052,0.0015 -0.212921,-0.04999 -0.338666,-0.11438 -0.125746,-0.06439 -0.429035,-0.144218 -0.673975,-0.177395 l -0.445345,-0.06032 -0.116796,-0.166749 -0.116796,-0.166749 0.04533,-0.173339 0.04533,-0.173338 0.262813,-0.109003 c 0.144546,-0.05995 0.567612,-0.136877 0.940145,-0.170944 0.372533,-0.03407 0.696383,-0.09129 0.719667,-0.127161 0.07893,-0.121603 -0.07611,-5.107293 -0.228971,-7.36326 L 49.286615,80.14756 v -4.626152 -4.626153 l -1.066179,-0.03321 -1.066178,-0.03322 -0.224988,-0.147418 -0.224988,-0.147418 V 70.19926 69.864497 l 0.199748,-0.13088 c 0.109862,-0.07198 0.462287,-0.189726 0.783167,-0.261648 l 0.583418,-0.130767 2.328333,-0.04161 2.328333,-0.04161 0.203402,0.110805 c 0.111872,0.06094 0.311143,0.244516 0.442825,0.407942 l 0.239423,0.297136 -0.09267,0.301951 c -0.05097,0.166073 -0.162606,0.394312 -0.248082,0.507197 L 53.316743,71.08826 52.36,71.081537 c -0.526209,-0.0037 -1.210614,-0.03299 -1.520901,-0.06511 l -0.564159,-0.05838 0.03813,1.843105 c 0.05302,2.562585 0.194834,6.697872 0.25875,7.544902 l 0.05331,0.706463 0.219731,-0.0437 c 0.120852,-0.02403 1.429134,-0.09166 2.907294,-0.150276 l 2.687563,-0.10658 0.892489,0.103744 c 0.490869,0.05706 0.941062,0.122384 1.000429,0.145165 l 0.107941,0.04142 0.118194,-4.257352 c 0.06501,-2.341543 0.11991,-4.539623 0.122007,-4.884622 l 0.0038,-0.627271 -0.537233,-0.109891 c -0.295479,-0.06044 -0.590754,-0.154308 -0.656167,-0.208596 l -0.118933,-0.0987 v -0.233362 -0.233361 l 0.232833,-0.08861 c 0.284497,-0.108273 1.508003,-0.246162 2.815167,-0.317269 l 0.973666,-0.05297 0.234115,0.09054 c 0.128763,0.0498 0.348034,0.20708 0.487268,0.349515 l 0.253153,0.258972 -0.123107,0.238063 c -0.06771,0.130935 -0.226861,0.306046 -0.353672,0.389135 l -0.230565,0.151072 -0.959096,-0.01406 -0.959096,-0.01406 v 2.679707 c 0,1.473838 0.03702,4.456317 0.08227,6.62773 0.04525,2.171413 0.09859,5.098018 0.118529,6.503567 0.01994,1.40555 0.06176,2.596804 0.09292,2.647231 l 0.05667,0.09169 0.553541,-0.02257 0.553542,-0.02256 0.252725,0.308837 0.252726,0.308836 -0.169208,0.382523 -0.169208,0.382522 -0.198419,0.125361 -0.19842,0.12536 -0.909958,0.03721 c -0.500477,0.02047 -0.919819,0.02735 -0.93187,0.0153 z M 36.544258,90.555658 c -0.582083,-0.05966 -1.496483,-0.112174 -2.032,-0.116692 -0.535516,-0.0045 -1.439141,-0.04442 -2.008055,-0.08866 l -1.034388,-0.08045 -0.310217,-0.129617 -0.310216,-0.129616 0.04694,-0.349996 c 0.02582,-0.192497 0.09749,-0.40041 0.159272,-0.462028 l 0.112327,-0.112032 1.184746,-0.09445 c 0.65161,-0.05195 1.19467,-0.104378 1.2068,-0.116508 0.05883,-0.05883 -0.170256,-2.232008 -0.35578,-3.375107 -0.252137,-1.55353 -0.516839,-4.12557 -0.638028,-6.199569 -0.149485,-2.558239 -0.420028,-4.963681 -0.722844,-6.426923 l -0.121049,-0.584923 0.05303,-0.211301 0.05303,-0.2113 -1.176622,0.05309 -1.176622,0.05309 -1.693333,0.284621 -1.693334,0.284621 -0.04233,1.347515 -0.04233,1.347516 -0.1262,0.1905 c -0.169484,0.255837 -0.20523,0.243397 -0.373621,-0.130028 l -0.144538,-0.320528 0.02585,-1.203609 0.02585,-1.203609 -0.103881,1.37e-4 c -0.05713,7.5e-5 -0.16507,-0.09325 -0.239855,-0.207384 l -0.135973,-0.207521 0.0534,-0.168248 0.0534,-0.168248 0.271121,-0.08747 c 0.749757,-0.241886 4.138796,-1.031668 4.942025,-1.15169 l 0.917096,-0.137037 3.196837,0.100587 3.196837,0.100588 1.664218,-0.04116 c 0.915321,-0.02264 1.727343,-0.02465 1.804495,-0.0045 l 0.140275,0.03668 0.02099,1.935601 0.02099,1.935602 -0.175156,0.175157 c -0.235452,0.235452 -0.395514,0.220502 -0.575372,-0.05374 l -0.150118,-0.228895 -0.02945,-1.175206 -0.02945,-1.175205 -0.224553,0.06058 c -0.608401,0.16412 -1.004583,0.200485 -2.21422,0.203244 -0.721783,0.0016 -1.636183,-0.03229 -2.032,-0.07542 -0.395817,-0.04313 -1.135029,-0.10491 -1.642695,-0.137295 l -0.923028,-0.05888 0.05044,0.286156 c 0.494327,2.804214 0.639352,3.948878 0.862231,6.80549 0.15964,2.046088 0.402136,4.123445 0.685072,5.868722 0.115621,0.713197 0.254704,1.880336 0.309075,2.593643 l 0.09886,1.296922 1.274856,0.03984 1.274856,0.03984 0.236928,0.09647 0.236929,0.09647 0.122905,0.294153 c 0.0676,0.161784 0.122337,0.343001 0.121645,0.402705 -0.0019,0.165258 -0.526611,0.725484 -0.718407,0.767058 -0.09313,0.02019 -0.645584,-0.01211 -1.227667,-0.07177 z m 35.497598,-0.290935 c -0.656131,-0.181692 -1.70402,-0.580224 -2.209918,-0.840474 -0.660515,-0.33979 -0.961407,-0.846347 -1.312912,-2.210311 -0.113536,-0.440557 -0.361441,-1.315362 -0.550902,-1.944012 -0.45686,-1.51591 -0.688477,-2.702021 -0.768794,-3.937 l -0.06607,-1.016 0.07225,-1.608666 c 0.07285,-1.621973 0.262785,-4.13212 0.413225,-5.461 0.04481,-0.395817 0.08178,-0.781615 0.08217,-0.85733 l 6.95e-4,-0.137663 -0.766725,-0.148925 -0.766725,-0.148924 -0.177372,-0.143628 -0.177373,-0.143627 0.05746,-0.228946 0.05746,-0.228946 0.230469,-0.0897 0.230468,-0.0897 0.931334,0.03936 0.931333,0.03936 0.919395,0.223071 c 0.505667,0.122688 1.042147,0.28132 1.192178,0.352514 l 0.272783,0.129445 0.14622,0.306625 0.146219,0.306625 -0.110731,0.07155 c -0.0609,0.03935 -0.263131,0.113972 -0.449397,0.165826 l -0.338667,0.09428 -0.509044,-0.0469 c -0.279973,-0.0258 -0.575248,-0.07231 -0.656166,-0.103359 l -0.147123,-0.05646 8.89e-4,0.538225 c 4.89e-4,0.296024 -0.04322,1.914427 -0.09713,3.596451 l -0.09802,3.058227 0.09818,1.139205 0.09818,1.139206 0.249143,1.009568 c 0.137028,0.555262 0.327266,1.228291 0.42275,1.49562 0.09548,0.267329 0.3232,0.997625 0.506034,1.622879 0.182835,0.625255 0.394297,1.256469 0.469915,1.402698 l 0.137488,0.265872 0.524449,0.241042 c 0.66211,0.304312 1.361507,0.511123 1.728523,0.511123 h 0.284339 l 0.319903,-0.163202 c 0.175946,-0.08976 0.45782,-0.315861 0.626387,-0.502444 l 0.306485,-0.339242 0.166287,-0.577056 c 0.173083,-0.600635 0.286141,-1.207441 0.438785,-2.355056 0.04955,-0.372533 0.202017,-1.305983 0.338814,-2.074333 0.136797,-0.76835 0.329779,-2.06375 0.428849,-2.878667 l 0.180128,-1.481666 0.04251,-2.973391 0.04251,-2.973391 -0.720007,-0.03779 -0.720006,-0.03779 -0.220693,-0.144604 -0.220693,-0.144603 0.0013,-0.146215 c 7.13e-4,-0.08042 0.03437,-0.198419 0.07479,-0.262225 l 0.07349,-0.11601 1.555047,-0.333094 c 0.855276,-0.183201 1.726497,-0.360962 1.936047,-0.395024 l 0.381,-0.06193 0.465666,0.06944 0.465667,0.06944 0.105833,0.14028 c 0.130516,0.172995 0.134631,0.423371 0.01271,0.773124 l -0.09313,0.267144 -0.182039,0.04515 c -0.100122,0.02483 -0.425256,0.07223 -0.72252,0.105323 l -0.54048,0.06017 -0.02299,3.132667 -0.02299,3.132666 -0.215835,1.820333 c -0.118709,1.001184 -0.294064,2.224304 -0.389677,2.718045 -0.09561,0.493741 -0.26956,1.55636 -0.386546,2.361376 -0.350768,2.41372 -0.584294,3.206311 -1.12672,3.8241 -0.145248,0.165428 -0.245903,0.32531 -0.22368,0.355295 0.02222,0.02998 0.01607,0.03653 -0.01368,0.01454 -0.02975,-0.02199 -0.168773,0.05653 -0.30895,0.174483 -0.140176,0.117951 -0.485189,0.330722 -0.766694,0.472826 l -0.511828,0.25837 -0.470389,0.03272 -0.470389,0.03272 z m 20.297732,-2.158464 c 0,-0.02328 0.01905,-0.04233 0.04233,-0.04233 0.02328,0 0.04233,0.01905 0.04233,0.04233 0,0.02328 -0.01905,0.04233 -0.04233,0.04233 -0.02328,0 -0.04233,-0.01905 -0.04233,-0.04233 z M 74.051589,87.640593 c 0,-0.06209 0.0254,-0.08749 0.05644,-0.05644 0.03104,0.03105 0.03104,0.08185 0,0.112889 -0.03105,0.03105 -0.05644,0.0056 -0.05644,-0.05644 z m 19.388666,-1.862667 c 0,-0.06209 0.0254,-0.08749 0.05644,-0.05644 0.03104,0.03104 0.03104,0.08184 0,0.112889 -0.03104,0.03104 -0.05644,0.0056 -0.05644,-0.05645 z m 84.581995,-9.270999 c 0,-0.02328 0.019,-0.04233 0.0423,-0.04233 0.0233,0 0.0423,0.01905 0.0423,0.04233 0,0.02328 -0.019,0.04233 -0.0423,0.04233 -0.0233,0 -0.0423,-0.01905 -0.0423,-0.04233 z M 156.00892,75.40626 c 0,-0.02328 0.0191,-0.04233 0.0423,-0.04233 0.0233,0 0.0423,0.01905 0.0423,0.04233 0,0.02328 -0.019,0.04233 -0.0423,0.04233 -0.0233,0 -0.0423,-0.01905 -0.0423,-0.04233 z m 23.368,-1.693333 c 0,-0.02328 0.019,-0.04233 0.0423,-0.04233 0.0233,0 0.0423,0.01905 0.0423,0.04233 0,0.02328 -0.019,0.04233 -0.0423,0.04233 -0.0233,0 -0.0423,-0.01905 -0.0423,-0.04233 z m 0.16933,-0.254 c 0,-0.02328 0.0191,-0.04233 0.0423,-0.04233 0.0233,0 0.0423,0.01905 0.0423,0.04233 0,0.02328 -0.019,0.04233 -0.0423,0.04233 -0.0233,0 -0.0423,-0.01905 -0.0423,-0.04233 z m -7.53533,-0.931334 c 0,-0.02328 0.019,-0.04233 0.0423,-0.04233 0.0233,0 0.0423,0.01905 0.0423,0.04233 0,0.02328 -0.0191,0.04233 -0.0423,0.04233 -0.0233,0 -0.0423,-0.01905 -0.0423,-0.04233 z m 8.128,-0.08467 c 0,-0.02328 0.019,-0.04233 0.0423,-0.04233 0.0233,0 0.0423,0.01905 0.0423,0.04233 0,0.02328 -0.019,0.04233 -0.0423,0.04233 -0.0233,0 -0.0423,-0.01905 -0.0423,-0.04233 z m -0.0847,-0.169334 c 0,-0.02328 0.019,-0.04233 0.0423,-0.04233 0.0233,0 0.0423,0.01905 0.0423,0.04233 0,0.02328 -0.0191,0.04233 -0.0423,0.04233 -0.0233,0 -0.0423,-0.01905 -0.0423,-0.04233 z m -9.652,-1.269999 c 0,-0.02328 0.019,-0.04233 0.0423,-0.04233 0.0233,0 0.0423,0.01905 0.0423,0.04233 0,0.02328 -0.019,0.04233 -0.0423,0.04233 -0.0233,0 -0.0423,-0.01905 -0.0423,-0.04233 z m -46.65133,-0.592667 c 0,-0.02328 0.0191,-0.04233 0.0423,-0.04233 0.0233,0 0.0423,0.01905 0.0423,0.04233 0,0.02328 -0.019,0.04233 -0.0423,0.04233 -0.0233,0 -0.0423,-0.01905 -0.0423,-0.04233 z m 29.972,-0.508 c 0,-0.02328 0.0191,-0.04233 0.0423,-0.04233 0.0233,0 0.0423,0.01905 0.0423,0.04233 0,0.02328 -0.019,0.04233 -0.0423,0.04233 -0.0233,0 -0.0423,-0.01905 -0.0423,-0.04233 z m 28.02466,-0.846667 c 0,-0.02328 0.019,-0.04233 0.0423,-0.04233 0.0233,0 0.0423,0.01905 0.0423,0.04233 0,0.02328 -0.019,0.04233 -0.0423,0.04233 -0.0233,0 -0.0423,-0.01905 -0.0423,-0.04233 z m -11.09133,-0.254 c 0,-0.02328 0.019,-0.04233 0.0423,-0.04233 0.0233,0 0.0423,0.01905 0.0423,0.04233 0,0.02328 -0.019,0.04233 -0.0423,0.04233 -0.0233,0 -0.0423,-0.01905 -0.0423,-0.04233 z"
       id="path1" /></g></svg>
