<?xml version="1.0" encoding="UTF-8" standalone="no"?>
<!-- Created with Inkscape (http://www.inkscape.org/) -->

<svg
   width="655.35901"
   height="655.35999"
   viewBox="0 0 173.39706 173.39733"
   version="1.1"
   id="svg1"
   xml:space="preserve"
   xmlns="http://www.w3.org/2000/svg"
   xmlns:svg="http://www.w3.org/2000/svg"><defs
     id="defs1" /><g
     id="layer1"
     transform="translate(-18.340921,-61.73259)"><path
       style="fill:#ffffff"
       d="m 136.19674,228.32149 c -0.20955,-0.065 -0.94486,-0.29302 -1.63403,-0.50664 l -1.25303,-0.38841 -0.96691,-0.12675 -0.96692,-0.12675 -0.41262,0.0952 -0.41261,0.0952 -0.22456,-0.075 -0.22457,-0.075 -1.16453,0.0561 c -0.6405,0.0309 -2.05989,0.13724 -3.1542,0.2364 l -1.98967,0.18029 -0.48716,0.16577 c -0.60236,0.20496 -0.85572,0.20585 -1.29891,0.005 l -0.34675,-0.15747 -0.18242,-0.29516 -0.18242,-0.29516 v -0.31746 -0.31747 l 0.3175,-0.31673 0.3175,-0.31672 0.55033,-0.0932 c 0.53057,-0.0898 4.35037,-0.45165 6.18066,-0.58546 l 0.889,-0.065 0.0546,-1.69333 c 0.03,-0.93133 0.0771,-2.76013 0.10459,-4.06399 0.0814,-3.8613 0.22103,-8.26997 0.26421,-8.33984 0.0221,-0.0358 0.12257,-1.85057 0.22325,-4.03291 l 0.18307,-3.96789 0.0126,-6.94266 0.0126,-6.94265 0.186,-2.98842 c 0.1023,-1.64363 0.20927,-3.13394 0.23771,-3.3118 l 0.0517,-0.32338 -1.13084,-0.0567 c -0.62196,-0.0312 -1.64518,-0.0942 -2.27383,-0.14 -0.62865,-0.0458 -2.41935,-0.11964 -3.97933,-0.16406 l -2.83633,-0.0808 -1.05833,-0.12371 c -2.27546,-0.266 -4.31707,-0.57047 -5.20699,-0.77652 -2.24464,-0.51974 -3.33954,-0.64604 -6.50278,-0.75012 l -1.42278,-0.0468 0.056,1.12148 c 0.0308,0.61682 0.0615,1.84538 0.0681,2.73015 l 0.0121,1.60866 -0.11355,0.269 -0.11355,0.269 -0.32623,0.22607 -0.32622,0.22608 -0.34857,-0.0589 -0.34857,-0.0589 -0.32685,-0.31093 -0.32684,-0.31092 0.0429,-1.47992 0.0429,-1.47993 -0.0787,-1.42828 -0.0787,-1.42828 -0.30232,-0.26505 c -0.16628,-0.14578 -0.34652,-0.35363 -0.40055,-0.46189 l -0.0982,-0.19684 0.0563,-0.33309 0.0563,-0.33309 0.62863,-0.54826 0.62863,-0.54825 0.21506,-0.054 c 0.11828,-0.0297 0.35359,-0.0315 0.52291,-0.004 l 0.30785,0.05 0.55538,0.37503 0.55539,0.37503 1.78973,0.0522 1.78973,0.0521 1.0466,0.12954 c 0.57563,0.0712 1.63715,0.259 2.35893,0.41722 1.98537,0.43521 2.34392,0.4897 6.18066,0.93929 l 1.05833,0.12401 3.04799,0.0862 c 1.6764,0.0474 3.4671,0.12037 3.97933,0.16214 0.51223,0.0418 1.3352,0.0783 1.82882,0.0813 l 0.89749,0.005 0.055,-0.77501 c 0.0303,-0.42625 0.055,-0.94762 0.055,-1.1586 v -0.38359 l 0.17058,-0.35238 0.17059,-0.35237 0.2144,-0.0977 c 0.11792,-0.0537 0.35653,-0.0977 0.53024,-0.0977 h 0.31584 l 0.18635,0.13053 c 0.19963,0.13982 0.9135,1.19652 1.04888,1.55259 0.11607,0.3053 0.0377,0.52471 -0.31235,0.87478 l -0.30527,0.30528 0.0275,0.24058 0.0275,0.24057 0.635,0.0568 c 0.34925,0.0312 1.397,0.10304 2.32833,0.15957 l 1.69333,0.1028 0.84667,-0.053 c 0.46566,-0.0291 1.43721,-0.13417 2.15899,-0.23338 l 1.31233,-0.18037 4.65666,-0.0237 c 6.31293,-0.0321 11.93368,-0.1157 13.92765,-0.20722 l 1.65099,-0.0758 0.60297,-0.12925 c 0.8364,-0.1793 2.08899,-0.3599 3.29887,-0.47566 l 1.02317,-0.0979 0.36604,0.0986 0.36604,0.0986 0.23628,0.23628 c 0.12996,0.12996 0.26227,0.3398 0.29402,0.46633 l 0.0577,0.23004 -0.0949,0.30997 c -0.0522,0.17049 -0.21058,1.18627 -0.35198,2.2573 -0.22488,1.70325 -0.43098,2.95395 -0.89994,5.461 -0.0653,0.34925 -0.15529,0.91336 -0.19991,1.25357 l -0.0811,0.61858 -0.12381,0.17677 c -0.0681,0.0972 -0.23069,0.24724 -0.36131,0.33336 l -0.23749,0.1566 h -0.29634 -0.29633 l -0.22,-0.14761 c -0.121,-0.0812 -0.28669,-0.21533 -0.3682,-0.2981 l -0.1482,-0.15048 -0.0428,-0.31909 -0.0428,-0.31909 0.39036,-2.15509 c 0.40284,-2.224 0.89665,-5.44934 0.89707,-5.85925 1.3e-4,-0.12805 -0.0312,-0.23283 -0.0697,-0.23283 -0.17409,0 -1.90557,0.26218 -2.55474,0.38684 -0.39581,0.076 -1.23401,0.1732 -1.86266,0.216 -1.30148,0.0886 -11.64426,0.26252 -16.46764,0.27692 l -3.21733,0.01 -0.8665,0.14787 c -0.47658,0.0813 -1.37912,0.1845 -2.00565,0.22928 l -1.13914,0.0814 -1.33868,-0.0796 c -0.73628,-0.0438 -1.8507,-0.11762 -2.47649,-0.1641 -0.62579,-0.0465 -1.14986,-0.0724 -1.16459,-0.0577 -0.0433,0.0433 -0.3483,4.9117 -0.44901,7.16614 l -0.0927,2.07433 0.0247,5.75733 0.0247,5.75732 -0.10835,2.286 c -0.0596,1.2573 -0.16701,3.23849 -0.23871,4.40266 -0.0717,1.16416 -0.14744,2.74531 -0.16832,3.51366 -0.0209,0.76835 -0.0701,2.36855 -0.10944,3.556 -0.0393,1.18744 -0.0719,2.51199 -0.0724,2.94343 -5.3e-4,0.43144 -0.0288,1.74955 -0.0628,2.92915 l -0.0619,2.14471 0.61944,0.0576 c 0.86447,0.0803 2.11607,0.34973 2.88553,0.62106 l 0.65027,0.2293 -0.0495,0.0801 -0.0495,0.0801 0.0894,-0.0553 0.0894,-0.0553 0.54911,0.14402 0.5491,0.14402 0.32705,-0.14555 c 0.17988,-0.08 0.4863,-0.15107 0.68092,-0.15781 l 0.35387,-0.0123 0.22168,0.14524 c 0.12192,0.0799 0.29591,0.267 0.38664,0.41581 l 0.16498,0.27057 3.1e-4,0.24601 3.2e-4,0.24601 -0.22353,0.29306 -0.22353,0.29306 -0.47497,0.2132 -0.47497,0.2132 -0.59266,0.0302 -0.59267,0.0302 z m -79.305971,-3.77081 c -0.300898,-0.18347 -0.443946,-0.40673 -0.543546,-0.84834 l -0.06716,-0.29779 0.0855,-0.3815 0.0855,-0.38151 0.185405,-0.19877 c 0.101973,-0.10933 0.337805,-0.27892 0.524072,-0.37687 l 0.338666,-0.1781 1.523997,-0.0274 c 0.838199,-0.0151 1.828798,-0.036 2.20133,-0.0465 l 0.677333,-0.0191 -0.02485,-0.11687 c -0.05044,-0.23726 -0.21343,-12.0141 -0.210474,-15.20777 0.0017,-1.8161 0.04355,-7.51204 0.09305,-12.65765 l 0.09,-9.35565 0.08335,-1.11449 c 0.101376,-1.35557 0.17583,-1.87824 0.276408,-1.9404 0.04195,-0.0259 0.05436,-0.0826 0.02757,-0.12596 l -0.04871,-0.0788 h -1.886878 -1.886878 l -0.161289,0.18102 c -0.08871,0.0996 -0.283825,0.23289 -0.433591,0.29628 l -0.272303,0.11525 -0.678297,0.0129 -0.678298,0.0129 -0.337761,-0.23407 -0.337761,-0.23407 -0.21447,-0.43038 c -0.117958,-0.23671 -0.214469,-0.52433 -0.214469,-0.63916 0,-0.28284 0.362895,-0.88302 0.652695,-1.07946 l 0.236303,-0.16018 3.386662,0.006 3.386661,0.006 1.100665,0.1035 c 0.605366,0.0569 1.748364,0.23256 2.539996,0.39031 1.428361,0.28462 2.279252,0.37659 3.528332,0.38137 l 0.649669,0.002 0.272008,0.22888 c 0.149605,0.12588 0.321719,0.34785 0.382477,0.49326 l 0.110468,0.26439 -0.124864,0.54741 c -0.06867,0.30107 -0.199418,0.67 -0.29054,0.81983 -0.198518,0.32644 -0.633702,0.6088 -0.938971,0.60924 l -0.221415,3.2e-4 -0.224776,-0.17681 c -0.123627,-0.0973 -0.279101,-0.28187 -0.345499,-0.41027 l -0.120723,-0.23345 -0.797872,-0.0524 -0.797873,-0.0524 -1.506504,-0.29933 c -0.828577,-0.16463 -1.579368,-0.29932 -1.668423,-0.29932 h -0.161919 l 0.02084,0.23283 c 0.01146,0.12806 -0.0061,0.42333 -0.03896,0.65617 -0.03289,0.23283 -0.09863,0.97578 -0.146091,1.65099 l -0.08629,1.22767 -0.0922,9.52498 c -0.05071,5.23875 -0.09193,10.68704 -0.09161,12.10732 5.71e-4,2.50565 0.161033,11.51506 0.245338,13.77494 l 0.04168,1.11729 0.439854,-0.0417 c 0.24192,-0.0229 0.725604,-0.0762 1.074853,-0.11842 0.34925,-0.0422 1.206498,-0.11763 1.904997,-0.16757 0.698499,-0.0499 1.409499,-0.10484 1.58,-0.12198 l 0.310001,-0.0312 0.256094,0.15574 c 0.297157,0.18072 0.398815,0.34491 0.479358,0.77424 l 0.05815,0.30998 -0.141825,0.24009 c -0.078,0.13205 -0.274737,0.32722 -0.437186,0.43371 l -0.29536,0.19361 -1.214183,0.0813 c -0.6678,0.0447 -1.932127,0.15965 -2.809615,0.25539 l -1.595432,0.17408 -2.328329,0.0465 -2.32833,0.0465 -0.240453,0.28812 c -0.132249,0.15847 -0.349432,0.34448 -0.482628,0.41336 l -0.242175,0.12523 -0.406371,-3.1e-4 -0.40637,-3.2e-4 z m 45.079591,-54.67762 c -0.12217,-0.12806 -0.26044,-0.33428 -0.30727,-0.45827 l -0.0851,-0.22544 -0.36475,0.0429 c -0.2006,0.0236 -0.86004,0.12029 -1.465401,0.21483 -0.605366,0.0945 -1.351619,0.19014 -1.65834,0.21244 l -0.557675,0.0405 -0.34966,-0.17838 c -0.411436,-0.2099 -0.524768,-0.38896 -0.524337,-0.82843 l 3.16e-4,-0.32307 0.164486,-0.26976 c 0.213155,-0.34958 0.365919,-0.42494 1.008824,-0.49768 l 0.53065,-0.06 0.133942,-0.20442 c 0.158424,-0.24179 0.530276,-0.4499 0.80309,-0.44945 0.107087,1.7e-4 0.325229,0.0799 0.484759,0.17714 l 0.290056,0.17683 0.74711,-0.0591 0.74711,-0.0591 0.002,-0.13918 c 10e-4,-0.0765 0.0179,-2.90142 0.0373,-6.2775 0.053,-9.21304 0.20392,-20.34214 0.28825,-21.2513 0.041,-0.44238 0.11886,-1.45203 0.17295,-2.24366 l 0.0983,-1.43933 0.0181,-5.95028 0.0181,-5.95027 -0.29633,-0.0754 c -0.16299,-0.0415 -0.44874,-0.0989 -0.635,-0.12759 l -0.33867,-0.0522 -0.93133,0.0843 c -0.512234,0.0464 -1.636182,0.16066 -2.497664,0.25397 -1.762461,0.1909 -4.267502,0.3156 -7.704655,0.38354 l -2.32833,0.046 -0.645743,0.1371 -0.645743,0.1371 -0.04747,2.76283 -0.04746,2.76284 -0.09185,0.71086 c -0.110149,0.85246 -0.250278,1.1735 -0.622855,1.42697 -0.330565,0.22488 -0.531113,0.23691 -0.976809,0.0586 l -0.329696,-0.13192 -0.154699,-0.28726 -0.154698,-0.28726 0.102933,-1.16832 c 0.05661,-0.64257 0.126685,-1.73982 0.155713,-2.43832 l 0.05278,-1.26999 -0.10193,-1.83295 -0.10193,-1.83295 0.08888,-0.33008 0.08888,-0.33008 0.245903,-0.23559 0.245903,-0.23559 0.326946,-0.0431 0.326947,-0.0431 0.486081,0.25664 0.486082,0.25663 1.207249,-0.0779 c 0.663987,-0.0429 1.976685,-0.0788 2.917106,-0.0798 1.870986,-0.002 4.688494,-0.12639 5.952465,-0.26283 0.442382,-0.0477 1.299631,-0.14406 1.904997,-0.21402 0.605365,-0.07 1.576914,-0.1478 2.158997,-0.17299 l 1.05833,-0.0458 0.84667,0.17386 c 1.04223,0.21402 1.92012,0.313 3.91891,0.44184 l 1.54825,0.0998 2.17708,-0.0293 2.17708,-0.0293 1.29452,0.11154 1.29452,0.11155 1.45714,-0.0969 c 0.80143,-0.0533 2.31511,-0.18933 3.36373,-0.30223 l 1.90659,-0.20529 2.36907,-0.0106 2.36907,-0.0106 0.508,-0.0763 0.508,-0.0763 0.32435,0.0506 0.32434,0.0506 0.28354,0.24895 0.28354,0.24895 0.0535,0.24362 0.0535,0.24363 -0.16481,0.36666 -0.1648,0.36666 -0.30849,1.651 c -0.16968,0.90805 -0.40084,2.29669 -0.51371,3.08588 l -0.20521,1.43487 -0.16,0.21612 c -0.088,0.11887 -0.28149,0.29883 -0.42996,0.39992 l -0.26996,0.18379 -0.31492,-0.0355 c -0.53052,-0.0598 -0.72762,-0.12552 -1.00158,-0.33397 l -0.26332,-0.20034 -0.0498,-0.30674 -0.0498,-0.30674 0.0964,-0.22715 c 0.053,-0.12494 0.16538,-0.30584 0.24965,-0.40201 l 0.15324,-0.17486 0.25831,-1.51847 c 0.14207,-0.83516 0.32586,-1.85561 0.40842,-2.26767 l 0.1501,-0.74919 -0.12031,-0.0462 c -0.0662,-0.0254 -1.21202,-0.0243 -2.54631,0.002 l -2.42599,0.0485 -0.92332,0.13471 c -2.21177,0.32272 -5.60571,0.46951 -6.95289,0.30072 l -0.67511,-0.0846 -3.55599,-0.0346 c -1.9558,-0.019 -3.73366,-0.0619 -3.9508,-0.0953 l -0.39479,-0.0607 -0.0423,6.76266 -0.0423,6.76265 -0.14183,1.27 -0.14183,1.27 -0.0755,6.64632 c -0.0415,3.65548 -0.0989,9.66574 -0.1276,13.35615 l -0.0521,6.70982 0.32557,-0.002 c 0.17906,-9.4e-4 0.56064,-0.0357 0.84795,-0.0773 l 0.52239,-0.0756 0.32428,0.0728 0.32427,0.0728 0.23284,0.25983 0.23283,0.25983 v 0.34061 0.34061 l -0.3175,0.33788 -0.3175,0.33787 -0.508,0.0753 c -0.2794,0.0414 -0.76093,0.10002 -1.07006,0.13024 l -0.56206,0.0549 -0.0457,0.22826 c -0.0504,0.25201 -0.24411,0.49862 -0.56357,0.71751 l -0.20933,0.14344 h -0.34632 -0.34632 z m 53.21953,-0.37031 -0.35315,-0.17137 -0.12975,-0.27343 c -0.13054,-0.27508 -0.37863,-1.36586 -0.56082,-2.46572 -0.054,-0.32597 -0.11335,-0.64116 -0.1319,-0.70044 l -0.0337,-0.10777 -0.31941,0.13416 c -0.34845,0.14636 -3.07283,1.18427 -3.85186,1.46745 -0.7612,0.2767 -2.11558,0.5989 -3.05669,0.72717 -0.47384,0.0646 -1.29967,0.19318 -1.83518,0.28578 l -0.97367,0.16836 -2.45533,0.0576 -2.45533,0.0576 -0.67878,-0.0876 c -0.94305,-0.12168 -1.91135,-0.44524 -3.23045,-1.07948 -0.61977,-0.29798 -1.14644,-0.54179 -1.17039,-0.54179 -0.0239,0 -0.24337,-0.0978 -0.48762,-0.21742 -0.24424,-0.11958 -0.67268,-0.30486 -0.95208,-0.41174 -0.2794,-0.10689 -0.89531,-0.38878 -1.36869,-0.62644 l -0.86068,-0.4321 -0.7177,-0.54131 c -0.97599,-0.73611 -1.32598,-1.0712 -2.04923,-1.96199 -1.1956,-1.47256 -1.97619,-3.06604 -2.68052,-5.47194 l -0.28184,-0.96271 0.003,-2.20133 0.003,-2.20133 0.14483,-1.40864 0.14483,-1.40863 0.24988,-1.1737 c 0.13743,-0.64553 0.49761,-2.2115 0.80038,-3.47994 l 0.5505,-2.30625 0.42575,-1.08041 c 0.39647,-1.00613 1.50267,-3.29059 1.73261,-3.57808 0.0559,-0.0698 0.24821,-0.37465 0.42744,-0.67733 0.70383,-1.18867 2.39719,-3.80757 2.93536,-4.53973 0.31212,-0.42464 0.78484,-1.00518 1.05047,-1.2901 l 0.48298,-0.51804 0.0879,0.0544 0.088,0.0543 -0.0534,-0.0864 -0.0534,-0.0863 0.69872,-0.6741 c 1.41084,-1.36112 3.56488,-3.01834 4.8123,-3.70236 0.74691,-0.40957 2.41828,-1.065 2.71577,-1.065 0.0445,0 0.33477,-0.2227 0.64514,-0.49488 0.31036,-0.27218 0.80015,-0.63814 1.08842,-0.81325 l 0.52413,-0.31839 0.36487,0.0369 c 0.20067,0.0203 0.42765,0.065 0.50439,0.0993 l 0.13953,0.0625 0.0298,-0.75897 0.0298,-0.75898 0.16933,-0.19006 c 0.0931,-0.10453 0.31138,-0.2544 0.48499,-0.33304 l 0.31566,-0.14298 0.26145,0.0384 0.26144,0.0384 0.35617,0.35113 0.35617,0.35113 0.10922,0.36452 0.10921,0.36451 -0.0588,0.26752 c -0.0323,0.14713 -0.10981,0.34544 -0.17222,0.44068 l -0.11346,0.17316 0.0809,1.64841 c 0.14866,3.03079 0.26034,4.77187 0.37875,5.90457 l 0.11745,1.1235 0.13237,0.26534 c 0.25665,0.51447 0.1209,1.03619 -0.37909,1.4569 l -0.26353,0.22175 h -0.20789 c -0.47178,0 -1.05619,-0.39475 -1.2253,-0.82763 -0.18262,-0.46748 -0.45166,-2.91148 -0.54734,-4.97203 -0.0324,-0.6985 -0.068,-1.36525 -0.0791,-1.48166 l -0.0201,-0.21167 -0.71045,-0.0269 c -0.39075,-0.0148 -1.06447,0.0167 -1.49717,0.0701 l -0.78671,0.097 -0.69495,0.2388 c -0.99677,0.34251 -1.26287,0.46687 -2.03667,0.95175 -2.21393,1.38732 -4.69912,3.67641 -6.05351,5.57584 -0.58575,0.82147 -1.76656,2.63951 -2.70518,4.16503 -1.12047,1.8211 -2.09558,4.13112 -2.54584,6.03108 -0.14347,0.60537 -0.39744,1.67217 -0.56439,2.37067 -0.70616,2.9544 -0.86618,4.22263 -0.94011,7.45065 l -0.0465,2.032 0.2115,0.762 c 0.90899,3.27483 2.02801,4.96397 4.50313,6.79736 0.18686,0.13841 1.58502,0.78987 2.45878,1.14564 0.51033,0.20779 1.40413,0.61203 1.98621,0.89831 0.58208,0.28628 1.30598,0.60991 1.60866,0.71917 l 0.55034,0.19867 0.78554,0.10693 0.78554,0.10693 2.30479,-0.10265 2.30478,-0.10264 0.67734,-0.11704 c 0.37253,-0.0644 1.22819,-0.19606 1.90147,-0.29266 0.67328,-0.0966 1.39718,-0.22827 1.60866,-0.29261 1.47267,-0.44803 5.12295,-1.84248 5.30562,-2.0268 l 0.0951,-0.096 -0.27727,-1.63763 c -0.15249,-0.90069 -0.33816,-1.88007 -0.4126,-2.17639 -0.0744,-0.29633 -0.13533,-0.72249 -0.13533,-0.94703 v -0.40826 l 0.13214,-0.18866 c 0.18312,-0.26144 0.56344,-0.44169 0.93195,-0.44169 h 0.3105 l 0.32084,0.32085 0.32085,0.32084 0.0567,0.41999 c 0.0311,0.23099 0.12722,0.76289 0.21347,1.18199 0.16229,0.78855 0.39803,2.19612 0.6381,3.80999 0.0762,0.51223 0.23224,1.5135 0.34678,2.22504 l 0.20824,1.2937 0.16524,0.38548 0.16523,0.38548 v 0.33437 c 0,0.1839 -0.0548,0.46565 -0.1219,0.62612 l -0.12191,0.29176 -0.28026,0.17087 c -0.3468,0.21144 -0.52231,0.20995 -0.97208,-0.008 z m -20.43248,-39.57113 c 0,-0.0233 -0.019,-0.0423 -0.0423,-0.0423 -0.0233,0 -0.0423,0.019 -0.0423,0.0423 0,0.0233 0.019,0.0423 0.0423,0.0423 0.0233,0 0.0423,-0.019 0.0423,-0.0423 z m 4.99533,-2.11667 c 0,-0.0233 -0.019,-0.0423 -0.0423,-0.0423 -0.0233,0 -0.0423,0.019 -0.0423,0.0423 0,0.0233 0.019,0.0423 0.0423,0.0423 0.0233,0 0.0423,-0.0191 0.0423,-0.0423 z m 44.3183,41.36309 c -0.0957,-0.0388 -0.2957,-0.20911 -0.4445,-0.37858 l -0.27054,-0.30813 v -0.16255 -0.16255 l -0.27516,-0.0444 c -0.15135,-0.0244 -0.57049,-0.0859 -0.93144,-0.13665 l -0.65626,-0.0923 -0.66274,0.0578 -0.66274,0.0578 -0.25841,-0.13363 c -0.31352,-0.16212 -0.6834,-0.58681 -0.75316,-0.86476 l -0.0512,-0.204 0.16442,-0.31864 0.16443,-0.31864 0.28032,-0.1905 0.28032,-0.19049 0.55898,-2.2e-4 c 0.30744,-1.2e-4 1.02672,0.0624 1.5984,0.13885 0.57168,0.0765 1.05832,0.12018 1.08142,0.0971 0.0231,-0.0231 -0.0178,-0.438 -0.0908,-0.92202 -0.073,-0.48401 -0.16853,-1.56582 -0.21222,-2.40402 l -0.0794,-1.524 -0.21384,-1.31233 -0.21384,-1.31233 -0.12479,-2.07433 c -0.0686,-1.14089 -0.12541,-2.93769 -0.12618,-3.99291 l -0.001,-1.91857 -0.25044,-2.27242 c -0.13775,-1.24983 -0.27601,-2.56386 -0.30724,-2.92007 -0.0312,-0.35621 -0.083,-0.69008 -0.11508,-0.74194 l -0.0583,-0.0943 -0.96798,-0.0932 -0.96798,-0.0933 -1.651,0.0732 c -2.19372,0.0972 -4.61666,0.0778 -6.94266,-0.0556 l -1.905,-0.10927 -2.11666,0.0533 -2.11666,0.0533 -0.78372,0.15801 c -0.43104,0.0869 -0.80617,0.18048 -0.83362,0.20792 -0.0274,0.0274 -0.009,0.44313 0.0414,0.92373 0.0502,0.4806 0.13164,1.54057 0.18088,2.35548 0.0493,0.81492 0.13125,1.99602 0.18222,2.62467 l 0.0927,1.14299 0.0521,6.87219 c 0.0286,3.7797 0.0779,6.89797 0.10945,6.92949 0.0316,0.0315 0.51222,0.0158 1.06811,-0.0349 l 1.01072,-0.0922 0.2921,-0.12204 0.29209,-0.12205 0.33313,0.075 0.33312,0.075 0.19015,0.23714 c 0.22247,0.27742 0.31416,0.67278 0.23725,1.02294 l -0.0546,0.24872 -0.22872,0.21322 c -0.12579,0.11727 -0.31398,0.25707 -0.4182,0.31067 -0.31412,0.16155 -2.39593,0.34478 -4.55184,0.40065 l -2.032,0.0526 -0.35754,-0.0983 -0.35754,-0.0983 -0.22159,-0.29052 -0.22159,-0.29052 -0.0423,-0.32067 -0.0423,-0.32067 0.27199,-0.31702 0.27198,-0.31703 0.3438,-0.0926 0.34381,-0.0926 0.66785,0.0591 0.66785,0.0591 -0.0331,-6.54984 -0.0331,-6.54983 -0.14514,-2.159 c -0.0798,-1.18745 -0.21779,-2.97814 -0.30657,-3.97932 l -0.16143,-1.82034 -0.14217,-0.28298 -0.14217,-0.28298 0.0627,-0.35202 c 0.0826,-0.46393 0.0833,-0.35149 -0.0284,-4.24667 -0.0534,-1.86267 -0.15302,-4.16771 -0.22132,-5.12233 -0.12393,-1.73201 -0.27431,-4.9389 -0.32556,-6.94266 l -0.0271,-1.05833 -0.0976,-0.17852 -0.0976,-0.17852 -0.4056,-0.069 c -0.22308,-0.038 -1.26578,-0.0727 -2.31711,-0.0773 l -1.9115,-0.008 -0.22456,-0.14713 c -0.12351,-0.0809 -0.28527,-0.26454 -0.35947,-0.40802 l -0.13491,-0.26088 0.055,-0.32538 0.055,-0.32538 0.18401,-0.20692 c 0.25718,-0.28919 0.48302,-0.38982 1.16777,-0.52029 l 0.59547,-0.11346 0.26872,0.0685 c 0.14779,0.0377 0.72591,0.093 1.28471,0.12282 0.93244,0.0498 2.86391,0.28102 3.89466,0.46618 0.23283,0.0418 0.93768,0.10287 1.56633,0.13564 l 1.143,0.0596 0.22616,0.11406 c 0.12438,0.0627 0.30536,0.2253 0.40216,0.36124 l 0.17601,0.24718 v 0.27583 0.27582 l -0.22312,0.38844 c -0.41213,0.71748 -0.80219,1.02344 -1.30478,1.02344 h -0.2663 l -0.23869,-0.14099 c -0.13127,-0.0776 -0.27736,-0.2259 -0.32464,-0.32967 l -0.086,-0.18868 -0.39715,-0.0316 -0.39714,-0.0316 -0.0451,0.11746 c -0.0775,0.20186 0.0526,3.9197 0.22994,6.57405 0.16345,2.44626 0.34104,6.79253 0.34277,8.38895 l 8.3e-4,0.76896 0.29058,0.0892 0.29057,0.0892 0.85448,-0.11112 c 0.46996,-0.0611 1.64413,-0.13722 2.60925,-0.16912 l 1.75478,-0.058 2.11666,0.13748 2.11667,0.13749 4.19099,-0.0222 4.19099,-0.0222 -0.005,-3.85233 -0.005,-3.85232 -0.10652,-1.18533 c -0.0586,-0.65194 -0.17958,-1.87114 -0.26887,-2.70933 -0.0893,-0.8382 -0.20833,-2.53977 -0.26452,-3.78127 l -0.10217,-2.25726 -1.02051,-0.0578 c -1.23552,-0.07 -2.34007,-0.0194 -2.80191,0.12817 l -0.34209,0.10933 -0.32091,-0.0602 -0.32091,-0.0602 -0.29972,-0.27467 -0.29971,-0.27467 0.005,-0.34899 0.005,-0.34898 0.13287,-0.25694 0.13286,-0.25693 0.37758,-0.22127 0.37758,-0.22128 0.78611,-0.0752 0.78612,-0.0752 1.143,0.0443 c 0.62865,0.0244 1.27408,0.0579 1.43429,0.0744 l 0.2913,0.0301 0.29949,-0.24687 0.29949,-0.24686 h 0.33055 0.33055 l 0.28464,0.17591 c 0.15655,0.0968 0.31509,0.23034 0.35231,0.29686 l 0.0677,0.12094 0.80131,0.0758 c 0.44072,0.0417 1.02962,0.14138 1.30867,0.22152 l 0.50736,0.14571 0.35554,0.36762 0.35553,0.36763 0.0991,0.33081 0.0991,0.3308 -0.0968,0.29323 c -0.0532,0.16127 -0.20931,0.40104 -0.34685,0.53281 l -0.25008,0.23959 -0.34927,-0.0137 -0.34927,-0.0137 -0.32974,-0.26116 -0.32974,-0.26116 -0.60198,-0.0893 -0.60197,-0.0893 -0.0817,0.1174 -0.0817,0.1174 0.0462,1.778 c 0.0254,0.97789 0.0841,2.10184 0.13039,2.49766 0.0463,0.39581 0.16925,1.53881 0.27318,2.53999 l 0.18896,1.82033 0.009,4.27566 0.009,4.27566 0.18291,1.48167 c 0.1006,0.81491 0.22386,1.93886 0.2739,2.49766 0.05,0.5588 0.16626,1.6256 0.25826,2.37067 l 0.16728,1.35466 0.0803,3.51366 c 0.0836,3.66117 0.15204,4.63971 0.43798,6.26532 l 0.17126,0.97367 0.07,1.61317 c 0.0385,0.88725 0.10995,1.83975 0.15875,2.11667 0.0488,0.27692 0.13355,0.82098 0.18832,1.20904 l 0.0996,0.70554 0.0944,0.0259 c 0.0519,0.0142 0.57063,0.10882 1.15272,0.21024 1.23725,0.21557 2.13655,0.46295 2.50887,0.69014 l 0.2652,0.16183 0.10511,0.25375 0.10511,0.25376 -0.0506,0.25313 c -0.0278,0.13922 -0.11655,0.35374 -0.19712,0.47671 l -0.14649,0.22358 -0.27631,0.11545 -0.27631,0.11545 -0.40488,-8.3e-4 -0.40489,-8.2e-4 -0.4451,-0.20723 c -0.39362,-0.18325 -0.66314,-0.24864 -1.7736,-0.43031 l -0.27138,-0.0444 -0.1349,0.26087 -0.1349,0.26087 -0.27106,0.16527 c -0.28826,0.17576 -0.50186,0.19885 -0.78368,0.0847 z m -96.726889,-1.61978 c -0.256116,-0.0369 -1.113364,-0.14975 -1.904997,-0.25072 -0.791632,-0.10096 -1.76318,-0.25322 -2.158996,-0.33834 -0.395816,-0.0851 -0.959851,-0.18135 -1.25341,-0.21383 l -0.533744,-0.0591 -0.234628,0.22479 c -0.268489,0.25723 -0.663159,0.39092 -1.152654,0.39047 l -0.339225,-3.2e-4 -0.266438,-0.16246 -0.266438,-0.16247 -0.101782,-0.3084 -0.101783,-0.30841 0.0549,-0.29262 0.0549,-0.29263 0.247544,-0.28193 0.247544,-0.28194 0.531445,-0.2428 0.531445,-0.2428 0.980695,-0.003 0.980694,-0.003 -0.06982,-0.31246 c -0.12132,-0.54291 -0.308103,-1.0262 -0.880802,-2.27905 -0.525112,-1.14874 -1.006418,-2.3165 -1.269932,-3.08114 -0.06419,-0.18627 -0.548126,-1.61303 -1.075408,-3.17057 l -0.958696,-2.8319 -1.647359,0.0207 c -2.344588,0.0295 -3.124503,0.10898 -6.896684,0.70298 l -1.100665,0.17333 -1.354665,0.032 -1.354664,0.032 -0.349308,1.58936 c -0.192119,0.87415 -0.546239,2.50596 -0.786931,3.62625 l -0.437624,2.03689 -0.08355,0.84177 c -0.04595,0.46298 -0.114368,1.01788 -0.152041,1.23311 l -0.06849,0.39134 0.811972,0.0437 0.811972,0.0437 0.507999,-0.0806 0.508,-0.0806 0.268698,0.0503 0.268699,0.0503 0.260467,0.29666 0.260467,0.29666 v 0.30302 0.30303 l -0.177313,0.31548 c -0.223199,0.39713 -0.51403,0.57014 -1.085985,0.64601 l -0.450266,0.0597 -3.440045,-0.10202 -3.440044,-0.10202 -0.380999,-0.1441 -0.381,-0.1441 -0.155486,-0.31719 -0.155486,-0.31719 0.05759,-0.34088 0.05759,-0.34088 0.221434,-0.26316 0.221435,-0.26316 0.426793,-0.19874 0.426792,-0.19874 0.761999,4.2e-4 0.761999,4.3e-4 0.211666,0.12239 c 0.116417,0.0673 0.30012,0.16937 0.408229,0.22678 l 0.196563,0.10437 0.07086,-0.11465 c 0.0722,-0.11682 0.202418,-0.95938 0.301377,-1.95006 0.09008,-0.90178 1.258031,-6.40098 1.807186,-8.50898 0.267533,-1.02696 0.461261,-1.68758 1.104878,-3.76766 1.100336,-3.55614 1.440083,-4.77411 2.5979,-9.31332 0.302882,-1.18745 0.717859,-2.74955 0.92217,-3.47133 0.204311,-0.72178 0.415816,-1.49237 0.470011,-1.71241 l 0.09854,-0.40008 0.194179,-0.20953 c 0.106798,-0.11523 0.236651,-0.33525 0.288563,-0.48891 0.05191,-0.15367 0.163412,-0.36907 0.247778,-0.47867 l 0.153392,-0.19928 0.353951,-0.0647 0.353951,-0.0647 0.316398,0.15946 0.316399,0.15945 0.380999,0.60269 c 0.20955,0.33148 0.405774,0.66428 0.436055,0.73955 0.279263,0.69416 0.744332,1.79312 1.013556,2.39502 0.180613,0.4038 0.328386,0.75968 0.328386,0.79085 0,0.0613 0.430159,1.07356 1.16892,2.75064 0.533849,1.2119 0.993487,2.1486 2.825118,5.75732 l 1.31068,2.58233 0.490487,1.22767 c 0.45972,1.15065 1.322095,3.59407 2.37562,6.73099 0.53046,1.57946 1.14522,3.15762 1.649066,4.23332 0.518988,1.10804 0.971391,2.34294 1.188784,3.24496 l 0.190306,0.78964 0.185849,0.0707 c 0.161798,0.0615 0.566699,0.10729 2.601763,0.29417 0.218688,0.0201 0.515647,0.0976 0.65991,0.17215 l 0.262296,0.13564 0.165272,0.27105 c 0.194975,0.31977 0.21145,0.65706 0.04757,0.97396 -0.261043,0.5048 -0.647029,0.63874 -1.490333,0.51713 z M 69.691179,151.64457 c 0.605366,-0.0857 1.748364,-0.25166 2.539996,-0.3687 1.469686,-0.21728 3.532717,-0.38929 4.6691,-0.38929 h 0.633969 l -0.05916,-0.18638 c -0.082,-0.25836 -0.842128,-1.93628 -1.192475,-2.63228 l -0.289438,-0.57501 0.05824,-0.0942 0.05824,-0.0942 -0.07804,0.0482 -0.07804,0.0482 -0.366343,-0.69131 c -1.483583,-2.79962 -2.211009,-4.31179 -3.102107,-6.44864 -0.310704,-0.74506 -0.633145,-1.50706 -0.716536,-1.69333 -0.08339,-0.18626 -0.271019,-0.62441 -0.416951,-0.97366 -0.145932,-0.34925 -0.300965,-0.69108 -0.344518,-0.75963 l -0.07919,-0.12462 -0.04336,0.12462 c -0.0709,0.2038 -0.597065,2.1536 -0.924682,3.42662 -1.179536,4.58334 -2.247992,8.35029 -3.222282,11.3605 l -0.05972,0.18451 0.236637,0.0385 c 0.362202,0.059 1.556063,-0.027 2.776633,-0.19988 z m -38.904273,13.21452 -3.090329,-0.0449 -0.167311,-0.0799 c -0.309644,-0.14789 -0.630839,-0.49149 -0.724382,-0.77493 l -0.09288,-0.28143 0.162494,-0.3632 c 0.08937,-0.19976 0.248308,-0.4394 0.35319,-0.53254 l 0.190696,-0.16933 1.506711,0.0277 1.506711,0.0277 -0.408986,-1.08605 c -0.65588,-1.74167 -1.825851,-5.07121 -2.553464,-7.26671 -0.664133,-2.00396 -0.828206,-2.52597 -1.397107,-4.44499 -0.667337,-2.25108 -1.659842,-6.4093 -2.024603,-8.48233 -0.07936,-0.45101 -0.171467,-0.86399 -0.204689,-0.91775 l -0.0604,-0.0977 -0.342882,0.17493 c -0.188586,0.0962 -0.511141,0.21263 -0.716791,0.25872 l -0.373908,0.0838 -0.289526,-0.0854 -0.289527,-0.0854 -0.201524,-0.2559 -0.201524,-0.2559 -0.04259,-0.37784 -0.04259,-0.37785 0.352485,-0.33531 0.352485,-0.33531 0.230294,-0.0569 c 0.126661,-0.0313 0.592243,-0.22475 1.034625,-0.42987 0.442383,-0.20512 1.185332,-0.50595 1.650998,-0.66852 l 0.846665,-0.29558 0.960912,-0.16453 0.960912,-0.16454 h 0.769187 0.769188 l 0.362204,0.17534 0.362205,0.17534 0.172526,0.27916 c 0.288411,0.46666 0.194702,1.01877 -0.21891,1.28978 l -0.229661,0.15048 -1.319283,0.0638 -1.319282,0.0638 -0.423333,0.11253 -0.423332,0.11253 -0.07801,0.39903 -0.07801,0.39902 0.401591,1.94721 c 0.532366,2.5813 1.284608,5.66673 1.784728,7.32033 1.254586,4.14815 3.404814,10.4381 3.523395,10.30679 0.03087,-0.0342 0.292422,-1.01464 0.581233,-2.17881 0.785432,-3.16598 1.513599,-5.5747 2.256518,-7.46438 0.20435,-0.51978 0.371545,-0.96672 0.371545,-0.99321 0,-0.0714 -0.788612,0.0444 -0.900812,0.13224 -0.05306,0.0416 -0.369399,0.13248 -0.702966,0.20203 l -0.606484,0.12646 -0.321737,-0.0866 c -0.176955,-0.0477 -0.422595,-0.1801 -0.545866,-0.29435 l -0.22413,-0.20771 3.17e-4,-0.40621 3.16e-4,-0.40621 0.164486,-0.26976 c 0.232679,-0.3816 0.567943,-0.53196 1.866878,-0.83724 l 0.550333,-0.12934 3.682994,-0.0785 3.682994,-0.0785 0.220829,0.0881 c 0.121456,0.0484 0.303592,0.20003 0.404747,0.33685 l 0.183917,0.24876 0.01036,0.27546 0.01035,0.27546 -0.131267,0.25384 c -0.0722,0.13962 -0.206104,0.32157 -0.29757,0.40435 l -0.166302,0.1505 -0.498532,0.0816 c -0.274192,0.0449 -1.136706,0.0819 -1.916696,0.0821 l -1.418165,4.9e-4 v 0.0796 c 0,0.0438 0.224237,0.43911 0.498304,0.87856 0.586819,0.94093 2.199853,3.70497 2.726602,4.67221 0.714315,1.31165 2.026354,3.42619 2.126989,3.42794 0.03313,5.8e-4 0.101205,-0.15109 0.151278,-0.33705 0.112653,-0.41836 1.430461,-6.23581 1.687903,-7.45122 0.103566,-0.48895 0.242699,-1.13665 0.309185,-1.43933 0.06648,-0.30268 0.276352,-1.29328 0.466371,-2.20133 0.190018,-0.90805 0.764611,-3.30835 1.276873,-5.33399 0.763299,-3.01833 1.377126,-5.52243 1.65515,-6.75216 l 0.04307,-0.1905 h -0.383422 c -0.210882,0 -0.682048,0.0571 -1.047035,0.12699 -0.364988,0.0698 -0.838954,0.12699 -1.053259,0.127 l -0.389645,1e-5 -0.285672,-0.19251 c -0.15712,-0.10589 -0.372304,-0.32107 -0.478187,-0.47819 l -0.192515,-0.28567 v -0.22896 -0.22896 l 0.191617,-0.28769 0.191617,-0.28768 0.337549,-0.16934 0.337549,-0.16933 3.718868,-0.0254 3.718868,-0.0253 0.229346,0.095 c 0.12614,0.0522 0.338597,0.20903 0.472125,0.3484 l 0.24278,0.25341 v 0.36862 0.36862 l -0.211666,0.2294 c -0.116417,0.12616 -0.334268,0.28163 -0.484114,0.34548 l -0.272446,0.11609 h -1.145718 -1.145718 v 0.24258 0.24258 l -0.175108,0.22262 c -0.197003,0.25045 -0.291512,0.52682 -0.452835,1.32422 -0.06124,0.30268 -0.386762,1.61713 -0.723391,2.92099 -1.139417,4.4133 -1.762225,7.05826 -2.502017,10.62565 -0.403755,1.94696 -1.292927,5.97174 -1.695098,7.67275 -0.254581,1.07676 -0.462875,2.01973 -0.462875,2.09549 v 0.13775 h 0.10653 c 0.192238,0 1.900757,-0.639 2.813001,-1.05209 0.233639,-0.10579 0.531036,-0.21825 0.660882,-0.24989 l 0.236085,-0.0575 0.295384,0.14017 c 0.162461,0.0771 0.374292,0.24011 0.470736,0.36227 l 0.175353,0.22209 -0.03651,0.44515 -0.03651,0.44515 -0.204647,0.22271 -0.204647,0.22272 -0.634999,0.29339 c -1.984036,0.91669 -4.447946,1.58828 -6.473472,1.76446 l -0.673814,0.0586 -0.115272,0.11527 c -0.162647,0.16264 -0.480334,0.22774 -0.809787,0.16594 l -0.281911,-0.0529 -0.255682,-0.2316 c -0.338784,-0.30687 -0.449408,-0.53452 -0.449249,-0.92453 l 1.31e-4,-0.32306 0.148035,-0.29345 0.148035,-0.29346 0.294253,-0.16998 0.294252,-0.16999 0.848746,-0.0287 c 0.46681,-0.0158 0.896685,-0.0443 0.955278,-0.0633 l 0.106533,-0.0347 -0.388871,-0.35844 c -0.501419,-0.4622 -0.972595,-1.08571 -1.634178,-2.16255 L 40.087,156.9878 l 0.06203,-0.10036 0.06203,-0.10036 -0.08704,0.0538 -0.08704,0.0538 -0.59469,-1.03554 c -0.32708,-0.56955 -0.689894,-1.20699 -0.806254,-1.41654 -0.797698,-1.43655 -2.005284,-3.4234 -2.063816,-3.3956 -0.231925,0.11012 -1.349304,3.76223 -2.230492,7.29026 -0.542673,2.17271 -1.037588,4.32477 -1.001402,4.35442 0.0159,0.013 0.506634,0.0595 1.09052,0.10319 l 1.061611,0.0795 0.223764,0.16561 c 0.566034,0.41893 0.531936,1.25042 -0.07072,1.72447 l -0.224776,0.17681 -0.771747,-0.0186 c -0.424461,-0.0103 -2.162395,-0.0388 -3.862076,-0.0635 z m 18.203305,-30.60948 c 0,-0.0233 -0.01905,-0.0423 -0.04233,-0.0423 -0.02328,0 -0.04233,0.019 -0.04233,0.0423 0,0.0233 0.01905,0.0423 0.04233,0.0423 0.02328,0 0.04233,-0.0191 0.04233,-0.0423 z m -15.07162,-12.8236 c -1.622832,-0.27377 -4.302451,-1.03345 -5.756348,-1.63195 -0.162983,-0.0671 -0.478119,-0.18877 -0.700302,-0.2704 l -0.403969,-0.14841 -0.125196,-0.2421 -0.125197,-0.24211 v -0.37378 -0.37379 l 0.170243,-0.21643 0.170244,-0.21643 0.379095,-0.14477 0.379095,-0.14478 0.383543,0.0432 0.383543,0.0432 0.325481,0.21539 c 0.258907,0.17134 1.671559,0.73639 1.840999,0.73639 0.02168,0 0.0154,-0.12807 -0.01397,-0.2846 l -0.05339,-0.28461 0.933452,-2.19189 c 0.513399,-1.20554 1.129273,-2.63004 1.36861,-3.16556 0.239337,-0.53551 0.535912,-1.20226 0.659056,-1.48166 0.420094,-0.95315 2.280947,-4.57569 2.84873,-5.54566 0.149922,-0.25611 0.495068,-0.86571 0.766993,-1.35466 0.271924,-0.48895 0.621124,-1.11012 0.776,-1.38037 0.293964,-0.51296 0.338956,-0.69085 0.196927,-0.77863 l -0.08467,-0.0523 v -0.34204 -0.34204 l 0.130067,-0.27409 0.130066,-0.2741 0.314433,-0.17229 c 0.172938,-0.0947 0.409682,-0.19502 0.526099,-0.2228 l 0.211666,-0.0505 0.378054,-0.673801 0.378054,-0.673798 0.07953,0.04915 0.07953,0.04915 -0.05484,-0.08873 -0.05484,-0.08873 0.851164,-1.554182 c 1.355159,-2.474451 2.436457,-4.685769 4.568819,-9.343503 0.622637,-1.360032 1.500037,-3.178848 1.756261,-3.640661 0.667343,-1.202807 1.955373,-3.472062 2.138527,-3.767661 0.129837,-0.20955 0.601142,-1.085848 1.047345,-1.94733 l 0.811277,-1.566331 0.09168,0.02326 0.09168,0.02326 -0.05371,-0.0869 -0.05371,-0.0869 0.802695,-1.460363 c 0.897454,-1.63276 1.564919,-2.992833 2.087858,-4.254358 0.193032,-0.465666 0.643085,-1.436076 1.000117,-2.156466 0.357033,-0.72039 0.660703,-1.336074 0.674824,-1.368185 0.01412,-0.03211 -0.271629,-0.08242 -0.634999,-0.1118 -0.36337,-0.02938 -0.966402,-0.09024 -1.340071,-0.135258 l -0.679397,-0.08184 -0.336601,0.175447 -0.336601,0.175448 -0.368769,-0.04744 c -0.202823,-0.02609 -0.511054,-0.12741 -0.684958,-0.225149 L 51.472622,67.220087 51.320615,66.96276 c -0.0836,-0.141531 -0.182521,-0.39262 -0.219815,-0.557977 l -0.06781,-0.30065 0.116513,-0.278854 0.116513,-0.278854 0.277503,-0.16876 c 0.152627,-0.09282 0.431144,-0.191386 0.618927,-0.219041 l 0.341424,-0.05028 1.100665,0.142074 1.100665,0.142074 3.344328,0.03437 3.344328,0.03437 0.711096,0.183159 0.711095,0.18316 0.283745,0.283744 c 0.156059,0.156059 0.385493,0.482495 0.509854,0.725413 l 0.226111,0.441669 0.0018,0.413476 0.0018,0.413475 -0.271618,0.24269 -0.271617,0.242691 -0.358497,-0.003 c -0.197173,-0.0016 -0.441022,-0.04927 -0.541885,-0.105833 -0.198091,-0.111077 -0.477253,-0.443057 -0.556922,-0.662293 l -0.04947,-0.136128 -0.27186,-0.05437 c -0.149523,-0.0299 -0.895747,-0.05437 -1.658275,-0.05437 h -1.386414 v 0.334368 c 0,0.183903 0.07368,0.726827 0.163724,1.206498 0.09005,0.479672 0.245213,1.40553 0.344811,2.057462 0.220607,1.444021 0.939912,5.200088 1.272804,6.646323 0.133982,0.582082 0.341973,1.515531 0.462201,2.07433 0.8827,4.102632 1.467341,6.195522 3.051014,10.921983 1.389469,4.146863 1.476912,4.523294 1.985588,8.547731 l 0.331295,2.62107 0.165609,0.13059 c 0.09108,0.0718 0.245442,0.28249 0.343016,0.46814 l 0.177408,0.33755 -0.05345,0.29745 c -0.0294,0.1636 -0.08925,0.34267 -0.133001,0.39793 l -0.07955,0.10048 0.295408,1.04252 c 0.683896,2.41351 1.061032,3.98516 1.320531,5.50306 0.182913,1.06993 0.475399,3.83114 0.554395,5.23377 0.02754,0.48895 0.06978,1.01579 0.09386,1.17075 l 0.0438,0.28175 0.354761,-0.052 c 0.195118,-0.0286 0.601384,-0.0974 0.902813,-0.15288 l 0.548053,-0.10089 0.624513,-0.31938 0.624513,-0.31938 h 0.249803 c 0.332258,0 0.690327,0.19358 0.872574,0.47172 l 0.148326,0.22637 0.01241,0.42434 0.01241,0.42433 -0.296333,0.24862 c -0.53645,0.45008 -2.027073,1.00346 -3.132662,1.16298 -0.395816,0.0571 -0.872065,0.14515 -1.058332,0.19565 -0.186266,0.0505 -0.567265,0.0832 -0.846665,0.0727 -0.279399,-0.0105 -1.017635,-0.0151 -1.640523,-0.0102 l -1.132524,0.009 -0.772473,0.11609 -0.772473,0.11608 -0.353822,-0.15503 -0.353821,-0.15504 -0.133011,-0.25721 c -0.07316,-0.14147 -0.133011,-0.37394 -0.133011,-0.51661 v -0.25939 l 0.190499,-0.29298 0.1905,-0.29298 0.414832,-0.1793 0.414833,-0.1793 1.447831,-0.0901 c 0.796307,-0.0495 1.457789,-0.0973 1.469959,-0.10605 0.03008,-0.0217 -0.116535,-1.97847 -0.275956,-3.68294 -0.26884,-2.87433 -0.516741,-4.12568 -1.601811,-8.08565 -0.165876,-0.60537 -0.336873,-1.18112 -0.379993,-1.27946 l -0.0784,-0.17879 -1.044313,-0.0415 -1.044314,-0.0415 -1.265338,-0.4776 -1.265337,-0.4776 -1.020659,-0.20947 c -1.93744,-0.39762 -4.234075,-0.49082 -7.497649,-0.30426 -4.716281,0.2696 -6.510366,0.35713 -8.42031,0.41081 l -2.112653,0.0594 -0.31798,0.55034 c -1.743517,3.01753 -3.504165,6.3092 -4.347491,8.12798 -0.356266,0.76835 -0.755456,1.6256 -0.887091,1.905 -0.131635,0.2794 -0.547686,1.23792 -0.924558,2.13005 l -0.685223,1.62204 v 0.2916 0.29159 l -0.205639,0.28769 c -0.330918,0.46295 -0.647031,1.02957 -0.600404,1.0762 0.0925,0.0925 2.074345,0.44144 2.798693,0.49277 l 0.764986,0.0542 0.267975,-0.13857 c 0.344585,-0.1782 0.621114,-0.1754 0.947101,0.01 l 0.261107,0.14816 0.136854,0.35616 0.136854,0.35616 -0.05603,0.22324 c -0.07794,0.31052 -0.53976,0.76241 -0.986132,0.96491 l -0.375037,0.17014 -0.888999,-0.006 -0.888999,-0.006 z m 29.972373,-19.87885 c -9.96e-4,-0.26505 -0.504024,-4.189893 -0.642939,-5.016491 -0.178613,-1.062807 -0.55108,-2.500559 -0.926128,-3.574926 -1.763606,-5.052044 -2.462497,-7.424252 -3.386829,-11.495717 -1.097295,-4.833332 -1.504546,-6.805265 -1.818507,-8.80532 -0.09868,-0.628649 -0.206346,-1.212771 -0.239252,-1.298048 l -0.05983,-0.15505 -0.496813,1.171048 c -0.584267,1.377187 -1.387938,3.006661 -2.075028,4.207199 -0.717989,1.254527 -0.887676,1.567661 -1.635187,3.017507 -0.823466,1.597165 -1.064928,2.036132 -1.630033,2.963329 -0.827531,1.35777 -2.203333,3.965217 -2.836783,5.376325 -0.104519,0.232833 -0.394947,0.85586 -0.645396,1.384505 -0.250448,0.528645 -0.45536,0.975198 -0.45536,0.992342 0,0.01714 -0.478693,1.051463 -1.063761,2.298489 -1.225579,2.612223 -2.451744,5.001512 -3.466432,6.754646 -0.242568,0.4191 -0.489088,0.853692 -0.547822,0.965752 l -0.106788,0.20375 2.274902,-0.0538 c 1.251196,-0.0296 2.751151,-0.0913 3.333233,-0.13714 0.582083,-0.0458 2.31563,-0.14582 3.852328,-0.22219 l 2.793995,-0.138852 1.312332,0.05637 c 2.294873,0.0986 4.646374,0.49331 5.863157,0.98419 0.221192,0.0892 0.590581,0.2386 0.820866,0.33193 0.539239,0.21855 0.973376,0.31918 1.422797,0.3298 l 0.359833,0.009 z m 79.737656,16.52232 -2.09311,-0.11392 -1.09784,-0.15997 -1.09783,-0.15996 -0.40299,-0.202 -0.40298,-0.20199 -0.16439,-0.22653 -0.16439,-0.22652 -0.0381,-0.40848 -0.0381,-0.40847 0.19805,-0.28855 c 0.10892,-0.1587 0.30539,-0.36808 0.43659,-0.4653 l 0.23855,-0.17675 0.65858,-0.0299 0.65857,-0.0299 0.34374,0.17536 c 0.18905,0.0964 0.43304,0.28567 0.5422,0.42051 l 0.19847,0.24515 1.27,0.0861 c 0.6985,0.0474 1.28905,0.0684 1.31233,0.0466 0.0233,-0.0217 0.0647,-1.91285 0.0919,-4.20245 l 0.0496,-4.16291 0.18747,-1.524 c 0.10311,-0.83819 0.24194,-2.13359 0.30853,-2.87866 l 0.12106,-1.35466 0.0142,-7.281324 c 0.0147,-7.58976 0.0435,-8.89339 0.28546,-12.95398 l 0.14632,-2.45533 -0.0492,-2.285996 c -0.0404,-1.87923 -0.28571,-6.900208 -0.33993,-6.958656 -0.0349,-0.03758 -2.99675,0.406233 -3.21986,0.482464 -0.13501,0.04613 -0.53056,0.08387 -0.87901,0.08387 h -0.63353 l -0.28623,-0.1769 C 139.41644,70.05004 139.3294,69.879993 139.3294,69.39065 v -0.396526 l 0.32169,-0.321683 0.32168,-0.321683 0.29215,-0.04461 c 0.16068,-0.02454 1.03999,-0.148065 1.95402,-0.274508 l 1.66188,-0.229896 0.14322,-0.242446 c 0.0788,-0.133346 0.23132,-0.300176 0.33901,-0.370735 l 0.19579,-0.128288 1.04711,-0.09069 1.04711,-0.09069 0.71966,0.04773 0.71967,0.04773 0.84667,0.223041 0.84666,0.22304 1.98966,0.07292 c 3.93353,0.144163 4.98512,0.395113 8.67832,2.07098 0.74507,0.338089 1.44992,0.643216 1.56634,0.67806 0.11641,0.03484 1.14511,0.532018 2.28599,1.104829 1.14088,0.572811 2.45732,1.195064 2.92541,1.382784 0.46809,0.18772 1.01085,0.412841 1.20612,0.500268 l 0.35505,0.158959 -0.0631,0.06964 -0.0631,0.06964 0.10231,-0.05873 0.10231,-0.05873 0.88508,0.423723 c 0.48679,0.233048 1.34482,0.731031 1.90672,1.10663 l 1.02165,0.682908 0.98921,0.949352 0.98921,0.949353 0.94552,1.185332 c 0.52003,0.651932 1.1255,1.394881 1.34547,1.650997 0.21997,0.256116 0.65826,0.84832 0.97397,1.316009 l 0.57402,0.850342 0.25691,0.673655 c 0.28057,0.735684 0.71233,2.355273 1.13885,4.271983 l 0.2732,1.227665 -0.002,1.396998 -0.002,1.396997 -0.22657,1.185332 c -0.12462,0.651932 -0.32353,1.528231 -0.44203,1.94733 -0.11849,0.4191 -0.27303,0.966282 -0.34342,1.215961 -0.47451,1.683316 -2.36658,5.692077 -3.78186,8.012687 -0.96292,1.57887 -2.18101,3.17383 -2.37466,3.10937 -0.0384,-0.0128 -0.048,0.0121 -0.0213,0.0553 l 0.0485,0.0785 -0.64767,0.60485 c -0.74213,0.69307 -1.81191,1.42536 -3.33144,2.28047 -0.58208,0.32756 -1.28693,0.73882 -1.56633,0.9139 -3.69557,2.31579 -5.72329,3.19924 -10.07532,4.38964 l -1.778,0.48634 -1.28477,0.57789 -1.28477,0.57789 -0.70489,0.18858 -0.7049,0.18858 -2.02833,0.0477 -2.02834,0.0477 -0.0496,0.21072 -0.0496,0.21071 -0.28409,0.19145 -0.2841,0.19145 -0.60131,-0.0109 c -0.33072,-0.006 -1.54321,-0.0622 -2.69442,-0.12488 z m 7.35693,-2.83344 c 0.76708,-0.0923 1.40216,-0.28705 2.22917,-0.68352 1.12658,-0.54009 1.77796,-0.77144 3.42899,-1.21792 2.41457,-0.65296 4.43746,-1.33556 5.68053,-1.91685 0.47776,-0.22341 2.73605,-1.50473 4.22546,-2.39746 0.55879,-0.33494 1.37794,-0.8131 1.82033,-1.06257 0.44238,-0.24947 1.01388,-0.588 1.26999,-0.75228 0.25612,-0.16428 0.49424,-0.29016 0.52917,-0.27974 0.0349,0.0104 0.054,-0.0124 0.0423,-0.0508 -0.0116,-0.0384 0.22852,-0.28203 0.53368,-0.54151 1.46494,-1.24562 2.90078,-3.40091 4.66918,-7.008755 1.06393,-2.170585 1.60928,-3.635617 2.13962,-5.747908 0.36183,-1.441129 0.46801,-2.219358 0.46801,-3.43024 v -0.953241 l -0.20719,-1.00913 c -0.33347,-1.624167 -0.62217,-2.81524 -0.89104,-3.676125 l -0.2512,-0.804332 -0.32466,-0.550332 c -0.17857,-0.302683 -0.63777,-0.931332 -1.02046,-1.396998 -0.38268,-0.465666 -0.97112,-1.208615 -1.30765,-1.650998 -0.70144,-0.922103 -2.31755,-2.575694 -3.07304,-3.144308 -1.16924,-0.880027 -1.62993,-1.121495 -4.16908,-2.185211 -0.89906,-0.376642 -2.25161,-1.004882 -3.00566,-1.396088 -0.75405,-0.391206 -1.86629,-0.927867 -2.47166,-1.192581 -0.60537,-0.264713 -1.63489,-0.722061 -2.28783,-1.016329 -2.07105,-0.933387 -2.96451,-1.215044 -4.55131,-1.43477 l -0.86551,-0.119849 -1.86267,-0.05534 -1.86266,-0.05534 -0.52026,-0.115468 -0.52027,-0.115467 -0.79206,0.08843 c -0.43563,0.04864 -0.80716,0.103527 -0.82561,0.121977 -0.15033,0.150334 -0.15174,1.887615 -0.004,4.355018 0.11699,1.947768 0.11518,5.947251 -0.004,7.746988 -0.0491,0.745065 -0.12623,2.135713 -0.17133,3.090328 l -0.082,1.735664 -0.004,7.069656 -0.004,7.069659 -0.0845,1.48166 c -0.0465,0.81492 -0.16082,2.12937 -0.25412,2.921 -0.0933,0.79163 -0.22499,2.16323 -0.29265,3.04799 l -0.12302,1.60867 -10e-4,2.88751 -0.001,2.88751 2.05317,-0.0337 c 1.12924,-0.0185 2.36448,-0.0712 2.74499,-0.11695 z m 21.27914,-7.99505 c 0,-0.0233 -0.019,-0.0423 -0.0423,-0.0423 -0.0233,0 -0.0423,0.019 -0.0423,0.0423 0,0.0233 0.019,0.0423 0.0423,0.0423 0.0233,0 0.0423,-0.0191 0.0423,-0.0423 z m 2.45533,-29.463958 c 0,-0.02328 -0.019,-0.04233 -0.0423,-0.04233 -0.0233,0 -0.0423,0.01905 -0.0423,0.04233 0,0.02328 0.0191,0.04233 0.0423,0.04233 0.0233,0 0.0423,-0.01905 0.0423,-0.04233 z m -0.67734,-0.592666 c 0,-0.02328 -0.019,-0.04233 -0.0423,-0.04233 -0.0233,0 -0.0423,0.01905 -0.0423,0.04233 0,0.02328 0.019,0.04233 0.0423,0.04233 0.0233,0 0.0423,-0.01905 0.0423,-0.04233 z m -49.88889,38.982674 c -0.36874,-0.0599 -0.69127,-0.2614 -0.88027,-0.54985 l -0.14093,-0.21509 0.007,-0.24226 c 0.016,-0.56265 0.44802,-1.01489 1.1485,-1.20224 l 0.39236,-0.10494 0.29431,0.10642 0.29432,0.10643 0.70139,-0.0932 c 1.04162,-0.13839 1.13488,-0.18436 0.89009,-0.4388 -0.0592,-0.0615 -0.19511,-0.22618 -0.30202,-0.36588 -0.38419,-0.50201 -0.90128,-0.99718 -1.57343,-1.50672 -0.37615,-0.28514 -0.84483,-0.66812 -1.04151,-0.85105 l -0.35761,-0.3326 0.0464,-0.0751 0.0464,-0.0751 -0.0853,0.0233 c -0.094,0.0256 -3.05499,-2.88177 -4.02898,-3.95606 -0.65001,-0.71694 -1.56016,-1.89945 -2.37856,-3.09033 -0.82461,-1.1999 -1.92818,-2.64101 -3.09693,-4.044136 -1.73601,-2.084147 -2.02957,-2.413899 -3.6631,-4.114708 -0.84371,-0.878454 -1.52449,-1.630928 -1.51285,-1.672164 0.0116,-0.04124 -0.0164,-0.06545 -0.0623,-0.05381 -0.0459,0.01164 -0.41737,-0.40508 -0.82549,-0.926048 -0.73844,-0.942612 -1.05169,-1.387818 -2.28232,-3.243779 -0.82475,-1.243831 -1.90893,-2.691549 -2.51206,-3.354358 l -0.47138,-0.518029 0.0605,-0.06053 0.0605,-0.06052 -0.0935,0.02822 -0.0934,0.02822 -0.41058,-0.465666 c -0.22582,-0.256116 -0.62192,-0.695449 -0.88022,-0.976295 -0.68811,-0.748168 -1.16404,-1.278066 -1.774999,-1.976274 -0.58435,-0.667799 -1.908912,-2.005124 -3.993937,-4.03242 -1.662641,-1.616607 -1.84603,-1.819152 -3.3323,-3.680385 l -1.232055,-1.542884 -5.56e-4,2.061302 c -5.02e-4,1.863833 -0.07872,4.186358 -0.334595,9.93529 -0.04767,1.071032 -0.127129,2.880779 -0.176576,4.02166 -0.04945,1.140882 -0.164636,2.979214 -0.255977,4.085182 -0.09134,1.105969 -0.20827,2.858566 -0.259842,3.894661 l -0.09377,1.883809 -0.03771,6.434662 c -0.02074,3.53906 -0.01214,6.86647 0.01912,7.39423 l 0.05682,0.95958 2.298369,-0.053 c 1.264102,-0.0292 2.535809,-0.061 2.826014,-0.0706 l 0.527646,-0.0175 0.258089,0.2582 0.258089,0.2582 0.04666,0.29213 0.04666,0.29214 -0.197679,0.29175 c -0.108724,0.16047 -0.313797,0.35958 -0.45572,0.44246 l -0.258041,0.15071 -0.588337,0.085 -0.588336,0.085 -2.140809,0.002 -2.140809,0.002 -0.20088,0.13162 -0.20088,0.13162 -0.433576,0.01 -0.433576,0.01 -0.09916,-0.0992 -0.09916,-0.0992 h -0.823606 c -0.452983,0 -1.11296,0.0402 -1.466615,0.0894 l -0.643009,0.0894 -0.442615,0.20607 -0.442616,0.20607 -0.491037,8.2e-4 -0.491037,8.2e-4 -0.244656,-0.1265 c -0.13456,-0.0696 -0.304118,-0.21143 -0.376794,-0.31518 l -0.13214,-0.18865 v -0.28587 c 0,-0.15722 0.06239,-0.41734 0.138651,-0.57805 l 0.138651,-0.29218 0.320817,-0.16367 c 0.72218,-0.36843 2.2323,-0.65462 3.669614,-0.69546 l 0.754073,-0.0214 -0.02817,-0.71967 c -0.01549,-0.39582 -0.02432,-3.55811 -0.01962,-7.02732 l 0.0085,-6.307663 0.09508,-2.412997 c 0.05229,-1.327148 0.148686,-3.060695 0.21421,-3.852327 0.132811,-1.604577 0.327551,-5.130532 0.467615,-8.466654 0.05083,-1.210731 0.129592,-2.849028 0.175021,-3.640661 0.04543,-0.791632 0.106256,-2.991903 0.135167,-4.889492 l 0.05257,-3.450161 h -0.07717 c -0.04244,0 -0.210268,0.03897 -0.372944,0.0866 -1.09598,0.32088 -2.553648,0.503137 -4.204605,0.525716 l -1.26082,0.01724 -0.317056,-0.195951 -0.317056,-0.195952 -0.124947,-0.241621 -0.124947,-0.241621 v -0.32703 -0.32703 l 0.238805,-0.22879 0.238805,-0.22879 0.502027,-0.08867 c 0.276115,-0.04877 0.844927,-0.163106 1.264026,-0.25408 0.907716,-0.197036 1.107999,-0.201967 1.427842,-0.03516 0.342402,0.178575 0.629248,0.154605 1.83182,-0.153077 l 1.058331,-0.270777 -0.02128,-0.296333 c -0.01171,-0.162983 -0.02989,-0.437573 -0.04041,-0.610201 l -0.01913,-0.313868 0.175079,-0.236464 0.175079,-0.236465 0.330996,-0.115922 0.330996,-0.115922 0.347747,0.09476 0.347746,0.09477 0.426038,0.426037 0.426037,0.426038 1.004213,-0.418594 c 0.552318,-0.230227 1.453693,-0.616224 2.003057,-0.857772 l 0.998843,-0.439177 0.486025,-0.04407 0.486024,-0.04407 0.345702,0.327629 c 0.433481,0.41082 0.53689,0.610113 0.53689,1.03471 v 0.337213 l -0.160507,0.374449 -0.160508,0.374448 -0.309998,0.182904 c -0.391621,0.231062 -0.649105,0.230863 -1.051652,-8.14e-4 l -0.319215,-0.183717 -1.105029,0.48005 c -0.607765,0.264027 -1.147941,0.48005 -1.200389,0.48005 -0.149654,0 -0.11775,0.06914 0.227408,0.492809 0.177523,0.217904 0.547574,0.681939 0.822336,1.031188 1.281656,1.629114 1.852221,2.249694 4.359206,4.741326 1.475885,1.466848 3.003354,3.026969 3.394384,3.466936 0.39102,0.439967 1.10148,1.22789 1.57879,1.750939 0.4773,0.523049 0.86801,0.963175 0.86824,0.978057 2.2e-4,0.01488 0.27006,0.312808 0.59964,0.662058 0.79634,0.843864 2.14256,2.626748 3.16454,4.190993 1.54773,2.36896 2.22763,3.216386 4.27953,5.333992 0.58659,0.605366 1.28411,1.341548 1.55006,1.635961 l 0.48355,0.535297 -0.0566,0.09162 -0.0566,0.09162 0.0814,-0.05029 0.0814,-0.05029 0.52043,0.60871 c 1.83356,2.14459 3.79856,4.660813 4.76286,6.098963 0.16365,0.24407 0.61832,0.86121 1.01036,1.37142 l 0.7128,0.92765 2.21694,2.21016 2.21694,2.21017 0.69033,0.5255 0.69033,0.52551 -0.0572,0.0926 -0.0572,0.0926 0.10539,-0.0651 0.10539,-0.0651 0.33953,0.32722 0.33953,0.32722 -0.056,-0.71966 c -0.0308,-0.39582 -0.13121,-1.48167 -0.22309,-2.413 -0.22349,-2.26562 -0.408,-4.41752 -0.49364,-5.75732 l -0.0703,-1.10067 0.0317,-7.704651 c 0.0174,-4.23756 0.0748,-9.266752 0.12739,-11.175982 l 0.0957,-3.471328 -0.13672,-2.158997 -0.13673,-2.158997 -0.0136,-2.61014 -0.0136,-2.610141 -0.10812,-0.108116 -0.10811,-0.108116 -0.66236,-0.059 c -0.93131,-0.08296 -2.38273,-0.382227 -2.74985,-0.566989 -0.17022,-0.08567 -0.3932,-0.2616 -0.4955,-0.390958 l -0.186,-0.235195 0.0486,-0.415283 0.0486,-0.415284 0.19293,-0.20946 c 0.10612,-0.115204 0.31674,-0.262205 0.46807,-0.326671 l 0.27513,-0.117209 1.07953,0.08444 c 1.0353,0.08098 1.75635,0.177203 2.23384,0.298089 l 0.22298,0.05645 0.3814,-0.12949 0.3814,-0.12949 0.32696,0.08857 c 0.17982,0.04871 0.41163,0.16677 0.51512,0.262351 l 0.18816,0.173783 0.99717,-0.05343 c 0.54844,-0.02939 1.37771,-0.08943 1.84282,-0.133416 0.46512,-0.04399 0.95314,-0.05849 1.08449,-0.03222 l 0.23883,0.04777 0.33368,0.330356 0.33367,0.330357 v 0.240388 c 0,0.315847 -0.19599,0.774989 -0.41567,0.973803 l -0.17566,0.158965 -0.82616,0.07168 c -0.95949,0.08324 -3.05879,0.240125 -3.22774,0.241212 l -0.11556,7.43e-4 0.0493,3.153828 c 0.0271,1.734606 0.0864,3.572928 0.13163,4.085161 l 0.0823,0.931332 -0.0876,11.853314 c -0.0482,6.519324 -0.0631,12.348611 -0.0331,12.953981 0.03,0.60537 0.14544,1.99601 0.25649,3.09033 0.25938,2.55591 0.44738,4.77499 0.54777,6.46549 0.0439,0.73875 0.0999,1.36328 0.12444,1.38785 0.0246,0.0246 0.2647,0.001 0.53361,-0.0521 0.26891,-0.0532 0.81278,-0.15555 1.20859,-0.22738 0.39582,-0.0718 0.87941,-0.16705 1.07466,-0.21158 0.19524,-0.0445 0.48099,-0.0808 0.635,-0.0806 l 0.28001,3.1e-4 0.27105,0.16528 c 0.32549,0.19846 0.53328,0.5702 0.53328,0.95405 v 0.28169 l -0.1329,0.18974 c -0.0731,0.10435 -0.31121,0.27885 -0.52916,0.38778 l -0.39627,0.19805 -0.508,0.0519 c -0.2794,0.0285 -1.36525,0.22273 -2.413,0.43155 -3.73975,0.74535 -5.68821,1.01373 -6.45496,0.88909 z m 10.18029,-1.9834 c 0,-0.0233 -0.019,-0.0423 -0.0423,-0.0423 -0.0233,0 -0.0423,0.019 -0.0423,0.0423 0,0.0233 0.019,0.0423 0.0423,0.0423 0.0233,0 0.0423,-0.0191 0.0423,-0.0423 z M 109.44212,91.239011 c 0,-0.02328 -0.0191,-0.04233 -0.0423,-0.04233 -0.0233,0 -0.0423,0.01905 -0.0423,0.04233 0,0.02328 0.019,0.04233 0.0423,0.04233 0.0233,0 0.0423,-0.01905 0.0423,-0.04233 z M 90.30748,68.887045 c 0,-0.02328 -0.01905,-0.04233 -0.04233,-0.04233 -0.02328,0 -0.04233,0.01905 -0.04233,0.04233 0,0.02328 0.01905,0.04233 0.04233,0.04233 0.02328,0 0.04233,-0.01905 0.04233,-0.04233 z"
       id="path1" /></g></svg>
