<?xml version="1.0" encoding="UTF-8" standalone="no"?>
<!-- Created with Inkscape (http://www.inkscape.org/) -->

<svg
   width="173.39734mm"
   height="173.39734mm"
   viewBox="0 0 173.39734 173.39734"
   version="1.1"
   id="svg1"
   xml:space="preserve"
   xmlns="http://www.w3.org/2000/svg"
   xmlns:svg="http://www.w3.org/2000/svg"><defs
     id="defs1" /><g
     id="layer1"
     transform="translate(-18.340921,-61.73259)"><path
       style="fill:#ffffff"
       d="m 42.132253,229.2018 c -0.34925,-0.0426 -0.870712,-0.12075 -1.158804,-0.1736 l -0.523805,-0.0961 -0.139993,-0.15469 -0.139993,-0.15469 0.05508,-0.17354 0.05508,-0.17353 0.312387,-0.0851 c 0.171813,-0.0468 1.183454,-0.16232 2.248091,-0.25676 1.064637,-0.0944 1.96668,-0.19086 2.00454,-0.21425 l 0.06884,-0.0426 -0.156387,-0.52806 c -0.08601,-0.29043 -0.25694,-0.85191 -0.379838,-1.24772 -0.122898,-0.39582 -0.255454,-0.83397 -0.294569,-0.97367 -0.03911,-0.1397 -0.476624,-1.43357 -0.972241,-2.87526 -0.495618,-1.4417 -0.992599,-2.94665 -1.104403,-3.34434 -0.197256,-0.70164 -1.117112,-4.27655 -1.188185,-4.61773 -0.17957,-0.86202 -0.508677,-2.04419 -0.583013,-2.09421 -0.234711,-0.15793 -2.352322,-0.0335 -6.755398,0.39686 -2.001629,0.19564 -4.694467,0.36608 -6.46038,0.40888 l -0.762,0.0185 -1.146407,3.429 c -0.96166,2.87641 -2.371839,7.37216 -2.582451,8.23304 l -0.05677,0.23205 0.157147,0.0546 c 0.679441,0.23615 2.014149,0.7539 2.372544,0.92035 l 0.437397,0.20314 0.05681,0.17898 0.05681,0.17898 -0.225264,0.46042 -0.225264,0.46043 h -0.416198 -0.416198 l -0.403075,-0.16016 c -0.221691,-0.0881 -0.841225,-0.34069 -1.376741,-0.56135 -0.535517,-0.22065 -1.145117,-0.47055 -1.354667,-0.55533 -0.20955,-0.0848 -0.9144,-0.37781 -1.566333,-0.6512 l -1.185333,-0.49707 v -0.53505 -0.53505 l 0.142837,-0.0901 0.142838,-0.0901 0.444056,0.1138 c 0.244232,0.0626 0.884805,0.25695 1.423496,0.43189 l 0.979439,0.31807 0.09933,-0.30867 c 0.05463,-0.16978 0.102254,-0.37708 0.105833,-0.46069 l 0.0065,-0.152 -0.3175,0.0471 -0.3175,0.0471 0.169333,-0.0796 c 0.09313,-0.0438 0.248092,-0.0823 0.344353,-0.0856 l 0.175019,-0.006 0.15388,-0.65617 c 0.409047,-1.74423 1.635045,-6.02993 2.561305,-8.9535 0.118027,-0.37253 0.232749,-0.77743 0.254936,-0.89977 l 0.04034,-0.22243 -0.238301,-0.3601 -0.238301,-0.36009 0.217311,-0.39114 0.217311,-0.39114 0.26697,-0.089 c 0.146833,-0.0489 0.301212,-0.12513 0.343065,-0.16933 0.157154,-0.16599 1.798605,-5.4427 2.411964,-7.75366 0.110005,-0.41447 0.366644,-1.25146 1.320631,-4.30704 0.181733,-0.58209 0.462993,-1.51554 0.625023,-2.07434 0.353931,-1.22062 0.858917,-2.86638 0.987205,-3.21733 0.05107,-0.1397 0.207328,-0.57785 0.347248,-0.97367 0.305508,-0.86424 0.782927,-2.07866 1.055875,-2.68584 0.109325,-0.2432 0.222411,-0.53636 0.251304,-0.65147 l 0.05253,-0.20931 -0.452502,-0.12427 c -0.248875,-0.0684 -0.975446,-0.24458 -1.614602,-0.39162 l -1.162102,-0.26733 -0.169129,-0.14225 -0.16913,-0.14224 -0.04184,-0.254 c -0.04812,-0.29212 0.0056,-0.40137 0.264568,-0.53766 l 0.184934,-0.0973 h 0.608533 c 0.537604,0 1.238191,0.0828 2.765761,0.32669 l 0.442163,0.0706 0.310903,-0.28477 c 0.170997,-0.15663 0.403887,-0.30812 0.517532,-0.33664 l 0.206628,-0.0519 0.352487,0.24774 0.352486,0.24773 0.04328,0.24987 0.04328,0.24987 0.380205,0.0715 c 0.970646,0.18244 2.194301,0.51668 2.549343,0.69636 0.215125,0.10886 0.494726,0.32105 0.621334,0.47151 l 0.230197,0.27357 -0.04682,0.23409 c -0.02575,0.12875 -0.101339,0.36458 -0.167976,0.52406 l -0.121158,0.28997 -0.47838,0.0598 -0.478381,0.0598 -0.482978,-0.25117 c -0.265638,-0.13814 -0.690462,-0.31271 -0.944053,-0.38793 l -0.461075,-0.13676 -0.07632,0.0763 -0.07632,0.0763 0.185083,0.7072 c 0.101795,0.38897 0.222671,0.84056 0.268613,1.00354 0.04594,0.16299 0.116272,0.44874 0.156289,0.635 0.04002,0.18627 0.114513,0.49107 0.165547,0.67734 0.05103,0.18626 0.360301,1.36736 0.687259,2.62466 0.538406,2.07041 0.894677,3.35597 1.091073,3.937 0.03935,0.11642 0.246026,0.74507 0.459279,1.397 0.213253,0.65194 0.734152,2.11879 1.157553,3.25967 0.423401,1.14088 1.046614,2.86945 1.384918,3.84126 l 0.615099,1.76692 0.302349,0.26508 c 0.166293,0.14579 0.345608,0.35189 0.39848,0.45799 l 0.09613,0.19292 -0.128016,0.4997 -0.128015,0.49969 0.123161,0.45039 c 0.06774,0.24771 0.178347,0.69803 0.245795,1.00071 0.413264,1.85457 1.368877,5.37952 1.732962,6.39234 0.100438,0.2794 0.242133,0.6985 0.314879,0.93133 0.07274,0.23283 0.360428,1.07103 0.639294,1.86267 0.278867,0.79163 0.770087,2.2941 1.091601,3.33882 0.321514,1.04472 0.61372,1.92732 0.649346,1.96133 l 0.06478,0.0618 0.762,-0.0745 c 0.4191,-0.041 1.03943,-0.09 1.378511,-0.109 l 0.616512,-0.0345 0.337834,0.39133 0.337834,0.39132 -0.02301,0.24548 -0.02301,0.24549 -0.313535,0.25294 -0.313535,0.25295 -0.363798,0.0279 c -0.200089,0.0153 -1.754448,0.0463 -3.454131,0.0688 l -3.090334,0.0408 z M 29.686254,210.78786 c 1.676809,-0.11599 3.238391,-0.2623 4.953,-0.46406 0.882523,-0.10385 2.351852,-0.23666 3.716502,-0.33593 l 1.091835,-0.0794 0.08147,-0.0815 0.08147,-0.0815 -0.104703,-0.32529 c -0.240957,-0.74861 -1.443102,-4.08443 -1.612303,-4.47396 -0.20507,-0.47211 -1.296017,-3.71401 -1.681002,-4.99533 -0.611807,-2.03625 -0.657028,-2.20433 -1.524149,-5.66504 -0.46566,-1.85847 -0.887871,-3.42025 -0.938247,-3.47062 l -0.09159,-0.0916 -0.07938,0.1263 c -0.296696,0.47201 -2.125615,5.61627 -2.22672,6.26317 -0.01104,0.0707 -0.04257,0.16655 -0.07007,0.21312 -0.0275,0.0466 -0.172278,0.50377 -0.321735,1.016 -0.149458,0.51223 -0.329469,1.10278 -0.400024,1.31233 -0.154566,0.45906 -0.336854,1.04207 -1.508937,4.82595 -0.940547,3.03641 -1.053505,3.38468 -1.688855,5.20705 -0.211055,0.60537 -0.38422,1.12924 -0.384812,1.16417 -0.0016,0.0931 0.666763,0.0773 2.708257,-0.0639 z m 129.370656,16.34713 c -1.40569,-0.18095 -2.9612,-0.46151 -3.20527,-0.57811 l -0.22373,-0.10689 -0.0217,-0.16854 c -0.0119,-0.0927 0.0105,-0.21794 0.0498,-0.27832 l 0.0714,-0.10979 0.79689,-0.16265 c 0.4383,-0.0895 1.17349,-0.1817 1.63377,-0.20497 0.46027,-0.0233 0.86032,-0.0658 0.889,-0.0944 0.0287,-0.0287 0.0572,-0.74428 0.0634,-1.59024 l 0.0112,-1.53812 0.092,-0.55033 c 0.33671,-2.01526 0.51585,-5.65323 0.55451,-11.26067 l 0.0289,-4.191 0.14627,-1.26999 0.14626,-1.27 -0.0502,-3.38667 c -0.0276,-1.86267 -0.0504,-4.08199 -0.0507,-4.93183 l -5.2e-4,-1.54517 -0.1905,-3.2e-4 c -0.31293,-5.3e-4 -2.65351,-0.57007 -2.92969,-0.71289 -0.32065,-0.16582 -0.37993,-0.26125 -0.31729,-0.51081 l 0.0498,-0.19839 0.25945,-0.0905 0.25945,-0.0904 1.53854,0.0461 c 0.84621,0.0254 1.55836,0.0493 1.58257,0.0531 0.0242,0.004 0.11053,-0.0222 0.19183,-0.0578 l 0.14782,-0.0647 0.36018,0.0653 c 0.1981,0.0359 1.09199,0.0572 1.98643,0.0472 l 1.62626,-0.0181 0.25644,0.13261 c 0.58186,0.30089 1.10538,0.91409 1.10538,1.29473 v 0.15769 l -0.23283,0.2151 c -0.12806,0.1183 -0.30529,0.24075 -0.39385,0.27211 l -0.16101,0.057 -0.43165,-0.12115 -0.43166,-0.12115 -1.0795,-0.0458 c -0.59372,-0.0252 -1.0795,-0.0229 -1.0795,0.005 0,0.21972 2.1381,3.85044 3.13065,5.31616 0.51971,0.76748 1.79882,2.95592 2.37534,4.064 0.33919,0.65194 0.76311,1.43963 0.94203,1.75044 0.17892,0.31081 0.32532,0.58594 0.32532,0.6114 0,0.0255 0.17145,0.33628 0.381,0.69072 0.20955,0.35444 0.381,0.65924 0.381,0.67733 0,0.0181 0.17145,0.3229 0.381,0.67734 0.20955,0.35443 0.381,0.66098 0.381,0.68121 0,0.0454 0.70159,1.22315 1.00368,1.68489 0.12186,0.18627 0.47686,0.68157 0.78889,1.10067 l 0.56733,0.762 1.16955,1.14672 c 0.64325,0.63069 1.36005,1.3148 1.59288,1.52025 1.01361,0.89439 2.75583,2.55129 4.56771,4.34403 l 1.95162,1.93099 0.0285,-0.18516 c 0.0388,-0.25181 -0.27653,-4.39307 -0.49263,-6.47083 -0.14721,-1.41532 -0.41891,-3.51445 -0.55342,-4.27567 -0.42553,-2.40807 -0.57072,-3.25255 -0.80061,-4.65666 -0.14104,-0.86148 -0.29328,-1.77588 -0.3383,-2.032 -0.045,-0.25612 -0.14462,-1.03717 -0.22134,-1.73567 l -0.13949,-1.27 0.0523,-2.87866 c 0.0287,-1.58327 0.10489,-3.61958 0.16921,-4.52513 0.0643,-0.90555 0.10836,-1.70565 0.0979,-1.778 l -0.0191,-0.13154 -0.20383,-0.0565 c -0.1121,-0.0311 -0.60387,-0.14005 -1.09282,-0.24214 -1.01421,-0.21174 -2.18338,-0.61223 -2.48888,-0.85253 l -0.20746,-0.16319 -0.0568,-0.25865 -0.0568,-0.25866 0.13711,-0.1515 0.1371,-0.1515 0.18837,0.0265 c 0.10361,0.0146 0.70273,0.10571 1.33138,0.20256 0.62865,0.0969 1.5148,0.20463 1.96924,0.23951 l 0.82624,0.0634 0.13373,-0.0748 0.13374,-0.0748 0.31002,0.0492 c 0.17051,0.0271 0.76723,0.10607 1.32603,0.17558 0.5588,0.0695 1.276,0.16211 1.59379,0.20577 l 0.57779,0.0794 0.16577,0.15002 c 0.0912,0.0825 0.24514,0.27843 0.34213,0.43536 l 0.17634,0.28533 -0.14381,0.37657 -0.14381,0.37656 -0.20198,0.0507 c -0.30044,0.0754 -1.61624,-0.0208 -2.19689,-0.16071 -0.2794,-0.0673 -0.53421,-0.0987 -0.56625,-0.0698 -0.032,0.0289 -0.12352,1.02408 -0.20329,2.21153 l -0.14505,2.159 -0.005,2.794 -0.005,2.794 0.23464,1.524 c 0.12905,0.8382 0.3482,2.19075 0.487,3.00566 1.06731,6.26612 1.14058,6.79105 1.46545,10.49867 0.19512,2.22683 0.2925,3.58083 0.43691,6.07556 l 0.0552,0.95322 0.1812,0.0382 c 0.0997,0.021 0.8289,0.0513 1.62053,0.0672 l 1.43933,0.029 0.39493,0.1781 c 0.4172,0.18815 0.52169,0.318 0.61845,0.76856 l 0.0597,0.27819 -0.36723,0.34164 -0.36722,0.34163 -0.41984,-0.0464 c -0.23092,-0.0255 -1.52632,-0.10445 -2.87867,-0.17537 -1.35235,-0.0709 -3.07029,-0.16208 -3.81763,-0.20258 l -1.35881,-0.0736 -0.29219,-0.14979 c -0.34772,-0.17826 -0.41631,-0.26855 -0.41748,-0.5495 l -8.7e-4,-0.21167 0.19008,-0.23368 0.19008,-0.23369 0.889,-0.0831 c 0.48895,-0.0457 1.07479,-0.093 1.30188,-0.10498 l 0.41289,-0.0219 -1.80989,-1.82101 c -1.78694,-1.79793 -4.10232,-4.01269 -5.48711,-5.24866 -0.87703,-0.78277 -3.22311,-3.15865 -3.22311,-3.26404 0,-0.0198 -0.16622,-0.25556 -0.36939,-0.52384 -0.20316,-0.26828 -0.53906,-0.75448 -0.74644,-1.08045 -0.49162,-0.77276 -2.3372,-4.07725 -3.12092,-5.588 -1.22008,-2.35186 -2.15465,-3.97069 -3.7258,-6.45363 l -0.2263,-0.35763 -0.0678,0.0613 -0.0678,0.0613 0.0548,-0.0959 0.0548,-0.0959 -0.15038,-0.20045 c -0.0827,-0.11025 -0.19779,-0.2957 -0.25572,-0.41212 -0.0579,-0.11641 -0.20058,-0.36406 -0.31699,-0.55033 l -0.21166,-0.33867 0.0231,6.18067 0.0231,6.18066 -0.14643,1.86267 c -0.0805,1.02447 -0.20428,3.19617 -0.27498,4.826 -0.0707,1.62983 -0.20454,3.89678 -0.29742,5.03767 -0.0929,1.14088 -0.19362,2.48391 -0.22385,2.9845 l -0.055,0.91016 h 0.46506 0.46506 l 0.62737,-0.15936 c 0.34506,-0.0876 0.78454,-0.18545 0.97662,-0.21732 l 0.34924,-0.0579 0.17037,0.21658 c 0.0937,0.11912 0.19456,0.34556 0.22413,0.5032 l 0.0538,0.28663 -0.0785,0.20654 -0.0785,0.20655 -0.53719,0.26095 c -0.7117,0.34574 -1.25511,0.45155 -2.52684,0.49202 l -1.05834,0.0337 z m -59.183727,-0.0557 c -0.11737,-0.0432 -0.82222,-0.16998 -1.566333,-0.2817 l -1.352933,-0.20314 -0.184806,0.22488 -0.184806,0.22489 -0.153861,-0.0933 c -0.08462,-0.0513 -0.166035,-0.17514 -0.180916,-0.27516 -0.01488,-0.10002 -0.05034,-0.18186 -0.0788,-0.18186 -0.02846,0 -0.683035,-0.0967 -1.454611,-0.21479 l -1.402865,-0.2148 -0.237693,-0.25764 -0.237692,-0.25765 0.02602,-0.26002 0.02603,-0.26002 0.217728,-0.16179 0.217727,-0.16179 0.459606,-0.0613 0.459606,-0.0613 1.174275,0.0705 c 0.645851,0.0388 1.189186,0.0556 1.207411,0.0374 0.05866,-0.0587 0.446463,-1.58823 0.746101,-2.94273 0.16022,-0.72427 0.48111,-2.07682 0.713088,-3.00566 0.495428,-1.98371 0.700471,-2.96644 0.944147,-4.52514 0.195941,-1.25336 0.226288,-1.42935 0.319486,-1.85276 l 0.06305,-0.28642 -0.27661,-0.27661 -0.276611,-0.27661 0.0013,-0.2413 c 0.0022,-0.4063 0.216018,-0.5738 0.56699,-0.44413 l 0.187286,0.0692 0.04456,-0.27185 c 0.02451,-0.14951 0.122316,-0.91123 0.217353,-1.69271 0.16396,-1.34818 0.32146,-2.2343 0.63535,-3.57447 0.0763,-0.32596 0.2127,-0.99271 0.30301,-1.48166 l 0.1642,-0.889 0.1272,-1.778 c 0.0699,-0.9779 0.18376,-2.11294 0.2529,-2.52231 0.18952,-1.12213 0.93395,-4.40842 1.18352,-5.22469 l 0.22004,-0.71967 0.0488,-0.93446 0.0488,-0.93445 -1.69488,-0.0947 -1.694876,-0.0947 -0.175819,-0.0941 -0.175819,-0.0941 -0.101128,-0.33754 -0.101127,-0.33753 0.09447,-0.20734 0.09447,-0.20735 0.258754,-0.13381 0.258755,-0.1338 1.72354,-0.0649 1.72354,-0.0649 0.15166,-0.15165 0.15166,-0.15166 0.38855,0.0579 c 0.2137,0.0319 0.43725,0.085 0.49677,0.11811 l 0.10824,0.0602 1.0771,-0.10989 c 1.14384,-0.11669 2.37597,-0.13017 2.51643,-0.0275 0.0466,0.034 0.269,0.13083 0.49429,0.21512 l 0.40961,0.15324 0.12381,0.18896 0.12381,0.18895 -0.0254,0.53753 -0.0254,0.53753 -0.35821,0.12383 -0.3582,0.12383 -0.4038,-0.11557 -0.40379,-0.11557 -0.635,0.0186 c -0.34925,0.0103 -0.8636,0.0459 -1.143,0.0793 l -0.508,0.0606 0.0194,0.0818 c 0.0107,0.045 0.13587,0.40568 0.27824,0.8015 0.44145,1.22734 1.09875,3.52867 1.47511,5.16466 0.0696,0.30269 0.24467,1.06469 0.38898,1.69334 0.26924,1.17292 0.76819,3.04049 1.31195,4.91066 0.16925,0.58209 0.323,1.13454 0.34166,1.22767 0.0187,0.0931 0.24808,0.85513 0.50983,1.69333 0.26175,0.8382 0.65544,2.2098 0.87486,3.048 l 0.39894,1.524 0.19215,0.096 c 0.10569,0.0528 0.23334,0.13722 0.28369,0.18756 l 0.0915,0.0915 -0.0135,0.34488 c -0.007,0.18969 -0.0728,0.45955 -0.14528,0.59969 l -0.13176,0.2548 0.22547,1.11776 c 0.12401,0.61476 0.40641,1.80355 0.62755,2.64175 0.22114,0.8382 0.42497,1.6383 0.45297,1.778 0.20003,0.9981 0.87367,3.64347 1.13635,4.46238 l 0.31789,0.99105 1.05833,10e-4 1.05834,9.9e-4 0.39603,0.11966 c 0.21782,0.0658 0.50945,0.20042 0.64807,0.29912 0.13862,0.0987 0.29572,0.17947 0.34912,0.17947 0.24727,0 0.43525,0.93838 0.25533,1.27456 -0.10252,0.19156 -0.74643,0.50344 -1.03943,0.50344 h -0.20449 l -0.3046,-0.20671 c -0.37889,-0.25712 -0.82632,-0.38487 -1.35006,-0.38549 l -0.40336,-4.7e-4 -0.23667,0.26488 -0.23667,0.26488 -0.42715,0.041 -0.42716,0.041 -0.21518,-0.23206 -0.21517,-0.23206 -0.56461,0.0605 -0.56461,0.0605 -0.0486,0.12677 -0.0486,0.12678 -0.0602,-0.0974 -0.0602,-0.0974 -1.03008,0.15049 -1.03008,0.15049 -0.22114,-0.22115 -0.22114,-0.22114 0.0586,-0.39098 0.0586,-0.39098 0.18507,-0.11872 c 0.27715,-0.17779 0.91712,-0.36481 2.03711,-0.59532 0.55295,-0.11381 1.02117,-0.22273 1.04049,-0.24206 0.0193,-0.0193 -0.0562,-0.2781 -0.16791,-0.57507 -0.28122,-0.74785 -0.57163,-1.80109 -0.98929,-3.58795 -0.19593,-0.8382 -0.50603,-2.0955 -0.68913,-2.794 -0.41743,-1.59244 -0.8313,-3.41153 -0.83314,-3.66183 l -10e-4,-0.1905 -0.10583,-0.006 c -0.0582,-0.003 -0.25824,-0.0196 -0.4445,-0.036 -0.18627,-0.0164 -1.91982,-0.0688 -3.85234,-0.11623 l -3.51366,-0.0863 -0.45374,-0.0948 c -0.24956,-0.0521 -0.50069,-0.0768 -0.55807,-0.0548 l -0.10433,0.04 -0.18585,0.93278 c -0.10222,0.51303 -0.243165,1.28807 -0.313224,1.72231 -0.130576,0.80933 -0.47165,2.31619 -0.830288,3.6682 -0.111172,0.4191 -0.342698,1.2954 -0.514503,1.94733 -0.171805,0.65193 -0.483285,1.79071 -0.692178,2.53061 l -0.379805,1.34527 0.06866,0.0577 c 0.03776,0.0317 0.6969,0.14299 1.464748,0.24723 l 1.39608,0.18952 0.34877,0.15427 0.34876,0.15428 0.22365,0.29322 0.22365,0.29322 v 0.22904 c 0,0.28756 -0.2043,0.69145 -0.38479,0.76071 -0.20165,0.0774 -1.06352,0.0515 -1.310274,-0.0393 z m 7.325397,-15.97984 c 1.3154,0.0305 1.72536,0.0236 1.77893,-0.0299 0.0728,-0.0728 -0.30062,-1.49874 -1.09353,-4.17596 -0.38616,-1.30387 -0.82233,-2.80881 -0.96927,-3.34433 -0.14694,-0.53552 -0.38181,-1.37972 -0.52193,-1.87601 -0.23052,-0.81641 -0.70492,-2.81185 -1.06367,-4.47399 -0.0754,-0.34925 -0.28865,-1.2065 -0.47392,-1.905 -0.18528,-0.6985 -0.37507,-1.43193 -0.42176,-1.62983 -0.0467,-0.19791 -0.11386,-0.35984 -0.14927,-0.35984 -0.0688,0 -0.50034,1.3766 -0.71661,2.286 -0.072,0.30269 -0.28155,1.17899 -0.46572,1.94734 -0.42036,1.75378 -0.47064,2.04783 -0.68773,4.02166 -0.18285,1.66247 -0.37039,2.67766 -0.8837,4.78367 -0.24828,1.01865 -0.80882,4.29675 -0.80882,4.73011 v 0.12251 l 2.81517,-0.058 c 1.54834,-0.0319 3.19617,-0.0492 3.66183,-0.0384 z m 26.97993,15.71328 -0.3674,-0.1902 0.0518,-0.33949 0.0518,-0.33949 0.17422,-0.14606 c 0.28168,-0.23614 0.69893,-0.31267 2.489,-0.45648 0.93134,-0.0748 1.74254,-0.15024 1.80268,-0.1676 l 0.10933,-0.0316 -0.18524,-0.25055 -0.18524,-0.25055 0.0499,-2.05793 0.0499,-2.05793 0.10627,-0.762 0.10628,-0.762 -0.005,-2.49766 -0.005,-2.49767 -0.13776,-1.524 c -0.50872,-5.62799 -0.62088,-8.44025 -0.67131,-16.83092 l -0.0182,-3.03025 -0.16933,-0.0352 c -0.0931,-0.0194 -0.61548,-0.0756 -1.16077,-0.12488 -0.54529,-0.0493 -1.30729,-0.14464 -1.69333,-0.21186 l -0.7019,-0.12222 -0.1524,-0.18743 -0.15241,-0.18744 0.0254,-0.29874 0.0254,-0.29875 0.2741,-0.15947 0.2741,-0.15948 4.09955,0.0707 4.09955,0.0707 0.32535,0.26265 0.32535,0.26264 0.0262,0.1753 c 0.0144,0.0964 -0.0164,0.33353 -0.0685,0.52692 l -0.0947,0.35163 -0.28574,0.11939 c -0.35143,0.14684 -0.71916,0.15741 -2.07496,0.0597 -0.58208,-0.042 -1.08581,-0.0539 -1.1194,-0.0264 l -0.0611,0.0498 0.12145,5.67086 c 0.0668,3.11897 0.14351,6.07091 0.17046,6.55986 0.027,0.48895 0.0671,1.21285 0.0891,1.60867 0.0685,1.22904 0.20705,3.03515 0.33439,4.36033 0.35346,3.6783 0.38113,6.85278 0.0808,9.271 -0.0202,0.16298 -0.0607,1.22978 -0.09,2.37067 l -0.0532,2.07433 -0.11795,0.18851 -0.11796,0.18852 0.23349,-0.0406 c 0.12841,-0.0224 0.59765,-0.0965 1.04274,-0.16488 0.44509,-0.0683 0.94054,-0.1791 1.10101,-0.24615 l 0.29176,-0.1219 0.35732,0.0653 c 0.19653,0.0359 0.44037,0.12048 0.54187,0.18787 l 0.18454,0.12254 0.0363,0.5326 0.0363,0.53261 -0.15515,0.14046 c -0.46278,0.41901 -0.82662,0.52745 -2.48347,0.74018 l -1.05834,0.13589 -2.667,0.0342 -2.667,0.0342 z m 9.29974,-1.88518 c 0,-0.0233 -0.019,-0.0423 -0.0423,-0.0423 -0.0233,0 -0.0423,0.019 -0.0423,0.0423 0,0.0233 0.0191,0.0423 0.0423,0.0423 0.0233,0 0.0423,-0.019 0.0423,-0.0423 z m -9.82134,1.86267 c 0,-0.0233 0.019,-0.0423 0.0423,-0.0423 0.0233,0 0.0423,0.0191 0.0423,0.0423 0,0.0233 -0.019,0.0423 -0.0423,0.0423 -0.0233,0 -0.0423,-0.0191 -0.0423,-0.0423 z m 54.52534,-1.35467 c 0,-0.0233 0.019,-0.0423 0.0423,-0.0423 0.0233,0 0.0423,0.019 0.0423,0.0423 0,0.0233 -0.019,0.0423 -0.0423,0.0423 -0.0233,0 -0.0423,-0.0191 -0.0423,-0.0423 z M 68.46348,224.5059 c -1.111543,-0.14231 -2.157567,-0.39296 -3.160373,-0.75729 -1.06782,-0.38796 -3.07405,-1.31344 -3.563936,-1.64406 -0.222398,-0.15009 -0.441572,-0.28116 -0.487054,-0.29126 -0.194678,-0.0433 -1.567047,-1.26784 -2.101865,-1.87553 -0.762607,-0.86651 -1.642534,-2.00619 -1.852783,-2.39972 l -0.103046,-0.19287 -0.0935,0.0578 -0.0935,0.0578 0.05426,-0.0878 0.05426,-0.0878 -0.168179,-0.21381 c -0.0925,-0.11759 -0.16818,-0.24289 -0.16818,-0.27845 0,-0.0356 -0.05437,-0.12479 -0.120826,-0.19831 -0.161213,-0.17834 -0.966439,-1.75293 -1.302337,-2.54667 -0.526421,-1.24394 -1.024869,-3.36943 -1.209673,-5.1583 l -0.09993,-0.9673 0.04876,-1.48803 0.04876,-1.48803 0.179012,-1.18533 c 0.283668,-1.87832 0.503057,-2.67506 1.293913,-4.699 0.605007,-1.54833 1.648688,-3.66276 2.277628,-4.61434 l 0.447681,-0.67733 0.763675,-0.76714 c 1.984531,-1.99355 4.570244,-3.34434 7.145368,-3.73279 l 0.89964,-0.13571 1.735667,0.0502 1.735666,0.0502 1.058333,0.13169 c 0.582084,0.0724 1.184063,0.15447 1.337732,0.1823 l 0.279398,0.0506 -0.05851,-1.1821 -0.05851,-1.1821 0.05817,-0.31004 0.05816,-0.31005 0.331408,-0.16907 c 0.42884,-0.21878 0.61608,-0.2132 0.894946,0.0267 l 0.227568,0.19575 0.06777,0.84142 c 0.03727,0.46278 0.112339,2.02252 0.166817,3.46609 0.05448,1.44357 0.114482,2.65006 0.133343,2.68109 0.01886,0.031 -0.0077,0.25963 -0.05905,0.508 l -0.09334,0.45158 -0.130378,0.10236 c -0.168145,0.13201 -0.801297,0.22703 -1.029707,0.15454 l -0.176917,-0.0562 -0.13115,-0.45114 -0.131149,-0.45114 -0.06013,-1.68124 -0.06013,-1.68123 -0.677334,-0.0687 -0.677333,-0.0687 -2.074333,0.0444 -2.074333,0.0444 -0.550334,0.0893 c -1.367018,0.22182 -2.08168,0.44257 -3.386666,1.0461 -0.116417,0.0538 -0.506659,0.27295 -0.867206,0.4869 l -0.655538,0.389 0.06287,0.0694 0.06287,0.0694 -0.09296,-0.053 -0.09296,-0.053 -0.499707,0.36677 c -1.716804,1.26008 -2.5188,2.24606 -3.496519,4.29867 -1.018644,2.13853 -1.575875,3.6952 -1.917069,5.3555 l -0.210052,1.02214 -0.132968,1.43934 -0.132969,1.43933 0.0531,1.016 c 0.09623,1.8413 0.527113,4.15213 1.007745,5.40459 0.110189,0.28714 0.262412,0.69352 0.338271,0.90307 0.07586,0.20955 0.221451,0.51435 0.323535,0.67734 0.102085,0.16298 0.193753,0.34176 0.203708,0.39729 0.03205,0.17879 1.291739,1.99204 1.929701,2.77771 l 0.618746,0.762 0.09465,-0.0202 0.09465,-0.0202 -0.04085,0.10645 -0.04085,0.10646 0.403732,0.38934 c 1.037183,1.00021 1.976708,1.58613 3.803073,2.37176 0.551829,0.23737 1.041426,0.44006 1.087993,0.45043 0.04657,0.0104 0.198966,0.0638 0.338666,0.11878 0.1397,0.055 0.34925,0.13372 0.465667,0.175 0.719268,0.25503 2.482322,0.51308 3.505566,0.51308 h 0.797347 l 0.512512,-0.15951 c 1.866269,-0.58085 2.766227,-2.16883 3.148485,-5.55549 l 0.105121,-0.93134 0.0038,-1.43933 0.0038,-1.43933 -0.146213,-1.43934 c -0.08042,-0.79163 -0.181608,-1.73373 -0.224869,-2.09356 l -0.07866,-0.65422 0.111294,-0.36981 0.111294,-0.3698 -2.758486,-0.0505 c -1.517168,-0.0278 -2.762709,-0.0432 -2.767871,-0.0343 -0.0052,0.009 0.02801,0.61064 0.07372,1.33715 l 0.08311,1.32094 -0.05615,0.22371 -0.05615,0.22372 -0.30519,0.12751 c -0.441819,0.18461 -0.564324,0.16193 -0.928803,-0.17192 l -0.32691,-0.29944 -0.02931,-1.49973 -0.02931,-1.49973 -0.212288,-0.31175 -0.212289,-0.31175 0.05868,-0.19625 c 0.03227,-0.10793 0.107755,-0.27436 0.167737,-0.36984 l 0.109058,-0.17359 0.03266,-1.68907 0.03266,-1.68908 0.105406,-0.18856 c 0.05797,-0.10371 0.179951,-0.22845 0.271062,-0.27721 l 0.165655,-0.0887 0.218266,0.0548 c 0.120046,0.0301 0.270616,0.13583 0.3346,0.23488 l 0.116335,0.18011 0.08767,1.016 c 0.04822,0.5588 0.110933,1.30807 0.139362,1.66506 l 0.05169,0.64906 3.401275,-0.0458 3.401275,-0.0458 1.481666,0.17748 c 0.814917,0.0976 2.16357,0.2179 2.997007,0.2673 0.833438,0.0494 1.54543,0.10839 1.582207,0.13112 0.03678,0.0227 0.61192,0.13357 1.278099,0.24631 l 1.211233,0.20499 0.148727,0.18367 0.148727,0.18367 0.0026,-1.42755 c 0.0014,-0.78515 0.03663,-1.89589 0.07824,-2.46831 l 0.07564,-1.04077 0.16231,-0.3139 0.162311,-0.3139 0.305588,-0.026 0.305587,-0.026 0.180007,0.35284 0.180006,0.35284 0.07222,1.91685 c 0.03972,1.05427 0.09458,3.67054 0.121908,5.81394 l 0.04969,3.89708 -0.249698,0.39373 c -0.137333,0.21655 -0.329893,0.43665 -0.427911,0.48911 l -0.178214,0.0954 -0.171698,-0.0545 c -0.09443,-0.03 -0.302545,-0.16938 -0.462469,-0.30979 l -0.29077,-0.2553 v -2.96362 -2.96363 l -0.148167,0.0606 c -0.08149,0.0333 -0.271699,0.0962 -0.422683,0.13986 l -0.274516,0.0793 -0.428634,-0.049 c -0.235749,-0.0269 -0.798017,-0.12641 -1.249484,-0.22102 l -0.820849,-0.17202 -0.889,-0.0425 c -0.809762,-0.0387 -2.818608,-0.216 -3.839076,-0.33877 l -0.410075,-0.0493 0.09193,0.17177 c 0.05056,0.0945 0.129842,0.52724 0.176182,0.96171 0.04634,0.43447 0.141795,1.32334 0.212124,1.97528 0.07033,0.65193 0.15172,1.60443 0.18087,2.11666 l 0.053,0.93134 -0.09878,1.35466 c -0.161182,2.21054 -0.391387,3.43803 -0.889193,4.74134 -0.442713,1.15906 -1.147336,2.24623 -1.926927,2.97305 l -0.373677,0.34838 -0.631022,0.30302 c -0.81291,0.39036 -1.187993,0.47404 -2.324356,0.51855 l -0.931333,0.0365 z m 0.423439,-13.12499 c 0,-0.0233 0.01905,-0.0423 0.04233,-0.0423 0.02328,0 0.04233,0.019 0.04233,0.0423 0,0.0233 -0.01905,0.0423 -0.04233,0.0423 -0.02328,0 -0.04233,-0.019 -0.04233,-0.0423 z m 76.369331,-27.71017 c -0.11642,-0.0783 -0.24279,-0.18105 -0.28082,-0.2284 l -0.0691,-0.0861 0.0462,-1.03685 c 0.0998,-2.23973 0.68537,-5.86747 1.04702,-6.4867 l 0.15523,-0.26578 0.27451,-0.008 0.27452,-0.008 0.12291,0.17548 c 0.0676,0.0965 0.1229,0.24937 0.1229,0.33969 0,0.0903 0.0614,0.35913 0.13654,0.59736 l 0.13653,0.43314 -0.13816,0.37863 -0.13816,0.37864 0.0514,-0.35984 0.0514,-0.35983 h -0.12835 -0.12835 l -0.0647,0.48683 c -0.0356,0.26776 -0.0669,0.69639 -0.0696,0.9525 l -0.005,0.46567 0.21166,-0.0103 c 0.11642,-0.006 0.50727,-0.0554 0.86856,-0.11044 l 0.65688,-0.10011 0.78245,0.0919 c 0.43035,0.0506 1.27185,0.13377 1.87,0.18492 l 1.08756,0.093 1.07185,-0.0928 c 1.1959,-0.10359 3.50143,-0.42301 5.31476,-0.73632 2.96755,-0.51273 5.49892,-1.22187 7.11495,-1.99317 l 0.69533,-0.33187 0.66167,-0.50083 c 0.66625,-0.50432 1.2121,-1.08404 1.39158,-1.47795 l 0.097,-0.21297 -0.0994,-0.39463 c -0.11321,-0.44958 -0.62393,-1.4984 -1.0801,-2.2181 -1.22631,-1.93476 -3.57319,-3.85585 -5.70491,-4.66987 -0.82019,-0.3132 -2.49985,-0.79445 -2.80986,-0.80506 -0.1287,-0.004 -0.23409,-0.0366 -0.23419,-0.0715 -1.1e-4,-0.0349 -0.0646,-0.0635 -0.14321,-0.0635 -0.21915,0 -3.57593,-0.80398 -4.76765,-1.1419 -1.31159,-0.37191 -1.16779,-0.32622 -1.55551,-0.49413 -0.18031,-0.0781 -0.34579,-0.14197 -0.36773,-0.14197 -0.0219,0 -0.33725,-0.14993 -0.70068,-0.33319 -0.36344,-0.18326 -0.68374,-0.31026 -0.71177,-0.28223 -0.028,0.028 -0.051,0.0147 -0.051,-0.0295 0,-0.0443 -0.12382,-0.15263 -0.27517,-0.24076 -0.56444,-0.32867 -1.55859,-1.10853 -1.99413,-1.56428 l -0.45011,-0.471 -0.27013,-0.55033 -0.27013,-0.55033 0.002,-1.05834 0.002,-1.05833 0.15286,-0.508 c 0.18851,-0.62641 0.73422,-1.72629 1.11156,-2.24031 0.27756,-0.37811 1.15669,-1.26791 1.73812,-1.75922 0.87639,-0.74055 2.95961,-1.76223 4.62168,-2.2666 1.70999,-0.51892 2.94451,-0.74312 4.95012,-0.89898 l 1.32747,-0.10316 1.3872,0.10253 c 0.76296,0.0564 1.78564,0.17571 2.27262,0.26516 0.48698,0.0894 0.8936,0.15444 0.90361,0.14443 0.01,-0.01 0.11764,-0.70377 0.23918,-1.54169 l 0.22098,-1.52349 0.19223,-0.381 0.19222,-0.381 0.35224,-0.0259 0.35224,-0.0259 0.1301,0.31139 0.13011,0.31139 5.9e-4,0.39183 c 3.2e-4,0.2155 -0.0609,0.99418 -0.13606,1.73038 -0.0751,0.73621 -0.11682,1.35838 -0.0926,1.3826 0.0242,0.0242 0.1426,-0.0205 0.26306,-0.0995 l 0.21901,-0.1435 v 0.13057 c 0,0.0718 -0.13295,0.24016 -0.29545,0.37411 l -0.29545,0.24353 -0.14398,1.8158 -0.14399,1.81579 -0.35376,0.35984 c -0.19456,0.19791 -0.38734,0.35969 -0.4284,0.35951 -0.17308,-7.3e-4 -0.62595,-0.34864 -0.7394,-0.56803 l -0.12265,-0.23718 0.11954,-1.2046 c 0.0658,-0.66253 0.15136,-1.43722 0.19024,-1.72153 l 0.0707,-0.51694 -0.0929,-0.0288 c -0.0511,-0.0159 -0.67409,-0.0754 -1.38447,-0.13226 l -1.29161,-0.10343 -1.41773,0.0521 c -2.09725,0.077 -3.86394,0.39528 -5.77805,1.04094 -1.4559,0.49109 -2.94661,1.2179 -3.51934,1.71589 -0.10533,0.0916 -0.21111,0.14689 -0.23509,0.12292 -0.024,-0.024 -0.47548,0.38869 -1.00336,0.91703 l -0.95978,0.96061 -0.2865,0.4906 c -0.38492,0.65914 -0.60641,1.3382 -0.66164,2.02852 l -0.0457,0.57177 0.14852,0.3889 0.14852,0.3889 0.45194,0.44477 c 0.24856,0.24463 0.76788,0.65649 1.15404,0.91525 1.70056,1.13954 2.93613,1.55241 8.27977,2.76672 2.51624,0.5718 3.90217,1.03386 5.01451,1.67181 0.29214,0.16755 0.60786,0.34696 0.70162,0.3987 0.57342,0.31643 1.6982,1.20507 2.41154,1.90525 1.5348,1.50648 2.55441,3.05436 3.14353,4.77224 l 0.18127,0.52857 0.003,0.46928 0.003,0.46927 -0.226,0.58906 c -0.25898,0.67503 -0.38897,0.88705 -0.86055,1.40366 -1.33763,1.46532 -3.43689,2.437 -7.366,3.40949 -2.36196,0.5846 -5.71416,1.14454 -8.46667,1.41425 l -1.016,0.0995 -1.22767,-0.0512 -1.22766,-0.0512 -1.016,-0.16726 c -1.13032,-0.18609 -1.43711,-0.26642 -1.96504,-0.51458 -0.1988,-0.0934 -0.39655,-0.1699 -0.43944,-0.1699 h -0.078 l -0.0502,0.6985 c -0.0276,0.38417 -0.0822,1.17004 -0.12121,1.74637 l -0.071,1.04787 -0.20389,0.15674 c -0.25073,0.19276 -0.47721,0.19556 -0.75422,0.009 z m -101.888742,-2.12644 -0.160833,-0.17772 -0.770044,-0.002 c -0.423524,-10e-4 -1.151044,-0.0387 -1.616711,-0.0833 l -0.846666,-0.0811 -0.148167,-0.18006 c -0.08149,-0.099 -0.148167,-0.26849 -0.148167,-0.37658 v -0.19652 l 0.246649,-0.17563 0.246649,-0.17563 1.213851,-0.0829 c 0.667618,-0.0456 1.318626,-0.0834 1.446684,-0.0841 l 0.232834,-0.001 v -0.41628 -0.41628 l 0.105833,-0.0353 0.105833,-0.0353 0.0301,-2.34622 0.0301,-2.34622 -0.09726,-2.00707 c -0.193006,-3.98269 -0.597208,-7.93721 -1.237138,-12.10357 l -0.146298,-0.9525 H 40.166973 38.47919 l -1.877637,0.16776 c -2.167977,0.19369 -2.82669,0.25971 -3.062971,0.30698 -0.09313,0.0186 -0.884376,0.0588 -1.758318,0.0892 l -1.588985,0.0553 0.04073,0.13487 c 0.05913,0.19583 0.617752,3.11467 0.682064,3.56387 0.03,0.20955 0.07422,0.45031 0.09826,0.53501 l 0.04371,0.15401 0.124751,-0.15401 0.124751,-0.15401 -0.03876,0.91486 -0.03876,0.91485 -0.149004,0.16465 -0.149004,0.16464 h -0.224695 c -0.123582,0 -0.290567,-0.0482 -0.371077,-0.10703 l -0.146382,-0.10704 -0.209174,-1.6498 c -0.115046,-0.90738 -0.25139,-1.87839 -0.302987,-2.15779 -0.0516,-0.2794 -0.0989,-0.91713 -0.105126,-1.41717 l -0.01131,-0.90916 -0.3175,-0.12732 -0.3175,-0.12731 v -0.24531 -0.24531 l 0.152306,-0.18809 0.152307,-0.18809 1.39286,-0.19884 c 0.766073,-0.10936 1.62146,-0.22164 1.90086,-0.24951 0.2794,-0.0279 0.7747,-0.0888 1.100667,-0.13532 0.325967,-0.0466 1.411816,-0.17996 2.413,-0.29644 l 1.820333,-0.21179 2.032,-0.0475 2.032,-0.0475 1.997077,0.13919 1.997077,0.13918 3.506256,-0.005 c 1.928441,-0.003 4.211106,0.0286 5.072589,0.0694 l 1.566333,0.0741 0.224583,0.1077 0.224582,0.10769 0.101438,0.3623 0.101438,0.3623 -0.05727,0.18046 c -0.0315,0.0993 -0.149308,0.24076 -0.261794,0.31446 l -0.204518,0.13401 0.05518,0.0966 0.05518,0.0966 -0.06704,-0.0605 -0.06704,-0.0605 -0.166072,0.0889 -0.166072,0.0889 0.05875,0.60664 c 0.03231,0.33366 0.093,0.64284 0.13487,0.68708 0.09201,0.0972 0.101788,0.24178 0.01262,0.18658 l -0.0635,-0.0393 0.02914,1.50198 0.02914,1.50198 -0.203208,0.23625 -0.203208,0.23624 h -0.23446 c -0.314397,0 -0.373742,-0.0759 -0.474492,-0.6072 l -0.08592,-0.45308 v -1.93007 -1.93007 l -0.1905,-0.0652 -0.1905,-0.0652 -3.937,0.0123 -3.937,0.0123 -1.606472,-0.11727 c -0.88356,-0.0645 -1.616462,-0.10729 -1.628672,-0.0951 -0.01221,0.0122 0.05058,0.28625 0.139541,0.60897 0.848558,3.07848 1.600757,9.5508 1.736033,14.93778 l 0.04571,1.82033 -0.06993,1.43933 -0.06993,1.43934 0.06352,0.0733 0.06353,0.0733 0.874997,-0.10121 c 0.481249,-0.0557 1.155281,-0.15894 1.497849,-0.22949 l 0.622851,-0.12828 0.393149,0.14664 c 0.216231,0.0807 0.462501,0.20691 0.547266,0.28057 l 0.154117,0.13392 -0.05554,0.29606 c -0.03055,0.16284 -0.110119,0.40161 -0.176824,0.5306 l -0.121281,0.23454 -0.231293,0.0504 c -0.127212,0.0277 -0.326544,0.0834 -0.44296,0.1237 -0.313109,0.10838 -0.750436,0.15301 -2.145133,0.21895 l -1.256134,0.0594 -0.132791,0.13279 -0.132791,0.13279 -0.558866,0.0316 -0.558865,0.0316 z m 46.601409,-0.26567 c -0.48895,-0.0854 -1.057703,-0.19321 -1.263896,-0.23967 l -0.374897,-0.0845 -0.247631,0.12806 -0.247631,0.12805 -0.266472,-0.10731 c -0.14656,-0.059 -0.380772,-0.19114 -0.520472,-0.2936 l -0.254,-0.18629 -0.592667,-0.13154 c -0.325967,-0.0724 -0.992717,-0.21208 -1.481667,-0.31051 l -0.889,-0.17897 -0.326509,-0.22465 -0.32651,-0.22465 0.04295,-0.38107 0.04295,-0.38107 0.187104,-0.15151 0.187104,-0.1515 h 0.565521 c 0.311036,0 0.996235,0.0599 1.522664,0.13306 0.52643,0.0732 0.97982,0.11039 1.007534,0.0827 0.02771,-0.0277 -0.01743,-1.20202 -0.100318,-2.60957 -0.08289,-1.40754 -0.171894,-3.53774 -0.197789,-4.73377 l -0.04708,-2.1746 -0.601479,-0.1114 -0.601478,-0.1114 -2.921,0.027 -2.921,0.0271 -1.100666,-0.0939 c -1.037193,-0.0885 -1.883145,-0.21485 -3.908886,-0.58393 l -0.860886,-0.15684 -0.09452,0.0584 -0.09452,0.0584 0.08867,2.49087 c 0.04877,1.36998 0.129981,2.75758 0.180478,3.08354 0.0505,0.32597 0.116678,1.10671 0.147071,1.73499 l 0.05526,1.14232 0.550333,0.10972 c 1.398073,0.27874 2.186973,0.47085 2.511135,0.61151 l 0.352136,0.1528 0.09825,0.47326 0.09825,0.47327 -0.05638,0.17763 -0.05638,0.17763 -0.285455,0.11927 c -0.383193,0.16011 -0.682376,0.15024 -1.237729,-0.0408 -0.255939,-0.0881 -0.830995,-0.2446 -1.277902,-0.34787 l -0.812559,-0.18776 -0.226609,0.2266 c -0.124635,0.12464 -0.320038,0.26214 -0.434229,0.30555 l -0.20762,0.0789 -0.154658,-0.0828 c -0.205005,-0.10972 -0.596255,-0.57932 -0.596255,-0.71566 v -0.10808 l -0.783167,-0.14762 c -0.430741,-0.0812 -1.015784,-0.20433 -1.300094,-0.27364 l -0.516928,-0.12603 -0.139239,-0.29198 c -0.07658,-0.1606 -0.139238,-0.36413 -0.139238,-0.45231 v -0.16031 l 0.230728,-0.18149 0.230729,-0.1815 0.721771,0.0513 c 0.396974,0.0282 0.935865,0.0722 1.197534,0.0977 l 0.475762,0.0464 -0.03096,-0.57853 c -0.01703,-0.31819 -0.07364,-1.13944 -0.1258,-1.82501 -0.05216,-0.68557 -0.09993,-2.24767 -0.106138,-3.47133 l -0.0113,-2.22485 h -0.125841 -0.12584 l -0.02934,-0.15233 -0.02934,-0.15233 0.148406,-0.2265 0.148407,-0.2265 -0.01736,-1.10284 c -0.02802,-1.77991 -0.212331,-4.71584 -0.44455,-7.08127 l -0.09651,-0.98309 -0.814686,-0.0572 c -0.993829,-0.0698 -2.362075,-0.26999 -2.689772,-0.39355 -0.132869,-0.0501 -0.365405,-0.21053 -0.516747,-0.35651 l -0.275166,-0.26541 0.0012,-0.21623 c 6.86e-4,-0.11892 0.04918,-0.31097 0.107775,-0.42677 l 0.106527,-0.21054 0.336725,-0.0601 0.336725,-0.0601 0.846666,0.0746 c 0.465667,0.041 1.182342,0.0998 1.592612,0.13049 l 0.745946,0.0559 -0.05664,-0.50062 -0.05664,-0.50062 0.20635,-0.23989 0.206349,-0.2399 0.223029,0.056 0.223029,0.056 0.172481,0.55843 c 0.09486,0.30714 0.172481,0.60639 0.172481,0.665 v 0.10658 l 0.392817,0.0538 c 0.216049,0.0296 0.92066,0.0538 1.565802,0.0538 h 1.172985 l 0.256942,0.3547 c 0.141318,0.19508 0.278146,0.43918 0.304064,0.54245 l 0.04712,0.18775 -0.09913,0.18523 -0.09913,0.18523 -0.464705,0.21274 -0.464705,0.21275 -1.107264,-0.0616 -1.107263,-0.0616 0.05842,0.41233 c 0.363719,2.56704 0.686989,5.86152 0.74038,7.54528 l 0.01677,0.52896 0.938613,-0.006 c 0.516238,-0.003 1.586314,0.0403 2.377947,0.0967 l 1.439334,0.10255 2.455333,-0.0695 c 3.198055,-0.0905 4.882453,-0.0961 5.472929,-0.018 l 0.477596,0.0632 0.05335,-1.67182 c 0.02934,-0.9195 0.07044,-2.07187 0.09134,-2.56082 0.135028,-3.15965 0.229048,-6.4463 0.185648,-6.4897 -0.02812,-0.0281 -0.690815,-0.0826 -1.472658,-0.12097 l -1.421534,-0.0699 -0.275166,-0.31452 -0.275167,-0.31451 v -0.18444 -0.18443 l 0.148167,-0.12992 c 0.08149,-0.0714 0.281516,-0.20118 0.4445,-0.28829 l 0.296333,-0.15837 3.005667,0.001 c 1.653116,5.9e-4 3.181404,0.0307 3.396194,0.0669 l 0.390528,0.0659 0.338831,0.2197 c 0.186356,0.12084 0.399737,0.32281 0.474179,0.44883 l 0.135348,0.22913 -0.08899,0.3309 c -0.04894,0.18199 -0.140077,0.38397 -0.202521,0.44885 l -0.113536,0.11795 -0.577519,0.007 c -0.317636,0.004 -1.018917,-0.0263 -1.558404,-0.0666 l -0.980884,-0.0732 -0.05628,3.07395 c -0.03096,1.69067 -0.05567,5.09655 -0.05493,7.56861 l 0.0014,4.49465 0.12374,1.82033 c 0.06806,1.00119 0.168312,2.65854 0.22279,3.683 0.05448,1.02447 0.124732,1.89206 0.156119,1.92798 0.03139,0.0359 0.583338,0.14237 1.226557,0.23654 l 1.169489,0.17123 0.240122,0.12417 c 0.132067,0.0683 0.281223,0.20097 0.331458,0.29483 l 0.09134,0.17066 -0.02533,0.48173 -0.02533,0.48173 -0.287688,0.1934 c -0.334511,0.22488 -0.361377,0.22524 -1.532646,0.0208 z m 33.443333,-0.67839 c -1.23962,-0.0923 -5.63002,-0.12688 -5.97969,-0.0472 l -0.2647,0.0604 -0.13747,-0.13748 c -0.0756,-0.0756 -0.13747,-0.2241 -0.13747,-0.32997 v -0.1925 l 0.16146,-0.14612 c 0.0888,-0.0804 0.44123,-0.25475 0.78317,-0.38752 l 0.6217,-0.24139 0.92853,-0.13786 c 0.5107,-0.0758 0.94194,-0.15127 0.95833,-0.16765 0.0164,-0.0164 -0.0109,-0.25007 -0.0607,-0.5193 l -0.0905,-0.4895 -10e-4,-1.19095 c -8.1e-4,-0.65502 -0.0389,-1.5529 -0.0846,-1.99528 -0.11267,-1.09016 -0.15306,-1.49338 -0.25871,-2.58234 -0.0953,-0.98203 -0.22596,-4.73452 -0.30465,-8.74716 l -0.047,-2.39716 0.0977,-1.96317 c 0.0971,-1.95182 0.21167,-3.55488 0.30731,-4.30081 l 0.05,-0.39031 -1.61495,0.0423 -1.61496,0.0423 -0.29636,-0.31424 c -0.16299,-0.17282 -0.29635,-0.34669 -0.29635,-0.38637 0,-0.0397 0.0977,-0.18825 0.2171,-0.33016 l 0.21711,-0.25802 0.31206,-0.0883 c 0.17163,-0.0486 1.11216,-0.20781 2.09006,-0.3539 l 1.778,-0.26561 1.22767,-0.008 1.22766,-0.008 0.46567,0.28349 c 0.25612,0.15592 0.53149,0.36547 0.61195,0.46567 l 0.14628,0.18217 0.002,0.26254 c 10e-4,0.14439 -0.0386,0.37859 -0.088,0.52043 l -0.0899,0.2579 -0.37092,0.0934 c -0.51773,0.13037 -0.66504,0.1181 -0.91171,-0.0759 l -0.21527,-0.16934 h -0.84069 -0.84069 l -0.0547,3.85133 -0.0547,3.85133 0.0884,1.79555 c 0.0486,0.98756 0.10665,1.82501 0.1289,1.86102 0.0222,0.036 0.0786,1.27633 0.12529,2.75629 l 0.0848,2.69082 0.17296,1.651 0.17297,1.651 0.0464,2.26483 0.0464,2.26483 1.49164,7.4e-4 c 0.8204,4e-4 1.69142,0.0247 1.9356,0.0541 l 0.44396,0.0533 0.30721,0.26556 0.3072,0.26555 -0.10536,0.47082 -0.10537,0.47082 -0.18013,0.11387 -0.18014,0.11386 -0.67733,0.0188 c -0.37253,0.0103 -1.11548,-0.0139 -1.651,-0.0537 z m 23.45266,-3.33999 c 0,-0.0233 0.019,-0.0423 0.0423,-0.0423 0.0233,0 0.0423,0.0191 0.0423,0.0423 0,0.0233 -0.019,0.0423 -0.0423,0.0423 -0.0233,0 -0.0423,-0.019 -0.0423,-0.0423 z m 17.69534,-8.72067 c 0,-0.0233 0.019,-0.0423 0.0423,-0.0423 0.0233,0 0.0423,0.019 0.0423,0.0423 0,0.0233 -0.0191,0.0423 -0.0423,0.0423 -0.0233,0 -0.0423,-0.019 -0.0423,-0.0423 z m -93.302665,-0.0847 c 0,-0.0233 0.01905,-0.0423 0.04233,-0.0423 0.02328,0 0.04233,0.0191 0.04233,0.0423 0,0.0233 -0.01905,0.0423 -0.04233,0.0423 -0.02328,0 -0.04233,-0.0191 -0.04233,-0.0423 z m -29.590998,-23.3429 c -0.232834,-0.0432 -0.709407,-0.15111 -1.059051,-0.23975 -0.349645,-0.0886 -0.921145,-0.2043 -1.27,-0.25703 l -0.634282,-0.0959 -2.304274,-0.0549 -2.304274,-0.0549 -0.13198,-0.13212 -0.131981,-0.13211 -0.0512,-0.43228 -0.0512,-0.43229 0.210186,-0.21018 0.210187,-0.21019 0.499265,-0.10486 0.499266,-0.10487 2.032,0.0541 c 1.1176,0.0298 2.121709,0.0786 2.231353,0.10847 l 0.199354,0.0544 -0.03807,-0.96469 c -0.02094,-0.53058 -0.0088,-2.66014 0.02702,-4.73235 0.0358,-2.07222 0.09229,-6.24991 0.125536,-9.28375 l 0.06044,-5.51608 -0.498484,-0.0964 c -0.274166,-0.053 -1.315633,-0.26511 -2.314371,-0.47127 l -1.815887,-0.37484 -0.25015,-0.25015 -0.25015,-0.25015 0.10809,-0.38606 c 0.138896,-0.49608 0.225934,-0.56084 0.82197,-0.61156 0.270975,-0.0231 0.844627,-0.10119 1.274784,-0.17362 l 0.782103,-0.13171 -0.04627,-0.0749 -0.04627,-0.0749 h 0.131997 0.131997 v 0.14271 c 0,0.0785 -0.07845,0.22621 -0.174324,0.32827 l -0.174324,0.18556 0.570078,0.0611 c 0.313543,0.0336 0.620589,0.0804 0.682324,0.10412 l 0.112246,0.0431 v -0.28921 c 0,-0.37755 0.127085,-0.53212 0.602972,-0.73341 l 0.391307,-0.16551 0.0555,-0.29582 0.0555,-0.29582 0.131622,-0.0505 c 0.07239,-0.0278 0.284215,-0.0505 0.470718,-0.0505 h 0.339096 l 0.08785,0.23284 0.08785,0.23283 3.670659,-0.0288 3.670659,-0.0288 0.996634,0.0914 0.996635,0.0914 0.592667,0.16532 c 0.98822,0.27565 2.538711,0.93952 3.344333,1.43193 0.162983,0.0996 0.353483,0.20766 0.423333,0.2401 0.113372,0.0526 0.437541,0.27106 1.223942,0.82463 0.622511,0.43821 1.631817,1.40854 1.990758,1.91389 0.673095,0.94763 1.017521,1.49666 1.018042,1.6228 3.25e-4,0.0787 0.04309,0.16943 0.09502,0.20153 l 0.09443,0.0584 -0.04404,0.39074 -0.04404,0.39075 0.336359,0.31997 0.336359,0.31997 0.21151,0.61175 c 0.282486,0.81704 0.508382,1.69718 0.664157,2.5877 l 0.12829,0.73339 2.71e-4,0.8757 2.7e-4,0.8757 -0.167738,0.82311 c -0.704423,3.45665 -2.471013,6.16126 -5.497699,8.41682 -0.886647,0.66076 -0.93679,0.69168 -2.123896,1.30992 -1.945014,1.01294 -4.73905,1.63141 -7.976402,1.76562 l -1.294597,0.0537 -0.228629,0.11524 -0.228629,0.11523 -0.575704,-0.0117 c -0.316638,-0.006 -0.766205,-0.047 -0.999038,-0.0902 z m 4.191,-2.02492 c 3.160183,-0.28072 5.513602,-0.97782 7.272272,-2.15408 0.204567,-0.13682 0.434272,-0.28687 0.510455,-0.33343 0.359102,-0.2195 1.788048,-1.4263 2.168988,-1.83179 0.406128,-0.4323 1.478284,-1.79665 1.478284,-1.88116 0,-0.022 0.133279,-0.24232 0.296176,-0.48966 0.23856,-0.36224 0.739827,-1.48923 0.842146,-1.89339 0.01179,-0.0466 0.04511,-0.14182 0.07404,-0.21167 0.168844,-0.40759 0.256166,-0.71735 0.40242,-1.42749 l 0.163214,-0.79248 v -0.58692 c 0,-1.05416 -0.427675,-2.69447 -1.103761,-4.23338 -0.191226,-0.43527 -0.379629,-0.89349 -0.418674,-1.01827 l -0.07099,-0.22686 0.137019,-0.3023 c 0.07536,-0.16627 0.167181,-0.3023 0.204046,-0.3023 0.03686,0 0.06703,-0.17011 0.06703,-0.37802 v -0.37802 l -0.163768,-0.0877 c -0.09007,-0.0482 -0.287641,-0.0876 -0.439043,-0.0876 h -0.275276 l -0.187621,0.17626 -0.187621,0.17626 -0.6717,-0.6631 c -0.369435,-0.3647 -0.823725,-0.78347 -1.009533,-0.93061 -0.441575,-0.34967 -1.683606,-1.1436 -2.060772,-1.31729 -0.825067,-0.37995 -1.348133,-0.5928 -1.976221,-0.80418 l -0.690778,-0.23247 -3.873561,-0.0439 c -2.130459,-0.0242 -3.873534,-0.0206 -3.8735,0.008 3.3e-5,0.0285 -0.08566,0.0432 -0.190439,0.0328 l -0.1905,-0.0189 0.14086,0.0356 0.140859,0.0356 0.134307,0.28303 c 0.07387,0.15567 0.134307,0.41866 0.134307,0.58444 v 0.3014 l -0.181035,0.16866 c -0.09957,0.0928 -0.345136,0.22458 -0.545705,0.29292 l -0.36467,0.12425 -0.173961,-0.0455 -0.173962,-0.0455 -0.02117,7.86271 c -0.02316,8.60527 -0.0055,11.95245 0.06515,12.36518 l 0.04609,0.26914 0.441795,0.0861 0.441794,0.0861 1.354666,-0.0419 c 0.745067,-0.023 1.792817,-0.0808 2.328334,-0.1284 z m 7.535332,-20.52151 c 0,-0.0233 0.01905,-0.0423 0.04233,-0.0423 0.02328,0 0.04233,0.019 0.04233,0.0423 0,0.0233 -0.01905,0.0423 -0.04233,0.0423 -0.02328,0 -0.04233,-0.019 -0.04233,-0.0423 z m 56.811331,20.69361 c -0.34925,-0.0382 -1.82251,-0.1063 -3.27392,-0.15135 l -2.63891,-0.0819 -0.19742,-0.10193 c -0.10858,-0.0561 -0.28314,-0.18001 -0.38792,-0.27544 l -0.1905,-0.17351 v -0.26539 c 0,-0.14597 0.0476,-0.32941 0.10584,-0.40765 l 0.10583,-0.14226 0.42585,-0.0799 c 0.23422,-0.0439 0.8513,-0.10679 1.37129,-0.13969 l 0.94544,-0.0598 0.0434,-0.11316 c 0.0447,-0.11657 0.0347,-0.7909 -0.089,-6.00164 -0.0708,-2.98244 -0.098,-12.78372 -0.0463,-16.70977 0.0143,-1.08776 0.002,-2.00216 -0.0282,-2.03199 -0.0298,-0.0298 -0.67019,-0.0592 -1.42301,-0.0652 l -1.36877,-0.011 -0.43038,-0.12581 c -0.23671,-0.0692 -0.54151,-0.17883 -0.67733,-0.24363 l -0.24696,-0.11783 -0.0254,-0.30228 -0.0254,-0.30228 0.16595,-0.20512 0.16596,-0.20511 2.14545,-0.05 2.14545,-0.05 0.35757,-0.11507 0.35757,-0.11508 0.19276,0.17893 0.19277,0.17894 1.57872,0.0285 1.57872,0.0284 0.16402,0.14854 c 0.0902,0.0817 0.20721,0.28928 0.26001,0.4613 l 0.096,0.31277 -0.22662,0.3007 c -0.12464,0.16538 -0.28532,0.3493 -0.35707,0.40872 l -0.13044,0.10802 -1.38303,-0.0551 -1.38302,-0.0551 0.0388,8.24442 0.0389,8.24443 0.0898,2.24367 c 0.0895,2.23506 0.18177,5.08815 0.18422,5.69594 l 0.001,0.31961 1.86884,-0.0231 1.86884,-0.0231 0.24783,0.33237 0.24782,0.33238 v 0.27718 0.27717 l -0.29989,0.29126 -0.2999,0.29125 -0.37259,0.0938 c -0.41052,0.10337 -0.55229,0.10354 -1.48295,0.002 z m -29.717999,-1.91221 c -1.666251,-0.1677 -3.432722,-0.69322 -3.995164,-1.18854 l -0.142832,-0.12579 -0.103083,0.0637 -0.103084,0.0637 0.05594,-0.0905 0.05594,-0.0905 -0.458378,-0.4094 c -0.252107,-0.22518 -0.667162,-0.66451 -0.922343,-0.97631 -0.255182,-0.3118 -0.487297,-0.54992 -0.515812,-0.52917 -0.02851,0.0208 -0.03432,0.0139 -0.01289,-0.0153 0.02142,-0.0292 -0.127355,-0.28636 -0.330621,-0.5715 -0.597807,-0.83859 -1.106345,-1.74867 -1.428707,-2.55681 l -0.301416,-0.75562 -0.178527,-0.88003 -0.178527,-0.88004 -0.0012,-1.27896 -0.0012,-1.27897 0.136829,-1.143 c 0.498469,-4.16395 1.135267,-6.38047 2.304249,-8.02047 0.972728,-1.36466 2.810291,-2.45082 5.110664,-3.02085 0.887596,-0.21995 2.69734,-0.47149 3.399094,-0.47245 l 0.653221,-9e-4 0.28929,0.254 c 0.159109,0.1397 0.320494,0.254 0.358633,0.254 0.03814,0 0.604608,0.176 1.258822,0.39111 0.654214,0.21511 1.22758,0.39842 1.274147,0.40735 0.123603,0.0237 1.138554,0.55008 1.391837,0.72184 0.119256,0.0809 0.61513,0.41006 1.101943,0.73154 1.095928,0.72371 1.572426,1.15643 2.228576,2.02383 l 0.512375,0.67733 0.405008,0.84667 0.405007,0.84667 0.213272,0.82378 c 0.410454,1.58541 0.48128,2.87843 0.25474,4.65061 -0.251733,1.96926 -0.721443,3.64785 -1.409648,5.0376 l -0.361777,0.73057 -0.635,0.7285 c -0.34925,0.40068 -0.765419,0.8429 -0.92482,0.98272 -0.159401,0.13982 -0.331111,0.29232 -0.381578,0.33888 -0.05047,0.0466 -0.320098,0.2723 -0.59918,0.50162 -0.279082,0.22932 -0.555047,0.47473 -0.613255,0.54535 -0.05821,0.0706 -0.105834,0.0989 -0.105834,0.0628 0,-0.0361 -0.142875,0.0451 -0.317499,0.18038 -0.174625,0.1353 -0.535876,0.38051 -0.802778,0.54489 l -0.485278,0.29888 0.06194,0.0685 0.06194,0.0685 -0.101147,-0.058 -0.101148,-0.058 -0.416216,0.2561 c -0.22892,0.14086 -0.459628,0.2561 -0.512686,0.2561 -0.05306,0 -0.09647,0.0318 -0.09647,0.0706 0,0.0388 -0.04762,0.0742 -0.105833,0.0787 -0.05821,0.004 -0.429683,0.1411 -0.8255,0.30361 l -0.719667,0.29547 -0.862947,0.17616 -0.862948,0.17617 -0.661052,-0.0136 c -0.363579,-0.007 -0.794402,-0.027 -0.957386,-0.0434 z m 2.82771,-2.15118 c 1.784859,-0.59798 4.082734,-2.12838 5.573234,-3.71182 0.738346,-0.78438 1.019519,-1.20107 1.382161,-2.04833 0.530113,-1.23853 0.869392,-2.72024 1.055598,-4.61003 l 0.09229,-0.93663 -0.09007,-0.88543 -0.09007,-0.88543 -0.213808,-0.80261 c -0.258182,-0.96919 -0.583598,-1.68933 -1.046544,-2.316 l -0.345867,-0.46818 -0.656487,-0.49771 c -1.465032,-1.11072 -2.270674,-1.52816 -4.093458,-2.12101 -1.367934,-0.44492 -2.111639,-0.60497 -2.81614,-0.60607 -0.226112,-3.5e-4 -0.628129,-0.0569 -0.893371,-0.12561 -0.265243,-0.0687 -0.739541,-0.1614 -1.053995,-0.20593 l -0.571736,-0.081 -0.609226,0.25745 c -0.335075,0.1416 -0.927774,0.44893 -1.31711,0.68295 l -0.707883,0.4255 -0.464067,0.47155 c -1.293347,1.31417 -1.789592,2.70304 -2.304026,6.44842 -0.230983,1.68168 -0.345174,3.01415 -0.345518,4.03174 l -2.89e-4,0.85674 0.123752,0.7096 c 0.150194,0.86121 0.367239,1.55757 0.696172,2.23359 0.356883,0.73345 0.708352,1.31233 0.796788,1.31233 0.04214,0 0.0671,0.0309 0.05545,0.0687 -0.01164,0.0378 0.07408,0.19444 0.1905,0.34813 1.204168,1.58962 1.839456,2.06323 3.217333,2.39854 1.096553,0.26684 2.256661,0.39795 3.083617,0.34847 l 0.585952,-0.0351 z m 3.352957,-2.06756 c 0,-0.0233 0.01905,-0.0423 0.04233,-0.0423 0.02328,0 0.04233,0.0191 0.04233,0.0423 0,0.0233 -0.01905,0.0423 -0.04233,0.0423 -0.02328,0 -0.04233,-0.019 -0.04233,-0.0423 z m 40.555332,2.83292 c -2.1736,-0.0716 -3.01817,-0.14145 -3.63729,-0.30088 -0.25426,-0.0655 -0.54531,-0.11904 -0.64679,-0.11904 -0.10147,0 -0.26186,-0.0667 -0.35642,-0.14816 l -0.17193,-0.14817 -0.0538,-0.26604 -0.0538,-0.26604 0.23755,-0.16611 c 0.32429,-0.22676 0.51986,-0.26256 1.55734,-0.28504 l 0.89644,-0.0194 -0.11393,-0.22839 -0.11394,-0.22839 -0.0957,-4.73128 -0.0957,-4.73128 0.0977,-3.302 c 0.0537,-1.8161 0.13233,-3.74015 0.17468,-4.27567 0.0423,-0.53551 0.1033,-1.6818 0.13543,-2.54731 l 0.0584,-1.57365 -1.07262,-0.0987 -1.07261,-0.0987 -0.25384,-0.13127 c -0.13961,-0.0722 -0.27248,-0.17985 -0.29527,-0.23923 -0.0639,-0.16655 0.10766,-0.54002 0.29387,-0.63967 0.0919,-0.0492 0.76504,-0.14412 1.4958,-0.21092 l 1.32864,-0.12147 0.2269,-0.27179 0.2269,-0.27178 0.47755,0.0396 0.47756,0.0396 0.14559,0.12046 0.14559,0.12046 h 1.48937 1.48938 l 0.27205,0.14873 0.27206,0.14873 0.0963,0.35752 0.0963,0.35751 -0.0788,0.12494 c -0.0433,0.0687 -0.20909,0.22966 -0.36832,0.35765 l -0.28951,0.23271 -0.6985,0.0159 c -0.38418,0.009 -0.6985,0.0279 -0.6985,0.0426 0,0.0147 0.35309,0.43795 0.78464,0.94058 0.68894,0.80243 2.42253,2.93611 3.02536,3.7236 0.11641,0.15208 0.66886,0.86881 1.22766,1.59274 0.5588,0.72393 1.0922,1.42116 1.18534,1.5494 0.0931,0.12824 0.49318,0.64886 0.889,1.15693 0.76114,0.97699 2.06526,2.67911 3.80584,4.96735 0.5798,0.76222 1.08462,1.39856 1.12183,1.41408 0.0372,0.0155 0.0677,0.0639 0.0677,0.10757 0,0.0436 0.31629,0.50719 0.70286,1.03011 0.38658,0.52292 0.79432,1.08411 0.90609,1.2471 0.11178,0.16298 0.22595,0.31538 0.25372,0.33866 0.0278,0.0233 0.14268,0.17569 0.25536,0.33867 0.11268,0.16298 0.3107,0.41063 0.44003,0.55033 l 0.23516,0.254 0.002,-0.21166 c 0.001,-0.11642 0.0562,-0.66887 0.12241,-1.22767 0.1815,-1.53233 0.53336,-5.43755 0.67894,-7.53533 0.21932,-3.16061 0.297,-5.76354 0.29753,-9.9695 l 5e-4,-4.04284 -0.14817,0.001 c -0.0815,7.3e-4 -0.67042,0.0755 -1.30872,0.16618 l -1.16056,0.16487 -0.25761,-0.0898 -0.25761,-0.0898 v -0.28448 -0.28448 l 0.37839,-0.22176 c 0.92949,-0.54471 3.0712,-1.09499 5.25684,-1.35065 1.28189,-0.14996 1.81592,-0.15307 2.2811,-0.0133 l 0.33867,0.10177 0.10106,0.29389 c 0.0556,0.16165 0.1032,0.43734 0.10583,0.61264 l 0.005,0.31875 -0.25463,0.15485 -0.25463,0.15485 -1.36637,0.0538 c -0.7515,0.0296 -1.38939,0.0768 -1.41754,0.10493 -0.0281,0.0281 -0.0568,1.772 -0.0636,3.87528 -0.0213,6.56701 -0.15952,9.40526 -0.75718,15.55048 -0.25121,2.58294 -0.51059,4.50177 -0.53604,3.96552 l -0.007,-0.14082 -0.71615,1.9568 0.16583,0.35688 0.46566,0.0187 0.46567,0.0187 0.127,-0.26448 0.127,-0.26448 0.59728,-0.14839 c 0.32851,-0.0816 0.82381,-0.26711 1.10067,-0.41221 l 0.50338,-0.26384 0.33312,-0.0125 0.33311,-0.0125 0.28072,0.32475 0.28072,0.32474 v 0.1586 c 0,0.2233 -0.28506,0.75302 -0.52093,0.96802 -0.28412,0.259 -1.0047,0.6036 -1.57315,0.75234 -0.65885,0.17239 -2.76224,0.36764 -4.67812,0.43427 l -1.57247,0.0547 -0.30631,-0.10109 c -0.16847,-0.0556 -0.38641,-0.17057 -0.48433,-0.25549 l -0.17802,-0.1544 v -0.18329 c 0,-0.28272 0.22145,-0.74714 0.40245,-0.84401 0.19117,-0.10231 1.40856,-0.26517 1.98216,-0.26517 h 0.39939 l 0.0487,-0.0789 0.0488,-0.0789 -0.17255,-0.12086 c -0.38459,-0.26937 -1.28205,-1.19135 -1.48129,-1.52175 -0.27486,-0.45582 -1.60976,-2.24679 -1.65417,-2.21934 -0.0293,0.0181 -0.0533,-0.0146 -0.0533,-0.0727 0,-0.0581 -0.35877,-0.59407 -0.79728,-1.19105 -0.4385,-0.59698 -0.85286,-1.1669 -0.92081,-1.26648 -0.0679,-0.0996 -0.23939,-0.31872 -0.381,-0.48697 -0.1416,-0.16825 -0.42815,-0.54576 -0.63677,-0.83892 -0.20862,-0.29316 -0.4207,-0.5746 -0.4713,-0.62543 -0.0506,-0.0508 -0.16031,-0.19686 -0.24379,-0.32451 l -0.15179,-0.23211 -0.0885,0.0547 -0.0885,0.0547 0.0563,-0.0911 0.0563,-0.0911 -0.40303,-0.50592 c -0.66168,-0.8306 -2.14358,-2.77553 -2.71182,-3.55915 -0.29194,-0.40258 -0.62288,-0.81377 -0.73543,-0.91376 -0.11256,-0.1 -0.18751,-0.19892 -0.16657,-0.21986 0.0209,-0.0209 -0.0967,-0.20583 -0.26147,-0.41087 -0.16474,-0.20505 -0.50528,-0.63951 -0.75675,-0.96548 -0.25147,-0.32596 -0.55459,-0.70696 -0.67361,-0.84666 -0.11901,-0.1397 -0.25524,-0.30002 -0.30272,-0.35626 -0.0475,-0.0563 -0.0863,-0.12263 -0.0863,-0.14753 0,-0.0249 -0.0724,-0.13127 -0.16082,-0.2364 -0.41422,-0.49232 -0.8295,-0.99951 -0.99848,-1.21949 -0.10211,-0.13291 -0.29261,-0.36275 -0.42334,-0.51075 -0.13073,-0.148 -0.33294,-0.40145 -0.44936,-0.56321 -0.11641,-0.16176 -0.24118,-0.27596 -0.27726,-0.25378 -0.0361,0.0222 -0.0551,0.007 -0.0423,-0.0328 0.0128,-0.0402 -0.11996,-0.24083 -0.29501,-0.44578 l -0.31828,-0.37263 -0.0726,0.0797 c -0.11105,0.1219 -0.34367,2.65231 -0.43929,4.77865 l -0.0857,1.905 0.0213,4.953 c 0.0117,2.72415 0.0484,5.5245 0.0814,6.223 0.0331,0.6985 0.0713,1.56097 0.0849,1.91659 l 0.0248,0.64659 -0.11391,0.13726 -0.11392,0.13726 2.04903,-0.0484 2.04902,-0.0484 0.27931,0.29615 0.27931,0.29616 0.0462,0.23839 0.0462,0.2384 -0.16826,0.27365 c -0.0925,0.15051 -0.27623,0.35054 -0.40819,0.4445 l -0.23994,0.17085 -0.62193,-0.0141 c -0.34206,-0.008 -1.44108,-0.041 -2.44226,-0.074 z m -51.900665,-0.46225 c 0,-0.0233 0.01905,-0.0423 0.04233,-0.0423 0.02328,0 0.04233,0.019 0.04233,0.0423 0,0.0233 -0.01905,0.0423 -0.04233,0.0423 -0.02328,0 -0.04233,-0.019 -0.04233,-0.0423 z m 12.191999,-0.16933 c 0,-0.0233 0.01905,-0.0423 0.04233,-0.0423 0.02328,0 0.04233,0.019 0.04233,0.0423 0,0.0233 -0.01905,0.0423 -0.04233,0.0423 -0.02328,0 -0.04233,-0.019 -0.04233,-0.0423 z m 78.231996,-2.15308 c -1.61819,-0.24603 -3.18617,-0.79451 -3.89467,-1.36235 l -0.21166,-0.16965 c 0.71678,-0.18803 0.90215,-0.80149 1.40838,-1.26795 0.0446,0 0.43172,0.16813 0.86033,0.37363 l 0.77929,0.37364 0.7801,0.17849 0.78011,0.17848 1.12489,0.0858 1.1249,0.0858 0.59266,-0.0523 c 0.32597,-0.0288 0.87494,-0.10784 1.21993,-0.17572 l 0.62725,-0.12343 c 0.40343,-0.0973 0.30193,-0.0538 0.77742,-0.27506 l 0.254,-0.14126 c 0.8526,-0.47415 1.04849,-0.58941 1.34449,-0.79108 0.79135,-0.53916 1.28654,-1.09153 1.64378,-1.83359 0.34229,-0.711 0.94873,-3.52679 0.94873,-4.40509 V 127.353 l -0.2073,-0.44637 c -0.11401,-0.24551 -0.25689,-0.61783 -0.3175,-0.82738 l -0.1102,-0.381 -2.54,-0.0563 -2.54,-0.0563 -0.37769,-0.13047 c -0.20774,-0.0717 -0.38379,-0.12262 -0.39124,-0.11304 -0.007,0.01 0.0264,0.59267 0.0752,1.29576 l 0.0887,1.27833 -0.17375,0.33033 -0.17374,0.33033 -0.36365,-0.0175 -0.36365,-0.0175 -0.11102,-0.11102 c -0.0611,-0.0611 -0.14981,-0.31557 -0.19723,-0.56559 l -0.0862,-0.45457 0.007,-1.99928 c 0.004,-1.0996 0.0328,-2.3131 0.0647,-2.69667 l 0.058,-0.69739 0.17828,-0.17829 0.17829,-0.17829 0.25897,0.13392 c 0.32274,0.1669 0.33272,0.20321 0.40382,1.46928 0.032,0.57044 0.0737,1.03716 0.0927,1.03716 0.0189,0 0.13671,-0.0667 0.26171,-0.14816 l 0.22728,-0.14817 1.23024,-0.006 c 0.67664,-0.003 2.41135,-0.0294 3.85491,-0.0586 l 2.62467,-0.053 1.48167,0.11725 c 0.81491,0.0645 1.64066,0.13734 1.83498,0.16188 l 0.35332,0.0446 0.0277,-1.1377 0.0277,-1.13771 0.12733,-0.12709 c 0.07,-0.0699 0.21952,-0.13782 0.33219,-0.15095 l 0.20486,-0.0239 0.18716,0.27312 0.18716,0.27311 0.10567,1.12876 0.10568,1.12876 0.24633,0.14138 0.24633,0.14137 0.12348,0.29553 c 0.0679,0.16254 0.12382,0.42058 0.12424,0.57342 l 7.7e-4,0.27789 -0.27271,0.22412 -0.2727,0.22413 0.10461,0.96121 c 0.0575,0.52866 0.20499,1.5755 0.32768,2.32631 l 0.22306,1.36511 -0.1885,0.26472 -0.1885,0.26473 h -0.40921 -0.4092 l -0.16542,-0.28037 c -0.28501,-0.48306 -0.48001,-1.61488 -0.64269,-3.7303 l -0.0976,-1.26936 -0.24587,-0.0655 c -0.25591,-0.0682 -2.32812,-0.28705 -3.44704,-0.36412 l -0.64492,-0.0444 0.28136,0.30717 c 0.15474,0.16894 0.34971,0.44443 0.43325,0.61219 l 0.15189,0.30502 -0.008,0.762 -0.008,0.762 -0.14268,0.80434 c -0.27696,1.56125 -0.7228,3.11507 -1.12342,3.91525 -0.11059,0.22088 -0.2063,0.43043 -0.2127,0.46567 -0.006,0.0352 -0.0566,0.10218 -0.1116,0.14874 -0.055,0.0466 -0.24264,0.28423 -0.41701,0.52813 -0.96333,1.34743 -3.36916,2.59574 -5.58078,2.89571 l -0.66229,0.0898 -1.41204,-0.008 -1.41204,-0.008 z m -5.68326,-2.60942 c -1.17715,-0.98737 -2.06001,-2.50413 -2.47641,-4.2545 -0.44498,-1.87048 -0.41002,-4.77376 0.086,-7.14386 0.59931,-2.86359 1.8638,-4.92594 4.00375,-6.53001 0.83614,-0.62676 1.1823,-0.83524 2.16491,-1.30386 1.34649,-0.64216 2.45842,-0.98627 4.00898,-1.24068 l 0.87632,-0.14379 1.36735,0.0462 1.36735,0.0462 0.49593,0.13889 c 0.27276,0.0764 0.50715,0.12712 0.52086,0.11272 0.0137,-0.0144 0.0656,-0.54566 0.11527,-1.18058 l 0.0903,-1.15439 0.1009,-0.22144 c 0.11147,-0.24466 0.10578,-0.24117 0.43071,-0.26437 l 0.23001,-0.0164 -0.04,0.0648 c -0.022,0.0356 0.008,0.0807 0.0663,0.10011 l 0.10636,0.0353 0.0266,1.60108 0.0266,1.60109 0.10867,0.12764 c 0.0598,0.0702 0.13266,0.19518 0.16196,0.27773 l 0.0533,0.15008 -0.16371,0.1637 -0.1637,0.16371 -0.11465,1.68209 -0.11465,1.6821 -0.17203,0.33245 -0.17202,0.33245 -0.3732,0.0243 -0.3732,0.0243 -0.19963,-0.37918 -0.19963,-0.37917 0.13426,-0.78814 c 0.17956,-1.05407 0.35472,-2.8433 0.28516,-2.91285 -0.19856,-0.19857 -2.58423,-0.27642 -3.6185,-0.11809 -1.23099,0.18844 -2.36888,0.55486 -3.683,1.18598 -1.03832,0.49866 -1.44044,0.75709 -2.56665,1.64949 l -0.6411,0.508 -0.55525,0.68772 -0.55526,0.68771 -0.31465,0.63636 c -0.44752,0.90506 -0.80878,2.04947 -0.99994,3.16761 l -0.16504,0.96537 -0.0558,1.41927 -0.0558,1.41928 0.10251,0.84234 c 0.13977,1.14849 0.38902,2.06053 0.79708,2.91668 l 0.34302,0.71966 0.78827,0.78228 c 0.43355,0.43025 1.90596,1.48556 1.90202,1.5508 -0.0425,0.70374 -0.54807,1.19121 -1.39126,1.27574 -0.0282,0.003 -1.44308,-0.96193 -1.59575,-1.08998 z m -22.34141,-3.19617 c 0,-0.0233 0.019,-0.0423 0.0423,-0.0423 0.0233,0 0.0423,0.0191 0.0423,0.0423 0,0.0233 -0.019,0.0423 -0.0423,0.0423 -0.0233,0 -0.0423,-0.019 -0.0423,-0.0423 z m 1.69334,-1.86267 c 0,-0.0233 0.019,-0.0423 0.0423,-0.0423 0.0233,0 0.0423,0.019 0.0423,0.0423 0,0.0233 -0.019,0.0423 -0.0423,0.0423 -0.0233,0 -0.0423,-0.019 -0.0423,-0.0423 z m -9.22867,-7.874 c 0,-0.0233 0.0191,-0.0423 0.0423,-0.0423 0.0233,0 0.0423,0.019 0.0423,0.0423 0,0.0233 -0.019,0.0423 -0.0423,0.0423 -0.0233,0 -0.0423,-0.0191 -0.0423,-0.0423 z m -74.760661,-0.67733 c 0,-0.0233 0.01905,-0.0423 0.04233,-0.0423 0.02328,0 0.04233,0.019 0.04233,0.0423 0,0.0233 -0.01905,0.0423 -0.04233,0.0423 -0.02328,0 -0.04233,-0.0191 -0.04233,-0.0423 z m 4.741333,-15.11401 c -0.395816,-0.0405 -0.910166,-0.0963 -1.143,-0.12411 -0.232833,-0.0278 -1.185333,-0.126 -2.116666,-0.21827 l -1.693333,-0.16775 -0.211667,-0.15482 c -0.116417,-0.0852 -0.265457,-0.24956 -0.331201,-0.36535 l -0.119535,-0.21052 0.161868,-0.33092 0.161868,-0.33091 0.211667,-0.10925 0.211666,-0.10925 1.302206,0.0239 1.302206,0.0239 -0.0472,-1.69334 c -0.02596,-0.93133 -0.0923,-2.360079 -0.147435,-3.174996 l -0.100239,-1.481666 0.05219,-3.302 C 57.715601,90.578356 57.805908,87.6453 58.010103,82.73553 58.1272,79.919987 58.1882,78.831237 58.355128,76.577437 l 0.05748,-0.776153 -0.372013,-0.04916 c -0.204608,-0.02704 -0.815795,-0.08752 -1.358194,-0.1344 -0.5424,-0.04688 -1.10734,-0.10947 -1.255424,-0.139087 l -0.269244,-0.05385 -0.289743,-0.273262 -0.289742,-0.273263 0.0014,-0.159336 c 7.66e-4,-0.08763 0.08649,-0.309113 0.190499,-0.492174 l 0.189108,-0.332839 0.254,-0.0716 0.254,-0.0716 1.862666,0.08809 c 2.70494,0.127923 4.457423,0.433381 5.739094,1.000325 l 0.388521,0.171862 0.174693,0.342425 c 0.09608,0.188334 0.174692,0.432335 0.174692,0.542225 v 0.199799 l -0.302931,0.353907 -0.302931,0.353907 h -0.232805 c -0.128043,0 -0.458449,-0.09159 -0.734236,-0.20354 -0.57576,-0.233712 -2.041278,-0.613168 -2.108505,-0.545941 -0.106332,0.106332 -0.127597,0.569662 -0.343313,7.48048 -0.06832,2.188633 -0.14816,6.246283 -0.177429,9.017 l -0.05322,5.037666 0.108242,1.397 c 0.05953,0.76835 0.131165,2.197102 0.159183,3.175002 l 0.05094,1.778 1.016,0.0661 1.016,0.0661 1.201345,-0.0977 c 0.66074,-0.0537 1.294544,-0.0743 1.408455,-0.0457 l 0.20711,0.052 0.185179,0.39395 0.18518,0.39395 -0.0518,0.20639 c -0.02849,0.11351 -0.196713,0.36174 -0.373828,0.55162 l -0.322028,0.34523 -1.727806,0.0229 c -0.950293,0.0126 -2.051656,-0.0102 -2.447473,-0.0507 z m 57.466288,-5.42485 c -1.3709,-0.0928 -3.32488,-0.40851 -4.42654,-0.715223 l -0.42726,-0.118952 -0.20031,-0.21322 -0.20031,-0.21322 0.10044,-0.33522 0.10043,-0.33522 0.22105,-0.173875 0.22105,-0.173876 0.43308,6.77e-4 c 0.23819,3.72e-4 0.88883,0.05752 1.44586,0.127 0.55703,0.06948 1.09357,0.126323 1.19231,0.126323 h 0.17953 l 0.35752,-1.142156 c 0.19663,-0.628186 0.50941,-1.875961 0.69506,-2.772833 0.38932,-1.880821 0.46,-2.168017 0.98467,-4.001344 0.21322,-0.745066 0.39562,-1.411816 0.40532,-1.481666 0.01,-0.06985 0.0403,-0.18415 0.0681,-0.254 0.0277,-0.06985 0.0823,-0.257362 0.12125,-0.416693 l 0.0708,-0.289693 -0.19416,-0.209504 -0.19416,-0.209503 V 87.41271 87.209558 l 0.21238,-0.212376 0.21237,-0.212377 0.0797,0.04926 0.0797,0.04926 0.0783,-0.150538 c 0.0431,-0.0828 0.21831,-0.798238 0.38943,-1.589871 1.13245,-5.238852 1.99261,-8.124591 3.46243,-11.616044 l 0.54168,-1.286711 -0.0938,-0.03382 c -0.0516,-0.0186 -0.36054,-0.04105 -0.6865,-0.0499 -1.03554,-0.02809 -2.74404,-0.180489 -2.96493,-0.26447 l -0.21311,-0.08102 -0.0832,-0.218697 c -0.0457,-0.120283 -0.0832,-0.381761 -0.0832,-0.581062 v -0.362366 l 0.14817,-0.126178 c 0.0815,-0.0694 0.27299,-0.175592 0.42556,-0.235985 l 0.2774,-0.109807 1.45827,0.06047 1.45827,0.06047 v -0.356628 -0.356627 l 0.1437,-0.09156 0.1437,-0.09156 0.2373,0.08142 0.2373,0.08142 0.16714,0.359833 0.16714,0.359834 h 1.41513 1.41512 l 0.38628,0.232833 0.38628,0.232833 0.0537,0.199545 0.0537,0.199546 -0.10225,0.456929 -0.10226,0.456929 -0.15763,0.08436 -0.15762,0.08436 h -1.23038 -1.23038 l 0.28631,0.8255 c 0.46747,1.34783 1.31892,4.069944 2.4563,7.852833 0.58804,1.9558 1.20209,3.959923 1.36457,4.453608 l 0.29541,0.897608 0.32439,0.09719 c 0.17841,0.05345 0.42479,0.176171 0.54751,0.272703 l 0.22314,0.175515 v 0.194877 c 0,0.278955 -0.23317,0.901385 -0.37894,1.011578 l -0.12381,0.09359 0.88803,2.455333 c 0.48841,1.350433 1.0986,3.122083 1.35597,3.937 0.4651,1.472683 1.06893,3.321527 1.10041,3.369342 0.009,0.01376 0.46876,-0.08852 1.02157,-0.227288 0.5528,-0.138764 1.31871,-0.294613 1.70202,-0.346331 l 0.69693,-0.09403 0.19207,0.0991 c 0.10564,0.05451 0.29685,0.210978 0.42491,0.347713 l 0.23283,0.24861 v 0.199422 c 0,0.109682 -0.0737,0.371351 -0.16377,0.581486 l -0.16377,0.382064 -0.16933,0.09062 c -0.0931,0.04984 -0.33376,0.09095 -0.53473,0.09136 -0.37645,7.62e-4 -1.90691,0.303247 -3.83673,0.7583 l -1.10066,0.259544 -0.73612,0.0533 -0.73611,0.0533 -0.2598,-0.10761 -0.2598,-0.10761 -0.0524,-0.208624 -0.0524,-0.208619 0.0957,-0.319401 0.0957,-0.3194 0.48691,-0.217726 c 0.2678,-0.11975 0.72504,-0.283615 1.01608,-0.364145 0.29104,-0.08053 0.52917,-0.171086 0.52917,-0.201238 0,-0.03015 -0.0777,-0.138204 -0.17264,-0.240118 -0.0949,-0.101914 -0.15378,-0.185299 -0.13075,-0.185299 0.023,0 -0.0165,-0.161925 -0.0879,-0.359833 -0.1669,-0.462887 -0.79388,-2.430464 -0.8367,-2.625715 -0.0459,-0.20923 -0.85625,-2.647206 -1.58945,-4.781856 l -0.6177,-1.798405 -3.91512,-0.02737 -3.91511,-0.02737 -0.0502,0.217104 c -0.0276,0.119408 -0.27226,1.017204 -0.54374,1.995104 -0.49216,1.772824 -0.67957,2.543431 -1.18395,4.868334 -0.14649,0.675216 -0.39588,1.627716 -0.5542,2.116666 -0.15832,0.48895 -0.28788,0.936625 -0.2879,0.994833 l -6e-5,0.105834 h 0.45726 c 0.25148,0 0.90297,-0.0762 1.44774,-0.169334 0.54477,-0.09313 1.11415,-0.169333 1.26529,-0.169333 h 0.2748 l 0.12991,0.148167 c 0.0715,0.08149 0.19408,0.274772 0.2725,0.429513 l 0.14258,0.281346 -0.0498,0.226654 c -0.0274,0.124659 -0.18109,0.365806 -0.34157,0.535883 l -0.29177,0.309228 -0.78563,0.13133 c -1.08469,0.18131 -1.72249,0.21053 -2.88235,0.13202 z m 8.40438,-13.804131 c 1.00118,-0.04982 1.83159,-0.101281 1.84535,-0.114367 0.0138,-0.01309 -0.12738,-0.552284 -0.31365,-1.198217 -0.31502,-1.092382 -1.49401,-5.360154 -1.87984,-6.804756 -0.42418,-1.588189 -1.28286,-4.536046 -1.33855,-4.595286 l -0.0617,-0.06562 -0.72999,2.182286 c -0.71017,2.123038 -1.34206,4.398989 -1.67544,6.03462 -0.0902,0.442383 -0.31381,1.566333 -0.49698,2.497666 -0.18318,0.931333 -0.36046,1.822241 -0.39397,1.979794 l -0.0609,0.286462 1.64268,-0.056 c 0.90347,-0.0308 2.46182,-0.09676 3.46301,-0.146578 z m 38.16271,13.404591 -0.1303,-0.02572 0.0585,-0.22827 0.0585,-0.228271 0.35264,-0.179844 0.35263,-0.179845 0.95618,-0.140533 c 0.5259,-0.07729 1.09409,-0.160798 1.26264,-0.185565 l 0.30645,-0.04503 -0.0299,-1.200924 c -0.0498,-2.001579 -0.25034,-4.341475 -0.45479,-5.307257 -0.0444,-0.20955 -0.0963,-0.4953 -0.11538,-0.635 -0.0303,-0.221705 -0.18978,-1.085532 -0.4689,-2.54 -0.169,-0.88068 -0.44736,-2.152207 -0.6858,-3.132667 -0.31736,-1.304978 -0.43709,-1.821555 -0.47098,-2.032 -0.015,-0.09313 -0.0895,-0.397933 -0.16551,-0.677333 -0.13383,-0.491775 -0.21501,-0.849025 -0.66377,-2.921 -0.27634,-1.275895 -0.60063,-3.153229 -0.78618,-4.551313 -0.0819,-0.617272 -0.174,-1.093522 -0.20462,-1.058333 -0.0306,0.03519 -0.19296,0.412406 -0.36076,0.838259 -0.40738,1.03392 -1.65629,3.958361 -2.07382,4.856054 -0.18409,0.395817 -0.41942,0.910167 -0.52295,1.143 -0.10352,0.232833 -0.70668,1.467762 -1.34034,2.744287 l -1.15212,2.320954 -0.33121,0.31825 c -0.18216,0.175037 -0.42562,0.341949 -0.54103,0.370914 l -0.20983,0.05266 -0.28229,-0.215312 c -0.15526,-0.118421 -0.30666,-0.29209 -0.33644,-0.385931 l -0.0542,-0.17062 -0.0917,0.05665 -0.0916,0.05664 0.0537,-0.08682 0.0537,-0.08682 -0.52246,-0.751766 c -1.37977,-1.985353 -3.01711,-5.238649 -4.29863,-8.541099 -0.10842,-0.2794 -0.22253,-0.537435 -0.25357,-0.573411 l -0.0564,-0.06541 -0.14786,0.924926 c -0.29456,1.842695 -0.65795,3.273171 -2.21789,8.730895 -0.57898,2.02565 -1.10676,3.873499 -1.17286,4.106333 -0.25422,0.895587 -0.98446,3.672049 -1.13568,4.318 l -0.15857,0.677333 0.11567,0.02743 c 0.0636,0.01508 0.52513,-0.0143 1.02558,-0.06529 l 0.9099,-0.09271 0.19015,0.234622 c 0.10458,0.129042 0.21488,0.365254 0.24509,0.524915 l 0.0549,0.290294 -0.2451,0.203739 c -0.1348,0.112056 -0.36769,0.257649 -0.51754,0.323539 l -0.27245,0.119801 -1.16688,-0.0016 c -1.25076,-0.0017 -3.89816,-0.130476 -4.49105,-0.218399 l -0.36082,-0.05351 -0.19445,-0.152951 -0.19445,-0.152951 0.0355,-0.304303 0.0355,-0.304303 0.60441,-0.29065 c 0.33243,-0.159857 0.75681,-0.314882 0.94308,-0.344501 l 0.33866,-0.05385 0.42334,0.169762 0.42333,0.169762 -0.48233,-0.01441 -0.48232,-0.01441 -0.11034,0.111067 -0.11034,0.111066 1.18533,-0.05429 c 0.65193,-0.02986 1.22818,-0.06728 1.28054,-0.08317 l 0.0952,-0.02888 0.0584,-0.408901 c 0.19018,-1.330915 1.09203,-5.213609 1.87473,-8.071233 0.46026,-1.680385 0.55729,-2.05166 1.12846,-4.318 0.64253,-2.549455 0.8479,-3.522593 1.10784,-5.249333 0.0946,-0.62865 0.22871,-1.398171 0.29793,-1.710047 0.0692,-0.311876 0.12586,-0.607151 0.12586,-0.656166 v -0.08912 h -0.44672 c -0.2457,0 -0.76835,-0.04033 -1.16145,-0.08962 l -0.71473,-0.08962 -0.32022,-0.179971 -0.32021,-0.179971 0.001,-0.217243 c 7.2e-4,-0.119483 0.0374,-0.274393 0.0815,-0.344243 l 0.0802,-0.127 1.80234,-0.105288 c 0.99129,-0.05791 2.06904,-0.102687 2.39501,-0.09951 0.69503,0.0068 2.67303,0.276431 3.06729,0.418151 l 0.2733,0.09824 0.0861,0.30987 c 0.15637,0.563011 0.1183,0.638318 -0.49419,0.977491 l -0.28487,0.157747 -0.45361,-0.05331 c -0.24949,-0.02932 -0.67092,-0.109912 -0.93651,-0.17909 -0.26559,-0.06918 -0.4977,-0.110961 -0.51581,-0.09285 -0.0485,0.04845 0.75331,1.996649 1.50561,3.65849 0.60692,1.340671 0.96595,2.05782 1.69054,3.376732 0.46381,0.844239 1.52913,2.491653 1.61373,2.495483 0.0584,0.0026 0.9652,-1.870293 2.15105,-4.442817 1.06687,-2.314424 2.72505,-6.393891 3.34482,-8.228938 l 0.32334,-0.957394 -1.45204,-0.0023 -1.45205,-0.0023 -0.28714,-0.238144 -0.28714,-0.238144 0.0583,-0.310552 0.0583,-0.310552 0.19147,-0.125454 0.19147,-0.125454 1.13807,-0.12169 c 0.62595,-0.06693 1.46193,-0.148315 1.85775,-0.180855 l 0.71966,-0.05917 0.18663,-0.146686 0.18662,-0.146685 0.44838,0.07702 c 0.2466,0.04236 0.7915,0.07332 1.21088,0.0688 l 0.76251,-0.0082 0.53394,0.12456 c 0.29367,0.06851 0.62681,0.185413 0.74032,0.259789 l 0.20639,0.135229 v 0.450592 0.450593 l -0.14817,0.128534 c -0.0815,0.0707 -0.32715,0.195318 -0.54592,0.276942 l -0.39776,0.148407 -0.27104,-0.09449 c -0.14908,-0.05197 -0.52253,-0.09449 -0.82991,-0.09451 l -0.55887,-1.9e-5 0.0568,1.121853 c 0.10944,2.16315 0.4649,4.836098 0.97113,7.302519 0.28112,1.369637 0.42435,1.996314 1.21911,5.333999 1.38008,5.795819 2.02772,9.92878 2.02846,12.944678 l 2.1e-4,0.837345 0.4445,-0.049 c 0.24447,-0.02695 1.07315,-0.131032 1.8415,-0.231294 l 1.397,-0.182294 0.56528,0.03136 0.56528,0.03137 0.18456,0.166917 c 0.10151,0.0918 0.25434,0.303618 0.33961,0.470697 l 0.15505,0.30378 -0.15194,0.246553 c -0.0836,0.135604 -0.23535,0.320729 -0.3373,0.411389 l -0.18538,0.164835 -0.31358,-0.03139 c -0.66745,-0.06681 -2.87,-0.0397 -5.13958,0.06327 -2.55306,0.115833 -4.25832,0.161913 -4.46695,0.120713 z m -20.04405,-4.630932 c 0,-0.02328 0.0191,-0.04233 0.0423,-0.04233 0.0233,0 0.0423,0.01905 0.0423,0.04233 0,0.02328 -0.019,0.04233 -0.0423,0.04233 -0.0233,0 -0.0423,-0.01905 -0.0423,-0.04233 z M 63.552919,74.982922 c 0,-0.02328 0.01905,-0.04233 0.04233,-0.04233 0.02328,0 0.04233,0.01905 0.04233,0.04233 0,0.02328 -0.01905,0.04233 -0.04233,0.04233 -0.02328,0 -0.04233,-0.01905 -0.04233,-0.04233 z"
       id="path1" /></g></svg>
