<?xml version="1.0" encoding="UTF-8" standalone="no"?>
<!-- Created with Inkscape (http://www.inkscape.org/) -->

<svg
   width="655.35876"
   height="655.35999"
   viewBox="0 0 173.397 173.39733"
   version="1.1"
   id="svg1"
   xml:space="preserve"
   xmlns="http://www.w3.org/2000/svg"
   xmlns:svg="http://www.w3.org/2000/svg"><defs
     id="defs1" /><g
     id="layer1"
     transform="translate(-18.340921,-61.73259)"><path
       style="fill:#ffffff"
       d="m 23.842339,223.93276 -0.280791,-0.1905 -0.106288,-0.29634 c -0.05846,-0.16298 -0.109011,-0.39158 -0.112338,-0.508 l -0.006,-0.21166 0.25798,-0.27526 c 0.298994,-0.31901 0.556444,-0.45982 1.119266,-0.61218 l 0.404363,-0.10947 0.484136,0.05 0.484135,0.05 0.381501,-0.0898 c 0.209826,-0.0494 0.638677,-0.16351 0.953002,-0.2536 l 0.5715,-0.16379 -0.0053,-1.49925 c -0.0029,-0.82459 -0.03401,-2.5089 -0.06913,-3.74292 l -0.06387,-2.24366 0.06002,-2.07434 c 0.03301,-1.14088 0.108276,-3.04588 0.167256,-4.23333 l 0.107236,-2.159 -0.146349,-3.13267 -0.14635,-3.13266 -0.03533,-4.23334 c -0.04596,-5.50653 -0.101349,-8.07038 -0.210344,-9.73666 -0.126816,-1.93871 -0.409246,-4.8666 -0.498195,-5.16467 -0.04169,-0.1397 -0.09899,-0.35878 -0.127347,-0.48683 l -0.05155,-0.23284 H 26.42077 25.867989 l -0.186439,0.21453 -0.186439,0.21452 -0.317331,0.0505 -0.317332,0.0505 -0.368026,-0.10304 -0.368026,-0.10304 -0.322623,-0.28702 c -0.177443,-0.15786 -0.412927,-0.35459 -0.523297,-0.43718 l -0.200674,-0.15015 -0.09167,-0.33867 -0.09167,-0.33866 0.105454,-0.29219 c 0.113715,-0.31507 0.344229,-0.55321 0.664438,-0.68641 l 0.201252,-0.0837 1.306435,0.0979 1.306435,0.0978 0.22798,-0.21335 c 0.125389,-0.11734 0.31204,-0.23871 0.414779,-0.26972 0.279003,-0.0842 0.769377,0.0339 1.025753,0.24698 l 0.226782,0.18851 0.906473,0.05 0.906473,0.05 0.194193,0.1022 c 0.106807,0.0562 0.293654,0.18486 0.415216,0.28589 l 0.221021,0.18368 0.498645,-0.0557 c 1.027152,-0.11477 2.185511,0.0773 3.617087,0.59976 0.378833,0.13826 1.10851,0.36159 1.621506,0.49628 0.512996,0.1347 1.147825,0.32586 1.410732,0.42481 1.041972,0.39217 2.251238,1.39893 3.356926,2.79478 0.352269,0.44471 0.663068,0.82762 0.690664,0.8509 0.155329,0.13105 0.875413,1.04944 1.186845,1.51368 0.669398,0.99786 1.014749,1.87358 1.690228,4.28599 0.64716,2.31126 0.826522,3.38026 1.232433,7.34526 l 0.127892,1.24926 -0.001,1.96807 -10e-4,1.96807 -0.121513,1.35467 c -0.06683,0.74507 -0.181917,2.00237 -0.255744,2.794 -0.07383,0.79163 -0.169891,2.11584 -0.213474,2.94268 l -0.07924,1.50334 -0.138267,0.74032 c -0.439255,2.35192 -1.16395,4.22915 -2.259258,5.85232 l -0.423929,0.62824 -0.856741,0.86288 -0.85674,0.86288 -0.766581,0.5067 c -0.421619,0.27868 -1.061094,0.6293 -1.421057,0.77916 -0.359962,0.14985 -1.577101,0.73822 -2.704753,1.30749 -2.235109,1.12833 -3.602085,1.70506 -4.962685,2.09376 l -0.880408,0.25151 -0.695724,0.0535 -0.695725,0.0535 -0.375638,-0.1876 -0.375639,-0.1876 -0.52569,0.13622 c -0.289129,0.0749 -0.987697,0.23031 -1.552372,0.34532 l -1.026682,0.2091 h -0.568503 -0.568502 z m 9.611417,-3.49854 c 0.5588,-0.24816 1.398536,-0.65312 1.86608,-0.89991 1.071879,-0.5658 1.890565,-0.97095 2.937328,-1.45363 l 0.824075,-0.38 0.530592,-0.40757 c 2.08386,-1.60068 3.365233,-3.88264 3.955931,-7.04498 l 0.167962,-0.89921 0.127288,-2.08139 c 0.07001,-1.14476 0.211812,-2.87831 0.315118,-3.85233 l 0.187831,-1.77094 0.0049,-2.413 0.0049,-2.413 -0.194487,-1.82034 c -0.299246,-2.80084 -0.447637,-3.58439 -1.19909,-6.33154 -0.390529,-1.42769 -0.713431,-2.2753 -1.11608,-2.92968 -0.427652,-0.69503 -1.907063,-2.48212 -2.795947,-3.37744 l -0.821713,-0.82766 -0.476921,-0.21834 c -0.262307,-0.12009 -0.94106,-0.34232 -1.508342,-0.49384 -0.567281,-0.15152 -1.48862,-0.43734 -2.04742,-0.63516 l -1.016,-0.35966 -0.846667,-0.0118 c -0.465666,-0.006 -1.208616,0.0209 -1.651,0.0608 l -0.804333,0.0726 -0.318625,0.20413 -0.318625,0.20413 0.041,0.18856 c 0.0504,0.23176 0.266555,2.69169 0.392281,4.46422 0.114765,1.61801 0.207743,5.76565 0.233451,10.414 0.01069,1.93251 0.05603,4.25661 0.100754,5.16466 0.04473,0.90805 0.10567,2.6797 0.135429,3.937 l 0.05411,2.286 -0.150335,2.62467 -0.150336,2.62467 0.06792,4.02166 c 0.03736,2.21192 0.0755,4.19261 0.08477,4.40154 l 0.01685,0.37987 0.300009,-0.0259 0.300008,-0.0258 0.281005,0.25108 0.281006,0.25108 0.594668,-0.21319 c 0.327067,-0.11725 1.051868,-0.41622 1.610668,-0.66438 z m -3.852334,-40.63396 c 0,-0.0233 -0.01905,-0.0423 -0.04233,-0.0423 -0.02328,0 -0.04233,0.019 -0.04233,0.0423 0,0.0233 0.01905,0.0423 0.04233,0.0423 0.02328,0 0.04233,-0.019 0.04233,-0.0423 z M 152.74003,223.3631 c -0.0981,-0.0397 -0.29802,-0.21722 -0.44422,-0.39459 l -0.26582,-0.32248 -0.0505,-0.26916 -0.0505,-0.26915 0.14927,-0.31456 0.14927,-0.31456 0.26078,-0.15902 c 0.14342,-0.0875 0.3221,-0.15917 0.39705,-0.15934 0.075,-1.7e-4 0.36982,-0.12077 0.65527,-0.26798 l 0.519,-0.26767 0.31839,0.10383 c 0.17512,0.0571 0.36568,0.12348 0.42347,0.14748 l 0.10508,0.0436 -0.041,-0.23964 c -0.0226,-0.1318 -0.15638,-1.01661 -0.29734,-1.96626 -0.44564,-3.00219 -0.72696,-4.17107 -1.64642,-6.84093 l -0.47212,-1.37089 -0.2902,-1.46544 c -0.15961,-0.806 -0.43938,-2.0179 -0.62171,-2.69311 -0.18232,-0.67522 -0.43107,-1.78012 -0.55276,-2.45534 -0.29793,-1.65306 -0.90968,-5.63782 -1.45167,-9.45564 -0.32639,-2.29911 -0.44955,-3.05189 -0.80783,-4.93769 -1.31123,-6.90157 -1.6437,-9.03475 -1.821,-11.684 -0.0837,-1.25118 -0.12339,-1.30135 -0.63427,-0.8025 -0.43165,0.4215 -0.93826,0.51031 -1.43773,0.25202 l -0.26856,-0.13888 -0.16839,-0.38068 -0.1684,-0.38068 0.0541,-0.31181 c 0.10254,-0.59137 0.41167,-0.80436 1.90623,-1.31337 1.10619,-0.37674 2.51929,-0.7341 2.90281,-0.7341 h 0.28979 l 0.21383,0.19817 c 0.2949,0.2733 0.40357,0.50167 0.40357,0.84808 v 0.29539 l -0.25562,0.25562 c -0.14059,0.14059 -0.38824,0.30357 -0.55033,0.36219 l -0.29472,0.10657 V 176.75 c 0,1.66042 0.66288,6.35979 1.43942,10.20456 0.51552,2.55245 0.9774,5.33748 1.43923,8.67833 0.0966,0.6985 0.30548,2.0701 0.46427,3.048 0.15879,0.9779 0.33111,2.10185 0.38293,2.49767 0.20078,1.53359 0.51687,3.16725 0.83803,4.33132 0.18428,0.66789 0.41506,1.63345 0.51285,2.14568 0.3261,1.70804 0.52048,2.44171 1.14401,4.318 0.34045,1.02447 0.68509,2.16747 0.76586,2.54 0.0808,0.37253 0.17898,0.73448 0.21823,0.80433 l 0.0714,0.127 0.003,-0.18376 c 0.001,-0.10107 0.0386,-0.74877 0.0827,-1.43933 0.044,-0.69057 0.121,-2.30332 0.17103,-3.58391 0.19751,-5.05591 0.30989,-6.47404 0.77445,-9.77291 0.36296,-2.57732 0.48018,-3.81362 0.58661,-6.18675 0.0885,-1.97208 0.54121,-8.11921 0.63296,-8.59367 0.11939,-0.61736 0.2273,-2.37038 0.29708,-4.826 l 0.0782,-2.75167 0.11903,-0.67733 c 0.0655,-0.37253 0.10355,-0.6942 0.0846,-0.7148 -0.0189,-0.0206 -0.55731,-0.0608 -1.1964,-0.0892 l -1.16197,-0.0518 -0.23687,-0.15598 -0.23687,-0.15598 -0.11792,-0.28222 -0.11792,-0.28222 0.0487,-0.30014 0.0487,-0.30014 0.24643,-0.20736 c 0.13554,-0.11405 0.38758,-0.24505 0.56009,-0.29112 l 0.31365,-0.0838 1.56633,0.12412 c 0.86149,0.0683 2.1838,0.14884 2.93848,0.17906 l 1.37215,0.0549 0.29012,0.23914 0.29011,0.23914 0.0403,0.27432 0.0403,0.27432 -0.10764,0.25684 c -0.0592,0.14127 -0.20908,0.35192 -0.33308,0.46812 l -0.22546,0.21126 -0.95349,0.0303 -0.9535,0.0303 -0.0988,0.39346 c -0.1388,0.55266 -0.26536,2.51082 -0.26895,4.16114 -0.002,0.76835 -0.0374,1.7399 -0.0793,2.159 -0.45816,4.57764 -0.65262,6.98496 -0.76599,9.48266 -0.11269,2.48288 -0.28839,4.65444 -0.50691,6.26534 -0.0948,0.6985 -0.22938,1.6891 -0.29917,2.20133 -0.34226,2.51192 -0.4524,4.06345 -0.63412,8.93233 -0.16486,4.41727 -0.41615,6.94681 -0.94163,9.47874 -0.13969,0.67306 -0.27273,1.25409 -0.29565,1.29117 l -0.0417,0.0674 1.12683,3.1e-4 1.12683,3.2e-4 0.27106,0.16527 c 0.14908,0.0909 0.33005,0.27937 0.40216,0.41882 l 0.13111,0.25354 v 0.30705 0.30705 l -0.2395,0.2395 -0.23951,0.23951 -0.33199,0.0922 -0.332,0.0922 -3.09033,-0.005 -3.09033,-0.005 z m 2.42206,-2.58418 c 0,-0.0233 -0.019,-0.0423 -0.0423,-0.0423 -0.0233,0 -0.0423,0.019 -0.0423,0.0423 0,0.0233 0.0191,0.0423 0.0423,0.0423 0.0233,0 0.0423,-0.019 0.0423,-0.0423 z m 15.748,2.07144 c -1.21407,-0.13095 -2.34218,-0.18501 -3.49199,-0.16735 l -0.317,0.005 -0.33117,-0.16895 c -0.18214,-0.0929 -0.41096,-0.2704 -0.5085,-0.39439 l -0.17734,-0.22545 v -0.25095 c 0,-0.13803 0.0612,-0.37994 0.13602,-0.53759 l 0.13601,-0.28662 0.27615,-0.17067 0.27614,-0.17067 h 0.58692 c 0.54895,0 2.31647,0.1125 3.29822,0.20992 l 0.43379,0.043 0.06,-2.85698 0.06,-2.85698 -0.17745,-1.75978 c -0.0976,-0.96788 -0.25315,-2.2749 -0.34567,-2.90448 -0.0925,-0.62958 -0.16822,-1.43788 -0.16823,-1.79622 -2e-5,-0.67177 -0.16494,-2.96427 -0.37882,-5.26585 -0.22332,-2.40316 -0.2857,-5.64235 -0.34228,-17.77312 -0.0186,-3.97767 -0.0514,-7.27808 -0.0729,-7.33426 l -0.0392,-0.10214 -0.66288,-0.0603 c -1.50227,-0.13661 -2.4232,-0.42089 -2.68812,-0.8298 -0.12754,-0.19686 -0.16938,-0.44082 -0.14693,-0.85675 l 0.0132,-0.244 0.29621,-0.27936 0.29621,-0.27936 0.63791,-0.14193 0.63791,-0.14192 0.25293,0.10477 c 0.13911,0.0576 0.34206,0.21069 0.451,0.34016 l 0.19807,0.23539 0.27992,0.0288 0.27993,0.0288 0.0817,-0.254 c 0.10254,-0.31892 0.29882,-0.54794 0.55284,-0.64507 l 0.19692,-0.0753 1.75041,-0.0448 1.75041,-0.0448 1.34468,-0.1659 c 0.73958,-0.0913 1.92068,-0.18558 2.62467,-0.20963 0.70399,-0.0241 1.69908,-0.063 2.21131,-0.0866 0.51224,-0.0236 1.82669,-0.0424 2.921,-0.0417 l 1.98967,0.001 0.49199,0.11725 0.49198,0.11724 0.20665,0.19413 c 0.11365,0.10677 0.24112,0.31901 0.28326,0.47164 l 0.0766,0.27751 -0.0378,3.03078 c -0.0208,1.66692 -0.0701,3.34929 -0.10951,3.73858 l -0.0717,0.70782 -0.16321,0.22352 c -0.0898,0.12293 -0.31133,0.29701 -0.49236,0.38684 l -0.32916,0.16332 -0.38017,-0.21225 -0.38016,-0.21224 -0.15004,-0.28974 -0.15004,-0.28974 0.0872,-0.84667 c 0.048,-0.46567 0.0943,-1.89442 0.10283,-3.175 l 0.0156,-2.32833 -1.56633,0.003 c -0.86149,0.002 -2.65219,0.048 -3.97934,0.10258 l -2.413,0.0993 -0.93133,0.1382 c -0.51223,0.076 -1.32659,0.16319 -1.80968,0.19375 l -0.87835,0.0556 -0.0122,0.39097 -0.0121,0.39097 -0.1255,0.15161 c -0.1542,0.1863 -0.76662,0.46966 -0.87299,0.40392 l -0.0777,-0.048 0.0539,8.11826 c 0.0297,4.46505 0.0763,8.45164 0.10376,8.8591 l 0.0498,0.74083 1.19782,0.002 1.19781,0.002 1.37583,-0.14843 1.37583,-0.14843 -0.002,-0.17078 c -0.001,-0.0939 -0.0386,-0.54518 -0.0831,-1.00276 l -0.0809,-0.83197 0.11762,-0.2815 0.11762,-0.2815 0.3238,-0.22003 0.32381,-0.22003 h 0.34898 0.34898 l 0.22061,0.20445 c 0.27237,0.25243 0.29089,0.33919 0.35921,1.68329 l 0.0551,1.0834 0.19332,0.22974 c 0.10633,0.12636 0.23027,0.36357 0.27543,0.52713 l 0.0821,0.29738 -0.077,0.20806 c -0.0423,0.11444 -0.1358,0.27308 -0.20772,0.35254 l -0.13074,0.14448 0.093,1.4236 c 0.0511,0.78298 0.11757,1.73733 0.14765,2.12079 l 0.0547,0.69719 -0.3823,0.38231 -0.38231,0.38231 h -0.30098 -0.30098 l -0.25441,-0.21408 -0.25441,-0.21407 -0.1294,-0.35743 -0.1294,-0.35742 -0.0978,-1.69334 c -0.0538,-0.93133 -0.12591,-1.72379 -0.16027,-1.76102 l -0.0625,-0.0677 -1.04991,0.13254 c -0.57746,0.0729 -1.75102,0.15715 -2.60792,0.18724 l -1.558,0.0547 0.0536,1.78544 c 0.0295,0.982 0.13163,2.66175 0.22705,3.73278 0.0954,1.07104 0.22708,2.82364 0.29258,3.89467 0.0655,1.07103 0.19603,2.51883 0.29006,3.21733 0.094,0.6985 0.23361,1.9177 0.31015,2.70934 l 0.13918,1.43933 -0.0585,2.3613 -0.0585,2.3613 2.14558,-0.0622 c 3.37667,-0.0979 4.26599,-0.0956 5.50469,0.0142 0.63678,0.0564 1.24638,0.12072 1.35467,0.14285 0.10829,0.0221 0.29565,0.0609 0.41636,0.0861 l 0.21947,0.0459 0.0571,-1.90476 0.0571,-1.90476 -0.12839,-0.24829 -0.1284,-0.2483 v -0.32811 -0.32812 l 0.1905,-0.17845 c 0.26233,-0.24574 0.59643,-0.35906 1.0586,-0.35906 h 0.39142 l 0.27327,0.18724 0.27326,0.18725 0.13076,0.2742 0.13076,0.2742 -0.0789,1.54939 c -0.0434,0.85216 -0.08,1.76433 -0.0813,2.02704 l -0.002,0.47765 0.2138,0.0537 c 0.11759,0.0295 0.36524,0.19048 0.55033,0.3577 l 0.33653,0.30404 v 0.29068 c 0,0.15988 -0.058,0.4029 -0.12894,0.54005 l -0.12895,0.24935 -0.42139,0.21353 -0.42138,0.21354 v 0.11867 0.11866 l -0.28516,0.17624 -0.28516,0.17624 h -0.35431 c -0.19488,0 -0.89523,-0.094 -1.55634,-0.20893 -0.66112,-0.11491 -1.71638,-0.24335 -2.34503,-0.28542 l -1.143,-0.0765 -1.22767,0.0683 c -0.67522,0.0376 -1.8241,0.0708 -2.55308,0.0738 l -1.32542,0.005 -0.25564,0.45296 -0.25563,0.45296 -0.29441,0.1397 -0.29441,0.13971 -0.28354,-0.0108 c -0.15594,-0.006 -0.91219,-0.0786 -1.68054,-0.16146 z m -4.65666,-1.22477 c 0,-0.0233 -0.0191,-0.0423 -0.0423,-0.0423 -0.0233,0 -0.0423,0.019 -0.0423,0.0423 0,0.0233 0.0191,0.0423 0.0423,0.0423 0.0233,0 0.0423,-0.0191 0.0423,-0.0423 z m -92.329006,0.72665 c -0.186267,-0.0827 -0.478082,-0.17636 -0.648478,-0.20809 l -0.30981,-0.0577 -0.304023,-0.33652 -0.304022,-0.33651 v -0.24124 -0.24123 l 0.1905,-0.27991 c 0.104775,-0.15394 0.29203,-0.35509 0.416124,-0.447 l 0.225624,-0.1671 1.623636,6.4e-4 1.623636,6.3e-4 -0.0401,-3.90532 -0.04009,-3.90532 -0.135023,-0.97367 c -0.07426,-0.53551 -0.215904,-1.79281 -0.31476,-2.794 l -0.179737,-1.82033 -0.0418,-3.38667 -0.04181,-3.38666 -0.203767,-0.30089 -0.203768,-0.30088 v -0.36901 -0.36901 l 0.21208,-0.36189 0.21208,-0.36189 -0.08549,-2.974 c -0.111675,-3.88491 -0.607153,-12.53849 -0.895631,-15.64227 l -0.04918,-0.52916 -0.437761,-0.003 c -0.240769,-0.002 -0.844074,-0.0537 -1.340678,-0.11607 l -0.902916,-0.11332 -0.250812,-0.17859 c -0.299742,-0.21344 -0.525689,-0.65558 -0.525689,-1.02869 v -0.27084 l 0.287867,-0.28787 0.287867,-0.28786 h 0.294433 0.294433 l 0.1162,-0.14042 c 0.06391,-0.0772 0.2686,-0.20974 0.454867,-0.29448 l 0.338667,-0.15405 0.772826,-0.002 0.772827,-0.002 0.318698,-0.13316 0.318698,-0.13316 0.193117,0.0485 c 0.106214,0.0267 0.308568,0.14561 0.449676,0.26435 l 0.25656,0.21588 0.105929,0.29294 0.105928,0.29294 0.290548,0.0802 c 0.159801,0.0441 0.745272,0.12709 1.301047,0.18437 l 1.010499,0.10414 0.949717,-0.10417 c 0.522344,-0.0573 1.214965,-0.16106 1.539157,-0.23058 0.324192,-0.0695 1.08474,-0.22506 1.690106,-0.34566 l 1.100667,-0.21926 1.312333,0.003 c 0.721784,0.002 1.521884,0.0232 1.778,0.0479 0.256117,0.0247 0.536152,0.0472 0.6223,0.05 l 0.156634,0.005 0.287866,0.28787 0.287867,0.28787 0.003,0.83396 c 0.0039,1.07918 0.130208,2.8987 0.260271,3.74832 l 0.102343,0.66855 -0.109116,0.26343 c -0.06001,0.14489 -0.221398,0.35791 -0.358631,0.47338 l -0.249514,0.20996 h -0.336375 -0.336375 l -0.238379,-0.12327 -0.238378,-0.12327 -0.138417,-0.2917 c -0.07613,-0.16043 -0.138417,-0.3347 -0.138417,-0.38728 0,-0.0526 -0.09991,-0.33256 -0.222032,-0.6222 l -0.222032,-0.52662 0.03895,-1.29221 0.03895,-1.29221 -0.11199,-0.0929 -0.111991,-0.093 -0.608612,0.009 c -0.647874,0.01 -1.378502,0.12035 -3.415575,0.51652 -1.43011,0.27813 -2.702404,0.42419 -3.69495,0.42419 h -0.671342 l -0.221684,0.14525 -0.221684,0.14526 -0.463301,-0.007 -0.463302,-0.007 0.05211,0.60228 c 0.273895,3.16545 0.815481,12.91516 0.816418,14.69728 3.31e-4,0.62975 0.02394,1.39265 0.05245,1.69533 l 0.05185,0.55033 1.365714,-0.0524 1.365714,-0.0524 0.677334,-0.13785 c 0.372533,-0.0758 0.954112,-0.21988 1.292398,-0.32016 l 0.615065,-0.18232 -0.05494,-0.4318 c -0.03022,-0.23749 -0.14997,-0.75565 -0.266119,-1.15147 -0.291474,-0.99329 -0.297204,-1.03004 -0.211993,-1.35929 l 0.0755,-0.29171 0.282399,-0.1905 0.2824,-0.1905 h 0.371199 c 0.458015,0 0.849871,0.16039 1.12776,0.46161 l 0.211666,0.22944 -0.01945,0.43764 -0.01945,0.43764 0.170148,0.88527 c 0.278897,1.45107 0.404643,2.43545 0.466627,3.65288 l 0.05863,1.15148 -0.103251,0.31286 c -0.05679,0.17207 -0.201177,0.40365 -0.320863,0.51463 l -0.217612,0.20178 -0.411818,0.0566 -0.411817,0.0566 -0.213448,-0.13985 c -0.117396,-0.0769 -0.286486,-0.25996 -0.375756,-0.40675 l -0.162307,-0.2669 0.05157,-0.90129 0.05157,-0.90129 -0.07572,-0.0454 c -0.04164,-0.025 -0.342418,0.0257 -0.668385,0.11257 -0.325967,0.0869 -0.897467,0.2196 -1.27,0.29491 l -0.677334,0.13692 -1.354666,0.0555 -1.354667,0.0555 -0.04825,0.36152 c -0.02654,0.19883 -0.09321,0.40648 -0.148166,0.46143 l -0.09992,0.0999 1.7e-5,2.58657 1.6e-5,2.58656 0.127161,1.651 c 0.06994,0.90805 0.201828,2.3368 0.293087,3.175 0.09126,0.8382 0.207734,1.96215 0.258833,2.49767 l 0.09291,0.97367 0.01615,3.38666 0.01616,3.38667 2.667,-0.006 2.667,-0.006 1.27,-0.15816 1.27,-0.15815 1.312334,0.003 1.312333,0.003 0.719667,0.14205 c 0.395816,0.0781 1.148291,0.16564 1.672166,0.19447 l 0.9525,0.0524 -2.7e-4,-0.11842 c -1.49e-4,-0.0651 -0.05665,-0.44226 -0.125555,-0.83808 -0.254117,-1.45971 -0.636175,-4.23189 -0.636175,-4.61603 v -0.39603 l 0.258311,-0.2413 c 0.318396,-0.29743 0.521622,-0.366 0.883461,-0.29812 0.364701,0.0684 0.713007,0.34726 0.853358,0.68316 0.06157,0.14736 0.210731,0.96831 0.331472,1.82435 0.120742,0.85604 0.292961,2.00653 0.38271,2.55665 l 0.163179,1.00021 0.130088,0.18573 0.130088,0.18573 v 0.30948 c 0,0.17022 0.0602,0.45357 0.133774,0.62966 l 0.133774,0.32016 -0.149026,0.33048 c -0.08196,0.18177 -0.264953,0.42803 -0.406643,0.54726 l -0.257617,0.21677 -0.806631,-0.0493 c -1.766802,-0.10792 -3.137182,-0.21693 -3.197938,-0.25438 -0.03521,-0.0217 -0.540276,-0.10017 -1.12236,-0.17437 l -1.058333,-0.1349 -1.058333,0.0821 c -0.582084,0.0452 -1.706034,0.13734 -2.497667,0.20483 l -1.439333,0.1227 -2.921001,0.006 c -1.60655,0.004 -3.330964,-0.015 -3.832032,-0.0412 l -0.911032,-0.0477 -0.222219,0.17479 -0.222219,0.1748 -0.306082,-0.006 c -0.168346,-0.003 -0.458482,-0.0737 -0.644749,-0.15637 z m -21.853525,-1.44465 c -0.09837,-0.0397 -0.269822,-0.18693 -0.381,-0.32708 l -0.202142,-0.25483 -1.397001,0.11992 c -0.76835,0.066 -1.608843,0.15841 -1.867763,0.20546 -0.25892,0.047 -0.604112,0.0855 -0.767094,0.0855 h -0.29633 l -0.267683,-0.26171 -0.267683,-0.26171 -0.05404,-0.28807 c -0.02972,-0.15843 -0.03016,-0.38322 -9.68e-4,-0.49953 0.0644,-0.25658 0.512604,-0.68154 1.049894,-0.99545 l 0.397335,-0.23215 0.278146,-6.9e-4 0.278145,-6.9e-4 0.200796,0.13157 0.200796,0.13156 1.065255,-0.0963 c 0.58589,-0.053 1.170466,-0.12481 1.299058,-0.15966 l 0.233804,-0.0634 -0.01516,-1.72874 -0.01516,-1.72875 -0.09392,-0.71966 c -0.05165,-0.39582 -0.11682,-1.46262 -0.14481,-2.37067 l -0.05089,-1.651 0.09851,-3.937 c 0.05418,-2.16535 0.119845,-4.1275 0.145917,-4.36034 l 0.04741,-0.42333 -0.388112,-0.39368 -0.388111,-0.39367 v -0.30754 c 0,-0.41984 0.178875,-0.814 0.527702,-1.16283 l 0.292595,-0.2926 0.05545,-2.66184 c 0.0305,-1.46401 0.07452,-4.43349 0.09784,-6.59884 0.06527,-6.06242 0.129339,-9.57084 0.182671,-10.00297 l 0.04854,-0.3933 -0.262699,-0.0577 -0.262698,-0.0577 -0.297367,-0.34741 -0.297366,-0.34741 v -0.19091 c 0,-0.25881 0.124893,-0.56874 0.299577,-0.74342 l 0.144425,-0.14443 -0.412501,0.0444 c -0.226876,0.0244 -0.954496,0.10689 -1.616933,0.18329 l -1.204432,0.13891 -0.574032,-0.0324 -0.574032,-0.0324 -0.225224,-0.16773 c -0.281538,-0.20968 -0.493515,-0.55769 -0.493515,-0.81024 0,-0.10617 0.08164,-0.36168 0.181423,-0.5678 l 0.181422,-0.37477 0.305411,-0.12777 0.30541,-0.12776 0.508,0.0462 0.508,0.0462 0.931334,-0.12179 c 0.512233,-0.067 1.644344,-0.14605 2.515803,-0.17569 l 1.584469,-0.0539 0.390309,0.14906 0.390309,0.14906 0.238222,0.32886 c 0.131022,0.18087 0.262555,0.45856 0.292295,0.61709 0.02974,0.15853 0.10338,0.32916 0.163643,0.37917 l 0.10957,0.0909 2.23769,-0.078 c 1.23073,-0.0429 3.386852,-0.12483 4.791382,-0.18208 l 2.553693,-0.10411 0.600156,0.11325 0.600156,0.11324 0.215635,-0.0982 c 0.1186,-0.054 0.361105,-0.0983 0.538901,-0.0983 h 0.323265 l 0.211624,0.16646 c 0.116393,0.0915 0.261836,0.29158 0.323207,0.4445 0.06137,0.15292 0.180828,0.3689 0.265461,0.47995 l 0.153877,0.20192 v 0.33146 0.33145 l -0.132807,0.25682 -0.132806,0.25682 0.0514,0.73381 c 0.02827,0.40359 0.087,1.47093 0.130513,2.37185 l 0.07911,1.63804 -0.117633,0.28154 c -0.143556,0.34358 -0.40175,0.52243 -0.859693,0.59552 l -0.346916,0.0554 -0.304137,-0.26704 -0.304137,-0.26703 -0.09106,-0.44022 c -0.05008,-0.24212 -0.138111,-1.43039 -0.195614,-2.64059 l -0.10455,-2.20037 -0.254,-0.12797 -0.254,-0.12796 -1.27,0.0195 c -0.6985,0.0107 -2.241551,0.0601 -3.429001,0.10974 -1.18745,0.0496 -3.026946,0.12143 -4.087769,0.15951 -1.060824,0.0381 -1.956174,0.0967 -1.989667,0.13013 -0.110618,0.11059 -0.181527,3.4719 -0.317127,15.03281 -0.02431,2.07221 -0.06663,3.99164 -0.09406,4.26539 l -0.04987,0.49772 0.581077,-0.0592 c 0.878306,-0.0895 3.649595,-0.79666 5.136402,-1.31068 l 0.491325,-0.16986 0.261623,0.0523 0.261623,0.0523 -0.05925,-1.17717 c -0.0702,-1.39459 -0.243572,-2.6642 -0.487394,-3.56911 -0.09723,-0.36084 -0.193902,-0.77037 -0.214835,-0.91007 l -0.03806,-0.254 0.267932,-0.3134 0.267932,-0.3134 0.374203,-0.0561 0.374202,-0.0561 0.286659,0.21864 c 0.157661,0.12026 0.433672,0.41892 0.613356,0.66371 l 0.326698,0.44506 0.0118,0.80648 c 0.0065,0.44356 0.07283,1.28273 0.147431,1.86481 l 0.135634,1.05833 7.36e-4,1.5643 7.36e-4,1.56429 -0.129338,1.35671 -0.129338,1.3567 -0.173003,0.34898 -0.173004,0.34898 -0.209642,0.0955 c -0.293699,0.13382 -0.59215,0.11906 -0.94114,-0.0466 l -0.299389,-0.14207 -0.169031,-0.38212 -0.169031,-0.38212 0.100451,-0.72464 c 0.05525,-0.39855 0.115008,-0.84847 0.132801,-0.99981 l 0.03235,-0.27517 -0.10051,0.001 c -0.05528,5.9e-4 -0.481511,0.11414 -0.947177,0.25234 -2.328806,0.69112 -4.467823,1.18593 -5.12669,1.18593 H 53.65675 l -0.0685,0.10583 -0.0685,0.10583 -0.08901,2.58234 c -0.04896,1.42028 -0.09772,4.01108 -0.108364,5.75733 l -0.01935,3.175 0.128716,1.143 0.128715,1.143 8.15e-4,1.13101 8.15e-4,1.13101 0.232833,-0.0635 c 0.853186,-0.23256 1.554222,0.56046 1.19412,1.3508 l -0.09705,0.213 -0.09345,-0.0533 -0.09345,-0.0533 0.06276,0.0693 0.06277,0.0693 -0.096,0.11567 c -0.0528,0.0636 -0.08061,0.13105 -0.06181,0.14986 0.05333,0.0533 1.890941,-0.11521 2.783942,-0.25533 0.442383,-0.0694 1.515393,-0.27647 2.384467,-0.46013 l 1.580134,-0.33393 0.301118,-0.20434 0.301119,-0.20435 0.616414,-0.14237 c 0.339028,-0.0783 1.149815,-0.25813 1.801748,-0.39962 l 1.185333,-0.25725 1.291167,-0.0448 1.291167,-0.0448 0.0011,-0.13683 c 0.0034,-0.4226 -0.351852,-5.42036 -0.476881,-6.70973 l -0.04624,-0.4769 0.239853,-0.22344 c 0.131919,-0.1229 0.381334,-0.26181 0.554257,-0.3087 l 0.314404,-0.0853 0.278262,0.11852 c 0.335712,0.14299 0.613619,0.43196 0.745641,0.77534 l 0.09766,0.254 0.07585,1.778 c 0.04172,0.9779 0.137742,2.57631 0.213388,3.55203 l 0.137538,1.77403 -0.0567,0.38497 c -0.03118,0.21173 -0.06384,0.67622 -0.07257,1.03219 l -0.01588,0.64721 -0.158404,0.1751 c -0.08712,0.0963 -0.287148,0.21759 -0.4445,0.26952 l -0.286096,0.0944 -0.310346,-0.10243 -0.310346,-0.10242 -0.285143,-0.28514 -0.285142,-0.28515 H 67.218016 66.31692 l -1.524684,0.30948 -1.524683,0.30947 -0.287133,0.19485 c -0.340206,0.23087 -0.280144,0.21181 -1.67133,0.53035 -2.411415,0.55213 -4.110682,0.8214 -5.925222,0.93889 -1.600158,0.10362 -3.062912,0.10566 -3.312969,0.005 z m 14.783858,-44.32467 c 0,-0.0233 -0.01905,-0.0423 -0.04233,-0.0423 -0.02328,0 -0.04233,0.019 -0.04233,0.0423 0,0.0233 0.01905,0.0423 0.04233,0.0423 0.02328,0 0.04233,-0.019 0.04233,-0.0423 z m 31.157334,43.72953 c -0.814916,-0.0815 -1.538816,-0.17342 -1.608666,-0.20428 -0.06985,-0.0309 -0.2032,-0.15926 -0.296334,-0.28534 l -0.169333,-0.22924 v -0.44287 -0.44287 l 0.277449,-0.2768 0.277449,-0.27679 0.759718,0.007 0.759717,0.007 -0.0024,-0.38799 c -0.0013,-0.21339 -0.05739,-1.09283 -0.124589,-1.95432 -0.0672,-0.86148 -0.123261,-2.09996 -0.124588,-2.75218 l -0.0024,-1.18585 -0.126456,-1.08105 c -0.06955,-0.59457 -0.183682,-1.33729 -0.253624,-1.65048 -0.06994,-0.31319 -0.167303,-0.83614 -0.216357,-1.1621 l -0.08919,-0.59267 -0.07686,-3.59833 c -0.04227,-1.97909 -0.115936,-4.58321 -0.163694,-5.78695 l -0.08683,-2.18862 -0.0047,-9.83422 -0.0047,-9.83421 -0.07548,-0.12213 -0.07548,-0.12213 -0.61983,0.10919 -0.619831,0.10918 -0.973666,-0.0141 -0.973667,-0.0141 -0.296333,-0.15037 -0.296334,-0.15036 -0.161527,-0.27644 -0.161527,-0.27644 0.01129,-0.30031 0.01129,-0.30031 0.19257,-0.2062 c 0.105914,-0.11342 0.287821,-0.25504 0.404238,-0.31472 l 0.211666,-0.1085 1.354667,-0.0526 c 0.745067,-0.0289 1.895768,-0.0765 2.557114,-0.10584 l 1.202448,-0.0532 0.544565,0.19225 0.544565,0.19224 0.708319,-0.19243 c 0.38958,-0.10584 1.05122,-0.28465 1.47032,-0.39737 0.99358,-0.26722 2.21124,-0.44945 3.00737,-0.45008 l 0.6367,-5e-4 0.62983,0.17454 c 0.84819,0.23504 1.55642,0.59978 2.41313,1.24275 l 0.7147,0.53639 0.9558,1.02034 0.95581,1.02034 -0.0116,0.11858 -0.0116,0.11857 0.0741,-0.0458 0.0741,-0.0458 0.33281,0.51492 c 0.18304,0.28321 0.44714,0.79 0.58688,1.12622 l 0.25407,0.6113 0.16828,0.889 c 0.0926,0.48895 0.19415,1.27 0.22576,1.73566 l 0.0575,0.84667 -0.0947,0.84617 c -0.1633,1.45981 -0.56251,2.81377 -1.29101,4.37869 l -0.26451,0.56818 -0.0843,-0.0521 -0.0843,-0.0521 0.0632,0.10222 0.0632,0.10222 -0.47501,0.77869 c -0.71908,1.1788 -1.08344,1.66154 -2.6405,3.4984 -0.96264,1.13564 -1.32041,1.47518 -1.82624,1.73324 l -0.34953,0.17831 -0.93929,0.16467 c -0.5166,0.0906 -1.30124,0.2423 -1.74362,0.33719 l -0.80433,0.17252 -1.15985,0.0461 -1.159848,0.0461 -0.152485,-0.0642 c -0.08387,-0.0353 -0.235073,-0.0753 -0.336014,-0.0889 -0.100941,-0.0135 -0.288217,-0.0932 -0.416169,-0.17705 l -0.232639,-0.15243 0.05639,1.81808 c 0.03101,0.99994 0.09326,3.41828 0.138315,5.37408 0.100922,4.38051 0.125587,4.76798 0.389313,6.11592 0.268278,1.3712 0.372001,2.35656 0.373853,3.55156 0.0013,0.81254 0.115481,2.87527 0.305054,5.50902 l 0.0503,0.6985 h 0.38177 0.38177 l 0.29089,0.13804 c 0.15999,0.0759 0.34673,0.21775 0.41496,0.31517 l 0.12407,0.17714 v 0.35817 c 0,0.46067 -0.1244,0.72643 -0.42244,0.90249 l -0.23868,0.14099 -0.79127,-0.011 c -0.435198,-0.006 -1.45802,-0.0777 -2.272937,-0.15916 z m 1.439334,-26.69012 c 0.20955,0.009 0.785545,0.0391 1.279985,0.0679 l 0.89899,0.0524 1.09068,-0.21394 c 0.59987,-0.11766 1.26213,-0.23786 1.47168,-0.26711 0.20955,-0.0292 0.57309,-0.1065 0.80788,-0.17168 l 0.42687,-0.11852 0.31142,-0.32026 c 0.44191,-0.45445 1.48583,-1.70572 2.2097,-2.64859 1.30936,-1.7055 2.17744,-3.57101 2.55962,-5.50068 l 0.14201,-0.71701 -0.0467,-1.31499 -0.0467,-1.31499 -0.16754,-0.63522 c -0.0921,-0.34937 -0.27091,-0.85356 -0.39726,-1.12041 l -0.22973,-0.48519 -0.64693,-0.73836 c -1.30702,-1.49176 -2.08787,-2.14961 -3.10036,-2.61196 l -0.50611,-0.23112 -0.50989,-0.0404 -0.5099,-0.0404 -0.762,0.0935 -0.762,0.0935 -1.524,0.41026 c -0.8382,0.22565 -1.775572,0.47626 -2.083051,0.55693 l -0.559053,0.14666 -0.0181,8.59887 -0.0181,8.59886 0.15382,-0.0718 c 0.0846,-0.0395 0.32527,-0.0648 0.53482,-0.0563 z m 16.721665,25.19669 c -0.91031,-0.10586 -2.15876,-0.32378 -2.38998,-0.41717 l -0.27331,-0.1104 -0.17087,-0.28026 -0.17087,-0.28027 -3.2e-4,-0.27937 c -1.7e-4,-0.15365 0.0535,-0.38333 0.11915,-0.51039 l 0.11947,-0.23103 0.37664,-0.1881 c 0.41524,-0.20738 0.66422,-0.23414 0.9175,-0.0986 0.21331,0.11416 1.35439,0.30409 2.25091,0.37466 l 0.69365,0.0546 0.0443,-0.28057 c 0.0243,-0.15431 0.0849,-0.73776 0.1346,-1.29656 l 0.0903,-1.016 0.0184,-8.59367 c 0.0101,-4.72651 0.009,-13.3962 -0.003,-19.26596 l -0.0212,-10.67229 -0.38067,-0.18495 -0.38067,-0.18494 -1.6725,-0.18182 -1.67249,-0.18181 -0.27332,-0.11069 -0.27331,-0.11068 -0.17087,-0.28026 -0.17087,-0.28026 -3.2e-4,-0.24094 c -1.7e-4,-0.13252 0.0625,-0.34722 0.1392,-0.47712 l 0.13952,-0.23619 0.28015,-0.13359 c 0.15409,-0.0735 0.52521,-0.17627 0.82473,-0.22843 l 0.54456,-0.0948 0.25309,0.13087 0.25308,0.13088 1.13218,0.13152 c 0.6227,0.0723 1.24648,0.16259 1.38618,0.20057 l 0.254,0.0691 0.32141,-0.25705 0.32141,-0.25705 0.44059,-0.0184 c 0.24232,-0.0101 0.54453,-0.0447 0.67156,-0.0769 l 0.23098,-0.0584 0.35855,0.18688 c 0.19719,0.10278 0.6457,0.3007 0.99668,0.4398 0.35098,0.13911 0.85645,0.36899 1.12326,0.51085 l 0.4851,0.25792 -0.0537,0.0869 -0.0537,0.0869 0.0865,-0.0535 0.0865,-0.0535 0.49621,0.34759 c 0.63975,0.44815 1.94623,1.61084 1.91602,1.70514 -0.0128,0.0399 0.0109,0.0515 0.0528,0.0256 l 0.076,-0.047 0.42729,0.45181 c 0.36989,0.3911 0.83685,1.03728 1.17014,1.61925 0.0533,0.0931 0.44662,0.75989 0.87397,1.48167 0.84002,1.41878 1.66056,3.04139 1.94808,3.85233 0.0991,0.2794 0.33128,1.13665 0.51603,1.905 0.18475,0.76835 0.44851,1.79705 0.58612,2.286 0.13761,0.48895 0.31754,1.1938 0.39983,1.56634 l 0.14963,0.67733 -0.012,3.64067 -0.012,3.64066 -0.17124,1.18534 c -0.0942,0.65193 -0.46351,2.57598 -0.82073,4.27566 l -0.64949,3.09034 -0.69878,2.11666 -0.69879,2.11667 -0.33209,0.67733 c -1.24835,2.54608 -2.11749,3.97243 -2.97358,4.87993 l -0.54369,0.57635 -0.60581,0.40326 c -0.83466,0.55559 -1.84357,1.06448 -2.73249,1.37823 -0.41171,0.14531 -0.80649,0.31474 -0.87728,0.37651 -0.0708,0.0618 -0.25064,0.17405 -0.39967,0.24951 l -0.27096,0.13721 -1.76104,-0.0127 c -0.96857,-0.007 -1.87534,-0.026 -2.01504,-0.0422 z m 7.493,-1.8501 c 0,-0.0233 -0.019,-0.0423 -0.0423,-0.0423 -0.0233,0 -0.0423,0.019 -0.0423,0.0423 0,0.0233 0.0191,0.0423 0.0423,0.0423 0.0233,0 0.0423,-0.019 0.0423,-0.0423 z m -2.43623,-0.98951 c 0.45711,-0.18339 1.0998,-0.48835 1.42818,-0.67768 l 0.59707,-0.34423 0.52704,-0.52704 0.52704,-0.52705 0.6478,-1.09191 c 0.35629,-0.60055 0.89508,-1.60626 1.19732,-2.23491 l 0.54953,-1.143 0.43468,-1.27 c 0.23907,-0.6985 0.54734,-1.651 0.68505,-2.11667 0.40955,-1.38491 1.41187,-6.16961 1.6406,-7.83166 l 0.134,-0.97367 0.004,-3.38979 0.004,-3.38979 -0.0929,-0.51229 c -0.0511,-0.28176 -0.24452,-1.07363 -0.42984,-1.75972 -0.18532,-0.68608 -0.46787,-1.78764 -0.62791,-2.44791 -0.38847,-1.60278 -0.81458,-2.69403 -1.4418,-3.69242 -0.10438,-0.16614 -0.3424,-0.56878 -0.52894,-0.89475 -0.89036,-1.55584 -1.41716,-2.43896 -1.63094,-2.73408 -0.12868,-0.17763 -0.64872,-0.68132 -1.15565,-1.11929 -0.50693,-0.43798 -0.91216,-0.82647 -0.90052,-0.86331 0.0116,-0.0368 -0.007,-0.0585 -0.0423,-0.0482 -0.0349,0.0104 -0.16795,-0.051 -0.29561,-0.13626 l -0.23211,-0.15509 0.0479,-0.0775 c 0.0263,-0.0426 0.0165,-0.069 -0.0219,-0.0585 -0.0384,0.0105 -0.43174,-0.15669 -0.87413,-0.37143 -0.44238,-0.21475 -0.89444,-0.41682 -1.00456,-0.44905 l -0.20023,-0.0586 0.0548,0.36863 c 0.0301,0.20274 0.0763,0.52898 0.10265,0.72497 l 0.0479,0.35635 -0.1875,0.26331 -0.18749,0.26331 0.0466,11.69934 c 0.0256,6.43464 0.0577,13.03284 0.0713,14.66268 0.0254,3.04945 -0.13721,11.87141 -0.23238,12.60292 l -0.0535,0.41092 0.28054,-0.0616 c 0.1543,-0.0339 0.65455,-0.21167 1.11167,-0.39507 z m 6.41557,-3.92115 c 0,-0.0233 -0.0191,-0.0423 -0.0423,-0.0423 -0.0233,0 -0.0423,0.019 -0.0423,0.0423 0,0.0233 0.019,0.0423 0.0423,0.0423 0.0233,0 0.0423,-0.0191 0.0423,-0.0423 z m 12.48833,5.57264 c -2.13549,-0.18429 -4.24407,-0.55227 -4.79397,-0.83664 l -0.24083,-0.12454 -0.12843,-0.24836 -0.12844,-0.24836 v -0.33392 -0.33391 l 0.23772,-0.25448 0.23772,-0.25448 0.33378,-0.0927 c 0.18358,-0.051 0.5175,-0.0929 0.74204,-0.0931 l 0.40826,-4.8e-4 0.36089,0.2115 0.3609,0.2115 0.51407,0.0537 0.51407,0.0537 0.0714,-0.58273 0.0714,-0.58274 -0.001,-6.30766 c -0.001,-6.39438 -0.0672,-11.98585 -0.21417,-18.20334 -0.0446,-1.88595 -0.0817,-4.5339 -0.0825,-5.88433 -0.001,-2.32901 -0.0922,-5.80308 -0.21852,-8.36083 l -0.0575,-1.16417 h -1.30466 -1.30465 l -0.25647,-0.13262 -0.25646,-0.13263 -0.12033,-0.28799 c -0.26067,-0.62386 -0.12998,-0.98044 0.52959,-1.44495 l 0.18426,-0.12977 3.24227,-0.0155 3.24227,-0.0155 0.31997,0.30439 0.31997,0.30439 -3.1e-4,0.28828 -3.2e-4,0.28827 -0.16824,0.27594 c -0.0925,0.15177 -0.29242,0.35165 -0.44419,0.44419 l -0.27594,0.16824 -0.508,0.003 -0.508,0.003 -0.2789,0.25366 -0.2789,0.25366 0.0879,2.00869 c 0.0484,1.10478 0.10783,3.49459 0.13218,5.31069 0.0243,1.8161 0.0635,4.064 0.0869,4.99533 0.19849,7.87752 0.32201,25.65581 0.19217,27.65862 l -0.0586,0.90395 0.56661,0.0537 c 0.85908,0.0814 0.99496,0.11976 1.20078,0.33884 l 0.18977,0.20201 0.045,0.39893 0.045,0.39892 -0.14741,0.27372 -0.14741,0.27372 -0.20768,0.0946 -0.20768,0.0946 -0.77918,-0.0142 c -0.42855,-0.008 -0.93158,-0.0274 -1.11785,-0.0435 z M 27.273089,165.64543 c -0.561149,-0.0362 -1.674905,-0.17078 -2.667,-0.3223 -0.442383,-0.0676 -1.068657,-0.16056 -1.391719,-0.20667 l -0.587385,-0.0838 -0.216948,-0.21695 -0.216948,-0.21695 v -0.45692 -0.45692 l 0.193518,-0.20599 0.193517,-0.20599 0.324306,-0.0972 c 0.451029,-0.13513 0.765472,-0.12225 1.768161,0.0724 0.47896,0.093 1.002835,0.16908 1.164167,0.16908 h 0.293331 l 2.06e-4,-0.99484 c 3.62e-4,-1.75589 0.157688,-3.38768 0.626509,-6.49816 0.377381,-2.50382 0.651864,-5.11262 0.775006,-7.366 l 0.05552,-1.016 -0.261558,-0.19201 c -0.143856,-0.1056 -0.322708,-0.31025 -0.397448,-0.45478 l -0.135891,-0.26279 0.05088,-0.27121 0.05088,-0.27122 0.231779,-0.21409 c 0.127478,-0.11774 0.298454,-0.23752 0.379945,-0.26617 l 0.148167,-0.0521 0.0044,-0.61649 c 0.03048,-4.24375 -0.05713,-7.33186 -0.30334,-10.69182 -0.382273,-5.21681 -0.470939,-6.68476 -0.563774,-9.33376 l -0.101599,-2.89908 -0.258691,-0.0339 c -0.14228,-0.0186 -0.37195,-0.0345 -0.510378,-0.0353 l -0.251686,-0.001 -0.271191,0.23811 c -0.149155,0.13096 -0.391835,0.26461 -0.539289,0.297 l -0.268098,0.0589 -0.394358,-0.0578 c -0.484106,-0.0709 -1.086957,-0.32789 -1.353847,-0.57708 -0.637751,-0.59547 -0.565892,-1.42194 0.159058,-1.82939 l 0.315487,-0.17731 h 3.441359 3.441358 l 0.281481,0.11761 c 0.154814,0.0647 0.382191,0.22622 0.50528,0.35897 l 0.2238,0.24135 v 0.38828 0.38827 l -0.1905,0.17351 c -0.32609,0.29701 -0.525474,0.35735 -1.379026,0.41735 l -0.827694,0.0582 0.05657,2.25141 c 0.05236,2.08365 0.192518,4.56812 0.516297,9.15173 0.07072,1.00119 0.168856,2.41089 0.218075,3.13267 0.04922,0.72178 0.112566,2.90598 0.140771,4.85376 l 0.05128,3.54143 0.177946,-0.0482 c 0.557745,-0.15118 2.477365,-0.48811 3.649278,-0.64051 2.478083,-0.32228 5.658606,-0.76195 6.805198,-0.94074 l 1.132531,-0.1766 0.391469,0.0342 c 0.215308,0.0188 0.444047,0.0507 0.50831,0.071 l 0.11684,0.0368 -0.01342,-0.635 c -0.0074,-0.34925 -0.05027,-1.4351 -0.0953,-2.413 -0.04503,-0.9779 -0.139632,-3.0353 -0.210219,-4.572 -0.07059,-1.5367 -0.162055,-3.46837 -0.203264,-4.29261 l -0.07492,-1.4986 -0.187289,-0.26303 -0.187289,-0.26302 -0.08986,-0.64035 -0.08986,-0.64035 0.101136,-0.81535 c 0.05562,-0.44845 0.122747,-0.91523 0.149161,-1.03731 l 0.04802,-0.22195 -0.682739,-0.0998 -0.68274,-0.0998 -0.302098,0.0567 -0.302098,0.0567 -0.37529,-0.10507 -0.37529,-0.10507 -0.298663,-0.29006 -0.298663,-0.29006 -0.01003,-0.31342 c -0.0055,-0.17239 -0.0022,-0.37058 0.0073,-0.44043 0.02426,-0.17737 0.336406,-0.4995 0.633988,-0.65425 l 0.250292,-0.13015 0.638708,0.0591 c 0.351289,0.0325 0.943507,0.10692 1.316041,0.16543 l 0.677333,0.10637 0.07001,-0.13982 c 0.03851,-0.0769 0.177733,-0.20345 0.309397,-0.28123 l 0.239388,-0.14141 h 0.35988 0.359879 l 0.333477,0.35056 0.333476,0.35055 1.325581,-0.0462 1.325581,-0.0462 0.254,0.11987 0.254,0.11988 0.177147,0.27423 c 0.09743,0.15083 0.225676,0.42156 0.28499,0.60161 l 0.107844,0.32737 -0.04455,0.33212 c -0.05611,0.41834 -0.178432,0.56576 -0.638793,0.76986 l -0.367357,0.16286 -0.225309,-0.0555 c -0.12392,-0.0305 -0.34287,-0.16855 -0.486555,-0.30674 l -0.261245,-0.25126 -0.871667,0.0243 -0.871667,0.0243 0.01438,0.93133 c 0.0079,0.51223 0.05011,1.71238 0.09379,2.667 0.535777,11.71114 0.65446,14.92175 0.719849,19.47334 0.04318,3.0057 0.327705,10.03966 0.416427,10.29482 l 0.03216,0.0925 0.898022,0.055 c 0.493912,0.0302 1.173687,0.11758 1.510611,0.19414 l 0.612588,0.13919 0.328201,0.32794 0.328201,0.32795 -0.04213,0.4385 -0.04214,0.43851 -0.305989,0.28042 -0.305989,0.28042 -0.27641,-9.2e-4 c -0.152026,-5e-4 -0.449715,-0.0535 -0.661532,-0.11782 -0.211818,-0.0643 -0.746983,-0.14403 -1.189258,-0.17719 l -0.804135,-0.0603 -0.30511,0.30511 -0.305109,0.30511 -0.283633,-3.2e-4 -0.283633,-3.1e-4 -0.296334,-0.18057 c -0.162983,-0.0993 -0.346118,-0.25157 -0.406967,-0.33835 l -0.110635,-0.15778 h -0.950925 -0.950926 l -0.377773,-0.1905 -0.377774,-0.1905 -0.152739,-0.29634 -0.152739,-0.29633 0.05254,-0.508 0.05254,-0.508 0.206357,-0.3543 c 0.113496,-0.19487 0.320443,-0.43554 0.45988,-0.53483 l 0.253524,-0.18052 0.250566,-0.007 0.250566,-0.007 0.312529,0.23838 0.312529,0.23838 0.09062,0.24007 0.09062,0.24007 h 0.243506 0.243505 l -0.0555,-1.29117 c -0.03052,-0.71014 -0.09249,-1.90076 -0.137703,-2.64583 -0.06692,-1.10278 -0.230786,-7.85508 -0.243187,-10.02089 l -0.0031,-0.53823 -0.148167,0.0596 c -0.08149,0.0328 -0.891117,0.16785 -1.799167,0.30011 -0.90805,0.13226 -2.16535,0.31775 -2.794,0.41219 -0.62865,0.0945 -1.92405,0.26875 -2.878667,0.38734 -1.897149,0.23568 -3.926527,0.56799 -4.65619,0.76245 l -0.465189,0.12398 -0.09828,0.13441 -0.09828,0.13441 -0.0538,0.98963 c -0.169875,3.12496 -0.390281,5.20087 -0.976399,9.19628 -0.2843,1.938 -0.421993,3.61055 -0.423936,5.14951 l -0.0013,0.99484 h 0.582327 0.582326 l 0.303954,-0.127 c 0.391965,-0.16378 0.678733,-0.16057 1.041654,0.0117 l 0.292185,0.13865 0.156388,0.30654 0.156388,0.30655 -0.03318,0.28494 c -0.01825,0.15672 -0.110303,0.40973 -0.20457,0.56226 l -0.171393,0.27732 -0.338755,0.13554 -0.338754,0.13555 -1.289453,-0.0153 c -0.7092,-0.008 -1.479954,-0.0275 -1.712787,-0.0426 z m 14.689667,-36.05251 c 0,-0.0233 -0.01905,-0.0423 -0.04233,-0.0423 -0.02328,0 -0.04233,0.019 -0.04233,0.0423 0,0.0233 0.01905,0.0423 0.04233,0.0423 0.02328,0 0.04233,-0.0191 0.04233,-0.0423 z m 4.064,-3.38667 c 0,-0.0233 -0.01905,-0.0423 -0.04233,-0.0423 -0.02328,0 -0.04233,0.019 -0.04233,0.0423 0,0.0233 0.01905,0.0423 0.04233,0.0423 0.02328,0 0.04233,-0.019 0.04233,-0.0423 z m -23.029334,-5.75733 c 0,-0.0233 -0.01905,-0.0423 -0.04233,-0.0423 -0.02328,0 -0.04233,0.0191 -0.04233,0.0423 0,0.0233 0.01905,0.0423 0.04233,0.0423 0.02328,0 0.04233,-0.019 0.04233,-0.0423 z m 130.198788,42.29033 c -0.17319,-0.0935 -0.35954,-0.25346 -0.41412,-0.35544 l -0.0992,-0.18542 -0.006,-0.44504 -0.006,-0.44504 0.19074,-0.20303 0.19073,-0.20303 0.31448,-0.0875 c 0.17297,-0.0481 0.85741,-0.17635 1.52099,-0.28498 l 1.2065,-0.19751 V 160.123 c 0,-0.11509 -0.32128,-1.16405 -0.71394,-2.33101 -0.79774,-2.37081 -0.91574,-2.80122 -1.39526,-5.08931 -0.36851,-1.75842 -0.97011,-4.13183 -1.66215,-6.55745 -0.24579,-0.86149 -0.50602,-1.85209 -0.57831,-2.20134 -0.0723,-0.34925 -0.22951,-1.0922 -0.3494,-1.651 -0.11989,-0.5588 -0.35222,-1.66265 -0.51629,-2.45301 -0.55623,-2.67949 -0.83334,-3.72942 -1.74365,-6.60632 -0.27996,-0.88477 -0.68,-2.16112 -0.88898,-2.83634 -0.20897,-0.67521 -0.47641,-1.53246 -0.5943,-1.905 -0.11788,-0.37253 -0.32012,-1.02023 -0.44941,-1.43933 -0.12929,-0.4191 -0.60649,-1.96215 -1.06044,-3.429 -0.70338,-2.27283 -1.08325,-3.53709 -1.1855,-3.94548 l -0.0233,-0.0932 -1.20734,-0.0164 -1.20735,-0.0165 -0.22803,-0.13471 c -0.27676,-0.16348 -0.50499,-0.52984 -0.50499,-0.81061 v -0.20707 l 0.24868,-0.34329 0.24869,-0.3433 0.47416,-0.17741 c 0.57003,-0.21327 0.92984,-0.22366 1.36763,-0.0395 l 0.32784,0.13792 1.143,-0.0491 c 0.62865,-0.027 1.47678,-0.10945 1.88474,-0.18327 l 0.74175,-0.13422 0.35113,0.0946 0.35114,0.0945 0.24062,0.24062 0.24062,0.24062 v 0.26888 c 0,0.14789 -0.0637,0.40316 -0.14159,0.56727 l -0.14159,0.29837 -0.26058,0.10853 c -0.14331,0.0597 -0.43202,0.13364 -0.64157,0.16433 -0.20955,0.0307 -0.4572,0.0695 -0.55034,0.0862 -0.0931,0.0168 -0.25222,0.0334 -0.35354,0.0369 l -0.18421,0.006 0.20949,0.52917 0.20949,0.52917 0.0409,0.54199 0.0409,0.54198 0.32808,1.06668 c 1.23444,4.01355 1.83217,5.93905 2.11836,6.82401 1.76646,5.46226 2.12476,6.77005 2.95749,10.79501 0.60809,2.93918 0.87912,4.0565 1.81763,7.493 0.57542,2.10701 0.90899,3.48222 1.28353,5.29166 0.24584,1.18772 0.62465,2.63153 0.7177,2.73554 l 0.0613,0.0685 0.0549,-0.32254 c 0.1751,-1.02944 0.60994,-4.23839 0.97955,-7.22864 0.69648,-5.63479 1.40278,-10.26554 1.99429,-13.07523 0.30743,-1.46033 1.33846,-5.59473 1.94248,-7.78934 0.32839,-1.19312 0.56897,-2.31653 1.242,-5.79966 0.20457,-1.0587 0.51747,-2.06316 0.84982,-2.72809 0.13317,-0.26643 0.24213,-0.50382 0.24213,-0.52754 0,-0.0237 -0.18098,-0.02 -0.40217,0.008 l -0.40217,0.0514 -0.29633,0.28117 c -0.16298,0.15463 -0.39139,0.31605 -0.50756,0.3587 l -0.21123,0.0775 -0.25444,-0.085 c -0.36627,-0.1224 -0.52591,-0.28663 -0.68593,-0.70564 l -0.14125,-0.36985 0.0488,-0.30058 c 0.0268,-0.16533 0.13096,-0.43356 0.2314,-0.59608 l 0.18263,-0.2955 0.30897,-0.15644 c 0.47622,-0.24113 2.57786,-0.52571 4.81239,-0.65163 l 1.0321,-0.0582 0.45063,0.22047 c 0.24784,0.12126 0.57936,0.35329 0.7367,0.51563 l 0.28608,0.29516 0.0411,0.42738 0.0411,0.42738 -0.3394,0.3394 -0.33941,0.33941 h -0.27367 -0.27367 l -0.39915,-0.21724 -0.39914,-0.21724 -0.37431,0.0267 -0.37432,0.0267 -0.0472,0.35389 -0.0472,0.35388 -0.34309,0.37222 -0.3431,0.37222 -0.25867,0.67089 c -0.35332,0.91635 -0.55474,1.7504 -0.86747,3.5919 l -0.26599,1.56633 -0.45686,1.778 c -0.25128,0.9779 -0.59066,2.2733 -0.75418,2.87867 -0.35736,1.32295 -0.95199,3.69909 -1.10176,4.40267 -0.0595,0.2794 -0.17178,0.79375 -0.24957,1.143 -0.23226,1.04291 -0.52437,2.69425 -0.92857,5.24933 -0.5263,3.327 -0.51753,3.26503 -0.89911,6.35 -0.79439,6.42232 -1.12258,8.71274 -1.59532,11.13367 -0.1364,0.6985 -0.24215,1.27676 -0.235,1.28502 0.007,0.008 0.35597,-0.0321 0.77516,-0.0898 l 0.76217,-0.1048 0.27731,0.0719 0.27731,0.0719 0.16579,0.27191 0.16579,0.27191 3.2e-4,0.32867 3.1e-4,0.32868 -0.17096,0.27661 -0.17095,0.27662 -0.33876,0.13554 c -0.18631,0.0745 -0.4476,0.13555 -0.58063,0.13555 -0.13303,0 -0.61803,0.11588 -1.07778,0.25751 -0.45976,0.14163 -1.15977,0.32842 -1.55558,0.41509 -1.44819,0.3171 -2.59144,0.5355 -2.96334,0.56608 l -0.381,0.0313 z m 13.39588,-44.06833 c 0,-0.0233 -0.0191,-0.0423 -0.0423,-0.0423 -0.0233,0 -0.0423,0.019 -0.0423,0.0423 0,0.0233 0.019,0.0423 0.0423,0.0423 0.0233,0 0.0423,-0.0191 0.0423,-0.0423 z m 20.15067,43.90368 c -0.16298,-0.0394 -0.60113,-0.1164 -0.97367,-0.17102 -0.37253,-0.0546 -1.21073,-0.22625 -1.86266,-0.38139 -0.65194,-0.15515 -1.39489,-0.30509 -1.651,-0.33322 -0.25612,-0.0281 -1.41817,-0.14727 -2.58234,-0.26478 -1.16416,-0.1175 -3.22156,-0.36493 -4.572,-0.54982 -1.35043,-0.1849 -2.71423,-0.37132 -3.03067,-0.41428 l -0.57535,-0.0781 -0.41816,-0.26834 -0.41816,-0.26833 -0.82683,0.0464 c -0.45475,0.0255 -0.98446,0.0708 -1.17712,0.10062 l -0.35029,0.0542 -0.49347,-0.10245 -0.49347,-0.10244 -0.27139,-0.2714 -0.2714,-0.27139 -0.0559,-0.29779 -0.0559,-0.29779 0.12678,-0.30344 0.12679,-0.30343 0.21162,-0.13866 0.21162,-0.13866 1.79786,-0.004 1.79787,-0.004 -0.0478,-4.41456 -0.0478,-4.41457 0.12408,-1.397 c 0.0682,-0.76835 0.15855,-1.7399 0.20069,-2.159 0.0421,-0.4191 0.11639,-2.0193 0.16502,-3.556 0.0486,-1.5367 0.12796,-4.03225 0.17629,-5.54567 0.0483,-1.51342 0.12278,-4.65667 0.16544,-6.985 0.0426,-2.32833 0.0993,-5.02391 0.12582,-5.99017 l 0.0483,-1.75683 h -1.11112 -1.11112 l -0.29313,-0.1391 -0.29313,-0.1391 -0.2065,-0.30389 -0.2065,-0.30388 v -0.22401 c 0,-0.51008 0.65484,-1.45202 1.20847,-1.73832 l 0.25775,-0.13328 0.43013,0.0571 0.43012,0.0571 0.28043,0.17331 c 0.15423,0.0953 0.34,0.26425 0.41283,0.3754 l 0.13242,0.20208 h 0.1674 c 0.0921,0 0.26428,-0.0762 0.38268,-0.16933 l 0.21528,-0.16933 h 0.35816 0.35816 l 0.21169,0.16651 c 0.33033,0.25984 0.69951,0.27906 3.41205,0.17768 2.70551,-0.10113 3.73222,-0.18162 5.06748,-0.39731 l 0.83671,-0.13515 0.2875,-0.16964 0.28751,-0.16963 h 0.40162 0.40162 l 0.32939,0.15794 c 0.18117,0.0869 0.40524,0.26054 0.49794,0.38595 l 0.16853,0.22801 0.008,0.3817 0.008,0.3817 -0.31459,0.3222 -0.31458,0.32221 -0.20638,1.31175 c -0.49003,3.11464 -0.5618,3.61444 -0.56163,3.91126 2.4e-4,0.4171 -0.13243,0.68662 -0.42227,0.85783 l -0.23868,0.14099 -0.36794,-0.003 -0.36793,-0.003 -0.1956,-0.10854 c -0.10758,-0.0597 -0.26926,-0.22028 -0.35928,-0.35684 l -0.16367,-0.24829 5.4e-4,-0.29633 c 2.9e-4,-0.16299 0.0763,-0.77259 0.16902,-1.35467 0.18376,-1.15426 0.50665,-3.38179 0.50665,-3.49518 0,-0.0389 -0.029,-0.0529 -0.0644,-0.031 -0.21836,0.13496 -3.56469,0.44867 -5.35192,0.50173 l -0.63267,0.0188 -0.0139,0.28063 -0.0139,0.28062 -0.20013,0.21425 c -0.11008,0.11785 -0.30954,0.27116 -0.44325,0.34071 l -0.24312,0.12645 -0.28412,-0.0533 -0.28411,-0.0533 -0.37304,-0.28475 -0.37304,-0.28475 -0.11098,0.22472 -0.11097,0.22472 -0.0662,3.59834 c -0.0364,1.97908 -0.13037,5.5893 -0.20883,8.0227 -0.0785,2.4334 -0.12701,4.43907 -0.1079,4.45704 0.0664,0.0624 5.0074,0.23349 5.39856,0.18689 0.21644,-0.0258 0.90787,-0.10849 1.53652,-0.18379 l 1.143,-0.13691 0.21167,-0.19155 c 0.11641,-0.10536 0.27262,-0.2128 0.34711,-0.23877 l 0.13545,-0.0472 0.0586,-0.79071 c 0.0782,-1.05388 0.21046,-1.88828 0.35381,-2.23136 l 0.11736,-0.2809 0.24772,-0.17639 0.24771,-0.17639 h 0.42849 0.42848 l 0.27811,0.24439 0.27812,0.24438 0.35312,0.66578 c 0.19422,0.36618 0.37898,0.80624 0.41058,0.97791 l 0.0575,0.31212 -0.22523,0.29529 -0.22523,0.29529 -0.35469,0.11226 -0.35468,0.11225 -0.0552,0.80434 c -0.0304,0.44238 -0.0729,1.68996 -0.0946,2.77239 l -0.0394,1.96806 -0.20079,0.29304 -0.2008,0.29305 -0.31304,0.14116 -0.31303,0.14116 -0.28818,-0.0541 -0.28817,-0.0541 -0.17297,-0.18921 c -0.0951,-0.10406 -0.23794,-0.31764 -0.31736,-0.47463 l -0.14438,-0.28542 0.0545,-0.43424 c 0.03,-0.23884 0.074,-0.78667 0.098,-1.21741 l 0.0435,-0.78317 h -0.061 c -0.0335,0 -0.67431,0.0807 -1.42397,0.17929 l -1.36303,0.17928 -2.62467,-0.0633 c -1.44356,-0.0348 -2.75801,-0.0678 -2.921,-0.0735 l -0.29633,-0.0102 -0.0552,1.85137 c -0.0304,1.01826 -0.0974,2.21841 -0.14896,2.667 -0.0516,0.4486 -0.14993,1.37642 -0.21856,2.06183 l -0.12478,1.2462 0.0547,4.65271 0.0547,4.65272 0.38523,0.097 c 0.21188,0.0533 0.66562,0.22655 1.00831,0.38488 l 0.62307,0.28788 1.2851,0.17112 c 1.67478,0.22301 4.08126,0.4904 5.30974,0.58999 l 0.97663,0.0792 1.7327,0.37673 c 0.95298,0.20721 1.91821,0.40025 2.14496,0.429 l 0.41226,0.0523 -0.0574,-0.90993 c -0.0316,-0.50046 -0.095,-1.23011 -0.1411,-1.62144 -0.046,-0.39133 -0.0852,-1.19143 -0.087,-1.778 l -0.003,-1.06649 0.16493,-0.42333 0.16493,-0.42334 0.34697,-0.19497 0.34696,-0.19497 0.30616,0.0574 0.30615,0.0574 0.20268,0.21858 0.20268,0.21858 0.0519,0.34604 0.0519,0.34603 -0.0821,0.45146 -0.0821,0.45146 0.11745,1.61913 c 0.10799,1.4887 0.22142,2.72802 0.33804,3.69346 l 0.046,0.381 -0.19687,0.28855 c -0.10828,0.1587 -0.30286,0.36707 -0.43241,0.46305 l -0.23554,0.1745 -0.56879,0.0193 c -0.31284,0.0106 -0.70215,-0.013 -0.86513,-0.0524 z m -68.62233,-1.45351 c -0.2794,-0.04 -0.83185,-0.10709 -1.22767,-0.1492 -0.86782,-0.0923 -1.60076,-0.27239 -2.21562,-0.54431 l -0.45725,-0.20221 -0.2299,-0.27322 -0.2299,-0.27322 v -0.40699 -0.40698 l 0.32581,-0.29435 0.32581,-0.29435 0.29875,-0.056 0.29874,-0.056 0.21285,0.0809 0.21285,0.0809 0.0649,-0.56588 c 0.0357,-0.31124 0.0698,-2.99625 0.0758,-5.9667 l 0.0108,-5.40082 -0.15984,-0.14465 c -0.0879,-0.0796 -0.21308,-0.24762 -0.27817,-0.37348 l -0.11833,-0.22883 0.003,-0.36403 c 0.002,-0.20022 0.0582,-0.59264 0.12568,-0.87204 l 0.12266,-0.508 10e-4,-1.03989 0.001,-1.03988 0.12185,-0.29163 c 0.13877,-0.33212 0.34313,-0.5669 0.61787,-0.70984 l 0.18939,-0.0985 -0.1683,-0.314 -0.16829,-0.314 0.0557,-0.29745 c 0.0306,-0.1636 0.10226,-0.41175 0.15916,-0.55145 l 0.10346,-0.254 0.0566,-4.52967 0.0566,-4.52966 -0.0845,-2.11667 -0.0845,-2.11667 -0.14185,-0.284 -0.14185,-0.28401 -0.0106,-1.832 -0.0106,-1.83201 -0.508,-0.0916 c -0.2794,-0.0504 -0.58929,-0.14279 -0.68864,-0.20537 -0.23419,-0.14749 -0.45445,-0.52381 -0.45405,-0.77575 4.1e-4,-0.2575 0.27391,-0.70281 0.53788,-0.87577 l 0.20762,-0.13603 0.83359,0.006 c 0.45848,0.003 0.986,0.006 1.17226,0.008 0.18627,0.001 0.77682,0.0103 1.31234,0.0205 l 0.97366,0.0186 0.16934,0.0948 0.16933,0.0948 3.25967,0.0471 3.25966,0.0471 1.651,0.14745 c 0.90805,0.0811 2.01295,0.14124 2.45534,0.13365 0.44238,-0.008 1.03293,-0.0183 1.31233,-0.0238 0.2794,-0.006 0.74269,0.0276 1.02953,0.0737 l 0.52154,0.0837 0.29503,0.22503 c 0.16227,0.12377 0.34149,0.33719 0.39828,0.47428 l 0.10324,0.24924 -0.0654,0.14969 c -0.036,0.0823 -0.0598,0.17687 -0.053,0.21011 0.0146,0.0712 -0.577,0.65924 -0.66325,0.65924 -0.0325,0 -0.0822,0.86678 -0.11043,1.92617 l -0.0514,1.92616 -0.12414,0.50694 -0.12414,0.50693 -0.26177,0.2339 -0.26178,0.2339 h -0.38523 c -0.47958,0 -0.67282,-0.10049 -0.84922,-0.44161 l -0.13821,-0.26727 0.10394,-1.88199 0.10394,-1.88199 -0.0578,-0.42037 -0.0578,-0.42036 -0.9883,-0.0443 c -0.54356,-0.0244 -1.54074,-0.0863 -2.21595,-0.13773 -0.67522,-0.0514 -1.78012,-0.13165 -2.45534,-0.1784 l -1.22766,-0.085 -2.89984,8.4e-4 -2.89983,8.5e-4 v 0.29133 c 0,0.16024 -0.0381,0.31489 -0.0847,0.34367 l -0.0847,0.0523 v 0.63557 0.63557 l 0.085,0.15885 0.085,0.15885 0.0557,2.60842 c 0.0724,3.39229 0.0804,6.03063 0.0287,9.42408 l -0.042,2.75167 0.25365,-0.0115 c 0.1395,-0.006 1.06382,-0.073 2.05404,-0.14817 0.99021,-0.0752 2.28561,-0.13728 2.87866,-0.13799 l 1.07828,-0.001 0.12504,-0.0791 0.12504,-0.0791 -0.0256,-0.66046 c -0.0141,-0.36326 -0.0608,-0.80334 -0.10387,-0.97797 -0.0431,-0.17462 -0.11674,-0.47065 -0.16375,-0.65783 l -0.0855,-0.34033 0.0935,-0.37115 0.0935,-0.37115 0.23189,-0.22217 0.2319,-0.22217 0.43447,-0.0515 0.43448,-0.0514 0.29058,0.29058 0.29058,0.29058 0.0982,0.33469 c 0.17705,0.60331 0.26765,2.15438 0.28166,4.82203 l 0.0138,2.62467 -0.14041,0.70706 -0.14041,0.70707 -0.15333,0.16944 c -0.0843,0.0932 -0.26451,0.22692 -0.4004,0.29719 l -0.24706,0.12776 -0.38534,-0.0434 -0.38535,-0.0434 -0.20405,-0.23722 -0.20406,-0.23723 0.0537,-0.76594 c 0.0296,-0.42126 0.0777,-1.24524 0.10701,-1.83107 l 0.0533,-1.06514 -0.96409,0.0313 c -1.32427,0.0431 -4.96517,0.27189 -5.30855,0.33366 l -0.28047,0.0505 0.0597,2.00484 0.0597,2.00484 -0.1011,0.30634 -0.1011,0.30634 -0.28255,0.21551 -0.28254,0.21551 -0.003,5.5569 c -0.002,3.05629 -0.0293,5.96552 -0.0617,6.46494 l -0.0588,0.90803 0.87776,0.10481 c 1.22116,0.14582 1.30229,0.1656 1.53755,0.37475 0.43205,0.38411 0.49677,0.72884 0.22373,1.19161 l -0.1748,0.29626 -0.35993,0.17424 -0.35993,0.17424 -0.29077,-0.0111 c -0.15992,-0.006 -0.51936,-0.0438 -0.79876,-0.0837 z m -2.921,-0.9635 c 0,-0.0233 -0.0191,-0.0423 -0.0423,-0.0423 -0.0233,0 -0.0423,0.019 -0.0423,0.0423 0,0.0233 0.019,0.0423 0.0423,0.0423 0.0233,0 0.0423,-0.019 0.0423,-0.0423 z m -8.01677,0.46988 c -0.14837,-0.0905 -0.30884,-0.2375 -0.3566,-0.32675 l -0.0868,-0.16226 -0.29317,-0.0476 -0.29317,-0.0476 -0.40085,0.12064 c -0.22047,0.0663 -0.52543,0.12064 -0.6777,0.12064 h -0.27685 l -0.29657,-0.27971 c -0.16312,-0.15384 -0.32108,-0.37732 -0.35102,-0.49663 l -0.0545,-0.21692 0.0946,-0.35115 0.0945,-0.35115 0.25467,-0.29005 0.25467,-0.29005 0.30623,-0.10107 0.30623,-0.10106 0.62087,0.0525 0.62087,0.0525 -8.8e-4,-0.57042 c -4.8e-4,-0.31373 -0.059,-1.92297 -0.13013,-3.57608 l -0.12925,-3.00567 0.058,-4.34862 0.058,-4.34862 -2.15041,0.0563 -2.15041,0.0563 -1.60867,0.16704 c -0.884762,0.0919 -2.408762,0.27925 -3.386662,0.41638 -2.723428,0.3819 -2.982791,0.41272 -3.935151,0.46758 -0.487934,0.0281 -0.898547,0.0625 -0.912475,0.0764 -0.01393,0.0139 0.01314,0.99265 0.06015,2.17495 0.04701,1.18231 0.128628,3.78794 0.181371,5.79031 0.05274,2.00237 0.120092,3.90737 0.149666,4.23333 l 0.05377,0.59267 1.27,-0.005 1.27,-0.005 0.447635,-0.18523 c 0.557253,-0.23059 0.798479,-0.23239 1.259114,-0.009 l 0.363212,0.17582 0.08003,0.28984 0.08003,0.28984 -0.07966,0.27517 c -0.114114,0.39418 -0.322308,0.60733 -0.800026,0.81904 l -0.418999,0.18569 -0.804334,0.12155 -0.804333,0.12155 -0.917979,5e-4 -0.917979,5e-4 -0.215272,0.16934 -0.215273,0.16933 h -0.290481 c -0.340538,0 -0.565277,-0.10331 -0.91435,-0.42032 l -0.254,-0.23067 -0.562325,-0.14709 -0.562326,-0.14709 -0.277205,0.14335 -0.277204,0.14334 -0.373405,-0.0421 -0.373405,-0.0421 -0.247565,-0.23718 -0.247565,-0.23719 v -0.34512 -0.34512 l 0.302452,-0.44912 0.302451,-0.44911 0.396049,-0.25378 0.396048,-0.25378 0.338667,0.0521 c 0.186267,0.0287 0.46467,0.12641 0.618673,0.21719 0.154003,0.0908 0.300988,0.16506 0.326633,0.16506 0.02564,0 0.0223,-0.37147 -0.0074,-0.8255 -0.02973,-0.45402 -0.109508,-3.1115 -0.177281,-5.9055 -0.131482,-5.42046 -0.16005,-5.96785 -0.342447,-6.56166 -0.116853,-0.38043 -0.11708,-0.44423 -0.003,-0.85127 l 0.06059,-0.21626 -0.09258,-1.3924 c -0.258732,-3.89116 -0.418759,-8.32762 -0.45488,-12.61074 l -0.02678,-3.175 -0.839733,-0.0573 c -1.204258,-0.0822 -2.327745,-0.24578 -2.58989,-0.37714 -0.124387,-0.0623 -0.305362,-0.22456 -0.402167,-0.36051 l -0.176008,-0.24718 v -0.35328 -0.35327 l 0.239848,-0.23985 0.239849,-0.23985 0.354388,-0.10618 0.354389,-0.10618 0.485263,0.10292 c 1.027247,0.21786 1.484758,0.25621 3.617929,0.30323 1.210734,0.0267 2.440239,0.0699 2.732234,0.096 l 0.5309,0.0475 0.241352,0.20308 0.241351,0.20309 0.0503,0.25148 0.0503,0.25149 -0.09344,0.27934 c -0.05139,0.15363 -0.17046,0.36448 -0.26459,0.46854 l -0.171146,0.1892 -0.261626,0.0484 c -0.143894,0.0266 -0.657063,0.0558 -1.140377,0.0648 l -0.878751,0.0164 -0.02221,0.28327 c -0.01222,0.15579 -0.08962,0.43275 -0.172008,0.61546 l -0.149799,0.33219 0.09952,4.46454 c 0.0964,4.32458 0.172504,6.25637 0.379345,9.62921 l 0.09865,1.60867 1.058334,-0.009 1.058333,-0.009 1.905,-0.26773 c 1.04775,-0.14726 2.15265,-0.30607 2.455334,-0.35293 0.302683,-0.0469 1.083733,-0.14315 1.735667,-0.214 l 1.18533,-0.12882 2.30717,-0.0509 2.30717,-0.051 -7.4e-4,-0.22022 c -6.7e-4,-0.20239 -0.1156,-1.21613 -0.33213,-2.92956 -0.30564,-2.41865 -0.51164,-6.93038 -0.51415,-11.26066 -10e-4,-1.86267 -0.0238,-3.46805 -0.0505,-3.56752 l -0.0485,-0.18086 -0.31091,-0.0497 c -0.17101,-0.0273 -0.59632,-0.11397 -0.94515,-0.1925 l -0.63424,-0.1428 -0.27516,-0.27433 -0.27517,-0.27434 v -0.37805 -0.37805 l 0.16703,-0.21234 c 0.0919,-0.11679 0.29765,-0.27433 0.4573,-0.35009 l 0.29026,-0.13774 h 0.39209 0.39209 l 0.30396,0.127 c 0.16717,0.0699 0.37416,0.127 0.45997,0.127 h 0.15601 l 0.0902,-0.16845 c 0.0496,-0.0927 0.20922,-0.23003 0.35475,-0.30529 l 0.26459,-0.13682 0.29392,0.0477 c 0.16166,0.0262 0.42343,0.13504 0.58172,0.24179 l 0.2878,0.19408 0.0468,0.18051 0.0468,0.1805 0.31083,0.0514 c 0.17096,0.0283 0.70258,0.0518 1.18138,0.0523 l 0.87056,9.3e-4 0.27244,0.11609 c 0.14985,0.0639 0.36292,0.21423 0.4735,0.33419 l 0.20105,0.21809 0.0691,0.36432 0.0691,0.36431 -0.0823,0.31521 -0.0823,0.31521 -0.27252,0.20345 c -0.14989,0.1119 -0.41646,0.22916 -0.59239,0.26057 l -0.31987,0.0571 -0.20643,-0.16237 c -0.11353,-0.0893 -0.18866,-0.18013 -0.16696,-0.20184 0.0571,-0.0571 -0.0843,-0.0761 -0.91304,-0.12295 l -0.74083,-0.0418 3e-5,3.24472 c 6e-5,5.08639 0.15653,8.22773 0.59599,11.96539 0.33002,2.80685 0.41826,3.74154 0.48361,5.12233 l 0.0661,1.397 -0.0702,2.286 -0.0702,2.286 0.0569,2.45534 c 0.0313,1.35043 0.0679,2.60773 0.0813,2.794 0.0134,0.18626 0.0531,1.33416 0.0882,2.55088 l 0.0638,2.21222 0.43174,0.0519 c 0.62818,0.0755 1.5658,0.0613 1.95574,-0.0297 l 0.33867,-0.079 0.29566,0.14448 0.29567,0.14449 0.10525,0.21167 c 0.0579,0.11641 0.10581,0.35588 0.1065,0.53214 l 10e-4,0.32048 -0.13901,0.21216 c -0.0765,0.11668 -0.31458,0.31537 -0.52917,0.44152 l -0.39015,0.22936 h -1.397 -1.397 l -0.18494,0.10584 c -0.10171,0.0582 -0.33031,0.10569 -0.508,0.10551 l -0.32307,-3.1e-4 z m -0.1959,-0.30055 c 0,-0.0233 -0.0191,-0.0423 -0.0423,-0.0423 -0.0233,0 -0.0423,0.019 -0.0423,0.0423 0,0.0233 0.019,0.0423 0.0423,0.0423 0.0233,0 0.0423,-0.019 0.0423,-0.0423 z M 94.371425,123.58159 c 0,-0.0233 -0.01905,-0.0423 -0.04233,-0.0423 -0.02328,0 -0.04233,0.0191 -0.04233,0.0423 0,0.0233 0.01905,0.0423 0.04233,0.0423 0.02328,0 0.04233,-0.019 0.04233,-0.0423 z m 39.877345,36.59576 c -0.40966,-0.14404 -0.5315,-0.23155 -0.76012,-0.5459 l -0.19792,-0.27214 0.005,-0.49784 0.005,-0.49784 0.13776,-0.26639 c 0.17543,-0.33924 0.45706,-0.52336 0.8215,-0.53706 l 0.28711,-0.0108 0.2723,0.14082 c 0.14977,0.0774 0.31287,0.21661 0.36246,0.30927 l 0.0901,0.16845 0.35686,-9.3e-4 c 0.19627,-5.1e-4 0.4944,-0.0237 0.6625,-0.0515 l 0.30566,-0.0505 0.0497,-1.28202 c 0.118,-3.04334 0.32736,-6.47558 0.48362,-7.92834 l 0.16848,-1.56633 0.0349,-3.85234 c 0.0192,-2.11878 0.062,-7.62036 0.0952,-12.22572 l 0.0602,-8.3734 -0.3577,0.0572 c -0.19673,0.0315 -0.48899,0.0326 -0.64945,0.002 l -0.29175,-0.0547 -0.24943,-0.24943 -0.24943,-0.24943 -0.0718,-0.26964 -0.0718,-0.26964 0.0722,-0.21288 c 0.0894,-0.26389 0.39005,-0.61749 0.63544,-0.74749 l 0.18494,-0.098 h 0.45888 c 0.25239,0 0.96927,-0.0792 1.59307,-0.1761 l 1.13418,-0.17611 0.80433,0.033 0.80434,0.033 0.36315,0.18889 0.36316,0.18889 0.17006,0.27175 0.17006,0.27175 -0.0423,0.28304 -0.0423,0.28304 -0.21131,0.27705 -0.21131,0.27704 -0.3219,0.0802 -0.3219,0.0802 -0.21167,-0.0604 c -0.11641,-0.0332 -0.48389,-0.0641 -0.81661,-0.0688 l -0.60494,-0.008 -0.0533,8.14917 c -0.0293,4.48204 -0.0717,10.07322 -0.0941,12.42484 l -0.0408,4.27566 -0.0806,0.67734 c -0.19608,1.6468 -0.47197,5.70822 -0.56786,8.35955 l -0.0539,1.48867 0.49989,0.0521 c 0.27494,0.0286 0.70036,0.0921 0.94537,0.14102 l 0.44548,0.089 0.24737,0.20814 0.24737,0.20815 0.0951,0.28829 0.0951,0.28829 -0.0569,0.30309 -0.0569,0.30309 -0.21572,0.16969 c -0.11865,0.0933 -0.30929,0.19317 -0.42364,0.22187 l -0.20793,0.0522 -0.58776,-0.11091 -0.58776,-0.1109 -1.32839,0.10772 c -0.73062,0.0592 -1.74749,0.12231 -2.25973,0.14014 l -0.93133,0.0324 z m -77.389963,-2.16435 -0.21695,-0.17105 -0.96781,-0.21801 -0.967811,-0.21802 -0.508573,-4.7e-4 c -0.279715,-2.6e-4 -0.649715,-0.0397 -0.822222,-0.0876 l -0.313649,-0.0871 -0.163623,-0.20802 c -0.08999,-0.11441 -0.189896,-0.34805 -0.222006,-0.51921 l -0.05838,-0.3112 0.139794,-0.31001 0.139794,-0.31001 0.23959,-0.14153 0.23959,-0.14152 0.79127,10e-4 0.79127,0.001 0.635,0.16643 c 0.34925,0.0915 0.682625,0.16708 0.740833,0.16788 l 0.105834,0.001 1.43e-4,-0.8255 c 7.9e-5,-0.45402 0.05559,-1.5875 0.123361,-2.51883 0.305111,-4.19306 0.388446,-5.56029 0.464455,-7.62 l 0.08123,-2.20133 -0.07697,-4.36034 c -0.04233,-2.39818 -0.100475,-6.32248 -0.12921,-8.72067 l -0.05225,-4.36033 -0.08018,-0.42424 -0.08018,-0.42424 -0.569702,-0.1962 c -0.313337,-0.10792 -0.947163,-0.34642 -1.408502,-0.53002 l -0.838799,-0.33381 -0.194667,-0.19466 c -0.107066,-0.10707 -0.234901,-0.30049 -0.284076,-0.42983 l -0.08941,-0.23517 0.08731,-0.32423 0.08731,-0.32424 0.252804,-0.21272 0.252803,-0.21272 0.38872,-0.0583 c 0.213796,-0.0321 0.58509,-0.035 0.825097,-0.007 l 0.436378,0.0517 0.305738,0.3311 0.305738,0.33109 0.837262,0.26111 c 1.080338,0.33691 1.89331,0.48882 2.996262,0.55984 0.48895,0.0315 1.0033,0.0925 1.143,0.13553 l 0.254001,0.0783 0.1905,0.28009 0.1905,0.28009 v 0.41286 0.41285 l -0.1905,0.28056 -0.1905,0.28056 -0.341991,0.13153 -0.34199,0.13154 -0.22951,-0.0873 c -0.12623,-0.048 -0.22951,-0.0632 -0.22951,-0.0339 0,0.0293 -0.06752,-0.008 -0.150044,-0.0824 l -0.150044,-0.13578 -0.580579,-0.0595 -0.580579,-0.0595 0.05282,3.20898 c 0.248876,15.11987 0.225476,17.39607 -0.244493,23.78299 -0.06853,0.93133 -0.149421,2.26846 -0.179757,2.9714 l -0.05516,1.27806 0.28775,0.058 0.287749,0.058 0.984908,-0.0982 0.984908,-0.0982 0.343621,0.19313 0.343621,0.19313 0.0979,0.23635 0.0979,0.23635 -0.05712,0.33808 c -0.0923,0.54629 -0.342269,0.75556 -1.120657,0.93818 l -0.441586,0.1036 -1.251747,0.0255 c -0.688461,0.014 -1.404148,0.0522 -1.590415,0.085 l -0.338666,0.0595 z m 17.404284,-0.98806 c -0.838611,-0.15805 -1.782977,-0.48737 -2.658466,-0.92706 l -0.753513,-0.37844 -0.518692,-0.43166 c -0.28528,-0.23741 -0.727184,-0.68443 -0.982008,-0.99336 l -0.463316,-0.5617 -0.385812,-0.747 c -0.714913,-1.38421 -1.287161,-3.41527 -1.52161,-5.40061 l -0.124917,-1.05782 v -2.10672 -2.10672 l 0.13288,-1.40746 c 0.295726,-3.13232 1.078361,-6.28122 2.212144,-8.90047 0.96288,-2.22443 1.513887,-3.22674 2.502698,-4.55252 l 0.585373,-0.78486 0.658599,-0.58035 c 1.07818,-0.95008 2.312287,-1.58831 3.709957,-1.91865 l 0.570016,-0.13472 0.804333,-0.005 c 0.442384,-0.003 0.928159,0.022 1.0795,0.0553 l 0.275167,0.0606 v -0.17963 c 0,-0.25559 0.243367,-1.44041 0.353266,-1.71986 0.05084,-0.12927 0.198056,-0.31024 0.327153,-0.40217 l 0.234721,-0.16713 h 0.327895 0.327894 l 0.273299,0.24962 c 0.150315,0.13729 0.311206,0.34932 0.357536,0.47118 l 0.08424,0.22155 v 0.73956 0.73955 l 0.09381,0.0938 0.09381,0.0938 -0.04108,0.36762 c -0.02259,0.20219 -0.101238,0.53907 -0.174769,0.74862 l -0.133694,0.381 -0.138903,1.48167 c -0.0764,0.81491 -0.206175,1.88396 -0.288397,2.37566 l -0.149495,0.894 -0.153235,0.32292 -0.153235,0.32292 -0.279024,0.11658 c -0.394669,0.1649 -0.639865,0.14545 -0.970442,-0.077 l -0.287687,-0.1936 -0.112086,-0.33557 -0.112086,-0.33557 0.131329,-0.635 c 0.09977,-0.48241 0.389176,-2.39565 0.389176,-2.57281 0,-0.0148 -0.19168,-0.009 -0.425956,0.0139 l -0.425956,0.0409 -0.336044,-0.35326 -0.336044,-0.35325 v -0.21772 -0.21771 l -0.402167,0.0587 c -0.221191,0.0323 -0.687916,0.1538 -1.037166,0.27002 l -0.635,0.21132 -0.687712,0.45746 -0.687711,0.45745 -0.49052,0.52982 c -1.62657,1.75689 -3.581012,6.08481 -4.258131,9.4292 -0.209438,1.03444 -0.317485,1.67091 -0.487485,2.87159 l -0.131865,0.93133 -0.04807,2.45944 -0.04807,2.45944 0.09819,0.92723 c 0.11077,1.04602 0.333511,2.17476 0.650788,3.29789 l 0.21526,0.762 0.411151,0.84667 0.41115,0.84667 0.367516,0.3854 c 0.656221,0.68815 1.291831,1.06821 2.44185,1.46008 0.742524,0.25301 1.69518,0.39818 2.613005,0.39818 h 0.653418 l 0.496986,-0.12945 c 0.840527,-0.21893 1.24388,-0.44237 2.566526,-1.42174 0.431348,-0.3194 0.823917,-0.65481 0.872377,-0.74536 0.04846,-0.0905 0.15094,-0.63004 0.227733,-1.19887 l 0.139625,-1.03424 -0.01338,-3.00567 c -0.0074,-1.65312 -0.03173,-3.36762 -0.05417,-3.81 -0.02244,-0.44238 -0.04319,-1.06314 -0.04613,-1.37945 l -0.0053,-0.57512 -1.545167,0.032 c -0.849842,0.0176 -1.649238,0.0616 -1.776436,0.0979 -0.127198,0.0362 -0.325394,0.0422 -0.440435,0.0133 -0.237898,-0.0597 -0.744989,-0.51022 -0.885361,-0.78658 -0.210484,-0.41438 -0.03845,-0.97357 0.388571,-1.26299 l 0.237161,-0.16074 2.582333,-0.0234 2.582334,-0.0234 0.270566,0.16752 c 0.148812,0.0921 0.334651,0.26533 0.412977,0.38487 l 0.14241,0.21734 0.07193,0.69687 c 0.03956,0.38327 0.113241,2.23462 0.163732,4.11411 l 0.0918,3.41725 -0.09429,1.61373 c -0.05186,0.88756 -0.146208,1.91111 -0.209659,2.27457 l -0.115365,0.66083 -0.233095,0.47642 -0.233094,0.47643 -0.514955,0.41677 c -0.283225,0.22922 -0.553088,0.44436 -0.599697,0.47809 -0.04661,0.0337 -0.218058,0.15993 -0.381,0.28044 -1.240779,0.91772 -1.94203,1.28976 -2.962662,1.57183 l -0.719072,0.19872 -1.185928,-0.008 -1.185929,-0.008 z m 6.392333,-1.60868 c 0,-0.0233 -0.01905,-0.0423 -0.04233,-0.0423 -0.02328,0 -0.04233,0.019 -0.04233,0.0423 0,0.0233 0.01905,0.0423 0.04233,0.0423 0.02328,0 0.04233,-0.019 0.04233,-0.0423 z m -0.592667,-1.778 c 0,-0.0233 -0.01905,-0.0423 -0.04233,-0.0423 -0.02328,0 -0.04233,0.019 -0.04233,0.0423 0,0.0233 0.01905,0.0423 0.04233,0.0423 0.02328,0 0.04233,-0.019 0.04233,-0.0423 z m -8.297333,-25.82334 c 0,-0.0233 -0.01905,-0.0423 -0.04233,-0.0423 -0.02328,0 -0.04233,0.0191 -0.04233,0.0423 0,0.0233 0.01905,0.0423 0.04233,0.0423 0.02328,0 0.04233,-0.019 0.04233,-0.0423 z m 1.947333,-1.94733 c 0,-0.0233 -0.01905,-0.0423 -0.04233,-0.0423 -0.02328,0 -0.04233,0.0191 -0.04233,0.0423 0,0.0233 0.01905,0.0423 0.04233,0.0423 0.02328,0 0.04233,-0.019 0.04233,-0.0423 z m -50.156578,-15.1563 c -0.987452,-0.16085 -1.970601,-0.4339 -2.3038,-0.63983 l -0.267033,-0.16504 -0.10548,-0.25465 -0.105479,-0.25465 0.05097,-0.31411 c 0.07304,-0.45009 0.283922,-0.69122 0.975747,-1.11572 l 0.61001,-0.3743 0.470939,-0.0391 0.470938,-0.0391 0.22438,0.24268 0.224381,0.24267 0.05875,-1.01465 c 0.03231,-0.55806 0.100246,-2.40531 0.150965,-4.10499 0.118293,-3.964164 0.481352,-10.970119 0.761239,-14.68967 0.50974,-6.774166 0.814913,-9.484179 1.317508,-11.699829 0.11422,-0.503527 0.208018,-0.938749 0.208439,-0.96716 8.04e-4,-0.05411 -0.82022,-0.179207 -1.184566,-0.180485 -0.116417,-4.08e-4 -0.500749,0.01097 -0.854071,0.02528 l -0.642405,0.02602 -0.310159,-0.191688 C 23.136865,75.097539 22.940173,74.929727 22.870357,74.830051 L 22.74342,74.648824 v -0.271983 c 0,-0.734295 0.537883,-1.277216 1.408632,-1.421826 l 0.350297,-0.05818 0.346599,0.09333 0.346598,0.09333 0.488437,-0.141955 c 0.268641,-0.07807 0.650362,-0.211345 0.848271,-0.296156 l 0.359833,-0.154201 v -0.39397 -0.39397 l 0.328706,-0.328706 0.328706,-0.328705 h 0.279563 0.279562 l 0.365398,0.176886 c 0.32644,0.158026 0.402324,0.243943 0.378302,0.428314 -0.0039,0.03018 0.229682,-0.01716 0.519141,-0.105187 l 0.526289,-0.160053 0.381,0.0031 c 0.20955,0.0017 0.525856,0.05474 0.702903,0.11789 0.628578,0.224209 1.3971,0.868044 1.588914,1.331124 l 0.103026,0.248726 -0.09828,0.328042 -0.09828,0.328043 -0.26974,0.226971 -0.269739,0.226971 -0.373404,-0.04209 -0.373403,-0.04209 -0.223161,-0.178082 c -0.122739,-0.09795 -0.332921,-0.239041 -0.467071,-0.313546 l -0.24391,-0.135463 -0.372105,0.104183 c -0.204657,0.0573 -0.390413,0.133806 -0.41279,0.170013 -0.06051,0.09791 0.935308,2.713773 1.561553,4.101941 0.462518,1.025241 1.450553,2.930462 1.965617,3.790287 0.59483,0.99298 1.645321,2.569048 1.759286,2.639482 l 0.08172,0.05051 0.04437,-0.361472 c 0.0244,-0.19881 0.197736,-1.485422 0.385189,-2.859139 0.532692,-3.903737 0.664142,-5.035812 0.728316,-6.272389 l 0.05968,-1.150055 -0.116511,-4.72e-4 C 35.876854,73.698018 35.523,73.608097 35.154592,73.498443 L 34.48476,73.299139 34.159758,72.989972 33.834756,72.680805 v -0.306497 -0.306496 l 0.25393,-0.289211 0.253931,-0.289211 0.359903,-0.09061 0.359903,-0.09061 0.298325,0.0673 c 0.326771,0.07372 0.689661,0.245747 0.766929,0.363569 l 0.04926,0.07511 0.239988,-0.379673 0.239989,-0.379672 0.238512,-0.09879 0.238513,-0.09879 0.310123,0.05818 c 0.170567,0.032 0.395893,0.114379 0.500725,0.183067 l 0.190603,0.124888 0.185883,0.432095 0.185882,0.432096 1.307711,-0.05639 1.307711,-0.05639 0.187259,0.09626 c 0.102992,0.05294 0.292034,0.193978 0.420092,0.313417 l 0.232833,0.217162 -3.16e-4,0.30166 -3.17e-4,0.30166 -0.170871,0.280261 -0.17087,0.280262 -0.287089,0.119953 -0.287089,0.119953 -0.942803,0.05726 -0.942802,0.05726 0.054,0.13519 c 0.0297,0.07435 0.319776,0.99244 0.644619,2.04019 1.084223,3.497059 1.654633,5.642032 2.814414,10.583334 1.113888,4.745773 1.499946,6.809422 2.043237,10.922 0.119958,0.90805 0.253901,1.9177 0.297652,2.243668 0.12985,0.96746 0.503885,2.96143 0.803009,4.28082 l 0.279496,1.23282 0.236045,0.51687 0.236045,0.51687 0.247406,0.0495 c 0.136073,0.0272 0.472785,0.0495 0.74825,0.0495 h 0.500845 l 0.229405,-0.16697 0.229405,-0.16697 0.296333,-0.016 c 0.162984,-0.009 0.417924,0.0117 0.566535,0.0456 l 0.2702,0.0617 0.168845,-0.0904 c 0.09287,-0.0497 0.428475,-0.10779 0.7458,-0.1291 l 0.576954,-0.0387 -0.01395,-0.23637 c -0.0077,-0.13001 -0.110928,-1.09363 -0.22946,-2.14138 -0.260968,-2.3068 -0.583398,-6.156874 -0.687782,-8.212661 -0.09561,-1.883021 -0.305332,-4.463788 -0.510079,-6.276897 -0.205796,-1.822393 -0.846197,-6.320049 -1.095387,-7.693104 -0.341442,-1.881375 -0.902242,-5.343487 -1.062871,-6.561667 -0.09824,-0.745066 -0.242942,-1.577336 -0.32155,-1.849488 L 47.085096,72.7234 46.619429,72.78683 c -0.256117,0.03489 -0.846667,0.0664 -1.312333,0.07002 l -0.846667,0.0066 -0.278911,-0.150812 -0.278911,-0.150812 -0.165272,-0.271057 -0.165273,-0.271056 -3.17e-4,-0.383328 -3.16e-4,-0.383327 0.132595,-0.189306 c 0.07293,-0.104118 0.290733,-0.269982 0.484013,-0.368586 l 0.351418,-0.17928 0.722487,0.07256 c 0.397368,0.03991 1.046337,0.07347 1.442154,0.07458 l 0.719666,0.002 0.256799,-0.192843 0.256799,-0.192842 0.313062,-0.0508 0.313061,-0.0508 0.209618,0.137347 0.209617,0.137347 1.125522,-0.05206 1.125523,-0.05206 0.49904,0.09424 c 0.274473,0.05183 0.700388,0.186416 0.946478,0.29908 l 0.447437,0.204844 0.140515,0.271726 0.140516,0.271727 -0.05599,0.298426 c -0.150723,0.803422 -0.800614,1.059799 -1.864001,0.735334 l -0.423334,-0.129169 -0.826968,0.01355 c -0.454833,0.0075 -0.844084,0.04124 -0.865003,0.07509 -0.04956,0.08018 0.171268,2.25018 0.344857,3.388871 0.07454,0.48895 0.378241,2.3749 0.674894,4.191 1.285958,7.872592 1.570749,10.366994 1.986478,17.399 0.163106,2.758916 0.757902,8.577376 0.89037,8.709846 0.01923,0.0192 0.483555,0.0407 1.031835,0.0477 l 0.996871,0.0127 0.338666,0.1657 0.338667,0.16569 0.207275,0.3924 0.207276,0.3924 -0.114024,0.34549 c -0.06271,0.19002 -0.199925,0.4262 -0.304916,0.52483 l -0.190891,0.17933 -2.781027,0.0265 -2.781027,0.0265 -0.281676,-0.11664 -0.281676,-0.11663 -0.329361,0.16802 c -0.181148,0.0924 -0.522208,0.20939 -0.757911,0.25994 l -0.428552,0.0919 -1.478807,-0.0951 -1.478808,-0.0951 -0.868271,-0.1605 c -0.477549,-0.0883 -1.230221,-0.24012 -1.672604,-0.33743 l -0.804334,-0.17693 -0.232833,-0.25365 -0.232833,-0.25365 v -0.2623 -0.26231 l 0.1832,-0.32596 0.1832,-0.32596 0.300662,-0.14267 0.300661,-0.14268 0.553305,-0.0359 0.553305,-0.0359 0.3175,0.16643 0.3175,0.16643 v -0.10722 c 0,-0.059 -0.05624,-0.26665 -0.124988,-0.46149 -0.317137,-0.89886 -0.977941,-4.64918 -1.403317,-7.964362 -0.34623,-2.698354 -0.810469,-5.421606 -1.219618,-7.154334 -0.06597,-0.2794 -0.236499,-1.0414 -0.378944,-1.693333 -0.337216,-1.543355 -1.382567,-5.870572 -1.666953,-6.900334 -0.357822,-1.295675 -1.30875,-4.522126 -1.342852,-4.556227 -0.01721,-0.01721 -0.05304,0.134125 -0.07963,0.336301 -0.02659,0.202176 -0.218516,1.567743 -0.426511,3.034593 -0.436528,3.078544 -0.553853,4.156563 -0.553853,5.088971 v 0.668362 l 0.359833,4.73e-4 c 0.197909,2.59e-4 0.50026,0.03947 0.671892,0.08714 l 0.312058,0.08667 0.213739,0.254015 0.21374,0.254015 0.05502,0.293285 c 0.07156,0.381427 0.0024,0.638338 -0.24324,0.903367 l -0.199044,0.214772 -1.436361,0.0045 -1.436361,0.0045 -0.546805,0.09536 -0.546805,0.09536 -1.030873,0.419563 -1.030873,0.419562 -0.408461,-3.16e-4 -0.40846,-3.17e-4 L 31.14448,89.41835 30.867203,89.249295 30.775713,89.0165 c -0.05032,-0.128037 -0.09267,-0.374428 -0.0941,-0.547535 l -0.0026,-0.314741 0.142467,-0.217431 0.142466,-0.217431 0.355913,-0.15699 c 0.195751,-0.08634 0.508312,-0.195039 0.694579,-0.241543 0.344887,-0.08611 1.836247,-0.605611 1.894872,-0.660065 0.01771,-0.01645 -0.155718,-0.250371 -0.385401,-0.519819 C 32.467736,84.90192 30.7717,82.216858 29.910282,80.420069 29.029558,78.58301 28.59111,77.612418 28.319005,76.897463 c -0.04233,-0.111233 -0.09839,-0.180825 -0.124565,-0.154649 -0.0802,0.0802 -0.364423,1.642358 -0.542467,2.981558 -0.394319,2.96596 -1.104791,12.541397 -1.312947,17.695334 -0.02633,0.651933 -0.06428,1.471083 -0.08433,1.820333 -0.05904,1.028311 -0.198317,5.034251 -0.257296,7.400301 l -0.05467,2.1933 0.822076,-0.0578 0.822077,-0.0578 0.475177,-0.16701 c 0.261347,-0.0918 0.581832,-0.16701 0.712188,-0.16701 h 0.237011 l 0.303433,0.27808 0.303432,0.27807 0.04481,0.3976 0.04482,0.3976 -0.133501,0.20375 c -0.07343,0.11206 -0.262459,0.28345 -0.420075,0.38086 l -0.286575,0.17711 -0.627916,0.1374 -0.627915,0.13739 -1.651,0.0311 -1.651,0.0311 z m 7.569244,-22.859037 c 0,-0.02328 -0.01905,-0.04233 -0.04233,-0.04233 -0.02328,0 -0.04233,0.01905 -0.04233,0.04233 0,0.02328 0.01905,0.04233 0.04233,0.04233 0.02328,0 0.04233,-0.01905 0.04233,-0.04233 z m 10.414,-15.578667 c 0,-0.02328 -0.01905,-0.04233 -0.04233,-0.04233 -0.02328,0 -0.04233,0.01905 -0.04233,0.04233 0,0.02328 0.01905,0.04233 0.04233,0.04233 0.02328,0 0.04233,-0.01905 0.04233,-0.04233 z m 95.760727,36.858244 -0.2936,-0.20064 -0.0765,-0.26661 -0.0765,-0.26661 0.11606,-0.35931 0.11607,-0.35932 0.23881,-0.17688 0.23881,-0.17687 1.39102,-0.0285 1.39103,-0.0285 -1.6e-4,-0.60654 c -9e-5,-0.33361 -0.0568,-1.13995 -0.12609,-1.79189 l -0.12594,-1.18533 -2.6e-4,-1.56633 c -3.5e-4,-2.150355 -0.27046,-10.183853 -0.43128,-12.827003 -0.0453,-0.745067 -0.13804,-2.992967 -0.20602,-4.995334 l -0.12359,-3.640666 -0.001,-4.044815 -0.001,-4.044815 -0.6985,0.0462 c -0.38418,0.02541 -0.94664,0.06383 -1.24991,0.08537 l -0.55141,0.03917 -0.30946,-0.08545 -0.30946,-0.08545 -0.26097,-0.297223 -0.26096,-0.297223 v -0.255259 c 0,-0.350691 0.19862,-0.703841 0.52789,-0.938584 l 0.27644,-0.197084 0.9525,-0.03039 0.9525,-0.03039 v -0.268357 -0.268356 l 0.13214,-0.188656 c 0.18089,-0.258251 0.56224,-0.441689 0.91823,-0.441689 h 0.29678 l 0.32126,-0.219423 0.32126,-0.219423 0.46003,0.03718 0.46002,0.03718 0.25964,0.30925 0.25964,0.309251 1.54952,-4e-6 c 0.85223,-2e-6 2.70008,-0.0607 4.10633,-0.134881 l 2.55682,-0.134877 1.22767,0.09797 c 0.67521,0.05388 1.46033,0.136586 1.74471,0.183791 l 0.51704,0.08583 0.63232,-0.218247 0.63232,-0.218248 h 0.33463 0.33463 l 0.17714,0.124071 c 0.0974,0.06824 0.24081,0.258256 0.31863,0.422261 l 0.1415,0.298191 -0.0188,0.360905 c -0.018,0.345154 0.0977,1.392025 0.27381,2.477573 0.0453,0.2794 0.16199,0.727045 0.25924,0.994768 l 0.17681,0.486768 -0.1027,0.247944 c -0.14283,0.344809 -0.35673,0.516645 -0.75434,0.605981 l -0.34055,0.07652 -0.23362,-0.08882 c -0.12849,-0.04885 -0.33519,-0.202597 -0.45935,-0.341657 l -0.22573,-0.252837 -0.13451,-0.441 c -0.074,-0.242549 -0.20095,-0.907724 -0.28214,-1.478165 l -0.14762,-1.037167 -0.51152,-0.0027 c -0.28134,-0.0015 -0.89252,-0.05789 -1.35819,-0.125354 l -0.84666,-0.122669 -1.397,-8.89e-4 c -0.76835,-4.89e-4 -2.0066,0.03463 -2.75167,0.07803 -0.74507,0.04341 -1.96427,0.08869 -2.70933,0.100627 l -1.35467,0.0217 -0.36653,0.275432 -0.36653,0.275432 -0.39547,0.05284 c -0.21751,0.02906 -0.4431,0.06785 -0.5013,0.08619 l -0.10584,0.03336 -0.014,1.801824 c -0.0321,4.132903 0.0323,8.625431 0.15196,10.592755 l 0.0506,0.832265 0.18088,-0.04473 c 0.0995,-0.0246 0.44759,-0.0845 0.77355,-0.133106 0.32597,-0.0486 0.91652,-0.145408 1.31234,-0.21512 0.39581,-0.06971 1.08161,-0.184016 1.524,-0.254011 0.44238,-0.06999 1.23295,-0.211173 1.75683,-0.313729 l 0.9525,-0.186465 0.0154,-0.301016 c 0.009,-0.165559 0.005,-0.516806 -0.008,-0.780549 -0.0126,-0.263742 0.0221,-0.696496 0.0771,-0.961674 l 0.10009,-0.482143 0.29254,-0.284093 0.29253,-0.284094 0.27874,-0.05229 0.27874,-0.05229 0.34442,0.09274 0.34441,0.09274 0.25756,0.293342 0.25756,0.293342 0.056,0.298517 0.056,0.298517 -0.13066,0.199414 c -0.0719,0.109677 -0.18411,0.252865 -0.24944,0.318195 l -0.11878,0.118781 -0.058,1.819265 -0.058,1.819265 -0.11936,0.784563 -0.11936,0.784564 -0.18495,0.29926 c -0.10172,0.164593 -0.2767,0.359373 -0.38883,0.432845 l -0.20387,0.133585 -0.34521,-0.0463 -0.3452,-0.0463 -0.19653,-0.184637 c -0.1081,-0.10155 -0.23998,-0.289517 -0.29308,-0.417704 l -0.0965,-0.233067 0.12377,-0.83807 c 0.12811,-0.867438 0.1215,-0.982569 -0.0529,-0.921634 -0.16862,0.05893 -3.99504,0.69513 -5.16196,0.858252 l -1.0795,0.150903 v 0.13407 c 0,0.07374 0.0736,1.732381 0.16361,3.685872 0.15619,3.390676 0.23774,6.150068 0.30264,10.240476 l 0.0296,1.86266 0.13294,1.22767 c 0.0731,0.67522 0.133,1.4601 0.13309,1.74419 l 1.7e-4,0.51652 0.4068,-0.0643 c 0.53329,-0.0843 1.05571,-0.2221 1.60721,-0.42392 0.74559,-0.27284 1.22056,-0.19016 1.48567,0.25862 l 0.14099,0.23868 v 0.34026 0.34026 l -0.2487,0.24869 c -0.47633,0.47634 -1.44495,0.80775 -3.15782,1.08043 l -0.86915,0.13837 -2.11666,0.0434 -2.11667,0.0434 z m -66.84706,-0.91475 c -0.325966,-0.0389 -0.979651,-0.15058 -1.452633,-0.24825 -0.472981,-0.0977 -0.987331,-0.1782 -1.143,-0.17897 l -0.283033,-0.001 -0.338667,-0.18985 -0.338667,-0.18986 -0.154971,-0.3164 -0.154971,-0.3164 0.05499,-0.25038 c 0.07925,-0.36082 0.359704,-0.67965 0.756296,-0.85977 l 0.345321,-0.15684 0.508,-0.002 0.508,-0.002 0.289372,0.17641 c 0.293717,0.17906 1.212244,0.41147 1.636795,0.41415 l 0.232833,10e-4 v -0.62222 c 0,-0.34222 -0.09525,-1.33282 -0.211667,-2.20133 -0.116416,-0.86852 -0.306709,-2.29349 -0.422872,-3.16662 C 70.168053,99.233629 70.054754,98.424004 70.03244,98.307587 69.911146,97.674752 69.714195,95.18678 69.604662,92.90371 69.28346,86.208692 69.224207,85.011642 69.18274,84.37992 c -0.364703,-5.556021 -0.480146,-7.29337 -0.548527,-8.255 -0.0447,-0.62865 -0.126945,-2.139663 -0.182761,-3.357805 L 68.349968,70.55231 67.295743,70.4915 66.241519,70.43069 65.948305,70.570514 c -0.161267,0.0769 -0.515378,0.163045 -0.786913,0.191426 l -0.493699,0.0516 -0.293202,-0.181208 c -0.161261,-0.09967 -0.450222,-0.351556 -0.642136,-0.559758 l -0.348933,-0.378548 v -0.263995 c 0,-0.314875 0.187546,-0.653352 0.484486,-0.87438 l 0.216194,-0.160924 1.36416,0.0127 c 0.750288,0.007 1.746931,0.03646 2.214763,0.06549 l 0.850603,0.05279 0.404958,-0.285567 0.404957,-0.285567 2.628518,-0.02639 2.628518,-0.02639 0.857255,0.08654 0.857255,0.08654 1.00488,0.254066 c 0.552685,0.139736 1.255562,0.371374 1.56195,0.51475 0.489351,0.228995 1.676937,0.953455 1.793503,1.094086 0.08343,0.100659 0.985956,0.667323 1.643631,1.031981 l 0.669964,0.371473 0.663536,0.622629 c 0.364945,0.342446 0.663536,0.671744 0.663536,0.731775 0,0.06003 0.04843,0.12773 0.107621,0.150444 0.10709,0.04109 0.387723,0.438003 2.078825,2.940152 0.487824,0.721783 1.009602,1.464733 1.159506,1.651 1.312848,1.63131 2.790688,4.860176 3.487646,7.62 l 0.14967,0.592667 -0.0096,1.862667 -0.0096,1.862666 -0.09239,0.719667 c -0.18567,1.446298 -0.525273,3.606002 -0.612417,3.894667 -0.141295,0.468042 -0.321328,0.884555 -0.969801,2.243667 l -0.605954,1.27 -0.859152,1.28209 -0.859153,1.28209 -0.7055,0.79225 c -0.91356,1.02588 -2.168194,2.17975 -3.092042,2.8437 -0.403662,0.29011 -0.765048,0.52823 -0.80308,0.52917 -0.03803,9.4e-4 -0.190432,0.0937 -0.338666,0.20616 -0.293145,0.22239 -1.994275,1.08683 -2.809518,1.42768 -0.860104,0.35961 -2.750538,1.05422 -3.633813,1.33518 -0.461897,0.14693 -1.054685,0.37633 -1.317307,0.50978 -0.262622,0.13346 -0.722906,0.30256 -1.022854,0.37578 l -0.545359,0.13314 -0.973667,0.0332 c -0.535517,0.0183 -1.240367,0.001 -1.566334,-0.0374 z m 3.168794,-2.45615 c 2.105768,-0.56703 5.616921,-1.93572 7.16054,-2.79127 1.281239,-0.71013 1.923283,-1.19667 3.172701,-2.40424 0.990574,-0.957392 1.420588,-1.450761 1.929558,-2.21384 0.21766,-0.32633 0.516128,-0.745726 0.663263,-0.931993 0.323668,-0.409752 1.340928,-2.366421 1.716688,-3.302 l 0.27204,-0.677333 0.293257,-1.989667 0.293257,-1.989667 0.0031,-1.787513 0.0031,-1.787514 -0.141556,-0.625486 c -0.150145,-0.663439 -1.023828,-3.051989 -1.465001,-4.005144 -0.14489,-0.313037 -0.263437,-0.581324 -0.263437,-0.596195 0,-0.139071 -1.390934,-2.256624 -1.913374,-2.912912 -0.09774,-0.12278 -0.577991,-0.817384 -1.067227,-1.543564 C 82.907,74.166373 82.83057,74.064937 82.179628,73.416586 L 81.712099,72.95092 80.909394,72.485253 c -0.441488,-0.256117 -1.127107,-0.69842 -1.523597,-0.982897 -0.978178,-0.70183 -1.422432,-0.912767 -2.550861,-1.211177 l -0.963179,-0.25471 -2.243666,-0.01327 c -1.234017,-0.0073 -2.310342,-0.0088 -2.391834,-0.0033 l -0.148167,0.01 v 0.118046 c 0,0.06493 -0.12048,0.2459 -0.267734,0.402166 l -0.267735,0.284121 0.01868,1.27 c 0.01027,0.6985 0.0737,2.1082 0.140952,3.132667 0.06725,1.024466 0.179226,2.777066 0.248835,3.894666 0.06961,1.1176 0.183468,2.927351 0.25302,4.021667 0.123337,1.940539 0.319754,5.744907 0.424016,8.212667 0.136943,3.241308 0.383474,5.97793 0.800864,8.890001 0.136826,0.95462 0.326998,2.30094 0.422606,2.99183 l 0.173831,1.25615 v 0.7214 0.7214 L 73.157128,105.9 c 0.06694,-0.0257 0.276078,-0.0883 0.464756,-0.13907 z M 85.142758,76.930253 c 0,-0.02328 -0.01905,-0.04233 -0.04233,-0.04233 -0.02328,0 -0.04233,0.01905 -0.04233,0.04233 0,0.02328 0.01905,0.04233 0.04233,0.04233 0.02328,0 0.04233,-0.01905 0.04233,-0.04233 z M 81.586757,72.69692 c 0,-0.02328 -0.01905,-0.04233 -0.04233,-0.04233 -0.02328,0 -0.04233,0.01905 -0.04233,0.04233 0,0.02328 0.01905,0.04233 0.04233,0.04233 0.02328,0 0.04233,-0.01905 0.04233,-0.04233 z m -17.272,-2.624667 c 0,-0.02328 -0.01905,-0.04233 -0.04233,-0.04233 -0.02328,0 -0.04233,0.01905 -0.04233,0.04233 0,0.02328 0.01905,0.04233 0.04233,0.04233 0.02328,0 0.04233,-0.01905 0.04233,-0.04233 z M 170.57143,108.21104 c -0.25612,-0.0354 -1.49437,-0.068 -2.75167,-0.0725 l -2.286,-0.008 -1.98967,-0.13534 -1.98966,-0.13534 -0.2781,-0.12998 c -0.15295,-0.0715 -0.31621,-0.20121 -0.36281,-0.28827 l -0.0847,-0.1583 h -1.01722 -1.01723 l -0.24542,-0.12691 c -0.13498,-0.0698 -0.34758,-0.26085 -0.47244,-0.42456 l -0.22703,-0.29764 0.0476,-0.35861 0.0476,-0.35861 0.27259,-0.22858 0.2726,-0.22858 0.41463,-0.0889 c 0.54086,-0.11599 1.24265,-0.11322 1.5854,0.006 l 0.27305,0.0952 0.0729,-0.074 c 0.10031,-0.10187 0.30264,-1.93078 0.50827,-4.59421 0.0949,-1.228812 0.18767,-2.258762 0.20622,-2.288782 0.0516,-0.08345 0.536,-4.565655 0.84959,-7.86102 l 0.13107,-1.377328 -0.16577,-0.231338 c -0.17441,-0.243385 -0.20213,-0.348298 -0.18578,-0.702932 l 0.01,-0.217593 0.28283,-0.33274 0.28283,-0.33274 0.18138,-1.566334 c 0.27599,-2.383526 0.34915,-3.603065 0.39617,-6.604 0.0237,-1.513417 0.0619,-3.80395 0.0848,-5.090073 l 0.0417,-2.338406 -0.88209,-0.03923 -0.88209,-0.03923 -0.23964,-0.152226 c -0.32108,-0.20396 -0.61466,-0.542533 -0.67341,-0.776621 l -0.048,-0.191219 0.10243,-0.310343 0.10242,-0.310343 0.34964,-0.339313 c 0.1923,-0.186622 0.51673,-0.454279 0.72097,-0.594794 l 0.37133,-0.255482 0.36419,-0.04105 0.3642,-0.04105 0.37244,0.180293 0.37243,0.180293 0.25652,-0.08942 0.25652,-0.08942 0.45634,0.18153 c 0.25099,0.09984 0.6347,0.252962 0.8527,0.340268 0.21799,0.08731 0.63709,0.196602 0.93133,0.242881 0.97197,0.152876 4.30968,0.502661 6.54631,0.686039 1.21073,0.09927 2.3436,0.216689 2.51748,0.260938 0.42105,0.107146 0.67698,0.353843 0.99013,0.954404 l 0.26006,0.498752 v 0.316408 c 0,0.174025 -0.0538,0.445161 -0.11955,0.602524 -0.19628,0.469756 -0.31936,1.313104 -0.37969,2.601618 l -0.0569,1.216053 -0.27359,0.244447 -0.27358,0.244447 -0.31617,-3.17e-4 -0.31616,-3.16e-4 -0.28026,-0.170871 -0.28026,-0.170871 -0.13812,-0.315646 -0.13812,-0.315646 0.01,-0.846667 c 0.005,-0.465666 0.0698,-1.262873 0.14321,-1.771571 0.0734,-0.508697 0.1335,-0.969339 0.1335,-1.023648 v -0.09874 l -1.24884,-0.102773 c -1.87367,-0.154194 -5.39134,-0.505885 -6.1595,-0.615816 -0.72626,-0.103936 -0.84699,-0.11183 -1.32627,-0.08671 l -0.31028,0.01626 -0.0501,0.613834 c -0.0275,0.337608 -0.0872,2.861733 -0.13261,5.609166 l -0.0826,4.995334 -0.1275,1.27 c -0.0701,0.6985 -0.1661,1.548982 -0.21327,1.88996 -0.0472,0.340978 -0.0858,0.756435 -0.0858,0.923238 v 0.303278 l 3.06744,-0.06069 3.06744,-0.06069 0.0639,-0.100545 c 0.0352,-0.0553 0.0647,-0.405345 0.0657,-0.777878 9.7e-4,-0.372534 0.0427,-0.824884 0.0928,-1.005223 l 0.091,-0.32789 0.22048,-0.204328 0.22047,-0.204328 0.11574,0.04442 0.11575,0.04441 -0.0517,-0.0837 -0.0517,-0.0837 h 0.22087 c 0.52137,0 1.08293,0.475547 1.23693,1.04747 l 0.0923,0.34284 -0.10069,0.336067 -0.10069,0.336067 -0.0257,0.894945 c -0.0141,0.49222 -0.0483,1.028295 -0.0759,1.191278 -0.0276,0.162983 -0.0872,1.181232 -0.13246,2.262775 l -0.0822,1.966442 -0.13435,0.259802 -0.13435,0.259803 -0.27105,0.165273 -0.27106,0.165272 -0.32746,3.17e-4 -0.32746,3.16e-4 -0.33233,-0.332325 -0.33232,-0.332326 0.0583,-1.637485 c 0.032,-0.900617 0.0623,-1.732145 0.0671,-1.847841 l 0.009,-0.210356 -0.23284,0.0053 c -0.12805,0.0029 -1.5608,0.01244 -3.18388,0.02117 l -2.95106,0.01588 -0.0514,0.5715 c -0.15849,1.761331 -0.67627,6.769111 -0.81632,7.895167 -0.17532,1.40961 -0.19133,1.576075 -0.38695,4.021665 -0.0708,0.88477 -0.16584,1.88765 -0.21127,2.22863 -0.0454,0.34098 -0.0826,0.72594 -0.0826,0.85547 v 0.23551 l 0.2051,0.2213 c 0.1128,0.12172 0.22815,0.29396 0.25634,0.38277 l 0.0512,0.16146 0.44216,0.0603 c 0.24318,0.0332 1.92805,0.0933 3.74415,0.13355 1.8161,0.0403 3.40006,0.0972 3.5199,0.12659 l 0.21789,0.0534 1.27505,-0.21868 1.27504,-0.21868 0.7084,1.2e-4 c 0.38961,6e-5 1.03224,0.0572 1.42806,0.12688 0.39581,0.0697 0.93874,0.12682 1.2065,0.12688 l 0.48683,1.2e-4 v -0.0913 c 0,-0.15849 -0.34186,-2.05441 -0.42627,-2.36406 -0.11772,-0.43182 -0.1,-0.81984 0.0509,-1.11154 l 0.13263,-0.25647 0.28799,-0.12033 c 0.39021,-0.16304 0.70811,-0.15078 1.01987,0.0393 l 0.26078,0.15903 0.13505,0.28516 c 0.0743,0.15684 0.19506,0.61854 0.26839,1.02599 0.0733,0.40746 0.19283,1.07073 0.26554,1.47394 0.0727,0.40321 0.20231,0.86993 0.28799,1.03717 0.21593,0.42146 0.34181,0.85831 0.34181,1.18627 v 0.27752 l -0.25698,0.24005 c -0.14134,0.13203 -0.3924,0.28475 -0.55791,0.33937 l -0.30094,0.0993 -0.26759,-0.0609 c -0.14717,-0.0335 -0.83908,-0.0907 -1.53758,-0.12727 -0.6985,-0.0365 -1.66469,-0.11516 -2.14708,-0.17476 l -0.87709,-0.10835 -0.77391,0.10496 c -0.42566,0.0577 -1.07341,0.15967 -1.43944,0.22655 -0.71008,0.12973 -1.00914,0.13545 -1.74748,0.0334 z m -40.894,-1.19076 c -0.34925,-0.0295 -1.19294,-0.0585 -1.87487,-0.0646 -0.68192,-0.006 -1.63192,-0.0513 -2.1111,-0.10047 l -0.87123,-0.0894 -0.46427,-0.16318 c -0.25535,-0.0897 -0.55255,-0.24611 -0.66044,-0.34747 l -0.19617,-0.18429 -0.0546,-0.29096 -0.0546,-0.29096 0.0937,-0.31285 0.0937,-0.31285 0.23472,-0.2178 c 0.28267,-0.26228 0.69389,-0.41017 1.14056,-0.41017 0.38305,0 0.70303,0.1475 0.99275,0.45763 l 0.20526,0.21971 h 0.16545 0.16545 l -0.0523,-0.9525 c -0.0288,-0.52388 -0.0891,-1.65735 -0.13396,-2.51884 -0.0449,-0.86148 -0.14251,-2.25213 -0.21693,-3.09033 -0.0744,-0.8382 -0.17,-2.38125 -0.2124,-3.429 -0.0424,-1.04775 -0.11557,-2.4765 -0.1626,-3.175 -0.047,-0.6985 -0.12449,-2.521151 -0.17215,-4.050335 -0.0476,-1.529184 -0.11057,-2.819038 -0.1398,-2.866341 -0.0292,-0.0473 -0.0846,-2.606154 -0.12312,-5.686333 -0.0385,-3.080178 -0.0967,-5.9718 -0.12931,-6.425825 l -0.0593,-0.8255 -0.30473,-0.0022 c -0.36928,-0.0026 -1.59228,-0.271958 -1.8421,-0.405656 -0.099,-0.05299 -0.28195,-0.21747 -0.40651,-0.365502 l -0.22647,-0.269149 0.0467,-0.346593 0.0467,-0.346593 0.29641,-0.275167 0.29641,-0.275167 h 0.31484 c 0.17317,0 0.71665,0.04418 1.20775,0.09819 l 0.8929,0.09819 0.44168,-0.225186 0.44169,-0.225185 h 0.31674 0.31675 l 0.30655,0.299336 0.30654,0.299336 0.81657,0.0689 0.81656,0.0689 0.32773,0.216879 0.32772,0.216879 0.14024,0.295517 c 0.17329,0.365181 0.17371,0.42777 0.005,0.782556 l -0.13487,0.284219 -0.37192,0.180042 -0.37192,0.180042 -0.27638,-0.08407 c -0.152,-0.04624 -0.54996,-0.104084 -0.88434,-0.128548 l -0.60796,-0.04448 -0.0923,0.11121 -0.0923,0.11121 0.0852,1.470872 0.0852,1.470872 0.004,3.852333 0.004,3.852334 0.0824,1.100667 c 0.0453,0.605366 0.12097,2.262716 0.16812,3.683 0.0472,1.420283 0.12212,3.210983 0.16661,3.979333 0.0445,0.76835 0.1213,2.2733 0.1707,3.344334 0.0494,1.071033 0.14751,2.556933 0.21804,3.302 0.0705,0.745066 0.16606,2.116669 0.21229,3.047999 0.0462,0.93134 0.10635,2.14101 0.13359,2.68817 l 0.0495,0.99483 h 0.7362 0.7362 l 0.4225,0.12547 0.42251,0.12547 0.19247,0.20488 0.19247,0.20487 0.0447,0.33342 0.0447,0.33342 -0.26549,0.30237 -0.26549,0.30238 -0.23067,0.0722 -0.23067,0.0722 z m -16.64391,-1.50806 c -0.18699,-0.0802 -0.62809,-0.56224 -0.62809,-0.68632 0,-0.0405 -0.46673,-0.22523 -1.03717,-0.41044 l -1.03717,-0.33674 -1.18533,-0.0584 -1.18534,-0.0584 -1.143,0.0989 c -1.18774,0.10275 -2.68296,0.3204 -4.064,0.59157 l -0.80433,0.15793 -1.43933,-0.0724 -1.439335,-0.0724 -0.429909,-0.11891 c -0.51348,-0.14203 -0.820513,-0.33118 -1.012008,-0.62344 l -0.14135,-0.21572 v -0.28996 -0.28997 l 0.198967,-0.29401 0.198966,-0.29402 0.344232,-0.16808 0.344231,-0.16808 0.290769,3.7e-4 0.290768,3.6e-4 0.381,0.25327 0.381,0.25328 0.317499,3.6e-4 0.3175,3.6e-4 -0.002,-3.323163 c -8.4e-4,-1.827742 -0.0367,-4.485217 -0.0796,-5.9055 -0.21495,-7.110102 -0.34026,-14.014023 -0.34136,-18.806584 l -8.5e-4,-3.693583 -0.264585,-0.05292 c -0.145521,-0.0291 -0.612246,-0.05375 -1.037167,-0.05478 l -0.772583,-0.0019 -0.347043,-0.157608 -0.347043,-0.157607 -0.182815,-0.256741 c -0.100549,-0.141207 -0.205286,-0.36909 -0.232749,-0.506405 l -0.04993,-0.249665 0.198791,-0.306864 0.198792,-0.306864 0.268028,-0.128515 0.268028,-0.128515 0.844102,0.01158 c 0.464257,0.0064 0.8868,-0.01481 0.938985,-0.04706 0.05219,-0.03225 0.244439,-0.0607 0.427229,-0.06323 l 0.33234,-0.0046 0.28098,0.2004 0.28097,0.200401 1.69333,-6.47e-4 1.69334,-6.47e-4 0.73485,-0.263923 0.73484,-0.263923 0.21288,0.04069 c 0.11708,0.02238 0.36279,0.169017 0.54603,0.325857 l 0.33315,0.285163 0.0449,0.235025 0.0449,0.235025 -0.11283,0.270041 -0.11283,0.270041 -0.32397,0.201583 c -0.7627,0.474568 -1.74805,0.715615 -3.25697,0.796749 l -1.004,0.05398 0.002,4.072155 c 0.003,5.355941 0.20664,16.682266 0.3059,16.983823 0.023,0.06985 0.06,2.413 0.0823,5.207 l 0.0405,5.080001 0.10217,-0.0151 c 0.0562,-0.008 0.55937,-0.0925 1.11817,-0.18718 0.5588,-0.0947 1.41605,-0.21826 1.905,-0.27468 l 0.889,-0.10258 1.778,0.003 1.778,0.003 0.60205,0.13509 c 0.33112,0.0743 0.76927,0.19489 0.97366,0.26798 0.20439,0.0731 0.40506,0.1414 0.44593,0.15181 l 0.0743,0.0189 -0.0169,-2.21501 -0.0169,-2.215002 0.14355,-0.27759 c 0.0789,-0.152675 0.22455,-0.34528 0.32355,-0.428011 l 0.18,-0.150421 0.35576,-0.0028 0.35576,-0.0028 0.29867,0.307535 0.29867,0.307535 0.0398,0.263965 c 0.0219,0.145181 0.0584,1.382474 0.0812,2.749539 l 0.0414,2.48558 0.22805,0.32908 0.22805,0.32908 -0.0499,0.30754 c -0.0574,0.35392 -0.31067,0.74918 -0.66334,1.03535 l -0.24507,0.19887 -0.31517,0.0329 c -0.17334,0.0181 -0.39448,-10e-4 -0.49141,-0.0427 z m -15.275429,-1.74263 c 0,-0.0233 -0.01905,-0.0423 -0.04233,-0.0423 -0.02328,0 -0.04233,0.0191 -0.04233,0.0423 0,0.0233 0.01905,0.0423 0.04233,0.0423 0.02328,0 0.04233,-0.0191 0.04233,-0.0423 z"
       id="path1" /></g></svg>
