<?xml version="1.0" encoding="UTF-8" standalone="no"?>
<!-- Created with Inkscape (http://www.inkscape.org/) -->

<svg
   width="655.35901"
   height="655.35999"
   viewBox="0 0 173.39706 173.39733"
   version="1.1"
   id="svg1"
   xml:space="preserve"
   xmlns="http://www.w3.org/2000/svg"
   xmlns:svg="http://www.w3.org/2000/svg"><defs
     id="defs1" /><g
     id="layer1"
     transform="translate(-18.340921,-61.73259)"><path
       style="fill:#ffffff"
       d="m 159.52618,223.13251 -1.09694,-0.0306 -0.16056,-0.14531 c -0.18455,-0.16701 -0.43176,-0.61137 -0.34013,-0.61137 0.0338,0 0.0197,-0.0417 -0.0312,-0.0926 l -0.0926,-0.0926 -0.92496,0.13565 c -0.50873,0.0746 -1.59899,0.26869 -2.4228,0.43131 -0.82381,0.16261 -1.66069,0.29565 -1.85974,0.29565 h -0.36191 l -0.15451,-0.26156 -0.15452,-0.26157 0.15638,-0.29037 0.15637,-0.29037 0.63605,-0.2443 c 1.3709,-0.52654 4.16151,-1.27649 4.74992,-1.27649 h 0.27075 l -0.0691,-1.41817 c -0.038,-0.77999 -0.0541,-1.81822 -0.0357,-2.30717 0.0184,-0.48895 0.0227,-1.0795 0.01,-1.31233 -0.013,-0.23283 -0.0399,-4.17618 -0.0597,-8.763 -0.0198,-4.58681 -0.0565,-11.36755 -0.0816,-15.0683 l -0.0456,-6.72864 -0.0616,-0.0612 c -0.0339,-0.0337 -0.88078,-0.10301 -1.88196,-0.1541 -1.8478,-0.0943 -2.96958,-0.20071 -3.429,-0.32535 l -0.254,-0.0689 -0.0287,-0.14877 c -0.0461,-0.23931 0.0583,-0.53571 0.20901,-0.59356 0.2569,-0.0986 1.66165,-0.21109 4.30698,-0.34496 1.44357,-0.0731 2.69356,-0.15411 2.77776,-0.18011 0.0842,-0.026 0.34236,-0.0213 0.5737,0.0106 l 0.42061,0.0579 0.11724,0.11724 c 0.0645,0.0645 0.13017,0.15523 0.14597,0.20166 0.0668,0.1964 2.66637,0.74524 4.03423,0.85174 1.71445,0.1335 2.15354,0.27409 3.11219,0.99649 l 0.51369,0.3871 0.9469,1.23347 c 0.5208,0.67841 1.10987,1.44302 1.30903,1.69914 0.4801,0.61737 0.94228,1.36551 1.54299,2.49766 0.27178,0.51224 0.74729,1.33139 1.05668,1.82034 1.0441,1.65007 1.32586,2.31517 2.27756,5.37633 0.1882,0.60537 0.38507,1.27212 0.43749,1.48167 l 0.0953,0.381 0.0447,1.87234 0.0447,1.87234 -0.0972,1.00633 c -0.0798,0.82564 -0.31259,2.40739 -0.47214,3.20765 -0.0186,0.0931 -0.14927,0.77894 -0.29045,1.524 -0.60022,3.16764 -0.80539,3.90313 -1.58027,5.66487 -0.37287,0.84772 -1.04832,1.95239 -1.88173,3.07747 l -0.45508,0.61434 -0.85995,0.74407 c -1.32417,1.14574 -1.76287,1.41357 -3.35327,2.04718 -0.47088,0.1876 -1.15026,0.48853 -1.50974,0.66873 -0.35949,0.1802 -0.93936,0.43453 -1.28861,0.56518 l -0.635,0.23754 -1.43934,0.0127 c -0.79163,0.007 -1.93295,-0.001 -2.53627,-0.0179 z m 3.07966,-1.37721 0.54339,-0.0785 1.74261,-0.83828 c 0.95844,-0.46105 1.91406,-0.9081 2.12361,-0.99344 0.59326,-0.24162 1.63925,-1.06829 2.61116,-2.06366 1.2594,-1.28979 2.61796,-3.92659 3.10143,-6.01946 0.24248,-1.04968 1.0812,-5.62017 1.24297,-6.77333 l 0.11282,-0.80434 6.5e-4,-2.032 6.4e-4,-2.032 -0.19566,-0.73957 c -0.31834,-1.20324 -1.19334,-3.77891 -1.47228,-4.33381 -0.14228,-0.28304 -0.43129,-0.78132 -0.64224,-1.10728 -0.52848,-0.81662 -0.80088,-1.28263 -1.30485,-2.23228 -0.51152,-0.96387 -1.14681,-1.92812 -1.84832,-2.80539 -0.27927,-0.34925 -0.62851,-0.80645 -0.77608,-1.016 -0.64234,-0.91215 -1.22791,-1.44106 -1.9309,-1.7441 l -0.29634,-0.12773 -1.22766,-0.12215 c -1.37249,-0.13656 -1.62466,-0.18073 -3.429,-0.60055 -0.6985,-0.16252 -1.52718,-0.31751 -1.8415,-0.34443 l -0.5715,-0.0489 0.002,1.51511 c 0.005,2.84272 0.16246,8.45407 0.29148,10.36278 l 0.12876,1.905 0.0493,7.15433 c 0.0271,3.93489 0.0775,7.68774 0.1119,8.33967 l 0.0626,1.18533 -0.0714,0.84667 -0.0714,0.84666 0.0534,1.61909 0.0534,1.61909 0.42423,0.0502 c 0.23333,0.0276 0.59433,0.13259 0.80223,0.23323 l 0.378,0.18299 0.0925,0.20309 0.0925,0.20309 -0.14161,0.29697 c -0.0779,0.16333 -0.14162,0.31472 -0.14162,0.33642 0,0.0692 1.3765,0.039 1.94039,-0.0425 z m -1.60172,-0.29905 c 0,-0.0233 0.019,-0.0423 0.0423,-0.0423 0.0233,0 0.0423,0.0191 0.0423,0.0423 0,0.0233 -0.019,0.0423 -0.0423,0.0423 -0.0233,0 -0.0423,-0.019 -0.0423,-0.0423 z m -123.22395,1.03207 c -0.113361,-0.11336 -0.24517,-0.34757 -0.292908,-0.52046 l -0.0868,-0.31435 0.08442,-0.22204 c 0.08537,-0.22454 0.384447,-2.05631 0.455964,-2.79267 0.03752,-0.38628 0.130393,-1.03821 0.432964,-3.0391 l 0.143035,-0.94589 0.202401,-0.21828 c 0.236835,-0.25541 0.340131,-0.26853 0.612501,-0.0778 l 0.20063,0.14053 -0.04683,1.84906 -0.04683,1.84906 0.07503,0.0464 c 0.06517,0.0403 2.345446,0.52328 4.43872,0.9402 l 0.677333,0.13491 1.788806,0.0413 1.788807,0.0413 0.865673,-0.13711 c 1.289603,-0.20425 4.184099,-0.88233 4.939831,-1.15723 0.698307,-0.25401 1.401044,-0.66369 2.391983,-1.39448 0.642122,-0.47354 1.596526,-1.3001 1.652693,-1.4313 0.01881,-0.0439 0.215181,-0.24919 0.436373,-0.45609 0.221192,-0.2069 0.402167,-0.40428 0.402167,-0.43862 0,-0.0343 0.13335,-0.20802 0.296333,-0.38596 0.162983,-0.17793 0.296333,-0.37322 0.296333,-0.43397 0,-0.0607 0.03074,-0.11046 0.06831,-0.11046 0.08334,0 1.024862,-1.42149 1.287117,-1.94326 0.311416,-0.61958 0.510058,-1.27672 0.600033,-1.98501 l 0.08494,-0.66861 -0.09656,-0.80873 -0.09656,-0.80874 -0.254138,-0.70234 c -0.42792,-1.18262 -1.279132,-2.46321 -2.201528,-3.31207 -0.535478,-0.49278 -0.938043,-0.77376 -1.592943,-1.11182 -0.302683,-0.15625 -0.607483,-0.315 -0.677333,-0.35279 -0.358552,-0.19396 -1.151039,-0.53382 -1.2065,-0.51741 -0.03493,0.0103 -0.0635,-0.0193 -0.0635,-0.0659 0,-0.0466 -0.02858,-0.0761 -0.0635,-0.0657 -0.03493,0.0104 -0.23495,-0.0637 -0.4445,-0.16469 -1.300058,-0.62672 -3.165038,-1.18696 -5.164667,-1.55147 -2.196463,-0.40039 -3.123575,-0.60314 -4.221585,-0.92324 -2.633444,-0.76771 -4.280376,-1.44082 -5.316011,-2.17267 -0.563694,-0.39835 -0.919284,-0.80147 -1.205863,-1.36707 -0.621694,-1.22697 -1.246274,-3.86398 -1.33884,-5.65266 l -0.04829,-0.93316 0.141158,-0.48557 c 0.07764,-0.26706 0.25432,-0.67749 0.39263,-0.91206 0.138309,-0.23458 0.251471,-0.4464 0.251471,-0.47072 0,-0.0868 1.227265,-1.69785 1.895509,-2.48833 0.783676,-0.92702 1.835239,-1.96747 2.507157,-2.48067 0.256117,-0.19561 0.478367,-0.38423 0.493889,-0.41916 0.01552,-0.0349 0.05664,-0.0635 0.09138,-0.0635 0.03474,0 0.363748,-0.1713 0.731134,-0.38066 1.597146,-0.91017 4.183493,-1.60058 7.44998,-1.98873 l 1.351281,-0.16056 2.243667,0.0296 c 1.234016,0.0162 2.427999,0.0574 2.653294,0.0915 l 0.409627,0.0619 -0.02863,-1.93802 -0.02863,-1.93802 0.169334,-0.23017 0.169333,-0.23017 0.156263,-0.003 c 0.08595,-0.001 0.262971,0.0733 0.393391,0.16619 l 0.237128,0.16885 0.0903,0.52965 c 0.162562,0.95347 0.272712,2.33883 0.341607,4.29641 l 0.06775,1.92498 0.139947,0.19981 c 0.163636,0.23362 0.176034,0.45667 0.0461,0.82939 l -0.09385,0.26921 -0.240616,0.12443 c -0.35147,0.18175 -0.458264,0.15676 -0.703372,-0.16459 l -0.220444,-0.28902 -0.05438,-0.62115 -0.05438,-0.62115 -0.179729,-0.29633 -0.179728,-0.29634 -0.04233,-0.508 -0.04233,-0.508 -2.116666,0.0143 -2.116667,0.0143 -1.483179,0.21403 c -1.503165,0.21692 -3.580773,0.64289 -4.028913,0.82605 -0.134882,0.0551 -0.316277,0.11388 -0.403098,0.13057 -0.346873,0.0667 -1.486502,0.48559 -2.085809,0.76674 -1.754916,0.82328 -3.27796,2.2133 -5.174673,4.7227 -0.351971,0.46567 -0.682867,0.92738 -0.735325,1.02603 l -0.09538,0.17937 0.06052,0.067 0.06052,0.067 -0.08954,-0.0508 -0.08954,-0.0508 -0.290956,0.60876 -0.290955,0.60875 0.0091,0.508 c 0.01863,1.0344 0.617657,3.58529 1.059187,4.51043 l 0.261423,0.54776 0.389344,0.37306 0.389344,0.37305 0.113831,-0.0437 0.113832,-0.0437 -0.04614,0.0746 -0.04614,0.0747 0.401573,0.19059 c 1.174,0.55722 2.076026,0.88535 3.78824,1.37804 1.316076,0.37871 1.811024,0.4881 4.106333,0.90756 1.924877,0.35176 2.571301,0.50814 3.725333,0.90122 0.96924,0.33014 2.699145,1.0786 4.07875,1.76473 0.683329,0.33984 1.264354,0.6023 1.291167,0.58325 0.02681,-0.0191 0.03124,-0.0108 0.0098,0.0184 -0.0214,0.0292 0.179813,0.1944 0.447146,0.36718 1.035027,0.66897 2.260245,2.11036 2.917389,3.43213 0.61632,1.23964 0.847659,2.06937 0.987,3.53997 l 0.08575,0.90503 -0.08234,0.86902 c -0.04529,0.47796 -0.153118,1.11613 -0.239625,1.41816 -0.08651,0.30203 -0.172313,0.6063 -0.190679,0.67615 -0.01837,0.0699 -0.05467,0.14605 -0.08067,0.16933 -0.026,0.0233 -0.228375,0.37969 -0.449714,0.79201 -1.484528,2.76544 -4.242287,5.46746 -6.832608,6.69451 l -0.804703,0.38119 -1.055181,0.25906 c -1.216715,0.29872 -3.073967,0.70748 -3.933847,0.86578 l -0.592667,0.10912 -2.158999,-0.006 -2.159,-0.006 -1.693334,-0.35575 c -0.931333,-0.19566 -2.147533,-0.46885 -2.702666,-0.60708 -0.555133,-0.13824 -1.028901,-0.23177 -1.052819,-0.20786 -0.02392,0.0239 -0.08718,0.47885 -0.140592,1.01095 l -0.09711,0.96745 -0.113908,0.13726 c -0.12226,0.14731 -0.432863,0.32263 -0.738665,0.41695 l -0.189091,0.0583 z m 95.07919,-0.46057 -0.0637,-0.0635 -1.83429,-0.001 -1.83429,-10e-4 -0.14816,-0.0712 -0.14817,-0.0712 v -0.16448 c 0,-0.0905 0.0598,-0.28022 0.13301,-0.42169 l 0.13301,-0.25722 0.35382,-0.15611 c 0.25653,-0.11318 2.33041,-0.59105 2.56509,-0.59105 0.0123,0 0.0405,-2.46697 0.0628,-5.48216 0.0418,-5.66395 0.1802,-12.68748 0.26909,-13.6525 0.0279,-0.30268 0.10567,-0.90485 0.17286,-1.33815 l 0.12216,-0.78782 0.0813,-3.78418 c 0.0447,-2.0813 0.10102,-4.39378 0.12518,-5.13885 0.0242,-0.74507 0.0669,-2.51626 0.095,-3.93598 l 0.0511,-2.58131 0.0752,-0.14044 0.0752,-0.14044 -0.1888,-0.0453 c -0.49218,-0.11823 -2.71758,-0.40165 -2.82627,-0.35994 l -0.12298,0.0472 0.0517,-0.0837 0.0517,-0.0837 h -0.24206 c -0.13314,0 -0.27826,0.035 -0.3225,0.0777 -0.0717,0.0692 -0.49263,0.12339 -0.77893,0.10018 l -0.10583,-0.009 4.3e-4,-0.1905 c 5.7e-4,-0.24923 0.31904,-0.76458 0.61576,-0.99641 l 0.23519,-0.18376 0.54659,-0.0936 0.54659,-0.0936 1.58889,0.10353 c 0.87388,0.0569 2.2542,0.1434 3.06737,0.19214 l 1.47849,0.0886 0.83312,-0.0906 0.83311,-0.0906 0.26064,-0.13478 0.26064,-0.13478 0.35642,0.0998 c 0.19604,0.0549 0.45673,0.18227 0.57931,0.28307 l 0.22288,0.18327 0.0178,0.39598 0.0178,0.39599 -0.10011,0.12062 c -0.0551,0.0663 -0.37636,0.2501 -0.714,0.40835 l -0.61389,0.28773 h -1.73567 c -0.95462,0 -2.05393,-0.0329 -2.44292,-0.0731 l -0.70724,-0.0731 0.0486,0.15775 c 0.0267,0.0868 0.0882,2.02465 0.1365,4.30642 0.0483,2.28177 0.12478,5.63457 0.1699,7.45067 l 0.082,3.302 -0.0828,1.016 c -0.0455,0.5588 -0.10556,1.14935 -0.13341,1.31233 -0.0755,0.442 -0.21692,8.0527 -0.25924,13.95462 l -0.0372,5.19163 1.12605,-0.0549 c 0.61934,-0.0302 1.50706,-0.0945 1.97273,-0.14297 0.46567,-0.0484 0.99679,-0.093 1.18028,-0.099 l 0.33361,-0.011 0.23507,0.33867 c 0.1293,0.18626 0.23635,0.41866 0.23789,0.51642 0.004,0.22082 -0.39998,0.83295 -0.67844,1.02929 l -0.20774,0.14648 -2.032,0.055 -2.032,0.055 -0.31478,0.13604 c -0.34009,0.14699 -0.59319,0.17344 -0.69432,0.0726 z m -34.281797,-0.64613 c -0.585304,-0.21933 -0.708425,-0.56103 -0.332068,-0.9216 l 0.233372,-0.22359 1.396462,-0.27177 c 0.768051,-0.14947 1.535231,-0.304 1.704841,-0.34339 l 0.30838,-0.0716 -0.24846,-0.8247 c -0.13665,-0.45358 -0.36014,-1.18664 -0.49665,-1.62902 -0.2832,-0.91773 -0.49377,-1.72724 -1.0571,-4.064 -0.218912,-0.90805 -0.639269,-2.4511 -0.93413,-3.429 -0.672303,-2.22968 -1.713341,-5.55559 -1.748549,-5.58628 -0.01459,-0.0127 -0.521837,0.001 -1.127203,0.0316 -1.693333,0.0842 -9.438627,-0.18017 -11.028674,-0.3764 l -0.360675,-0.0445 -0.08065,0.21213 c -0.0739,0.19438 -0.240205,0.89554 -0.553692,2.33447 -0.131607,0.60409 -0.312775,1.53633 -0.501841,2.58233 -0.09676,0.5353 -0.469498,2.36021 -0.93384,4.572 -0.114893,0.54727 -0.831679,3.6246 -0.975073,4.18621 -0.09381,0.3674 -0.170555,0.71467 -0.170555,0.7717 v 0.1037 l 1.883833,-0.0614 c 1.036108,-0.0338 2.047553,-0.0708 2.247656,-0.0823 l 0.363822,-0.0208 0.249116,0.2548 c 0.137014,0.14014 0.27273,0.3292 0.301591,0.42013 l 0.05248,0.16534 -0.1912,0.40822 -0.1912,0.40822 -0.220214,0.0425 c -0.121117,0.0234 -0.563113,0.0663 -0.982213,0.0954 -0.4191,0.0291 -0.913098,0.0695 -1.097774,0.0899 -0.325486,0.036 -4.999203,-0.17857 -5.836371,-0.26791 -0.68561,-0.0732 -0.894064,-0.23432 -0.896225,-0.69286 l -0.0013,-0.27516 0.161758,-0.16176 0.161758,-0.16176 0.452075,-0.0863 c 0.248642,-0.0475 0.927983,-0.11085 1.509647,-0.14087 0.581664,-0.03 1.06161,-0.0613 1.066547,-0.0695 0.03515,-0.0582 1.431063,-7.74054 1.602679,-8.8202 0.350398,-2.20441 0.545378,-3.31469 0.80847,-4.60368 0.136619,-0.66935 0.248399,-1.2446 0.248399,-1.27832 0,-0.0337 -0.1524,-0.12118 -0.338667,-0.19435 l -0.338666,-0.13303 v -0.16578 c 0,-0.23011 0.187895,-0.36309 0.589074,-0.4169 l 0.341716,-0.0458 0.08998,-0.34873 c 0.04949,-0.19179 0.200391,-0.74877 0.335337,-1.23772 0.22963,-0.83201 0.455414,-1.66896 0.719476,-2.667 0.10822,-0.40902 0.428551,-2.0022 0.808612,-4.02166 0.239414,-1.27212 0.549267,-2.45201 0.967205,-3.683 0.939103,-2.76604 1.342062,-4.31213 1.784099,-6.84533 l 0.308045,-1.76533 -0.07194,-0.0624 c -0.03957,-0.0343 -0.58231,-0.16572 -1.206097,-0.29204 -0.623787,-0.12632 -1.244549,-0.28676 -1.379471,-0.35653 l -0.245312,-0.12686 -0.08103,-0.21312 c -0.04457,-0.11722 -0.08103,-0.34581 -0.08103,-0.50799 v -0.29486 l 0.22403,-0.20763 c 0.3342,-0.30972 0.311064,-0.31101 3.247303,0.18066 2.912272,0.48765 3.578854,0.54742 4.758939,0.4267 l 0.652606,-0.0668 0.278728,0.15412 c 0.1533,0.0848 0.345402,0.20807 0.426894,0.27401 l 0.148166,0.11989 v 0.44857 0.44856 l -0.09918,0.21768 -0.09918,0.21768 -0.175984,0.037 c -0.09679,0.0204 -0.544452,0.074 -0.9948,0.11921 l -0.818814,0.0822 -0.826852,-0.0782 c -0.454768,-0.043 -0.891827,-0.0988 -0.971243,-0.12405 l -0.144392,-0.0458 0.506572,1.25165 c 0.278615,0.6884 1.071686,2.94709 1.76238,5.01931 1.596703,4.79041 1.93592,5.7395 2.496531,6.985 0.06288,0.1397 0.207627,0.46355 0.321658,0.71967 0.114032,0.25611 0.417306,0.90381 0.673943,1.43933 0.590205,1.23156 1.24728,2.86 1.58858,3.937 0.123839,0.39078 0.205557,0.46258 0.528529,0.46437 l 0.234078,0.001 0.167773,0.27516 0.167772,0.27517 3.16e-4,0.2628 3.17e-4,0.26281 -0.211667,0.22839 c -0.116416,0.12561 -0.211666,0.24424 -0.211666,0.26362 0,0.0194 0.225315,0.75084 0.500701,1.62547 1.752579,5.56623 1.732959,5.49863 2.291649,7.89791 0.44992,1.9322 0.53313,2.24923 0.88879,3.38666 0.12377,0.39582 0.24151,0.79587 0.26165,0.889 0.0201,0.0931 0.14578,0.53129 0.27922,0.97367 l 0.24262,0.80433 1.68352,0.0451 1.68351,0.0451 0.22932,0.1151 0.22932,0.1151 0.0933,0.4496 0.0933,0.44961 -0.0848,0.15838 c -0.0466,0.0871 -0.22992,0.25865 -0.40733,0.38119 l -0.32256,0.22281 -0.33999,0.0539 -0.34,0.0539 -1.09934,-0.0914 -1.09934,-0.0914 -1.143,0.0873 c -0.62865,0.048 -1.77165,0.10571 -2.54,0.1282 l -1.396994,0.0409 z m -4.841105,-18.97613 c 2.031029,-0.0375 2.989241,-0.0905 3.075803,-0.17033 0.07066,-0.0651 -0.85074,-2.41574 -1.426382,-3.63891 -0.913316,-1.94068 -1.733299,-3.9068 -2.153959,-5.16466 -0.124585,-0.37254 -0.262055,-0.71353 -0.30549,-0.75777 -0.04343,-0.0442 -0.07897,-0.13536 -0.07897,-0.20248 0,-0.24509 -2.107029,-6.67147 -2.61382,-7.97209 l -0.247431,-0.635 -0.05112,0.21167 c -0.02812,0.11642 -0.167202,0.78317 -0.309078,1.48167 -0.2878,1.41693 -0.447721,2.02632 -0.888762,3.38666 -1.23277,3.80236 -1.342262,4.19391 -1.728314,6.18067 -0.427163,2.19833 -0.85461,3.8906 -1.831999,7.25295 l -0.04097,0.14096 3.157249,-0.0356 c 1.736488,-0.0196 4.18595,-0.0546 5.44325,-0.0778 z m 2.921,-0.25324 c 0,-0.0233 0.01905,-0.0423 0.04233,-0.0423 0.02328,0 0.04233,0.0191 0.04233,0.0423 0,0.0233 -0.01905,0.0423 -0.04233,0.0423 -0.02328,0 -0.04233,-0.019 -0.04233,-0.0423 z m -1.608667,-3.81 c 0,-0.0233 0.01905,-0.0423 0.04233,-0.0423 0.02328,0 0.04233,0.0191 0.04233,0.0423 0,0.0233 -0.01905,0.0423 -0.04233,0.0423 -0.02328,0 -0.04233,-0.019 -0.04233,-0.0423 z M 59.82746,216.54558 c 0,-0.0233 0.01905,-0.0423 0.04233,-0.0423 0.02328,0 0.04233,0.019 0.04233,0.0423 0,0.0233 -0.01905,0.0423 -0.04233,0.0423 -0.02328,0 -0.04233,-0.019 -0.04233,-0.0423 z m 0.762,-0.93133 c 0,-0.0233 0.01905,-0.0423 0.04233,-0.0423 0.02328,0 0.04233,0.019 0.04233,0.0423 0,0.0233 -0.01905,0.0423 -0.04233,0.0423 -0.02328,0 -0.04233,-0.019 -0.04233,-0.0423 z m -1.862667,-1.35467 c 0,-0.0233 0.01905,-0.0423 0.04233,-0.0423 0.02328,0 0.04233,0.019 0.04233,0.0423 0,0.0233 -0.01905,0.0423 -0.04233,0.0423 -0.02328,0 -0.04233,-0.019 -0.04233,-0.0423 z M 182.73668,211.0509 c -0.42407,-0.1569 -0.60735,-0.33159 -0.8296,-0.79069 l -0.1833,-0.37866 -0.007,-0.45296 -0.007,-0.45295 0.19608,-0.20872 c 0.10785,-0.1148 0.30732,-0.25479 0.44327,-0.31111 l 0.24718,-0.10238 0.3618,0.13817 c 0.19898,0.076 0.48313,0.24283 0.63143,0.37074 l 0.26964,0.23258 0.0397,0.36041 c 0.0219,0.19823 0.0623,0.397 0.09,0.44173 0.0733,0.11854 -0.0457,0.9076 -0.16048,1.0646 l -0.0981,0.13416 -0.3357,0.0373 -0.33569,0.0373 z m 0.70411,-2.54865 c 0,-0.0233 0.0191,-0.0423 0.0423,-0.0423 0.0233,0 0.0423,0.019 0.0423,0.0423 0,0.0233 -0.019,0.0423 -0.0423,0.0423 -0.0233,0 -0.0423,-0.019 -0.0423,-0.0423 z M 59.742793,204.60759 c 0,-0.0233 0.01905,-0.0423 0.04233,-0.0423 0.02328,0 0.04233,0.0191 0.04233,0.0423 0,0.0233 -0.01905,0.0423 -0.04233,0.0423 -0.02328,0 -0.04233,-0.0191 -0.04233,-0.0423 z m -0.254,-3.556 c 0,-0.0233 0.01905,-0.0423 0.04233,-0.0423 0.02328,0 0.04233,0.019 0.04233,0.0423 0,0.0233 -0.01905,0.0423 -0.04233,0.0423 -0.02328,0 -0.04233,-0.019 -0.04233,-0.0423 z m 124.056167,-3.51367 c -0.1,-0.0931 -0.20512,-0.16933 -0.23368,-0.16933 -0.19015,0 -0.54783,-0.65476 -0.54783,-1.00285 v -0.24925 l 0.24564,-0.26295 0.24563,-0.26295 0.28354,4.7e-4 c 0.31236,5.2e-4 0.86316,0.12843 1.13668,0.26397 l 0.17583,0.0871 0.0993,0.27472 c 0.0546,0.1511 0.0985,0.42442 0.0975,0.60738 l -0.002,0.33266 -0.14629,0.17923 c -0.16242,0.199 -0.60173,0.3711 -0.94728,0.3711 h -0.2254 z M 41.454794,194.78625 c 0,-0.0233 0.01905,-0.0423 0.04233,-0.0423 0.02328,0 0.04233,0.019 0.04233,0.0423 0,0.0233 -0.01905,0.0423 -0.04233,0.0423 -0.02328,0 -0.04233,-0.019 -0.04233,-0.0423 z m 0.169334,-0.16933 c 0,-0.0233 0.01905,-0.0423 0.04233,-0.0423 0.02328,0 0.04233,0.019 0.04233,0.0423 0,0.0233 -0.01905,0.0423 -0.04233,0.0423 -0.02328,0 -0.04233,-0.019 -0.04233,-0.0423 z m 17.102665,-11.76867 c 0,-0.0233 0.01905,-0.0423 0.04233,-0.0423 0.02328,0 0.04233,0.0191 0.04233,0.0423 0,0.0233 -0.01905,0.0423 -0.04233,0.0423 -0.02328,0 -0.04233,-0.019 -0.04233,-0.0423 z m 81.449327,0 c 0,-0.0233 0.019,-0.0423 0.0423,-0.0423 0.0233,0 0.0423,0.0191 0.0423,0.0423 0,0.0233 -0.019,0.0423 -0.0423,0.0423 -0.0233,0 -0.0423,-0.019 -0.0423,-0.0423 z m 27.91883,-9.69456 -0.14816,-0.0928 v -0.24015 -0.24014 l 0.29901,-0.14189 c 0.27126,-0.12872 1.80699,-0.50546 2.32565,-0.57052 l 0.21167,-0.0266 -0.0115,-0.93134 c -0.053,-4.29087 -0.031,-5.27106 0.18926,-8.44098 l 0.0571,-0.82098 -0.217,-0.0545 c -0.11935,-0.0299 -0.283,-0.12739 -0.36367,-0.21652 l -0.14666,-0.16207 0.0942,-0.20675 0.0942,-0.20676 0.29285,-0.0549 0.29285,-0.0549 0.051,-0.4788 c 0.0798,-0.7492 0.21275,-4.30122 0.22307,-5.96091 l 0.009,-1.50278 -0.0708,-0.004 c -0.039,-0.002 -0.26134,0.0191 -0.49417,0.0466 -0.23283,0.0276 -0.98365,0.0138 -1.66849,-0.0305 l -1.24516,-0.0806 -0.25767,-0.18348 -0.25768,-0.18348 v -0.32253 -0.32254 l 0.1177,-0.0977 0.1177,-0.0977 0.7078,-0.0814 c 0.38929,-0.0448 1.0888,-0.0825 1.55447,-0.0839 l 0.84666,-0.003 0.21167,-0.16557 c 0.11642,-0.0911 0.27783,-0.16642 0.3587,-0.16745 l 0.14703,-0.002 0.12624,-0.30214 0.12624,-0.30214 0.22846,0.027 0.22845,0.027 0.13327,0.23539 0.13328,0.23538 1.016,0.0358 c 1.68978,0.0596 5.23413,0.0693 10.52844,0.0289 l 5.02511,-0.0383 0.20306,0.15972 0.20305,0.15973 v 0.29575 c 0,0.33752 -0.12698,0.62268 -0.27814,0.62458 -0.0566,7.2e-4 -0.15086,0.0318 -0.20953,0.069 l -0.10667,0.0677 0.12929,1.17982 c 0.0711,0.6489 0.17161,1.39844 0.22333,1.66564 l 0.094,0.48583 -0.22242,0.29161 c -0.26056,0.34161 -0.46655,0.42434 -0.86873,0.34889 l -0.2928,-0.0549 -0.0828,-0.21789 c -0.10419,-0.27402 -0.22736,-2.26758 -0.18286,-2.95947 l 0.0334,-0.51948 -1.97554,-0.0594 c -1.08654,-0.0327 -3.76623,-0.0715 -5.95486,-0.0863 l -3.97933,-0.0268 -1.60867,-0.12374 c -0.88477,-0.068 -1.61557,-0.11876 -1.624,-0.1127 -0.008,0.006 0.0241,0.41053 0.0722,0.89881 0.0481,0.48828 0.1122,2.43082 0.14234,4.31677 l 0.0548,3.429 2.20134,-0.003 2.20133,-0.003 1.0795,-0.20252 1.0795,-0.20251 4.7e-4,-0.93792 4.7e-4,-0.93793 0.0857,-0.30833 c 0.0982,-0.35373 0.201,-0.4587 0.52975,-0.54121 l 0.23439,-0.0588 0.2943,0.31205 0.2943,0.31205 v 0.53188 c 0,0.29254 0.0242,0.7636 0.0538,1.04679 l 0.0538,0.51491 0.23723,0.0983 0.23724,0.0983 0.0895,0.41717 0.0895,0.41717 -0.10136,0.16229 c -0.0557,0.0893 -0.18887,0.20914 -0.29585,0.26639 l -0.19449,0.10409 v 1.44942 1.44942 l -0.1905,0.37777 -0.1905,0.37778 -0.184,0.0262 -0.184,0.0262 -0.33473,-0.17076 c -0.1841,-0.0939 -0.3605,-0.23794 -0.39201,-0.32005 -0.0315,-0.0821 -0.0802,-0.78808 -0.10828,-1.56883 l -0.051,-1.41955 -0.30433,0.0397 c -0.16737,0.0218 -0.47577,0.0604 -0.68532,0.0858 -0.20955,0.0253 -1.00965,0.0458 -1.778,0.0455 l -1.397,-5.8e-4 -1.2082,-0.14103 c -0.66451,-0.0776 -1.22823,-0.12099 -1.2527,-0.0965 -0.0245,0.0245 -0.0523,1.58263 -0.0618,3.46257 l -0.0173,3.41808 0.0758,1.24884 0.0757,1.24883 h 3.62502 3.62502 l 0.86737,-0.13738 0.86738,-0.13738 1.41461,0.0368 1.41462,0.0368 0.0532,-0.25926 c 0.0913,-0.44497 0.21058,-2.33067 0.21316,-3.3688 l 0.002,-0.99289 0.1905,-0.12207 c 0.18151,-0.11631 0.44008,-0.16569 0.76028,-0.1452 l 0.14645,0.009 0.18053,0.35388 0.18054,0.35387 -0.0618,2.01807 -0.0618,2.01807 -0.16246,0.20653 -0.16247,0.20654 -0.13677,-0.0525 -0.13677,-0.0525 0.17374,0.24684 c 0.0956,0.13576 0.19809,0.35462 0.22784,0.48634 l 0.0541,0.23951 -0.33693,0.33693 -0.33693,0.33694 -1.55019,-0.057 -1.55019,-0.057 -1.016,0.14344 -1.016,0.14344 -4.78367,-0.0177 c -2.63101,-0.01 -5.31706,0.008 -5.969,0.0396 l -1.18533,0.0573 z m 17.37784,-1.73544 c 0,-0.0233 -0.019,-0.0423 -0.0423,-0.0423 -0.0233,0 -0.0423,0.019 -0.0423,0.0423 0,0.0233 0.0191,0.0423 0.0423,0.0423 0.0233,0 0.0423,-0.019 0.0423,-0.0423 z m -153.149269,1.12654 -0.537607,-0.0598 -0.203226,-0.13316 -0.203227,-0.13316 v -0.15426 c 0,-0.0848 0.07662,-0.2236 0.170272,-0.30835 l 0.170272,-0.15409 0.951562,-0.10776 c 1.124959,-0.12738 2.44494,-0.36662 2.550154,-0.46219 l 0.07459,-0.0678 -0.0092,-0.97235 -0.0092,-0.97235 -0.165266,-0.79033 c -0.259634,-1.2416 -0.510134,-3.5481 -0.540891,-4.98029 l -0.01725,-0.8033 -0.391898,-0.18583 -0.391897,-0.18584 -0.09494,-0.27233 c -0.05221,-0.14978 -0.09493,-0.39335 -0.09493,-0.54127 v -0.26894 l 0.1905,-0.17298 c 0.104775,-0.0951 0.295275,-0.19776 0.423333,-0.22804 l 0.232833,-0.0551 -0.0024,-0.99322 c -0.0023,-0.94648 -0.12547,-3.44659 -0.347116,-7.04688 l -0.101641,-1.651 -0.08484,-0.056 -0.08484,-0.056 -0.218734,0.0847 c -0.262862,0.10182 -0.34362,0.11965 -1.319401,0.29126 l -0.762,0.13402 -0.973666,0.0127 -0.973667,0.0127 -0.275166,-0.15034 -0.275167,-0.15034 v -0.20012 c 0,-0.11006 0.06668,-0.28149 0.148167,-0.38097 l 0.148166,-0.18085 0.677334,-0.077 c 1.266244,-0.14393 2.715667,-0.52761 3.494827,-0.9251 l 0.354016,-0.18061 0.130285,-0.25194 0.130285,-0.25194 0.201007,-0.0505 0.201008,-0.0504 0.25775,0.13328 c 0.141763,0.0733 0.278479,0.16683 0.303813,0.20782 l 0.04606,0.0745 0.911806,-0.19163 c 0.501493,-0.1054 1.261325,-0.23893 1.688514,-0.29674 l 0.776709,-0.1051 0.916625,0.0408 0.916624,0.0408 1.016,0.38276 c 1.187577,0.44741 1.916083,0.6205 2.952121,0.70142 l 0.750788,0.0586 0.587754,0.19991 c 1.173271,0.39906 2.109219,1.12788 2.778813,2.16388 l 0.341356,0.52814 0.178948,0.55644 0.178948,0.55644 0.03983,1.22767 0.03983,1.22766 -0.134557,0.57331 c -0.07401,0.31532 -0.211892,0.72489 -0.306412,0.91017 -0.09452,0.18527 -0.152029,0.33686 -0.1278,0.33686 0.02423,0 -0.02262,0.0703 -0.104112,0.15626 -0.08149,0.0859 -0.315092,0.33524 -0.519111,0.55399 -0.519936,0.55746 -1.253574,1.05913 -2.338389,1.59901 -1.778272,0.88499 -2.452046,1.08971 -4.402666,1.33772 l -1.354667,0.17224 -1.477037,0.341 c -0.812371,0.18755 -1.648847,0.35711 -1.858835,0.37679 -0.209989,0.0197 -0.411825,0.0658 -0.448525,0.10252 l -0.06673,0.0667 0.08375,1.0547 c 0.149324,1.88051 0.251514,2.6374 0.525052,3.88893 l 0.268783,1.22977 0.04744,1.05834 0.04744,1.05833 1.100667,2.3e-4 1.100667,2.3e-4 0.275339,0.19616 c 0.151436,0.10789 0.314236,0.26884 0.361777,0.35767 l 0.08644,0.16151 -0.119555,0.28613 c -0.06576,0.15738 -0.228165,0.38685 -0.360912,0.50994 l -0.241358,0.2238 h -0.441907 c -0.243048,0 -0.728616,-0.0426 -1.079038,-0.0948 l -0.637132,-0.0948 -1.292493,0.13589 c -1.542269,0.16214 -2.705741,0.20336 -3.438767,0.12184 z m 5.27894,-12.39327 c 0.232833,-0.0713 0.594783,-0.16499 0.804333,-0.20829 0.20955,-0.0433 0.636097,-0.13419 0.947883,-0.20197 0.311785,-0.0678 1.032494,-0.16814 1.601574,-0.22302 l 1.034692,-0.0998 0.726759,-0.23611 c 0.932696,-0.30303 1.756394,-0.65612 2.517844,-1.07931 0.672899,-0.37398 0.721375,-0.40937 1.302729,-0.9511 l 0.408866,-0.381 0.224762,-0.45076 0.224762,-0.45077 0.05666,-0.56523 c 0.03116,-0.31088 0.03051,-0.81821 -0.0014,-1.12741 l -0.05811,-0.56217 -0.224813,-0.44364 -0.224812,-0.44365 -0.582414,-0.57438 -0.582415,-0.57438 -0.448232,-0.16771 c -0.246528,-0.0922 -0.752821,-0.21151 -1.125095,-0.26505 -1.717634,-0.24703 -2.581959,-0.51612 -4.182537,-1.30216 l -0.203675,-0.10002 -1.320324,0.0105 -1.320325,0.0105 -0.927459,0.138 c -0.510102,0.0759 -0.961631,0.17217 -1.003398,0.21394 l -0.07594,0.0759 0.05795,0.26384 0.05795,0.26384 0.242745,0.12553 c 0.13351,0.069 0.301787,0.12553 0.373949,0.12553 0.07216,0 0.131205,0.0381 0.131205,0.0847 0,0.11158 -0.03484,0.10776 -0.396719,-0.0434 -0.168638,-0.0705 -0.322163,-0.11257 -0.341167,-0.0936 -0.019,0.019 0.0058,0.48623 0.05503,1.03828 0.09292,1.04111 0.388738,5.28059 0.47176,6.76105 0.02611,0.46567 0.06949,1.03252 0.09639,1.25966 l 0.04891,0.41299 0.6044,-0.0549 c 0.33242,-0.0302 0.7949,-0.11322 1.027733,-0.18447 z m 8.593666,-7.78326 c 0,-0.0233 0.01905,-0.0423 0.04233,-0.0423 0.02328,0 0.04233,0.019 0.04233,0.0423 0,0.0233 -0.01905,0.0423 -0.04233,0.0423 -0.02328,0 -0.04233,-0.0191 -0.04233,-0.0423 z m 113.695563,20.23767 c -0.022,-0.022 -1.06658,-0.0775 -2.32128,-0.12338 l -2.28129,-0.0834 -1.905,-0.3471 c -2.31682,-0.42214 -2.02356,-0.38401 -4.23333,-0.55036 -1.00119,-0.0754 -2.10609,-0.19404 -2.45534,-0.26371 l -0.63499,-0.12668 -0.10584,-0.13788 c -0.12737,-0.16594 -0.13578,-0.39935 -0.022,-0.61187 l 0.0838,-0.15656 0.42838,-0.0919 0.42837,-0.0919 h 1.12978 1.12977 l 0.0514,-0.13392 c 0.0283,-0.0737 0.0514,-0.4123 0.0514,-0.75254 0,-0.34023 0.0931,-1.28009 0.20693,-2.08857 l 0.20692,-1.46997 0.0422,-6.223 0.0422,-6.22299 0.0864,-1.60867 c 0.0476,-0.88477 0.10955,-1.84347 0.1378,-2.13046 l 0.0514,-0.52179 -0.57745,-0.0542 c -1.49423,-0.14026 -2.20752,-0.23942 -2.45037,-0.34064 l -0.26425,-0.11014 -0.0386,-0.26301 -0.0386,-0.26301 0.14612,-0.13224 0.14612,-0.13223 0.69661,-0.12162 c 0.87145,-0.15213 2.99112,-0.29029 4.45986,-0.29068 l 1.11766,-3e-4 0.44867,0.0927 0.44867,0.0927 0.32629,0.2212 c 0.17946,0.12166 0.3565,0.30067 0.39343,0.3978 l 0.0671,0.17661 -0.088,0.44483 -0.0879,0.44482 -0.22233,0.11498 -0.22234,0.11497 -0.25248,-0.0418 c -0.13886,-0.023 -0.5271,-0.0956 -0.86274,-0.16135 -0.33565,-0.0657 -0.89309,-0.11954 -1.23877,-0.11954 h -0.6285 l -0.0581,0.78316 c -0.032,0.43074 -0.061,3.06917 -0.0645,5.86317 l -0.006,5.08 0.10405,2.49766 0.10405,2.49767 -0.17663,1.32445 c -0.0971,0.72844 -0.17664,1.62936 -0.17664,2.00203 v 0.6776 l 0.74084,0.13376 c 0.40746,0.0736 1.42663,0.25212 2.26483,0.39679 l 1.524,0.26304 2.94233,0.0916 c 1.61829,0.0504 2.96039,0.0736 2.98246,0.0515 0.0221,-0.0221 -0.0344,-0.71307 -0.12542,-1.53557 -0.091,-0.8225 -0.15046,-1.54415 -0.13203,-1.60366 0.0184,-0.0595 0.0563,-0.21229 0.0841,-0.3395 l 0.0506,-0.23129 0.24857,-0.12854 c 0.13671,-0.0707 0.31919,-0.12854 0.4055,-0.12854 h 0.15693 l 0.28973,0.29892 0.28972,0.29893 0.0595,0.65357 c 0.0327,0.35947 0.0622,1.15738 0.0655,1.77315 l 0.006,1.11956 0.18113,0.37283 0.18113,0.37282 -0.0508,0.20094 c -0.028,0.11052 -0.15709,0.32701 -0.28696,0.48109 l -0.23614,0.28015 -0.33867,0.0777 c -0.34642,0.0794 -2.35252,0.11395 -2.42476,0.0417 z m -30.84923,-2.33775 c -0.23284,-0.038 -1.29964,-0.0907 -2.37067,-0.11708 -2.1764,-0.0536 -2.61495,-0.0921 -2.73794,-0.2403 -0.13279,-0.16001 -0.20659,-0.54626 -0.14855,-0.77752 l 0.0529,-0.21063 0.32371,-0.16515 0.32371,-0.16514 0.82422,-0.12158 c 0.45332,-0.0669 0.85755,-0.15493 0.89828,-0.19571 l 0.074,-0.0742 -0.0814,-2.794 c -0.0448,-1.5367 -0.0822,-3.4036 -0.0831,-4.14867 -9.4e-4,-0.74506 -0.0245,-3.58878 -0.0524,-6.31938 l -0.0507,-4.96471 -1.49164,-0.009 c -0.82041,-0.005 -1.60337,-0.0397 -1.73991,-0.0775 l -0.24827,-0.0687 -0.15292,-0.20711 c -0.0841,-0.11391 -0.17438,-0.32141 -0.2006,-0.46111 l -0.0477,-0.254 0.21352,-0.22642 0.21351,-0.22643 0.44701,-0.0465 c 0.24586,-0.0256 0.94232,-0.0691 1.54768,-0.0966 0.60537,-0.0276 1.16734,-0.0692 1.24884,-0.0926 l 0.14816,-0.0425 v -0.14371 c 0,-0.079 0.074,-0.28184 0.16452,-0.45067 0.0905,-0.16882 0.15003,-0.32144 0.13233,-0.33914 -0.0177,-0.0177 0.11906,-0.0178 0.30392,-1.4e-4 l 0.33611,0.0321 0.0992,0.37099 0.0992,0.371 0.30016,0.0966 c 0.37664,0.12114 0.51148,0.22687 0.51313,0.40234 7.2e-4,0.0758 0.0307,0.18409 0.0667,0.24066 l 0.0654,0.10285 1.81718,0.2117 1.81717,0.2117 0.67734,0.17779 0.67733,0.17779 0.60964,0.32739 c 0.8185,0.43955 1.47103,0.93109 2.18756,1.64786 1.0154,1.01574 1.37086,1.67694 1.61298,3.00036 l 0.14374,0.7857 -0.0963,0.68114 -0.0963,0.68114 -0.2911,0.60523 -0.29111,0.60523 -0.52587,0.57389 -0.52586,0.5739 -0.85567,0.41041 c -1.07181,0.51408 -2.72966,1.04501 -3.96894,1.27104 -1.32641,0.24192 -2.78143,0.62735 -3.18629,0.84402 l -0.14666,0.0785 0.0318,0.53442 c 0.0175,0.29394 0.0868,1.2528 0.15395,2.13082 0.0672,0.87802 0.12211,2.12029 0.12211,2.76059 v 1.16419 l 0.5715,0.054 c 0.31432,0.0297 0.80819,0.0542 1.09749,0.0546 l 0.52599,6e-4 0.46884,0.17541 c 0.25786,0.0965 0.46884,0.18653 0.46884,0.20011 0,0.0136 0.0362,0.21535 0.0804,0.44836 l 0.0804,0.42367 -0.0647,0.24406 -0.0647,0.24405 -0.29082,0.10106 -0.29083,0.10105 -0.508,-0.007 c -0.2794,-0.004 -0.6985,-0.0376 -0.93133,-0.0756 z m -0.8288,-10.69494 c 0.55029,-0.18716 1.225,-0.34854 2.90313,-0.69438 0.66728,-0.13752 2.12443,-0.58469 2.413,-0.7405 0.0931,-0.0503 0.18838,-0.0947 0.21167,-0.0986 0.64343,-0.10886 1.3819,-0.84873 1.7274,-1.73066 l 0.14775,-0.37716 -0.003,-0.61538 -0.003,-0.61537 -0.14077,-0.48914 c -0.20521,-0.71304 -0.42092,-1.09944 -0.95554,-1.71164 l -0.47609,-0.54517 -0.65441,-0.48525 -0.6544,-0.48525 -0.4886,-0.18345 c -0.69696,-0.26169 -4.26766,-1.01537 -4.81051,-1.01537 h -0.23192 l 0.0582,1.4605 c 0.14388,3.61045 0.2162,5.95353 0.21802,7.06274 0.002,1.02187 0.0391,1.46743 0.12318,1.46743 0.0101,0 0.28749,-0.0915 0.61631,-0.20335 z m -27.05798,9.09221 c -0.20356,-0.043 -0.51329,-0.0947 -0.68829,-0.11476 -0.17501,-0.0201 -0.39899,-0.0798 -0.49773,-0.13264 -0.09875,-0.0529 -0.179536,-0.0762 -0.179536,-0.0518 0,0.0243 -0.219075,-0.0549 -0.486833,-0.17618 -0.267758,-0.12124 -0.534458,-0.22236 -0.592667,-0.22471 -0.05821,-0.002 -0.105833,-0.0335 -0.105833,-0.0691 0,-0.0357 -0.07743,-0.0894 -0.172069,-0.11946 -0.231605,-0.0735 -1.416342,-0.86651 -1.732931,-1.15993 -0.1397,-0.12948 -0.281668,-0.2356 -0.315486,-0.23581 -0.111834,-7.1e-4 -0.973914,-1.21871 -1.240942,-1.75328 -0.144299,-0.28887 -0.356869,-0.85135 -0.472379,-1.24995 l -0.210019,-0.72474 -0.09971,-0.91935 -0.09971,-0.91935 0.0959,-1.10708 c 0.164352,-1.89727 0.69143,-4.07878 1.261768,-5.22231 1.257668,-2.52162 3.697042,-4.32095 6.372247,-4.7003 l 0.635,-0.09 0.67733,0.0537 c 0.85564,0.0678 1.53317,0.23549 1.75269,0.43388 l 0.17057,0.15415 0.1602,-0.0265 0.16021,-0.0265 v 0.0809 c 0,0.0445 -0.0667,0.10679 -0.14817,0.1384 l -0.14817,0.0575 0.635,0.29506 c 0.34925,0.16229 1.07315,0.46959 1.60867,0.68289 1.35058,0.53795 1.90242,0.82544 2.53516,1.32073 0.77191,0.60424 0.88536,0.75048 1.3929,1.79548 1.06391,2.19054 1.17287,2.47582 1.36378,3.57055 l 0.12683,0.7273 -0.003,0.94141 -0.003,0.94141 -0.13432,0.67733 c -0.0739,0.37254 -0.13921,0.77847 -0.14521,0.90209 -0.006,0.12361 -0.0346,0.2101 -0.0636,0.19221 -0.0289,-0.0179 -0.1154,0.13179 -0.19211,0.33264 -0.45373,1.18808 -2.16629,3.31558 -3.31124,4.11353 -0.91046,0.63453 -2.22273,1.09719 -4.10633,1.44775 l -0.97367,0.18121 -1.22766,0.031 -1.22767,0.031 z m 3.14751,-1.99622 c 1.00942,-0.18825 2.33923,-0.58483 2.98641,-0.8906 l 0.56352,-0.26625 0.58199,-0.54902 0.58199,-0.54902 -0.0546,-0.0883 -0.0546,-0.0883 0.0921,0.0569 0.0921,0.0569 0.15092,-0.25549 c 0.083,-0.14052 0.17724,-0.25549 0.2094,-0.25549 0.0878,0 0.64363,-0.79798 0.96551,-1.38616 0.15616,-0.28536 0.36339,-0.80459 0.46051,-1.15384 l 0.17657,-0.635 0.0508,-0.762 0.0508,-0.762 -0.0976,-0.62369 -0.0976,-0.6237 -0.34591,-0.73097 c -0.19025,-0.40204 -0.51149,-1.07878 -0.71388,-1.50388 l -0.36798,-0.7729 -0.40426,-0.35585 c -0.50459,-0.44416 -1.28236,-0.88326 -2.26971,-1.28138 -0.4191,-0.169 -1.20015,-0.52081 -1.73567,-0.78181 l -0.97366,-0.47454 -0.59267,-0.0935 -0.59267,-0.0935 -0.45743,0.0561 c -0.25159,0.0309 -0.5479,0.0973 -0.65846,0.1477 l -0.20103,0.0916 -0.0988,-0.0987 -0.0987,-0.0988 0.22804,-0.23802 c 0.12542,-0.13091 0.22804,-0.2744 0.22804,-0.31886 0,-0.0445 0.0799,-0.13074 0.17758,-0.19173 0.31991,-0.19979 0.11453,-0.18922 -0.55221,0.0284 -1.49459,0.48788 -2.642029,1.34538 -3.68803,2.75612 -0.946673,1.27678 -1.439601,2.7231 -1.744045,5.11728 -0.263779,2.07439 -0.09845,3.49816 0.554943,4.77891 0.371368,0.72794 1.709864,1.8777 2.838763,2.43847 0.633799,0.31484 0.972779,0.4254 1.612669,0.52597 l 0.504,0.0792 0.9994,-0.0404 c 0.54966,-0.0222 1.31166,-0.0987 1.69333,-0.16983 z m -35.162397,1.84968 -0.381,-0.13093 -2.494595,-0.0347 -2.494595,-0.0347 -0.108905,-0.0904 c -0.164481,-0.13651 -0.131036,-0.3811 0.07885,-0.57664 l 0.187753,-0.17492 0.54063,-0.16698 c 0.573558,-0.17716 2.227068,-0.42111 2.854253,-0.42111 h 0.37505 l 0.05597,-0.223 c 0.08295,-0.33052 -0.02486,-1.99518 -0.185698,-2.86734 l -0.140527,-0.762 0.05573,-2.80433 0.05573,-2.80434 -0.172989,-0.0452 -0.172989,-0.0452 v -0.17936 -0.17935 l 0.208171,-0.0791 0.208171,-0.0791 -0.03962,-1.29459 c -0.05371,-1.75525 -0.200472,-4.15193 -0.32035,-5.23159 l -0.09871,-0.889 -0.973666,0.0277 c -1.058599,0.0302 -2.962073,-0.10228 -3.481937,-0.24226 l -0.325184,-0.0876 -0.08611,-0.16089 c -0.04736,-0.0885 -0.08611,-0.25731 -0.08611,-0.37515 v -0.21425 l 0.163768,-0.0876 0.163767,-0.0876 0.873399,-2.1e-4 c 0.48037,-1.1e-4 1.385254,-0.0393 2.010854,-0.087 l 1.137454,-0.0868 0.640545,-0.28624 c 1.162847,-0.51964 2.18222,-0.7812 3.830754,-0.98293 l 0.819541,-0.10029 1.762792,0.0419 1.762792,0.0419 1.481667,0.21475 c 1.736018,0.25161 2.197179,0.29359 4.402666,0.40081 1.606235,0.0781 3.186883,0.19854 3.831167,0.29197 l 0.3175,0.046 v -0.11325 c 0,-0.0623 0.08818,-0.19608 0.195957,-0.29733 l 0.195956,-0.18409 h 0.178898 0.178898 l 0.175479,0.22308 0.175478,0.22309 v 0.23221 0.23222 l 0.121582,0.1009 0.121582,0.10091 -0.04611,0.56563 -0.04611,0.56563 0.133975,0.51166 c 0.07369,0.28141 0.157882,0.77671 0.187101,1.10066 l 0.05313,0.58901 -0.265976,0.36379 c -0.323009,0.44181 -0.40303,0.47673 -0.829405,0.36192 l -0.333981,-0.0899 -0.09526,-0.44488 c -0.05239,-0.24469 -0.120844,-0.85447 -0.152114,-1.35506 l -0.05685,-0.91016 -0.09428,-2.6e-4 c -0.293308,-7.8e-4 -2.697627,-0.25674 -2.757142,-0.29352 -0.03911,-0.0242 -0.637059,-0.0816 -1.328785,-0.12774 -1.967736,-0.1311 -2.823959,-0.24134 -4.644351,-0.59797 -2.019845,-0.3957 -3.093704,-0.55592 -4.233333,-0.6316 l -0.846667,-0.0562 -1.058333,0.0973 c -0.582083,0.0535 -1.090228,0.12856 -1.129211,0.16677 l -0.07088,0.0695 0.09204,0.0569 c 0.05062,0.0313 0.09204,0.16555 0.09204,0.29837 v 0.24147 l -0.260496,0.2192 c -0.143273,0.12055 -0.314234,0.21919 -0.379914,0.21919 h -0.119418 l 0.03701,0.35983 c 0.02036,0.19791 0.09557,0.81704 0.167149,1.37584 0.199824,1.56003 0.293693,2.71237 0.355877,4.36874 l 0.05689,1.5154 4.791617,-0.002 c 2.635389,-10e-4 5.077367,0.008 5.426617,0.0213 l 0.635,0.0237 -0.02989,-0.7889 -0.02989,-0.78889 0.199079,-0.37527 0.19908,-0.37527 0.254145,-0.0132 c 0.386416,-0.02 0.665365,0.0175 0.76893,0.10347 0.0514,0.0427 0.114722,0.0563 0.140705,0.0303 0.02598,-0.026 0.04297,0.003 0.03776,0.0642 -0.0052,0.0613 0.02017,0.37818 0.05642,0.70415 0.03625,0.32596 0.17961,1.61572 0.318574,2.86612 0.138964,1.25041 0.241208,2.44672 0.227209,2.65848 l -0.02545,0.38503 -0.211666,0.15103 -0.211667,0.15103 -0.387095,0.0483 -0.387094,0.0483 -0.173825,-0.19083 c -0.293982,-0.32275 -0.339271,-0.49113 -0.449869,-1.6725 l -0.107004,-1.143 -0.09422,-0.0622 c -0.05182,-0.0342 -0.304773,-0.0628 -0.562111,-0.0635 -0.409046,-0.001 -1.086545,-0.0695 -2.114445,-0.21345 -0.162984,-0.0228 -1.020234,-0.081 -1.905,-0.1292 -1.370822,-0.0747 -3.505855,-0.24865 -5.820833,-0.47413 l -0.5715,-0.0557 -0.01979,1.4304 c -0.01088,0.78673 -0.01793,2.00191 -0.01567,2.70041 l 0.0041,1.27 0.14662,0.80434 c 0.08064,0.44238 0.170023,1.23858 0.198628,1.76934 l 0.05201,0.96501 1.404544,-0.0558 c 0.772499,-0.0307 2.833294,-0.0772 4.579544,-0.10337 l 3.175,-0.0476 0.635,-0.11751 c 0.34925,-0.0646 1.0922,-0.15804 1.651,-0.20757 1.289301,-0.1143 2.861192,-0.33312 2.936393,-0.40878 0.03175,-0.0319 0.0063,-0.62035 -0.05649,-1.30758 l -0.114216,-1.24951 0.07753,-0.28078 c 0.04264,-0.15443 0.168474,-0.36622 0.279632,-0.47065 l 0.202104,-0.18986 0.32236,0.0605 0.32236,0.0605 0.184196,0.18419 0.184197,0.1842 0.05882,0.88281 c 0.03235,0.48555 0.04845,1.54346 0.03579,2.3509 l -0.02303,1.46809 -0.170492,0.11941 -0.170493,0.11942 h -0.392938 c -0.216116,0 -0.585366,0.0365 -0.820554,0.0811 -0.235189,0.0446 -1.202414,0.16027 -2.14939,0.25705 -0.946975,0.0968 -1.893223,0.21103 -2.102773,0.25388 l -0.381,0.0779 -2.582333,0.009 c -1.420283,0.005 -3.401483,0.0404 -4.402667,0.0783 l -1.820333,0.0688 -0.31478,0.13707 c -0.37039,0.16129 -0.414184,0.16078 -0.912886,-0.0106 z m 43.179997,-5.22866 c 0,-0.0233 0.019,-0.0423 0.0423,-0.0423 0.0233,0 0.0423,0.019 0.0423,0.0423 0,0.0233 -0.0191,0.0423 -0.0423,0.0423 -0.0233,0 -0.0423,-0.0191 -0.0423,-0.0423 z m 23.70667,-4.14866 c 0,-0.0233 0.0191,-0.0423 0.0423,-0.0423 0.0233,0 0.0423,0.019 0.0423,0.0423 0,0.0233 -0.019,0.0423 -0.0423,0.0423 -0.0233,0 -0.0423,-0.019 -0.0423,-0.0423 z m -87.376,-1.18534 c 0,-0.0233 0.01905,-0.0423 0.04233,-0.0423 0.02328,0 0.04233,0.0191 0.04233,0.0423 0,0.0233 -0.01905,0.0423 -0.04233,0.0423 -0.02328,0 -0.04233,-0.0191 -0.04233,-0.0423 z m 139.95399,-1.524 c 0,-0.0233 0.0191,-0.0423 0.0423,-0.0423 0.0233,0 0.0423,0.0191 0.0423,0.0423 0,0.0233 -0.0191,0.0423 -0.0423,0.0423 -0.0233,0 -0.0423,-0.019 -0.0423,-0.0423 z m -53.50933,-5.67266 c 0,-0.0233 0.019,-0.0423 0.0423,-0.0423 0.0233,0 0.0423,0.019 0.0423,0.0423 0,0.0233 -0.019,0.0423 -0.0423,0.0423 -0.0233,0 -0.0423,-0.019 -0.0423,-0.0423 z m 35.941,-8.26597 c -0.0931,-0.0521 -0.21696,-0.15445 -0.27517,-0.22741 l -0.10583,-0.13265 0.002,-0.72465 c 8.5e-4,-0.39856 0.0575,-1.11806 0.12582,-1.59889 0.16342,-1.14971 0.67587,-3.24907 0.92329,-3.78243 0.108,-0.23283 0.25934,-0.56888 0.33631,-0.74676 l 0.13994,-0.32343 0.14671,0.0278 0.14671,0.0278 0.0264,0.31844 c 0.0145,0.17514 -0.0331,0.71891 -0.10583,1.20836 -0.0727,0.48945 -0.13221,0.93931 -0.13221,0.99968 v 0.10977 l 0.41247,-0.0845 0.41246,-0.0845 1.42904,0.26855 c 0.78596,0.1477 1.76799,0.30246 2.18227,0.3439 l 0.75325,0.0753 0.55908,-0.19398 c 0.3075,-0.10669 0.86389,-0.33532 1.23643,-0.50808 1.29645,-0.6012 1.78112,-0.81962 2.286,-1.03022 0.64104,-0.2674 0.95294,-0.56515 1.29193,-1.23331 l 0.26865,-0.52955 0.0664,-0.42333 c 0.0365,-0.23283 0.0644,-1.33773 0.0619,-2.45533 l -0.004,-2.032 -0.1403,-0.46567 -0.1403,-0.46567 -0.33384,-0.508 c -0.81804,-1.24478 -2.6979,-2.58583 -5.04923,-3.60198 -1.5759,-0.68105 -2.54014,-1.38011 -3.22237,-2.33617 -0.91623,-1.28397 -1.13745,-2.41224 -0.84928,-4.33132 l 0.11815,-0.78681 0.24108,-0.48002 0.24109,-0.48001 0.5012,-0.53733 0.5012,-0.53732 0.81742,-0.54418 c 1.43045,-0.95228 3.05529,-1.61772 4.95351,-2.02865 0.94945,-0.20553 2.36695,-0.38054 3.0823,-0.38054 h 0.39735 l -0.004,-1.00254 -0.004,-1.00253 0.1162,-0.14047 0.1162,-0.14046 h 0.32634 0.32635 l 0.12288,0.1905 0.12288,0.1905 0.2969,1.43933 c 0.43649,2.116 0.62811,3.11678 0.7771,4.05848 l 0.13308,0.84113 -0.0533,0.31549 -0.0533,0.31549 -0.1451,0.13131 c -0.0798,0.0722 -0.28821,0.19111 -0.46312,0.26419 l -0.31802,0.13288 -0.24679,-0.14579 -0.24679,-0.14578 -0.0814,-0.2167 c -0.0448,-0.11918 -0.10057,-0.4834 -0.12401,-0.80936 -0.0234,-0.32597 -0.12805,-1.21179 -0.23247,-1.9685 l -0.18986,-1.37584 h -0.19338 c -0.49674,0 -2.20377,0.27739 -3.0896,0.50204 -1.62662,0.41254 -3.09011,1.04972 -4.32955,1.88501 -0.61753,0.41617 -1.52197,1.29586 -1.70957,1.66278 l -0.14426,0.28217 -0.087,0.8006 -0.087,0.8006 0.0982,0.56366 c 0.12919,0.74182 0.40857,1.31345 0.92527,1.89312 l 0.42218,0.47363 0.54742,0.35666 0.54742,0.35666 1.28736,0.54139 c 1.50365,0.63236 2.20949,1.02154 3.27685,1.80678 1.74505,1.2838 2.61361,2.39056 2.94901,3.75778 l 0.13022,0.53079 0.0503,1.56633 c 0.0277,0.86149 0.0224,1.93781 -0.0117,2.39184 l -0.062,0.8255 h -0.11158 -0.11158 l -0.0428,-0.48684 c -0.10596,-1.20516 -0.34061,-1.38962 -0.51825,-0.40739 -0.0332,0.18339 -0.17072,0.55217 -0.30568,0.81952 -0.25019,0.49562 -0.33124,0.88909 -0.22017,1.06881 l 0.062,0.10026 0.38737,-0.008 0.38737,-0.008 0.0615,0.0995 0.0615,0.0995 -0.28339,0.55319 -0.28339,0.5532 0.0562,0.091 0.0562,0.091 -0.0891,-0.0551 -0.0891,-0.0551 -0.26965,0.42022 -0.26966,0.42022 -0.47979,0.22401 c -0.26389,0.1232 -0.72744,0.33656 -1.03013,0.47412 -0.30268,0.13756 -0.70273,0.32054 -0.889,0.40662 -0.18626,0.0861 -0.64346,0.29743 -1.016,0.46968 -0.37253,0.17226 -0.94403,0.40805 -1.27,0.524 l -0.59266,0.21081 -0.84667,0.0424 -0.84667,0.0424 -1.016,-0.14175 c -0.5588,-0.078 -1.54673,-0.25292 -2.1954,-0.38878 -0.64867,-0.13587 -1.18943,-0.23701 -1.20169,-0.22475 -0.0123,0.0123 -0.0549,0.66898 -0.0948,1.45938 l -0.0725,1.43708 -0.1234,0.254 -0.12339,0.254 -0.25342,0.0207 c -0.13937,0.0114 -0.32961,-0.0219 -0.42274,-0.074 z m -47.28633,-2.66428 -0.29633,-0.12861 -0.38208,0.0524 -0.38207,0.0524 -1.18426,-0.21449 c -0.65134,-0.11797 -1.70995,-0.29171 -2.35246,-0.38609 l -1.16819,-0.1716 -0.23497,-0.12151 c -0.31958,-0.16526 -0.41766,-0.30565 -0.38845,-0.55601 0.0136,-0.11641 0.0279,-0.23877 0.0318,-0.2719 0.004,-0.0331 0.16075,-0.10162 0.3486,-0.1522 l 0.34154,-0.092 1.16129,0.0134 1.1613,0.0134 0.0532,-1.17354 c 0.0292,-0.64545 0.0578,-1.24246 0.0635,-1.3267 l 0.0103,-0.15317 0.0847,0.0523 c 0.0466,0.0288 0.0847,0.15971 0.0847,0.29096 v 0.23864 l 0.12133,0.1007 0.12134,0.10069 0.22505,-0.14746 c 0.2505,-0.16413 0.37895,-0.43203 0.37895,-0.79034 v -0.23812 l -0.10584,-0.0791 c -0.0582,-0.0435 -0.15346,-0.072 -0.21166,-0.0633 -0.0582,0.009 -0.15416,0.0205 -0.21323,0.0264 -0.0591,0.006 -0.17235,0.11536 -0.25174,0.24342 l -0.14436,0.23283 -0.0147,-0.29633 c -0.008,-0.16298 -0.0109,-0.41063 -0.006,-0.55033 0.005,-0.1397 -0.0304,-2.59715 -0.0779,-5.461 l -0.0864,-5.207 -0.12073,-1.397 c -0.0664,-0.76835 -0.16348,-2.0447 -0.21572,-2.83634 l -0.095,-1.43933 0.054,-1.2474 c 0.0297,-0.68607 0.11026,-1.67424 0.17907,-2.19595 0.13621,-1.03275 0.16164,-1.76191 0.0616,-1.76667 -0.0349,-0.002 -0.4445,-0.0388 -0.91016,-0.0826 -0.46567,-0.0438 -1.18957,-0.10405 -1.60867,-0.13392 -0.83088,-0.0592 -1.00633,-0.11773 -1.14826,-0.38292 l -0.0938,-0.17528 0.0485,-0.19339 c 0.0267,-0.10637 0.14234,-0.25486 0.25699,-0.32998 l 0.20845,-0.13658 1.92958,-0.0851 c 1.06127,-0.0468 2.34904,-0.12759 2.86171,-0.17945 0.51267,-0.0519 1.3715,-0.0996 1.9085,-0.10616 l 0.97636,-0.0118 0.26441,0.21166 c 0.14543,0.11642 0.34185,0.34595 0.4365,0.51008 l 0.17207,0.29841 -0.1271,0.26244 c -0.0699,0.14434 -0.23736,0.36807 -0.37211,0.49716 l -0.245,0.23473 -0.48337,-0.0971 -0.48337,-0.0971 h -0.8752 c -0.48118,0 -0.87488,0.0172 -0.87488,0.0381 0,0.14021 5.03729,9.03172 5.99814,10.58756 0.14379,0.23283 0.32479,0.53763 0.40221,0.67733 0.65225,1.1769 2.12983,3.26422 4.19541,5.92667 1.35392,1.74514 3.88224,5.3565 3.88224,5.54523 0,0.0405 -0.0737,0.0971 -0.16373,0.12565 l -0.16373,0.052 -0.0585,0.46812 -0.0585,0.46812 0.0909,0.0909 0.0909,0.0909 0.20515,-0.13442 0.20516,-0.13442 0.0389,-0.20336 c 0.0214,-0.11185 0.0128,-0.2761 -0.019,-0.365 l -0.0579,-0.16163 0.0692,-1.73567 c 0.038,-0.95462 0.0666,-4.21217 0.0634,-7.239 -0.003,-3.02683 0.0152,-5.59858 0.0408,-5.715 0.0256,-0.11642 0.0701,-0.59267 0.0988,-1.05833 0.0287,-0.46567 0.086,-1.11558 0.12741,-1.44425 0.0899,-0.71372 0.22695,-3.28199 0.29185,-5.46755 l 0.0469,-1.5778 -0.40276,-0.0568 c -0.22151,-0.0313 -0.64107,-0.0967 -0.93235,-0.14547 l -0.5296,-0.0886 -0.25357,-0.23686 -0.25357,-0.23687 v -0.21808 -0.21808 l 0.21737,-0.14243 0.21737,-0.14243 2.38613,0.0683 c 1.31237,0.0376 2.94662,0.0786 3.63166,0.0911 0.68504,0.0126 1.28566,0.0476 1.33471,0.078 0.14329,0.0885 0.42543,0.69613 0.42543,0.91613 v 0.20192 l -0.15127,0.13689 c -0.0832,0.0753 -0.29152,0.1955 -0.46294,0.26712 l -0.31169,0.13023 h -0.55145 c -0.3033,0 -1.03023,-0.0426 -1.6154,-0.0948 -0.58517,-0.0521 -1.08395,-0.0748 -1.10839,-0.0503 -0.0244,0.0244 -0.0621,1.04816 -0.0836,2.27493 -0.0397,2.26247 -0.093,3.1697 -0.34256,5.82882 l -0.13904,1.48166 -0.0132,6.39234 c -0.013,6.30792 -0.0829,9.21781 -0.22819,9.50019 l -0.0744,0.14452 -0.31435,0.059 c -0.17289,0.0324 -0.36882,0.11345 -0.43541,0.18004 l -0.12106,0.12106 -0.0392,0.40796 -0.0392,0.40796 0.17931,0.096 0.1793,0.096 0.16303,-0.0872 c 0.0897,-0.048 0.28913,-0.28187 0.44327,-0.51975 l 0.28026,-0.43251 0.36461,0.05 0.36461,0.05 0.33039,0.26551 c 0.18171,0.14603 0.39191,0.39517 0.46712,0.55365 l 0.13673,0.28815 -0.0514,0.16193 c -0.0683,0.2151 -0.60458,0.68036 -0.78424,0.68036 -0.0783,0 -0.29607,-0.0548 -0.48389,-0.1217 l -0.3415,-0.1217 -2.286,-0.0762 -2.286,-0.0762 -0.357,-0.18339 c -0.19635,-0.10086 -0.39485,-0.25411 -0.44111,-0.34054 l -0.0841,-0.15716 0.0495,-0.30493 0.0495,-0.30493 0.39163,-0.1263 0.39162,-0.1263 0.99484,-0.0579 c 0.54715,-0.0318 0.99483,-0.0841 0.99483,-0.11613 0,-0.0668 -0.77882,-1.23221 -1.52995,-2.28936 -0.28124,-0.39582 -0.53518,-0.77682 -0.56431,-0.84667 -0.0506,-0.12123 -0.54375,-0.85855 -1.24594,-1.86267 -0.1791,-0.25611 -0.7105,-0.96084 -1.18089,-1.56607 -0.47038,-0.60522 -1.02144,-1.32912 -1.22456,-1.60866 -0.20312,-0.27955 -0.42948,-0.55589 -0.50301,-0.6141 -0.0735,-0.0582 -0.10417,-0.10583 -0.0681,-0.10583 0.0361,0 -0.0449,-0.14288 -0.17993,-0.3175 -0.5556,-0.71834 -2.11814,-3.1908 -2.94831,-4.66518 -1.90386,-3.38125 -3.64023,-6.52758 -4.40958,-7.99024 -0.26266,-0.49935 -0.50479,-0.89108 -0.53807,-0.87052 -0.16291,0.10069 -0.006,4.97027 0.24912,7.70956 0.0907,0.97545 0.20893,2.45934 0.26276,3.29754 l 0.0979,1.524 0.002,3.00567 c 10e-4,1.65312 -0.0259,4.01883 -0.0606,5.25715 l -0.063,2.25148 0.96682,0.098 c 0.53175,0.0539 1.16962,0.098 1.4175,0.098 h 0.45068 l 0.37326,0.37326 0.37326,0.37326 -0.11512,0.2829 -0.11512,0.28291 -0.2818,0.1905 -0.28181,0.1905 -0.38964,-0.003 -0.38965,-0.003 z m 11.04209,-5.09492 0.024,-0.33626 -0.22635,-0.13371 -0.22634,-0.1337 -0.12485,0.14408 -0.12485,0.14409 0.16054,0.27517 0.16054,0.27517 h 0.11863 c 0.0653,0 0.11864,0.0445 0.11864,0.0988 0,0.24247 0.0986,-0.0313 0.12009,-0.33361 z m 21.68157,4.92284 c -1.3964,-0.2172 -3.92461,-1.62817 -5.45319,-3.04337 l -0.51941,-0.48088 -0.46386,-0.69714 c -0.25513,-0.38343 -0.46387,-0.76463 -0.46387,-0.84712 0,-0.0825 -0.0699,-0.21158 -0.15542,-0.2869 -0.19676,-0.17335 -0.64673,-1.28676 -0.85742,-2.12162 -0.0888,-0.35199 -0.2071,-1.03909 -0.26282,-1.52689 l -0.10132,-0.88692 0.0556,-0.80642 c 0.0725,-1.05119 0.19098,-1.72257 0.94897,-5.37841 0.8921,-4.30259 1.1531,-5.19227 1.92275,-6.55415 0.19504,-0.34512 0.34192,-0.66897 0.3264,-0.71967 l -0.0282,-0.0922 0.0606,0.0606 0.0606,0.0606 0.14759,-0.18763 c 0.0812,-0.1032 0.14825,-0.20668 0.14906,-0.22996 0.003,-0.088 1.09862,-1.1803 1.58587,-1.58116 1.58603,-1.3048 3.66169,-2.14218 5.969,-2.40805 l 0.80434,-0.0927 0.7106,0.0527 c 0.39083,0.029 0.79317,0.0734 0.89409,0.0988 l 0.18349,0.0461 0.0934,-0.78831 c 0.10369,-0.87473 0.21343,-1.23475 0.39796,-1.30557 l 0.12313,-0.0473 0.23468,0.11292 0.23469,0.11292 0.0691,0.29633 c 0.038,0.16299 0.0708,1.19169 0.0729,2.286 l 0.004,1.98967 -0.0822,0.21167 c -0.0452,0.11641 -0.20094,0.32411 -0.34601,0.46154 l -0.26377,0.24987 -0.35858,-0.13187 -0.35859,-0.13186 0.006,-0.75301 c 0.003,-0.41415 0.0312,-0.9885 0.0616,-1.27632 l 0.0553,-0.52331 -0.44837,-0.056 -0.44838,-0.056 -0.88321,0.0908 c -3.84483,0.39511 -6.88687,2.40397 -8.20327,5.41713 -0.49967,1.14371 -0.70581,1.99957 -1.39962,5.81077 -0.0678,0.37254 -0.21805,1.17444 -0.33386,1.782 -0.60495,3.17382 -0.61811,4.85221 -0.0509,6.48983 0.34426,0.99391 0.45377,1.25317 0.52931,1.25317 0.0364,0 0.0661,0.0408 0.0661,0.0906 0,0.16168 0.5227,0.85571 1.11049,1.47451 l 0.57426,0.60454 -0.20912,0.45138 -0.20913,0.45137 0.12359,0.18862 0.12359,0.18862 0.20336,0.0389 c 0.11185,0.0214 0.28893,0.007 0.39351,-0.0315 l 0.19016,-0.0703 0.0983,-0.2604 0.0983,-0.2604 0.24998,0.05 c 0.13749,0.0275 0.27096,0.078 0.29659,0.11222 0.0624,0.0833 0.46848,0.30422 1.48452,0.80768 l 0.84537,0.41889 0.54361,0.0674 0.5436,0.0674 0.43135,-0.0707 c 1.21919,-0.19976 2.25852,-0.72003 2.91926,-1.46134 0.0726,-0.0815 0.16439,-0.14816 0.20389,-0.14816 0.0395,0 0.25012,-0.14995 0.46802,-0.33321 0.21791,-0.18326 0.57717,-0.41051 0.79836,-0.50499 0.22119,-0.0945 0.40216,-0.20406 0.40216,-0.2435 0,-0.0394 0.0856,-0.16358 0.19022,-0.27588 l 0.19021,-0.20416 -0.0222,-0.51801 -0.0222,-0.518 0.1328,-0.31783 c 0.1799,-0.43055 0.43033,-1.67726 0.55383,-2.75709 l 0.10168,-0.889 -0.0513,-1.26004 c -0.0282,-0.69302 -0.0621,-1.26949 -0.0753,-1.28104 -0.0132,-0.0115 -0.44317,0.0323 -0.9554,0.0974 -0.51224,0.0651 -1.30056,0.12726 -1.75183,0.13804 -0.45127,0.0108 -0.78465,0.0323 -0.74083,0.0478 0.0438,0.0155 0.0797,0.0639 0.0797,0.10745 v 0.0792 l -0.21167,-0.0531 c -0.11642,-0.0292 -0.21167,-0.0352 -0.21167,-0.0132 0,0.022 0.0393,0.24518 0.0873,0.49601 0.048,0.25083 0.09,0.65133 0.0933,0.89 l 0.006,0.43394 -0.0957,0.17889 -0.0957,0.17889 -0.20134,0.0505 -0.20134,0.0505 -0.17116,-0.0916 -0.17116,-0.0916 -0.0908,-0.44476 c -0.26581,-1.30261 -0.43767,-4.23434 -0.29117,-4.96685 l 0.0535,-0.26759 0.15201,-0.0814 0.15202,-0.0814 0.13083,0.0502 0.13083,0.0502 0.0396,0.26699 c 0.0218,0.14685 0.0993,0.68324 0.17234,1.19198 0.073,0.50874 0.14459,0.93685 0.15908,0.95134 0.0145,0.0145 1.03335,-0.20372 2.26413,-0.48492 2.45519,-0.56095 3.05143,-0.68515 4.4391,-0.92466 0.51223,-0.0884 1.05112,-0.18593 1.19752,-0.2167 l 0.26619,-0.0559 -0.0449,-0.99767 -0.0449,-0.99768 0.20489,-0.13425 0.20489,-0.13424 0.31143,0.0956 0.31143,0.0956 0.0825,0.43129 c 0.27467,1.43561 0.78878,4.83286 0.79987,5.28547 l 0.0131,0.53618 -0.19988,0.16232 -0.19988,0.16233 h -0.285 -0.285 l -0.12451,-0.1905 -0.1245,-0.1905 -0.13293,-0.93134 c -0.0731,-0.51223 -0.15277,-1.01999 -0.17703,-1.12835 l -0.0441,-0.19702 -0.38272,0.0519 c -0.2105,0.0285 -0.8419,0.10554 -1.40311,0.17109 -0.56121,0.0656 -1.03893,0.13775 -1.06161,0.16042 -0.0227,0.0227 0.005,0.37838 0.0612,0.79048 l 0.10239,0.74925 -0.0401,1.60611 -0.0401,1.60611 -0.17919,0.97442 c -0.33121,1.801 -0.72831,2.69188 -1.72526,3.87052 -0.9367,1.10741 -2.23147,2.17541 -3.16249,2.60861 -0.236,0.10981 -0.71225,0.2785 -1.05834,0.37487 l -0.62924,0.17521 -0.84667,0.0341 c -0.46567,0.0188 -0.96097,0.0163 -1.10067,-0.005 z M 42.386128,137.52997 c -0.305675,-0.0262 -3.16625,-0.41322 -3.573409,-0.48346 l -0.229075,-0.0395 0.05168,0.13467 0.05168,0.13467 -0.216435,-0.14182 -0.216436,-0.14181 -0.785112,-0.0812 -0.785112,-0.0812 -0.260387,-0.15438 -0.260387,-0.15437 0.0151,-0.41135 0.0151,-0.41134 0.195092,-0.14716 0.195092,-0.14716 0.678809,-0.0929 0.67881,-0.0929 0.846666,0.0234 0.846667,0.0234 0.09791,-2.20133 c 0.121681,-2.73569 0.134952,-6.47859 0.03107,-8.763 -0.148848,-3.27328 -0.368531,-6.64637 -0.438021,-6.72555 l -0.06952,-0.0792 -1.109246,0.10389 -1.109246,0.10389 -2.172809,0.42425 c -1.195045,0.23334 -2.414386,0.44714 -2.709646,0.47512 l -0.536837,0.0509 0.04997,0.34687 c 0.09778,0.67874 0.304035,3.04845 0.304035,3.49314 v 0.45207 l -0.169333,0.16933 c -0.216607,0.21661 -0.461945,0.21539 -0.680715,-0.003 -0.307388,-0.30739 -0.294612,-0.22397 -0.589542,-3.84895 -0.04547,-0.5588 -0.08306,-1.1961 -0.08354,-1.41621 l -8.74e-4,-0.40022 0.207521,-0.13597 0.207521,-0.13598 0.181954,0.0577 0.181953,0.0577 0.1688,0.3816 0.1688,0.3816 0.224892,-0.0491 c 0.123691,-0.027 0.739242,-0.18788 1.367892,-0.35753 0.62865,-0.16964 1.27635,-0.33772 1.439334,-0.3735 1.813,-0.39803 2.528104,-0.5426 3.174999,-0.64188 l 0.762,-0.11696 1.016,-4.7e-4 c 1.317745,-6.2e-4 5.501065,0.21901 6.265333,0.32893 0.325967,0.0469 0.878417,0.1467 1.227667,0.22182 0.34925,0.0751 0.99695,0.15597 1.439333,0.17966 l 0.804333,0.0431 1.820334,-0.39556 c 1.001183,-0.21756 2.018675,-0.4158 2.261093,-0.44054 0.48223,-0.0492 1.095284,0.0194 1.294906,0.14479 l 0.127,0.0798 -0.184431,0.12994 -0.184432,0.12994 0.07538,0.26284 c 0.09272,0.32329 0.222017,1.50506 0.339211,3.10033 l 0.08854,1.20527 -0.100979,0.19173 c -0.130804,0.24836 -0.238244,0.31584 -0.50537,0.31743 l -0.218075,10e-4 -0.205259,-0.21832 -0.205258,-0.21831 -0.02689,-1.94069 c -0.01479,-1.06737 -0.0499,-1.94068 -0.07802,-1.94068 -0.02812,0 -0.291875,0.0963 -0.586114,0.21402 -0.551885,0.22079 -2.144537,0.64005 -3.028688,0.7973 -0.276311,0.0491 -0.793731,0.0893 -1.149823,0.0893 h -0.64744 l -0.882177,-0.16338 c -0.485197,-0.0899 -1.244127,-0.24078 -1.68651,-0.33537 l -0.804334,-0.17198 -1.566333,-0.13435 c -0.861483,-0.0739 -1.775883,-0.16672 -2.032,-0.20629 -0.256116,-0.0396 -0.470362,-0.0663 -0.476101,-0.0595 -0.0057,0.007 0.05957,0.8507 0.145143,1.87517 0.08557,1.02446 0.223613,2.81516 0.306768,3.97933 l 0.15119,2.11667 -0.0083,4.92309 -0.0083,4.9231 0.600936,0.0543 c 0.330514,0.0299 0.998462,0.0716 1.484328,0.0926 0.485865,0.0211 0.94316,0.0573 1.016209,0.0805 0.198555,0.063 0.355065,0.36184 0.417936,0.79796 l 0.05609,0.38908 -0.213147,0.17297 c -0.117231,0.0951 -0.319547,0.23994 -0.449591,0.32181 l -0.236444,0.14886 -0.652556,-0.0236 c -0.358906,-0.013 -0.785906,-0.035 -0.948889,-0.049 z m 40.071484,-0.11302 c -0.09689,-0.0358 -0.197905,-0.10035 -0.224482,-0.14335 l -0.04832,-0.0782 -1.42475,0.0411 -1.42475,0.0411 -0.141992,-0.142 c -0.0781,-0.0781 -0.187176,-0.2928 -0.242401,-0.47712 l -0.100408,-0.33514 0.09429,-0.20694 c 0.05186,-0.11381 0.181748,-0.26398 0.288644,-0.33371 l 0.194355,-0.12677 1.058333,-0.13593 c 0.582084,-0.0748 1.143523,-0.15368 1.247643,-0.17536 l 0.189309,-0.0394 -0.03951,-0.61251 c -0.02173,-0.33689 -0.0594,-1.81267 -0.08372,-3.27952 -0.07678,-4.63179 -0.147151,-6.98278 -0.211123,-7.05311 l -0.06195,-0.0681 -4.30916,-0.0143 -4.30916,-0.0143 -1.925278,0.30021 c -1.058904,0.16511 -1.941525,0.31648 -1.961381,0.33637 -0.01985,0.0199 -0.04883,1.80914 -0.06439,3.97611 l -0.02829,3.93994 0.137883,0.20872 c 0.07584,0.1148 0.230177,0.30728 0.34298,0.42774 l 0.205097,0.21901 0.503687,0.0533 c 0.277027,0.0293 0.68434,0.11522 0.90514,0.19087 l 0.401454,0.13754 0.391744,0.37004 0.391745,0.37004 -0.05962,0.31782 c -0.03279,0.1748 -0.112177,0.41945 -0.176409,0.54366 l -0.116786,0.22584 -0.200633,0.0503 c -0.239414,0.0601 -0.568872,-0.0262 -1.063209,-0.27835 l -0.36411,-0.18576 -0.684314,-0.12031 c -0.376372,-0.0662 -1.259188,-0.15959 -1.961812,-0.20759 -1.777214,-0.12142 -2.918673,-0.2454 -3.267166,-0.35485 -0.319929,-0.10049 -0.68966,-0.32298 -0.536714,-0.32298 0.0515,0 0.113438,-0.0757 0.137646,-0.16832 l 0.04401,-0.16831 0.230815,-0.0878 c 0.26721,-0.10159 2.257526,-0.3356 2.864613,-0.3368 l 0.412041,-8.1e-4 -0.05619,-0.1905 c -0.0309,-0.10478 -0.09709,-0.44763 -0.147086,-0.76189 l -0.0909,-0.57139 0.190654,-3.11161 0.190654,-3.11161 -0.053,-2.159 c -0.05346,-2.1779 -0.16207,-3.71884 -0.480084,-6.81134 l -0.173688,-1.68901 -0.09755,-0.11754 -0.09755,-0.11755 -0.01756,-0.69111 -0.01756,-0.69112 -1.357822,-0.0118 -1.357822,-0.0118 -0.259122,-0.18451 -0.259121,-0.18451 0.0013,-0.22707 c 7.13e-4,-0.12489 0.02929,-0.26916 0.0635,-0.32061 0.118918,-0.17882 1.151899,-0.34387 4.206696,-0.67212 l 1.265827,-0.13602 0.512173,0.0582 0.512174,0.0582 0.359833,0.37297 0.359834,0.37296 v 0.17632 0.17631 l -0.297047,0.29705 -0.297046,0.29704 -0.316787,-0.0522 c -0.174233,-0.0287 -0.730502,-0.076 -1.236153,-0.1051 l -0.919365,-0.0529 0.05116,0.24409 c 0.05796,0.27653 0.387019,2.45182 0.63889,4.22342 0.299692,2.10795 0.414979,3.10599 0.520796,4.5085 l 0.103804,1.37583 h 0.1632 c 0.08976,0 0.89348,-0.16898 1.786043,-0.37553 0.892563,-0.20654 2.041942,-0.43642 2.554175,-0.51085 1.210234,-0.17586 3.722467,-0.29552 6.244166,-0.29743 l 2.010834,-0.002 0.01049,-2.3495 c 0.0058,-1.29222 0.02303,-2.53162 0.03836,-2.75421 l 0.02788,-0.40471 -0.101864,0.0611 -0.101864,0.0611 0.106266,-0.13128 0.106267,-0.13129 -0.151054,-0.20247 -0.151053,-0.20247 -0.0259,-0.47699 -0.0259,-0.477 0.179535,-0.63982 0.179535,-0.63983 -0.02418,-0.87139 -0.02418,-0.87139 -1.121221,-0.10116 c -1.302114,-0.11748 -2.018529,-0.2489 -2.286612,-0.41945 l -0.1905,-0.1212 v -0.20777 -0.20776 l 0.1905,-0.12057 0.1905,-0.12057 0.846666,-0.0925 c 1.172389,-0.12815 3.538601,-0.26109 4.664711,-0.26207 l 0.939378,-8.2e-4 0.136893,0.15127 c 0.07529,0.0832 0.198269,0.29815 0.273283,0.47769 l 0.136389,0.32642 -0.04835,0.19265 -0.04835,0.19265 -0.317642,0.19749 -0.317642,0.1975 -0.955532,-0.022 -0.955532,-0.022 0.04444,0.40304 c 0.04607,0.41785 0.152643,3.84855 0.303139,9.7587 0.04802,1.88595 0.123804,4.17195 0.1684,5.08 0.0446,0.90805 0.119653,2.47015 0.166794,3.47134 0.04714,1.00118 0.103288,2.14418 0.124773,2.54 0.02149,0.39581 0.04044,0.82444 0.04212,0.9525 l 0.0031,0.23283 h 0.447878 c 0.246333,0 0.655908,-0.0526 0.910166,-0.11696 0.254259,-0.0643 0.60583,-0.14237 0.781268,-0.17344 l 0.31898,-0.0565 0.461735,0.15229 0.461734,0.15228 0.05323,0.35202 c 0.06766,0.44749 -0.01329,0.8177 -0.219662,1.00446 -0.08896,0.0805 -0.420174,0.22052 -0.736035,0.31115 l -0.574293,0.16477 -0.931333,0.0466 -0.931333,0.0466 -0.169333,0.14993 c -0.09313,0.0825 -0.343338,0.18604 -0.55601,0.23017 l -0.386677,0.0802 z m -0.87082,-20.77803 c 0,-0.0233 -0.01905,-0.0423 -0.04233,-0.0423 -0.02328,0 -0.04233,0.019 -0.04233,0.0423 0,0.0233 0.01905,0.0423 0.04233,0.0423 0.02328,0 0.04233,-0.019 0.04233,-0.0423 z m 0.169333,-0.0847 c 0,-0.0233 -0.01905,-0.0423 -0.04233,-0.0423 -0.02328,0 -0.04233,0.019 -0.04233,0.0423 0,0.0233 0.01905,0.0423 0.04233,0.0423 0.02328,0 0.04233,-0.0191 0.04233,-0.0423 z m 0,-0.513 v -0.386 l -0.08467,0.0523 c -0.14567,0.09 -0.09629,0.71967 0.05644,0.71967 0.01552,0 0.02822,-0.1737 0.02822,-0.386 z m -0.02822,-0.60178 c -0.03104,-0.0311 -0.05644,-0.006 -0.05644,0.0564 0,0.0621 0.0254,0.0875 0.05644,0.0564 0.03105,-0.031 0.03105,-0.0819 0,-0.11289 z m -43.321109,21.94278 c 0,-0.0233 0.01905,-0.0423 0.04233,-0.0423 0.02328,0 0.04233,0.019 0.04233,0.0423 0,0.0233 -0.01905,0.0423 -0.04233,0.0423 -0.02328,0 -0.04233,-0.019 -0.04233,-0.0423 z m 60.383068,-1.18509 c -0.138191,-0.11628 -0.273621,-0.30053 -0.300956,-0.40944 l -0.0497,-0.19802 -0.488707,-0.10479 c -0.268789,-0.0576 -0.780175,-0.18134 -1.136415,-0.27489 l -0.647707,-0.17009 -0.177792,-0.16564 -0.177793,-0.16564 v -0.2797 -0.27971 l 0.288034,-0.15511 0.288034,-0.15512 1.045394,0.0915 1.045393,0.0915 0.06228,-0.0979 c 0.03425,-0.0538 0.06578,-0.28836 0.07005,-0.5212 0.0043,-0.23283 0.02453,-0.49953 0.04502,-0.59266 0.03515,-0.15983 0.06748,-1.01399 0.304463,-8.04334 0.05338,-1.58326 0.104444,-4.5422 0.113484,-6.57541 l 0.01644,-3.69675 -0.602124,-0.0557 c -0.331167,-0.0306 -1.134916,-0.1314 -1.786109,-0.22389 l -1.183986,-0.16818 -0.157356,-0.1424 c -0.08655,-0.0783 -0.193083,-0.20917 -0.23675,-0.29076 l -0.07939,-0.14835 0.131744,-0.25476 0.131744,-0.25477 3.574992,-0.0187 c 1.966249,-0.0103 3.822639,-0.007 4.125329,0.007 l 0.55033,0.0254 0.13502,0.12159 c 0.17381,0.15652 0.35521,0.70596 0.31755,0.96185 l -0.0292,0.19863 -0.24008,0.17783 -0.24009,0.17782 -1.61078,-0.0125 -1.61079,-0.0125 0.0437,1.15554 c 0.0241,0.63554 0.0883,1.78418 0.1428,2.55253 l 0.0991,1.397 -0.0908,5.842 -0.0908,5.842 -0.0977,1.3377 -0.0977,1.3377 0.077,0.077 c 0.1181,0.1181 1.87561,0.26239 3.31117,0.27184 l 1.28833,0.008 0.32034,0.17911 0.32033,0.1791 0.0258,0.30695 c 0.0142,0.16882 -0.007,0.43425 -0.0475,0.58983 l -0.0733,0.28289 -0.41814,0.15817 -0.41814,0.15817 -1.27,-0.0571 c -0.6985,-0.0314 -1.72184,-0.1231 -2.2741,-0.20372 l -1.0041,-0.1466 -0.04529,0.11802 c -0.04118,0.10731 -0.697612,0.4402 -0.868033,0.4402 -0.03913,0 -0.184216,-0.0951 -0.322406,-0.21142 z m -26.572847,-1.53836 c 0.03104,-0.031 0.08184,-0.031 0.112889,0 0.03104,0.0311 0.0056,0.0565 -0.05644,0.0565 -0.06209,0 -0.08749,-0.0254 -0.05644,-0.0565 z m 61.693773,-3.71122 c 0,-0.0233 0.0191,-0.0423 0.0423,-0.0423 0.0233,0 0.0423,0.019 0.0423,0.0423 0,0.0233 -0.0191,0.0423 -0.0423,0.0423 -0.0233,0 -0.0423,-0.0191 -0.0423,-0.0423 z m 26.07733,-3.048 c 0,-0.0233 0.019,-0.0423 0.0423,-0.0423 0.0233,0 0.0423,0.0191 0.0423,0.0423 0,0.0233 -0.019,0.0423 -0.0423,0.0423 -0.0233,0 -0.0423,-0.019 -0.0423,-0.0423 z m -120.454221,-17.99231 -0.185228,-0.0746 -0.08755,-0.31706 -0.08754,-0.31706 -0.05846,-2.9588 -0.05846,-2.9588 -0.155603,-0.0407 c -0.204659,-0.0535 -0.198055,-0.16539 0.01373,-0.23261 l 0.169334,-0.0537 0.0049,-1.5818 c 0.0027,-0.86998 0.03171,-1.734192 0.0645,-1.920459 l 0.05962,-0.338666 0.224563,-0.02609 0.224563,-0.02609 0.05451,0.195422 c 0.09693,0.347524 0.333997,0.871073 0.423359,0.934963 l 0.087,0.0622 -0.141111,0.001 c -0.07761,7.1e-4 -0.163669,-0.0463 -0.191239,-0.10454 -0.02757,-0.0582 -0.03094,0.27517 -0.0075,0.74083 0.02345,0.46567 0.04283,1.06213 0.04307,1.32548 l 4.38e-4,0.4788 0.486834,-0.0422 0.486833,-0.0422 1.248176,0.17721 1.248177,0.17722 h 1.062559 1.06256 l 0.652597,-0.13463 c 0.662112,-0.13659 1.495252,-0.39533 1.880264,-0.58393 0.116417,-0.057 0.706966,-0.34249 1.312333,-0.63435 1.494784,-0.72066 2.174203,-1.12625 2.739589,-1.635428 0.864037,-0.778136 1.643274,-2.024735 1.916109,-3.065332 l 0.133193,-0.508 0.05201,-0.940063 0.05201,-0.940063 -0.108255,-0.710937 C 53.951253,92.469057 53.498772,91.543419 52.633612,90.698362 51.985306,90.065121 51.400687,89.654159 50.389426,89.1208 49.126244,88.454572 47.460522,87.986959 43.458985,87.175237 40.339688,86.54248 39.078654,86.113191 37.729469,85.224763 L 36.925136,84.695115 36.484949,84.241551 C 35.909592,83.64871 35.77476,83.468763 35.413637,82.81178 l -0.301708,-0.548891 -0.139547,-0.592117 -0.139546,-0.592118 0.04415,-1.397 0.04415,-1.397 0.143285,-0.804333 c 0.169645,-0.952306 0.485022,-1.994218 0.781648,-2.582334 0.245983,-0.487704 0.987337,-1.494744 1.365198,-1.854456 0.142005,-0.135184 0.237664,-0.279003 0.212575,-0.319597 -0.02509,-0.04059 -0.01018,-0.06334 0.03314,-0.05054 0.04332,0.0128 0.347423,-0.205336 0.675793,-0.484736 2.186857,-1.860731 5.394809,-3.520997 8.275037,-4.282719 l 0.931333,-0.246306 0.905792,-0.101474 0.905793,-0.101473 -0.01679,-1.920812 -0.01679,-1.920813 0.155595,-0.173076 0.155595,-0.173076 0.170543,0.03284 c 0.0938,0.01806 0.218073,0.07229 0.276164,0.1205 l 0.10562,0.08766 0.05698,0.952708 c 0.03134,0.523989 0.169259,2.095707 0.306484,3.492707 0.137225,1.397 0.268318,2.751293 0.291318,3.00954 l 0.04182,0.46954 -0.166712,0.274137 c -0.09169,0.150775 -0.224329,0.296245 -0.294749,0.323268 l -0.128036,0.04913 -0.245216,-0.101572 -0.245216,-0.101572 -0.08426,-0.22557 c -0.04634,-0.124063 -0.124204,-0.92564 -0.17303,-1.781281 -0.04883,-0.855641 -0.105168,-1.572104 -0.125204,-1.59214 -0.05979,-0.05979 -2.240618,0.474103 -3.052825,0.747365 -1.553548,0.522683 -3.327179,1.407874 -4.875223,2.433145 -1.86456,1.234901 -3.169283,2.418384 -3.899787,3.537404 l -0.398128,0.609872 -0.262293,0.831032 -0.262293,0.831033 -0.12504,0.889 c -0.06877,0.48895 -0.150188,1.28905 -0.180926,1.778 l -0.05589,0.889 0.128151,0.486856 c 0.137007,0.520503 0.406643,1.028538 0.793683,1.49542 0.388595,0.468759 1.442414,1.263172 2.135228,1.609625 1.197491,0.598827 1.838675,0.777244 4.771953,1.327855 2.85603,0.53611 4.12847,0.830863 5.524349,1.279684 1.988785,0.63946 3.728009,1.707593 4.765513,2.92671 l 0.447513,0.525849 0.328625,0.677334 c 0.395109,0.814367 0.537062,1.229939 0.724027,2.119623 l 0.141718,0.674376 0.04589,1.016 0.04589,1.016 -0.09631,0.719667 c -0.133283,0.995909 -0.127522,0.973314 -0.455621,1.786987 -0.6183,1.533359 -1.886386,2.997309 -3.322575,3.835779 -0.697021,0.40693 -2.890748,1.48814 -3.302,1.62744 -0.04657,0.0158 -0.410358,0.14221 -0.808425,0.28096 -0.398067,0.13876 -1.083867,0.31504 -1.524,0.39174 l -0.800241,0.13945 -1.227667,-0.0446 -1.227666,-0.0446 -0.973667,-0.18286 c -0.535516,-0.10057 -1.238386,-0.27409 -1.561931,-0.3856 -0.323546,-0.11151 -0.602544,-0.18846 -0.619994,-0.17101 -0.03359,0.0336 0.117009,3.70815 0.205105,5.00447 l 0.05205,0.76584 -0.144327,0.14432 c -0.157597,0.1576 -0.328276,0.174 -0.613793,0.059 z m -0.788438,-6.30698 c 0,-0.0233 0.01905,-0.0423 0.04233,-0.0423 0.02328,0 0.04233,0.0191 0.04233,0.0423 0,0.0233 -0.01905,0.0423 -0.04233,0.0423 -0.02328,0 -0.04233,-0.019 -0.04233,-0.0423 z m 124.723879,-1.89512 -0.17922,-0.17922 v -0.19807 -0.19808 l 0.21565,-0.0983 c 0.11861,-0.054 0.35673,-0.101 0.52917,-0.10436 0.17243,-0.003 0.80881,-0.10813 1.41418,-0.23283 l 1.10067,-0.22673 0.0664,-2.582332 c 0.0365,-1.420283 0.0746,-5.496983 0.0847,-9.059333 l 0.0182,-6.476999 -0.14695,-1.905 c -0.34495,-4.471804 -0.58837,-7.165547 -0.6618,-7.323666 l -0.0786,-0.169334 0.0204,0.486949 c 0.0229,0.548275 -0.071,0.652479 -0.15253,0.169218 -0.0295,-0.174625 -0.071,-0.381432 -0.0923,-0.459571 l -0.0387,-0.142071 -1.81113,-0.0068 -1.81114,-0.0068 -0.0536,0.08675 -0.0536,0.08675 -0.0883,-0.05456 -0.0883,-0.05456 -0.0717,0.115973 -0.0717,0.115972 -0.10154,-0.101537 -0.10153,-0.101537 0.10067,-0.121309 c 0.17112,-0.206181 0.86839,-0.460325 1.76334,-0.642703 0.47095,-0.09597 0.91851,-0.174498 0.99457,-0.174498 0.0761,0 0.24415,-0.07826 0.37353,-0.173915 l 0.23523,-0.173915 0.52334,-0.09946 0.52334,-0.09946 v -0.144257 -0.144256 l 0.18405,-0.05841 0.18405,-0.05841 0.11067,0.151354 0.11067,0.151354 0.91178,-0.09877 c 0.50148,-0.05432 1.54043,-0.09868 2.30878,-0.09857 2.57682,3.56e-4 4.51967,0.258534 8.57243,1.139157 1.59031,0.345559 2.08196,0.393325 4.6779,0.45448 l 2.45534,0.05784 0.29633,0.17326 0.29633,0.17326 0.026,0.307822 0.0259,0.307822 -0.17412,0.09318 -0.17411,0.09318 v 1.200825 1.200826 l 0.14061,1.129057 0.14062,1.129058 -0.13,0.13 -0.13,0.129999 -0.27394,0.01364 -0.27394,0.01364 -0.16814,-0.221582 -0.16814,-0.221582 -0.013,-1.852751 c -0.007,-1.019013 0.0156,-1.986102 0.0505,-2.149085 l 0.0636,-0.296333 -0.69857,0.0301 c -0.69722,0.03004 -2.59614,-0.09033 -3.95824,-0.250899 -0.39581,-0.04666 -1.71026,-0.328961 -2.921,-0.627333 -2.36314,-0.582373 -3.46409,-0.812642 -4.86833,-1.01824 l -0.889,-0.130161 -1.59197,-0.05151 -1.59197,-0.05151 -0.22837,0.271594 -0.22836,0.271593 -0.33866,0.07766 c -0.18627,0.04272 -0.48227,0.07857 -0.65778,0.07968 l -0.31912,0.002 0.0419,0.1905 c 0.30136,1.368935 1.02132,8.600661 1.11685,11.218333 l 0.0564,1.545166 0.60053,7.24e-4 c 1.16631,0.0014 2.58182,0.158189 5.42652,0.601045 0.60537,0.09424 1.51024,0.197954 2.01083,0.230472 l 0.91017,0.05912 V 85.97512 85.196282 l 0.0826,-0.217178 0.0826,-0.217178 h 0.16106 c 0.0886,0 0.20823,0.05683 0.26587,0.12628 l 0.1048,0.12628 0.24723,2.434886 0.24723,2.434887 -0.0932,0.550333 -0.0932,0.550333 -0.22195,0.232834 -0.22194,0.232833 h -0.1577 c -0.0867,0 -0.27011,-0.05813 -0.40749,-0.129174 l -0.2498,-0.129175 v -0.241486 c 0,-0.132817 0.0572,-0.378265 0.127,-0.545439 l 0.127,-0.303954 v -1.145719 -1.14572 h -0.32758 c -0.40419,0 -1.22969,-0.140852 -3.94809,-0.673649 -1.8722,-0.366944 -4.56968,-0.753886 -4.65573,-0.667841 -0.0172,0.0172 0.003,1.84054 0.0444,4.051877 0.0416,2.211337 0.077,5.204888 0.0787,6.652335 0.002,1.447447 0.0231,2.651866 0.0477,2.676486 0.0246,0.02462 0.26275,-0.0064 0.52917,-0.06888 0.26642,-0.06251 1.0178,-0.178373 1.66973,-0.257481 l 1.18534,-0.143834 3.429,-0.003 3.429,-0.003 2.83633,0.110443 c 1.55998,0.06074 3.04245,0.130172 3.29437,0.154284 l 0.45804,0.04384 -0.0508,-2.595737 -0.0508,-2.595736 0.238,-0.266364 0.23799,-0.266364 0.34824,0.104334 0.34824,0.104335 0.097,0.181323 0.097,0.181323 -0.0568,2.292192 c -0.0312,1.260706 -0.0784,2.452767 -0.10483,2.649025 l -0.048,0.356833 0.29793,0.142074 0.29794,0.142077 0.0352,0.39009 0.0352,0.39009 -0.21815,0.18748 c -0.11998,0.10311 -0.35082,0.21378 -0.51297,0.24594 l -0.29484,0.0585 -1.0175,-0.14455 -1.0175,-0.14455 -2.87867,-0.10139 c -1.58326,-0.0558 -4.57411,-0.1014 -6.64633,-0.1014 h -3.76767 l -0.73328,0.11351 -0.73328,0.11351 -0.19164,0.20399 -0.19165,0.20399 -0.72607,0.003 c -0.39934,10e-4 -1.12613,0.0613 -1.61508,0.13301 -0.48895,0.0717 -1.21792,0.15112 -1.61995,0.17653 l -0.73095,0.0462 z m -18.66372,-0.22765 -0.32048,-0.21777 -1.77372,0.0607 -1.77372,0.0607 0.0952,0.11477 c 0.12238,0.14745 0.0349,0.14654 -0.20363,-0.002 -0.10314,-0.0643 -0.36364,-0.13908 -0.57891,-0.16623 -0.21526,-0.0271 -0.49148,-0.095 -0.61383,-0.15072 l -0.22245,-0.10136 10e-4,-0.13458 c 7.1e-4,-0.074 0.0339,-0.18604 0.0738,-0.24896 l 0.0725,-0.11438 0.96338,-0.10745 c 1.81952,-0.20295 3.29172,-0.42216 3.29172,-0.490152 0,-0.03744 -0.061,-0.20972 -0.13563,-0.382849 -0.51643,-1.198583 -0.8266,-2.44243 -1.17635,-4.717447 -0.1217,-0.791634 -0.42819,-2.487084 -0.68108,-3.767667 -0.50608,-2.56264 -0.70765,-3.764019 -0.97309,-5.799666 -0.18406,-1.411489 -0.63317,-4.121534 -1.33998,-8.085666 -0.22833,-1.280584 -0.4639,-2.661709 -0.52348,-3.069167 -0.0596,-0.407458 -0.13554,-0.740833 -0.1688,-0.740833 -0.0333,0 -0.18187,0.447675 -0.33024,0.994833 -0.39441,1.454481 -0.7379,2.551172 -1.99549,6.371166 -1.2987,3.944891 -1.90453,5.972918 -1.90453,6.375463 v 0.119811 l 0.35162,0.07553 0.35162,0.07553 0.11491,0.332777 0.1149,0.332777 -0.0514,0.161786 -0.0513,0.161785 -0.27015,0.112877 -0.27015,0.112876 -0.50486,-0.03496 c -0.27767,-0.01923 -1.07635,-0.0756 -1.77485,-0.125257 l -1.27,-0.09029 -0.508,-0.128582 c -0.2794,-0.07072 -0.59373,-0.183805 -0.6985,-0.2513 l -0.1905,-0.122719 V 87.686679 87.48267 l 0.1731,-0.05494 c 0.0952,-0.03022 0.72385,-0.02766 1.397,0.0057 l 1.2239,0.06062 -4.6e-4,-0.11722 c -9.9e-4,-0.257216 -1.08757,-2.989383 -1.88172,-4.731554 -1.19524,-2.622033 -2.15662,-5.251868 -2.73697,-7.486924 l -0.24025,-0.925257 -0.0671,0.247924 c -0.30905,1.141165 -0.70625,3.117811 -0.96005,4.777591 -0.28003,1.831345 -0.83004,4.733272 -1.47633,7.789332 -0.1428,0.675217 -0.35185,1.665817 -0.46457,2.201334 -0.11271,0.535516 -0.32337,1.526116 -0.46813,2.201333 -0.14476,0.675216 -0.43065,2.027766 -0.63531,3.005666 -0.20465,0.9779 -0.45062,2.112851 -0.54658,2.522112 -0.096,0.409262 -0.17448,0.774629 -0.17448,0.811928 0,0.08881 1.44061,0.264293 2.16965,0.264293 h 0.57088 l 0.36684,0.177581 c 0.20175,0.09767 0.40494,0.248789 0.45152,0.335821 l 0.0847,0.158239 -0.0561,0.351167 -0.0562,0.351166 -0.17949,0.208661 -0.17948,0.208661 -0.67598,0.04597 -0.67599,0.04597 -0.55033,-0.09178 c -0.30269,-0.05048 -0.96944,-0.16997 -1.48167,-0.265531 -0.51223,-0.09556 -1.5741,-0.250506 -2.35971,-0.344322 -0.78561,-0.09382 -1.49459,-0.206007 -1.57551,-0.249316 -0.0809,-0.04331 -0.21285,-0.179041 -0.29317,-0.301627 l -0.14604,-0.222885 0.10494,-0.253343 0.10493,-0.253342 0.21962,-0.09516 0.21961,-0.09516 1.64373,-0.01951 1.64374,-0.01951 0.32688,-1.931374 c 0.36228,-2.140432 1.03598,-5.788371 1.67795,-9.085706 0.7355,-3.777651 1.08573,-5.745364 1.39398,-7.831666 0.16512,-1.1176 0.41778,-2.5273 0.56148,-3.132667 0.14369,-0.605367 0.3135,-1.329267 0.37733,-1.608666 0.0638,-0.2794 0.22484,-0.938358 0.35776,-1.464351 l 0.24169,-0.956351 -0.0362,-0.246318 -0.0362,-0.246318 -0.35078,-0.03989 c -0.19293,-0.02194 -0.90023,-0.07971 -1.57176,-0.128372 l -1.22098,-0.08848 -0.0814,-0.08143 -0.0814,-0.08143 0.0477,-0.124254 0.0477,-0.124253 0.32339,-0.05057 c 0.77561,-0.121288 2.9368,-0.218692 4.86951,-0.219466 l 2.09078,-8.38e-4 0.2292,0.197157 0.22921,0.197157 -0.0573,0.22833 c -0.0315,0.125582 -0.13805,0.309069 -0.23673,0.40775 l -0.17942,0.179419 -1.06726,-0.05191 c -0.58699,-0.02855 -1.21534,-0.07799 -1.39632,-0.109859 l -0.32905,-0.05795 0.0596,0.41512 c 0.0902,0.628486 0.53473,2.398538 0.91218,3.632453 0.72904,2.383232 1.55521,4.457287 2.86669,7.196666 0.33441,0.6985 0.70297,1.47955 0.81902,1.735667 l 0.21101,0.465666 0.20475,-0.635 c 0.11261,-0.34925 0.63964,-1.94945 1.17117,-3.556 1.20102,-3.630082 1.72861,-5.353502 2.5401,-8.297332 0.42693,-1.548787 0.78052,-2.664915 0.96562,-3.048024 l 0.15383,-0.318402 -1.23626,-0.03645 -1.23626,-0.03644 -0.1905,-0.103655 -0.1905,-0.103655 v -0.205289 -0.205289 l 0.3175,-0.08599 c 0.74903,-0.202856 6.17835,-0.601478 6.63415,-0.487081 l 0.20439,0.0513 0.15071,0.255127 0.15071,0.255127 -0.13216,0.255561 c -0.0727,0.140559 -0.22863,0.318777 -0.34655,0.39604 l -0.2144,0.140479 -1.26551,-0.04864 c -0.69603,-0.02675 -1.2655,-0.03831 -1.2655,-0.02569 0,0.01262 0.0528,0.133575 0.11723,0.268788 l 0.11724,0.245841 0.051,0.720711 c 0.0898,1.267421 0.69699,5.078689 1.40948,8.846622 0.18491,0.9779 0.37307,1.98755 0.41813,2.243667 0.0451,0.256116 0.14071,0.789516 0.21256,1.185333 0.0719,0.395817 0.26491,1.672167 0.42902,2.836333 0.36895,2.617107 0.45666,3.131251 0.96772,5.672667 0.22475,1.1176 0.49159,2.546349 0.59298,3.174999 0.35053,2.173253 0.58623,3.347004 0.80692,4.018263 0.32756,0.996343 0.72196,1.906386 0.83341,1.923025 0.0539,0.008 0.74563,0.0176 1.53726,0.0212 l 1.43934,0.007 0.32791,0.16275 0.32792,0.16276 0.1235,0.29556 0.12349,0.29557 -0.10512,0.19642 c -0.0578,0.10803 -0.18008,0.27687 -0.27169,0.3752 l -0.16657,0.17879 -0.26439,-0.0498 c -0.14541,-0.0274 -0.86115,-0.0909 -1.59053,-0.14101 l -1.32614,-0.0912 -0.25715,0.13298 c -0.35409,0.1831 -0.51364,0.16782 -0.8854,-0.0848 z m -93.190826,-1.34857 c 0,-0.0233 0.01905,-0.0423 0.04233,-0.0423 0.02328,0 0.04233,0.019 0.04233,0.0423 0,0.0233 -0.01905,0.0423 -0.04233,0.0423 -0.02328,0 -0.04233,-0.0191 -0.04233,-0.0423 z m 37.126331,-0.840928 c -0.512233,-0.110689 -1.140883,-0.275757 -1.397,-0.366817 -0.256117,-0.09106 -0.494002,-0.171396 -0.528634,-0.178524 -0.10721,-0.02206 -0.678574,-0.278919 -1.122366,-0.504558 -0.973562,-0.494991 -2.811862,-1.951523 -3.623889,-2.871299 -1.174714,-1.330589 -2.030561,-3.352704 -2.481703,-5.863535 l -0.144521,-0.804334 -3.31e-4,-1.481666 -3.3e-4,-1.481667 0.149625,-1.058333 c 0.387697,-2.742279 1.246302,-4.876506 2.642743,-6.569047 0.685341,-0.83066 1.553406,-1.825037 1.553406,-1.779442 0,0.02082 0.142875,-0.103392 0.3175,-0.276031 0.443289,-0.438247 1.233751,-1.098264 1.883833,-1.572955 0.692811,-0.505892 0.689559,-0.501994 0.359834,-0.431354 l -0.275167,0.05895 v -0.08102 c 0,-0.158288 0.982758,-0.892482 1.566333,-1.17017 l 0.592667,-0.282013 0.635,-0.09457 c 0.34925,-0.05201 0.904026,-0.168211 1.232835,-0.258218 0.32881,-0.09001 0.788724,-0.186255 1.022032,-0.213887 l 0.424196,-0.05024 0.278779,0.144162 0.27878,0.144163 -0.230989,0.119838 c -0.127044,0.06591 -0.293309,0.120997 -0.369478,0.122413 l -0.138489,0.0026 0.127,0.07124 c 0.150104,0.0842 0.717159,0.147865 2.328334,0.26141 l 1.185333,0.08353 0.635,0.175784 c 0.812644,0.224959 2.057979,0.813579 2.760942,1.304985 0.302044,0.211143 0.56236,0.383897 0.578482,0.383897 0.03929,0 1.014036,0.888484 1.441268,1.313714 1.27527,1.269304 2.71205,3.933118 3.122,5.788243 l 0.17996,0.814376 -10e-4,2.794 -0.001,2.794 -0.15189,0.759916 c -0.20545,1.02787 -0.55993,1.912229 -1.12601,2.809169 -0.25997,0.411903 -0.51578,0.825115 -0.56847,0.918248 -0.0527,0.09313 -0.11686,0.188383 -0.14261,0.211667 -0.0257,0.02328 -0.15859,0.194733 -0.29522,0.381 -0.27124,0.369797 -1.2812,1.6063 -1.68844,2.06719 -0.357283,0.404349 -1.139961,1.115283 -1.873297,1.701581 -0.253086,0.202341 -1.304163,0.854302 -1.768899,1.09721 -0.719369,0.376001 -1.95205,0.797139 -3.132666,1.070259 l -0.592667,0.137105 -1.354666,0.03015 -1.354667,0.03015 z m 4.348799,-1.818975 c 1.056903,-0.241451 1.990102,-0.562125 2.466867,-0.847685 0.06985,-0.04184 0.414165,-0.24847 0.765144,-0.459186 l 0.638144,-0.383118 0.731696,-0.68458 c 0.402433,-0.37652 1.056792,-1.089704 1.454131,-1.584855 l 0.722435,-0.900274 -0.05268,-0.09253 -0.05268,-0.09253 0.06717,0.06065 0.06717,0.06065 0.258609,-0.356987 c 0.44937,-0.620306 1.12093,-1.778755 1.31129,-2.261986 0.10089,-0.256117 0.24394,-0.732367 0.31788,-1.058333 l 0.13444,-0.592667 0.0461,-2.334569 0.0461,-2.334569 -0.14518,-0.882764 c -0.0798,-0.48552 -0.19868,-0.993393 -0.26409,-1.128606 -0.0654,-0.135212 -0.11892,-0.287649 -0.11892,-0.338747 0,-0.176549 -0.93234,-1.918533 -1.37559,-2.570137 -0.706496,-1.038614 -1.928354,-2.187163 -3.154078,-2.964843 -0.431706,-0.273903 -1.401624,-0.702812 -1.849516,-0.817877 -0.272167,-0.06992 -0.977017,-0.167078 -1.566333,-0.215903 -0.589316,-0.04883 -1.166734,-0.10551 -1.283151,-0.125967 -0.116416,-0.02046 -0.459316,-0.06048 -0.762,-0.08894 -0.302683,-0.02846 -0.683683,-0.08489 -0.846666,-0.125396 -0.162984,-0.04051 -0.802483,-0.115454 -1.421111,-0.166547 l -1.124778,-0.0929 -0.251055,0.148302 c -0.138081,0.08157 -0.251056,0.173744 -0.251056,0.20484 0,0.03109 -0.08003,0.07747 -0.177852,0.103046 l -0.177852,0.04651 0.06393,0.103447 0.06393,0.103447 -0.09441,-0.05835 -0.09441,-0.05835 -0.741108,0.605801 c -0.40761,0.33319 -0.864459,0.722147 -1.015219,0.864348 l -0.274111,0.258548 0.0513,0.083 0.0513,0.083 -0.08801,-0.0544 -0.08801,-0.0544 -0.62656,0.662131 c -1.218289,1.287452 -2.083872,2.594391 -2.642281,3.989569 -0.350156,0.874857 -0.519529,1.502556 -0.743279,2.754596 l -0.166436,0.931333 -0.04887,1.489108 -0.04887,1.489108 0.103752,0.712225 c 0.241594,1.65846 0.847666,3.483225 1.541831,4.642154 l 0.366544,0.611955 0.593183,0.579908 c 1.937261,1.893906 3.404778,2.724732 5.696544,3.225065 l 0.73864,0.161259 1.227666,-0.03245 1.227667,-0.03245 z m 6.361534,-1.319425 c 0,-0.02328 0.01905,-0.04233 0.04233,-0.04233 0.02328,0 0.04233,0.01905 0.04233,0.04233 0,0.02328 -0.01905,0.04233 -0.04233,0.04233 -0.02328,0 -0.04233,-0.01905 -0.04233,-0.04233 z M 83.703459,76.168259 c 0,-0.02328 0.01905,-0.04233 0.04233,-0.04233 0.02328,0 0.04233,0.01905 0.04233,0.04233 0,0.02328 -0.01905,0.04233 -0.04233,0.04233 -0.02328,0 -0.04233,-0.01905 -0.04233,-0.04233 z M 186.15012,74.474926 c 0,-0.02328 0.0191,-0.04233 0.0423,-0.04233 0.0233,0 0.0423,0.01905 0.0423,0.04233 0,0.02328 -0.019,0.04233 -0.0423,0.04233 -0.0233,0 -0.0423,-0.01905 -0.0423,-0.04233 z M 166.50745,71.34226 c 0,-0.02328 0.019,-0.04233 0.0423,-0.04233 0.0233,0 0.0423,0.01905 0.0423,0.04233 0,0.02328 -0.019,0.04233 -0.0423,0.04233 -0.0233,0 -0.0423,-0.01905 -0.0423,-0.04233 z"
       id="path1" /></g></svg>
