<?xml version="1.0" encoding="UTF-8" standalone="no"?>
<!-- Created with Inkscape (http://www.inkscape.org/) -->

<svg
   width="655.35901"
   height="655.35999"
   viewBox="0 0 173.39706 173.39733"
   version="1.1"
   id="svg1"
   xml:space="preserve"
   xmlns="http://www.w3.org/2000/svg"
   xmlns:svg="http://www.w3.org/2000/svg"><defs
     id="defs1" /><g
     id="layer1"
     transform="translate(-18.340921,-61.73259)"><path
       style="fill:#ffffff"
       d="m 150.67472,228.46944 c -0.11642,-0.0183 -0.47561,-0.0951 -0.7982,-0.17061 l -0.58653,-0.13731 -0.35297,-0.35296 -0.35296,-0.35297 -0.0577,-0.23007 -0.0577,-0.23006 0.0867,-0.32205 c 0.0477,-0.17713 0.15355,-0.38224 0.23524,-0.45581 0.22873,-0.20599 0.95994,-0.5498 1.30539,-0.61378 l 0.3102,-0.0575 0.05,-0.81744 c 0.0275,-0.4496 0.10815,-1.57148 0.17923,-2.49308 0.0711,-0.92159 0.14858,-2.67419 0.1722,-3.89466 0.0469,-2.42491 0.11306,-3.22455 0.41462,-5.01303 0.10992,-0.65193 0.24336,-1.54728 0.29651,-1.98966 0.0532,-0.44238 0.11374,-0.89958 0.13462,-1.016 0.0209,-0.11641 0.0739,-2.18088 0.11788,-4.58769 0.044,-2.40682 0.12371,-4.93828 0.17725,-5.62548 l 0.0973,-1.24945 -0.13185,-0.0964 c -0.28087,-0.20539 -0.39805,-0.88732 -0.2152,-1.25235 0.051,-0.10171 0.18075,-0.26113 0.28844,-0.35426 l 0.19579,-0.16934 0.0983,-1.016 0.0983,-1.01599 0.0356,-2.75167 c 0.0196,-1.51341 0.0536,-5.76155 0.0755,-9.44031 l 0.0398,-6.68866 0.0939,-1.524 c 0.0516,-0.8382 0.12229,-1.82469 0.15702,-2.19221 l 0.0631,-0.66821 -0.17381,-0.0454 c -0.0956,-0.025 -0.37812,-0.15293 -0.62783,-0.28429 l -0.45403,-0.23883 H 151.34 151.09117 l -0.25772,0.1905 -0.25771,0.1905 -0.36577,-0.008 -0.36578,-0.008 -0.66425,-0.31515 c -0.36533,-0.17334 -0.7504,-0.39589 -0.8557,-0.49456 l -0.19145,-0.1794 -0.0885,-0.32853 -0.0885,-0.32852 0.0948,-0.28725 0.0948,-0.28724 0.30315,-0.18736 0.30315,-0.18736 2.42196,0.10139 c 1.33208,0.0558 2.85915,0.14325 3.39348,0.19442 l 0.97152,0.093 0.55248,0.16998 0.55248,0.16997 0.59267,0.0393 0.59266,0.0393 0.93133,-0.0997 c 0.51224,-0.0549 1.56756,-0.19223 2.34516,-0.30529 0.77761,-0.11306 1.99681,-0.26612 2.70933,-0.34013 l 1.2955,-0.13458 1.94733,0.004 1.94733,0.004 1.43934,0.13186 c 0.79163,0.0725 1.68698,0.15347 1.98966,0.17987 0.30268,0.0264 0.91228,0.10448 1.35466,0.17352 l 0.80434,0.12552 0.59883,-0.0553 0.59884,-0.0553 0.47347,0.30288 c 0.26042,0.16658 0.56234,0.4276 0.67095,0.58004 l 0.19746,0.27716 0.0494,0.55033 c 0.0669,0.74571 -0.0569,5.48993 -0.17343,6.64632 -0.0516,0.51224 -0.1332,1.10788 -0.18127,1.32365 l -0.0874,0.39231 -0.25563,0.26146 -0.25563,0.26147 -0.30216,0.0567 -0.30216,0.0567 -0.28479,-0.15337 -0.2848,-0.15338 -0.18238,-0.29509 -0.18237,-0.29509 0.10132,-0.93933 c 0.1495,-1.38602 0.26488,-3.63229 0.26624,-5.18334 l 0.001,-1.36535 -0.4445,-0.0445 c -0.24447,-0.0245 -1.0541,-0.12268 -1.79916,-0.21823 -0.74507,-0.0955 -1.84996,-0.2221 -2.45533,-0.28124 l -1.10067,-0.10753 -2.20133,-4e-5 -2.20133,-4e-5 -0.97366,0.11044 c -0.53552,0.0607 -1.77376,0.22147 -2.75166,0.35719 -0.9779,0.13571 -2.2733,0.28774 -2.87867,0.33783 l -1.10066,0.0911 -0.99483,-0.0576 -0.99483,-0.0576 v 0.15985 c 0,0.0879 -0.0607,0.24656 -0.13497,0.35253 l -0.13496,0.19269 -0.0739,0.86332 c -0.0407,0.47482 -0.11194,2.04441 -0.15841,3.48798 l -0.0845,2.62466 -0.008,6.98499 -0.008,6.98499 -0.10825,1.73566 c -0.0595,0.95462 -0.10417,1.74256 -0.0992,1.75098 0.005,0.008 0.44668,0.0835 0.98153,0.16684 l 0.97246,0.15152 1.86267,3.6e-4 1.86266,3.6e-4 1.016,-0.14557 c 2.47394,-0.35447 3.61209,-0.48365 5.11074,-0.58007 l 1.60224,-0.10308 0.0475,-0.38784 c 0.0262,-0.21331 0.0908,-1.35938 0.14374,-2.54683 0.0529,-1.18745 0.13136,-2.29842 0.17434,-2.46882 l 0.0781,-0.30983 0.23991,-0.25682 0.2399,-0.25682 0.23432,-0.0588 0.23431,-0.0588 0.3837,0.15979 0.3837,0.15979 0.16181,0.2173 0.16181,0.2173 0.003,0.4177 c 0.002,0.22974 -0.0632,1.49443 -0.14385,2.81043 l -0.14663,2.39273 0.20242,0.17555 0.20242,0.17556 v 0.40751 0.4075 l -0.26044,0.32621 -0.26043,0.3262 -0.0995,0.71967 c -0.0547,0.39581 -0.0994,0.91503 -0.0994,1.15382 l 10e-5,0.43416 -0.1347,0.32784 c -0.0741,0.18031 -0.23241,0.41356 -0.35183,0.51834 l -0.21714,0.1905 h -0.33386 -0.33387 l -0.29169,-0.13842 -0.2917,-0.13841 -0.13442,-0.25995 -0.13443,-0.25996 0.0554,-0.72346 c 0.0305,-0.3979 0.0793,-0.92738 0.10849,-1.17662 l 0.0531,-0.45315 -0.75351,0.0551 c -1.71236,0.12527 -2.79513,0.24108 -4.52117,0.48358 l -1.82033,0.25575 -1.98966,0.0418 -1.98967,0.0418 -1.18438,-0.17022 c -0.65141,-0.0936 -1.19327,-0.16134 -1.20412,-0.15049 -0.0807,0.0807 -0.20331,2.79675 -0.23739,5.25971 -0.0817,5.9047 -0.133,6.65794 -0.64292,9.44031 l -0.25602,1.397 -0.0735,2.54 c -0.0404,1.397 -0.0943,2.78764 -0.11971,3.09033 -0.0475,0.56557 -0.17875,2.62229 -0.26075,4.08516 l -0.0463,0.8255 h 0.7822 0.7822 l 1.73833,-0.23284 1.73834,-0.23283 5.54566,0.003 5.54566,0.003 1.27,0.10666 c 0.6985,0.0587 1.78434,0.18404 2.41299,0.27861 0.62865,0.0946 1.7526,0.26406 2.49767,0.37664 0.74506,0.11259 1.51658,0.20506 1.71449,0.20551 l 0.35984,8e-4 -0.004,-3.15382 -0.004,-3.15383 -0.0734,-0.38065 -0.0734,-0.38065 0.11236,-0.26893 c 0.17712,-0.42391 0.78214,-0.73466 1.25453,-0.64436 0.26569,0.0508 0.71092,0.45816 0.82304,0.75307 l 0.0809,0.21288 v 3.38671 3.38672 l 0.0951,0.17774 c 0.0523,0.0977 0.0917,0.34723 0.0876,0.55438 l -0.008,0.37664 -0.17098,0.35022 -0.17097,0.35022 -0.27642,0.18602 c -0.15204,0.10232 -0.46693,0.22881 -0.69976,0.28109 l -0.42333,0.0951 -0.889,-0.0545 c -0.48895,-0.0299 -1.4986,-0.14855 -2.24366,-0.26356 -2.92163,-0.45098 -3.6115,-0.53731 -5.12242,-0.64102 l -1.56624,-0.10749 -4.86833,-0.002 -4.86832,-0.002 -0.84667,0.11664 -0.84666,0.11665 -0.94696,0.36697 c -0.52083,0.20183 -1.25107,0.44461 -1.62277,0.53952 l -0.67581,0.17255 -1.04423,-0.0115 c -0.57432,-0.006 -1.13947,-0.0265 -1.25589,-0.0448 z m 27.68596,-9.72263 c 0,-0.0233 -0.019,-0.0423 -0.0423,-0.0423 -0.0233,0 -0.0423,0.0191 -0.0423,0.0423 0,0.0233 0.019,0.0423 0.0423,0.0423 0.0233,0 0.0423,-0.019 0.0423,-0.0423 z m -33.23162,9.60722 c -0.4191,-0.0342 -2.00025,-0.0896 -3.51366,-0.12324 l -2.75166,-0.0611 -0.35758,-0.15486 -0.35757,-0.15486 -0.17128,-0.28092 c -0.0942,-0.15451 -0.17141,-0.36854 -0.17159,-0.47563 -8.2e-4,-0.50781 0.50662,-1.01104 1.30105,-1.29026 0.60879,-0.21397 0.76882,-0.20915 1.18886,0.0358 l 0.34611,0.20183 0.23283,-7.4e-4 c 0.12806,-4.1e-4 0.23283,-0.0145 0.23283,-0.0313 0,-0.22235 -0.56841,-3.87886 -0.71586,-4.60498 -0.19137,-0.94247 -0.3962,-2.17001 -0.68521,-4.10633 -0.20258,-1.35731 -0.50463,-3.04553 -0.93161,-5.20699 -0.47608,-2.41 -0.67648,-3.75057 -0.84038,-5.62168 -0.1814,-2.07101 -0.36402,-5.68167 -0.42438,-8.39063 -0.13017,-5.8423 -0.24405,-7.16626 -1.05958,-12.31898 -0.19778,-1.24959 -0.44381,-3.35692 -0.63264,-5.41866 -0.16321,-1.78202 -0.55206,-5.36195 -0.58612,-5.396 -0.0294,-0.0294 -0.68687,1.81631 -1.40952,3.95667 -0.57758,1.71071 -1.07703,3.01854 -2.06933,5.41866 -1.62503,3.93051 -3.2916,8.83966 -4.09586,12.06498 -0.43506,1.74475 -0.79744,3.54514 -1.06509,5.29166 -0.025,0.16298 -0.10167,0.80591 -0.17042,1.42872 l -0.12501,1.1324 -0.13061,0.19934 c -0.21954,0.33505 -0.63438,0.49306 -1.22409,0.46624 l -0.20606,-0.009 -0.3866,-0.40594 c -0.5242,-0.55043 -1.06549,-1.4975 -1.83018,-3.20215 -0.76063,-1.6956 -1.20845,-2.54339 -1.85375,-3.50942 -0.52752,-0.7897 -1.45923,-2.58469 -1.95278,-3.76214 -1.16432,-2.7777 -1.71213,-4.05031 -2.09101,-4.85761 -0.183,-0.38993 -0.44029,-0.94238 -0.57177,-1.22767 -0.13147,-0.28529 -0.45723,-0.9759 -0.72391,-1.5347 -1.00779,-2.11169 -2.77284,-6.31396 -3.21465,-7.65349 l -0.15067,-0.45683 -0.0617,0.11816 c -0.0339,0.065 -0.10723,0.55632 -0.16293,1.09183 -0.0557,0.53552 -0.21459,1.52612 -0.35309,2.20133 -0.32304,1.57493 -0.55334,2.79935 -0.71662,3.81 l -0.12994,0.80433 -0.0778,3.59833 -0.0778,3.59833 -0.1289,1.60866 c -0.16317,2.03632 -0.3143,3.32141 -0.72686,6.1807 -0.56224,3.8967 -0.60639,4.30169 -1.31348,12.04812 -0.30476,3.33876 -0.64717,6.80414 -0.76092,7.70083 -0.2521,1.9873 -0.61349,4.32358 -0.68726,4.44295 l -0.0542,0.0878 1.38786,-0.0749 c 1.71082,-0.0923 2.73064,-0.0951 3.13863,-0.009 l 0.31143,0.0661 0.2527,0.23605 0.25269,0.23605 0.10063,0.37371 0.10063,0.37371 -0.13916,0.2584 c -0.0765,0.14211 -0.22327,0.31199 -0.32609,0.37751 l -0.18694,0.11911 -1.48166,0.0153 c -0.81492,0.008 -1.97696,0.0628 -2.58233,0.12099 l -1.10066,0.10571 -2.83633,-0.0605 -2.83633,-0.0605 -0.21167,-0.12623 c -0.11642,-0.0694 -0.28449,-0.22407 -0.3735,-0.34364 l -0.16183,-0.21739 -0.03953,-0.41139 -0.03953,-0.41138 0.29996,-0.2829 0.29997,-0.2829 0.45173,-0.0526 0.45173,-0.0526 0.97366,0.081 c 0.53552,0.0446 1.24427,0.0816 1.57501,0.0824 l 0.60134,0.001 0.0551,-0.71733 0.0551,-0.71733 0.16376,-0.44684 0.16376,-0.44683 0.17177,-1.27 c 0.15391,-1.13796 0.32967,-2.72263 0.59632,-5.37633 0.0491,-0.48895 0.2421,-2.58444 0.42881,-4.65666 0.18672,-2.07221 0.41657,-4.51061 0.51079,-5.41865 0.1779,-1.71457 0.23597,-2.16375 0.71696,-5.54566 0.65875,-4.63182 0.86877,-7.24548 0.89804,-11.17599 0.0243,-3.26221 0.1293,-4.34921 0.67432,-6.98025 0.3805,-1.83682 0.64183,-3.59475 0.79366,-5.33873 0.075,-0.86148 0.19219,-2.06541 0.26043,-2.67539 0.0682,-0.60999 0.12408,-1.32436 0.12408,-1.5875 v -0.47843 h -0.29302 c -0.16115,0 -0.68406,0.0425 -1.16201,0.0945 l -0.86901,0.0945 -0.29697,0.2018 -0.29696,0.20179 h -0.57722 -0.57722 l -0.25646,-0.13262 -0.25647,-0.13262 -0.12033,-0.28799 c -0.0662,-0.1584 -0.12033,-0.42246 -0.12033,-0.5868 v -0.29881 l 0.30575,-0.33843 0.30575,-0.33842 0.43508,-0.13113 c 1.0624,-0.32019 1.86804,-0.40793 5.81141,-0.63289 l 1.56633,-0.0893 0.7358,-0.13756 0.73579,-0.13756 0.36487,0.14028 0.36487,0.14027 0.1905,0.28056 c 0.22613,0.33303 0.23895,0.56573 0.0528,0.95808 -0.18201,0.38357 -0.4571,0.5891 -0.99009,0.73973 l -0.4385,0.12392 -1.143,0.0653 c -0.62865,0.0359 -1.17157,0.0583 -1.20649,0.0497 -0.11295,-0.0278 -0.068,0.24093 0.14387,0.86005 0.11405,0.33329 0.39604,1.19654 0.62664,1.91832 1.03467,3.23849 2.17431,6.07509 4.10442,10.21599 0.62594,1.34291 1.27985,2.74646 1.45313,3.11899 0.39548,0.85023 0.70079,1.564 1.27317,2.97652 0.92378,2.27971 1.55788,3.55128 2.4745,4.9622 0.65142,1.00271 1.05883,1.76071 1.59207,2.9621 0.22218,0.50059 0.42892,0.91016 0.4594,0.91016 0.0305,0 0.1053,-0.31432 0.16625,-0.6985 0.20731,-1.30666 0.84058,-4.03539 1.44203,-6.21365 0.18498,-0.66994 1.04739,-3.29371 1.65649,-5.03966 0.50465,-1.44653 1.4595,-3.91753 2.28485,-5.91283 0.92055,-2.22543 0.87703,-2.10415 3.52234,-9.81625 0.32648,-0.95183 0.64897,-1.83765 0.71663,-1.9685 0.0677,-0.13084 0.11252,-0.24103 0.0997,-0.24486 -0.14281,-0.0426 -1.97562,-0.23259 -3.17259,-0.32887 l -0.86325,-0.0694 -0.25248,-0.17979 -0.25249,-0.17978 -0.0992,-0.30043 -0.0992,-0.30043 0.0551,-0.29341 0.055,-0.29342 0.33925,-0.24575 c 0.18658,-0.13516 0.44826,-0.26969 0.58152,-0.29896 l 0.24227,-0.0532 1.63665,0.17617 c 0.90016,0.0969 2.17005,0.23408 2.82199,0.30487 1.41373,0.15352 2.49472,0.33184 3.30199,0.54471 0.32597,0.086 0.78317,0.1813 1.016,0.21189 l 0.42333,0.0556 0.27052,0.18255 c 0.31683,0.2138 0.44915,0.46584 0.44915,0.85554 v 0.28093 l -0.17681,0.22478 c -0.0973,0.12363 -0.29727,0.28738 -0.4445,0.36389 l -0.26769,0.13912 -0.52198,-0.007 -0.52199,-0.007 -0.62227,-0.17461 c -0.34226,-0.096 -0.80779,-0.20927 -1.03452,-0.25163 l -0.41225,-0.077 0.0552,0.60502 c 0.0304,0.33276 0.16845,1.53847 0.30689,2.67935 0.13843,1.14088 0.36664,3.25543 0.50713,4.69899 0.40388,4.14987 0.66245,6.34849 0.84635,7.19666 0.1405,0.64803 0.43065,2.70175 0.5909,4.18247 l 0.16127,1.49018 0.0892,2.49767 c 0.0491,1.37371 0.12986,3.77401 0.17955,5.33399 0.10168,3.19165 0.25369,5.55484 0.49962,7.76747 0.17694,1.59184 0.21943,1.84642 0.80913,4.84784 0.38786,1.97413 0.68511,3.71259 0.93375,5.46099 0.0795,0.5588 0.30954,1.91135 0.51129,3.00567 0.20175,1.09431 0.44632,2.58021 0.5435,3.30199 0.0972,0.72178 0.21698,1.49331 0.26624,1.7145 l 0.0895,0.40216 1.24039,10e-4 1.24038,0.001 0.47566,0.11196 0.47565,0.11197 0.18767,0.17484 c 0.10322,0.0962 0.23576,0.31475 0.29455,0.48575 l 0.10689,0.31091 -0.0389,0.20325 -0.0388,0.20325 -0.36963,0.34071 -0.36963,0.34071 -0.31939,-0.0125 c -0.17566,-0.007 -0.66229,-0.0404 -1.08139,-0.0746 z m -27.64362,-37.63184 c 0,-0.0233 -0.019,-0.0423 -0.0423,-0.0423 -0.0233,0 -0.0423,0.0191 -0.0423,0.0423 0,0.0233 0.0191,0.0423 0.0423,0.0423 0.0233,0 0.0423,-0.019 0.0423,-0.0423 z m -37.93061,35.64849 c -1.602479,-0.2296 -2.866041,-0.63802 -3.942144,-1.27423 -2.218966,-1.31189 -4.873484,-4.13546 -5.791706,-6.16056 -0.798859,-1.76184 -1.804218,-5.60937 -2.350237,-8.9944 l -0.150227,-0.93133 v -4.23333 -4.23332 l 0.112289,-0.762 c 0.398417,-2.70366 0.895843,-4.88183 1.718885,-7.52681 1.289108,-4.14275 1.981193,-6.15903 3.199696,-9.32183 0.898159,-2.3313 1.113334,-2.84506 1.702105,-4.064 l 0.572539,-1.18533 0.538236,-0.71966 0.538237,-0.71965 1.015998,-1.00312 c 1.78564,-1.763 3.601348,-3.11917 4.749134,-3.54717 l 0.500191,-0.18652 1.335179,0.0168 1.335179,0.0168 0.175663,0.094 0.175663,0.094 0.209862,0.4584 0.209862,0.4584 h 0.567514 c 1.486688,0 2.743141,0.26542 4.584133,0.96836 0.768678,0.2935 1.549996,0.58148 1.736263,0.63995 0.186266,0.0585 0.719755,0.29051 1.185531,0.51563 l 0.846864,0.40933 0.597049,0.57486 c 1.17662,1.13291 2.677343,3.60379 3.602157,5.93082 0.564948,1.42152 0.897009,2.83049 1.261903,5.35437 0.179966,1.24478 0.406422,2.70425 0.847352,5.46099 0.37093,2.31908 0.49463,3.47075 0.58658,5.46099 l 0.0841,1.82033 -0.0407,2.45533 -0.0407,2.45533 -0.12973,1.524 c -0.18758,2.20358 -0.36072,3.25068 -0.812,4.91065 -0.813752,2.99327 -2.011015,5.05682 -5.010551,8.63599 -1.060266,1.26515 -2.366666,2.47226 -4.035366,3.72865 -2.277816,1.715 -3.627004,2.34112 -5.927428,2.75075 l -1.058332,0.18846 -1.94733,0.0276 -1.947331,0.0276 z m 5.799658,-2.27348 c 1.306957,-0.27261 2.097314,-0.60118 3.301995,-1.37273 0.766414,-0.49086 2.657251,-1.99599 3.436788,-2.73573 1.412283,-1.34018 3.508216,-3.9268 4.485202,-5.53526 l 0.396435,-0.65267 0.06652,0.06 0.06652,0.06 -0.05526,-0.0967 -0.05526,-0.0967 0.304054,-0.6653 c 0.853286,-1.86709 1.21751,-3.26732 1.604563,-6.16863 l 0.13554,-1.016 0.06476,-2.32833 c 0.03562,-1.28058 0.05162,-3.27923 0.03555,-4.44144 l -0.02921,-2.1131 -0.168308,-1.45892 c -0.170309,-1.47625 -0.232563,-1.90231 -0.678601,-4.64419 -0.136354,-0.8382 -0.306931,-1.92404 -0.379059,-2.41299 -0.07213,-0.48895 -0.190316,-1.28905 -0.26264,-1.778 -0.218005,-1.47384 -0.45887,-2.62282 -0.727706,-3.47133 l -0.25484,-0.80433 -0.767322,-1.56633 c -0.422027,-0.86148 -0.758167,-1.60443 -0.746979,-1.651 l 0.02034,-0.0847 -0.06323,0.0632 -0.06323,0.0632 -0.465625,-0.69823 c -0.256095,-0.38403 -0.589791,-0.85063 -0.741547,-1.0369 l -0.275921,-0.33867 -0.459658,-0.27785 c -0.480493,-0.29045 -0.843742,-0.44099 -2.178219,-0.90272 -0.442383,-0.15307 -1.051982,-0.38419 -1.354665,-0.51361 -0.302682,-0.12943 -0.893232,-0.32677 -1.312331,-0.43854 l -0.761999,-0.20322 -1.269998,-0.0717 c -1.176573,-0.0665 -1.996334,-0.19531 -2.20133,-0.34597 -0.04657,-0.0342 -0.300443,-0.12408 -0.56417,-0.19968 l -0.479504,-0.13745 -0.215658,-0.2563 -0.215658,-0.25629 -0.29967,0.12521 c -0.164818,0.0689 -0.29967,0.1066 -0.29967,0.0838 0,-0.0227 -0.04762,-0.002 -0.105833,0.0471 -0.05821,0.0486 -0.372533,0.26588 -0.698499,0.48277 -0.691567,0.46015 -0.82154,0.56829 -2.299933,1.91362 -2.10854,1.91876 -2.584062,2.68257 -4.123576,6.6235 -2.267591,5.80471 -3.870471,10.80859 -4.746172,14.81665 -0.212379,0.97205 -0.371922,2.12542 -0.477514,3.45205 l -0.09955,1.25073 0.04473,3.44827 0.04473,3.44826 0.133147,0.81377 c 0.454222,2.77613 1.287959,6.02799 1.971599,7.6899 0.628001,1.52665 2.018131,3.20701 3.87988,4.68991 l 0.846666,0.67438 0.767083,0.36628 0.767084,0.36627 0.734592,0.17447 c 0.404026,0.096 0.954187,0.20871 1.22258,0.25057 l 0.487988,0.0761 2.031997,-0.0284 2.031996,-0.0283 z m -13.334979,-2.30239 c 0,-0.0233 -0.01905,-0.0423 -0.04233,-0.0423 -0.02328,0 -0.04233,0.0191 -0.04233,0.0423 0,0.0233 0.01905,0.0423 0.04233,0.0423 0.02328,0 0.04233,-0.019 0.04233,-0.0423 z m -0.423333,-0.59267 c 0,-0.0233 -0.01905,-0.0423 -0.04233,-0.0423 -0.02328,0 -0.04233,0.019 -0.04233,0.0423 0,0.0233 0.01905,0.0423 0.04233,0.0423 0.02328,0 0.04233,-0.0191 0.04233,-0.0423 z m 22.521298,-44.0266 c 0,-0.0233 -0.01905,-0.0423 -0.04233,-0.0423 -0.02328,0 -0.04233,0.0191 -0.04233,0.0423 0,0.0233 0.01905,0.0423 0.04233,0.0423 0.02328,0 0.04233,-0.0191 0.04233,-0.0423 z m -17.356639,-1.86266 c 0,-0.0233 -0.01905,-0.0423 -0.04233,-0.0423 -0.02328,0 -0.04233,0.0191 -0.04233,0.0423 0,0.0233 0.01905,0.0423 0.04233,0.0423 0.02328,0 0.04233,-0.019 0.04233,-0.0423 z M 38.61856,222.81172 c -0.93972,-0.13332 -4.021868,-0.89927 -4.825992,-1.19931 -0.694256,-0.25904 -1.030192,-0.44664 -1.608664,-0.89831 -0.676634,-0.52831 -2.106031,-1.85835 -3.386662,-3.15124 l -1.185331,-1.19668 -0.391857,-0.58768 c -0.733758,-1.10044 -1.294799,-2.37973 -1.965768,-4.48234 -0.536587,-1.6815 -0.830697,-2.7822 -0.95018,-3.556 l -0.117659,-0.762 -0.08691,-2.28599 c -0.0478,-1.2573 -0.147149,-2.9718 -0.220781,-3.81 l -0.133876,-1.52399 -0.0032,-1.35467 c -0.0091,-3.88538 0.910062,-9.23962 2.231097,-12.99631 0.430689,-1.22477 1.248512,-3.20853 1.646669,-3.99425 l 0.210132,-0.41468 0.09473,0.0585 0.09473,0.0585 -0.06229,-0.10078 -0.06229,-0.10079 0.390918,-0.6272 c 0.215005,-0.34496 0.601749,-0.89665 0.859432,-1.22598 l 0.468515,-0.59878 0.09185,0.0568 0.09185,0.0568 -0.06389,-0.10338 -0.06389,-0.10338 0.241311,-0.26632 c 1.846927,-2.03835 3.331459,-3.17554 5.998635,-4.59508 0.4191,-0.22305 1.104899,-0.59482 1.523998,-0.82613 2.823677,-1.55851 4.01625,-2.02569 6.34999,-2.48757 l 0.761999,-0.15081 1.693331,0.003 1.69333,0.003 0.761999,0.1952 c 0.869737,0.22279 1.801743,0.61034 2.539996,1.0562 0.2794,0.16874 0.533734,0.3069 0.565187,0.30702 0.100005,3.8e-4 1.068814,-2.57873 1.164009,-3.09876 l 0.09141,-0.49935 0.232696,-0.33069 c 0.127983,-0.18188 0.339105,-0.40961 0.46916,-0.50608 l 0.236464,-0.17538 h 0.322982 0.322981 l 0.29598,0.22575 0.295979,0.22575 0.112574,0.27178 0.112574,0.27178 -0.143211,0.55888 c -0.07877,0.30738 -0.142892,0.62098 -0.142501,0.69688 3.91e-4,0.0759 -0.150186,0.43786 -0.334616,0.80433 -0.18443,0.36648 -0.618628,1.39022 -0.964883,2.27499 -0.346255,0.88476 -0.894265,2.26048 -1.217799,3.05714 l -0.588244,1.44848 0.03946,0.47582 0.03946,0.47582 -0.298196,0.2982 -0.298196,0.2982 H 51.10413 50.661157 l -0.280892,-0.1736 c -0.15449,-0.0955 -0.359012,-0.30001 -0.454492,-0.4545 l -0.173601,-0.28089 v -0.3055 -0.30549 l 0.557298,-1.37784 c 0.306515,-0.75782 0.575969,-1.47309 0.598787,-1.58951 l 0.04149,-0.21167 -0.535287,-0.34909 c -0.702414,-0.45809 -1.071944,-0.6386 -1.889951,-0.92323 l -0.677332,-0.23568 -1.396998,-0.0385 -1.396998,-0.0385 -1.058332,0.18276 -1.058331,0.18275 -1.015999,0.33705 -1.015998,0.33706 -2.45533,1.31993 c -1.350431,0.72596 -2.876939,1.58418 -3.392241,1.90714 -1.65086,1.03468 -3.050644,2.36635 -4.478895,4.26098 l -0.638253,0.84666 -0.464715,0.94305 c -0.870916,1.76734 -1.954515,4.75666 -2.404978,6.63461 -0.406171,1.6933 -0.849084,4.27112 -1.068946,6.22143 l -0.133449,1.18378 0.0034,1.69489 0.0034,1.69488 0.124233,1.48167 c 0.06833,0.81491 0.147009,2.26271 0.174847,3.21733 0.08192,2.80904 0.190647,3.51573 0.898832,5.84199 0.47696,1.56673 1.130965,3.25857 1.554628,4.02166 0.417266,0.75156 1.266735,1.68244 3.089434,3.3855 1.62582,1.5191 2.198413,1.97603 2.781615,2.21971 0.475791,0.19879 3.781089,1.01603 4.569425,1.12978 l 0.702914,0.10143 0.694084,-0.0419 0.694084,-0.0419 1.862664,-0.63422 c 1.024465,-0.34882 2.151249,-0.74707 2.503964,-0.88498 l 0.6413,-0.25076 1.889909,-1.12694 c 1.039451,-0.61982 1.970064,-1.17122 2.06803,-1.22534 0.09797,-0.0541 0.359094,-0.21063 0.580285,-0.34778 l 0.402166,-0.24936 v -0.1448 c 0,-0.0796 -0.03681,-0.23232 -0.08179,-0.33929 -0.04499,-0.10696 -0.22097,-0.57548 -0.391075,-1.04114 -0.401624,-1.09946 -1.075283,-2.58017 -1.455644,-3.19953 l -0.30104,-0.4902 v -0.37096 -0.37096 l 0.145539,-0.22212 c 0.253265,-0.38653 0.880795,-0.49977 1.450481,-0.26174 l 0.29236,0.12216 0.17853,0.40701 c 0.09819,0.22385 0.290718,0.62603 0.427835,0.89372 0.838077,1.63613 1.86191,4.50182 2.44784,6.85145 l 0.183082,0.73418 0.249736,0.10344 0.249736,0.10345 0.16487,0.32317 c 0.273206,0.53553 0.176841,1.16629 -0.248815,1.62864 -0.563532,0.61211 -1.225381,0.62825 -1.755897,0.0428 -0.276589,-0.30522 -0.350704,-0.49095 -0.626103,-1.56895 -0.140544,-0.55014 -0.274654,-1.05307 -0.298021,-1.11761 l -0.04248,-0.11736 -0.146402,0.13048 c -0.151839,0.13533 -2.028014,1.24723 -2.104526,1.24723 -0.02385,0 -0.202626,0.10944 -0.397283,0.2432 -1.427348,0.98083 -2.452499,1.4463 -5.306913,2.4096 l -2.158997,0.72861 -0.550332,0.0867 c -0.700711,0.11034 -1.449944,0.0985 -2.412997,-0.0382 z m -6.984989,-3.13358 c 0,-0.0233 -0.01905,-0.0423 -0.04233,-0.0423 -0.02328,0 -0.04233,0.0191 -0.04233,0.0423 0,0.0233 0.01905,0.0423 0.04233,0.0423 0.02328,0 0.04233,-0.0191 0.04233,-0.0423 z m 0.338666,-1.86266 c 0,-0.0233 -0.01905,-0.0423 -0.04233,-0.0423 -0.02328,0 -0.04233,0.0191 -0.04233,0.0423 0,0.0233 0.01905,0.0423 0.04233,0.0423 0.02328,0 0.04233,-0.019 0.04233,-0.0423 z m 19.473304,-1.778 c 0,-0.0233 -0.01905,-0.0423 -0.04233,-0.0423 -0.02328,0 -0.04233,0.019 -0.04233,0.0423 0,0.0233 0.01905,0.0423 0.04233,0.0423 0.02328,0 0.04233,-0.0191 0.04233,-0.0423 z m -21.674634,-37.4226 c 0,-0.0233 -0.01905,-0.0423 -0.04233,-0.0423 -0.02328,0 -0.04233,0.019 -0.04233,0.0423 0,0.0233 0.01905,0.0423 0.04233,0.0423 0.02328,0 0.04233,-0.019 0.04233,-0.0423 z m 1.791801,-18.57142 c -0.141957,-0.1326 -0.284039,-0.34443 -0.315736,-0.47072 l -0.05763,-0.22963 0.393302,-1.2861 c 0.357845,-1.17016 0.81026,-2.98564 0.812161,-3.25909 4.22e-4,-0.0607 -0.09448,-0.2505 -0.210899,-0.42182 l -0.211667,-0.31149 v -0.31503 c 0,-0.17327 0.04561,-0.41513 0.101351,-0.53747 l 0.101351,-0.22244 0.313466,-0.15992 0.313465,-0.15992 0.05337,-0.99746 c 0.02935,-0.5486 0.110154,-1.2451 0.179557,-1.54778 l 0.126188,-0.55034 0.280752,-0.28105 0.280752,-0.28104 0.352539,-0.0792 0.352539,-0.0792 0.344726,0.0775 c 0.401149,0.0901 0.615305,0.26121 0.75789,0.60544 l 0.10209,0.24647 -0.05773,0.30773 -0.05773,0.30773 -0.242115,0.22285 -0.242114,0.22284 -0.102228,1.20922 -0.102228,1.20923 0.06078,0.0608 c 0.03343,0.0334 0.619574,0.057 1.302551,0.0523 l 1.241776,-0.008 0.483072,-0.16944 c 0.265689,-0.0932 0.691215,-0.29559 0.945613,-0.44977 l 0.462541,-0.28033 1.942669,-1.91245 1.942669,-1.91245 0.437203,-0.59266 c 0.240461,-0.32597 0.579031,-0.87644 0.752378,-1.22328 l 0.315177,-0.63061 -0.0021,-0.68172 -0.0021,-0.68172 -0.205626,-0.46042 c -0.380539,-0.85206 -1.001873,-1.508 -3.049743,-3.21961 -1.987555,-1.66119 -2.992646,-2.23663 -4.748453,-2.7186 -0.531596,-0.14592 -1.423737,-0.39612 -1.982536,-0.55601 l -1.015999,-0.29069 -1.015998,-0.5056 -1.015998,-0.50559 -0.528829,-0.42442 c -1.304688,-1.04708 -2.580135,-3.16292 -2.945236,-4.88584 l -0.121323,-0.57253 -0.0015,-0.72729 -0.0015,-0.72729 0.163563,-0.63953 c 0.08996,-0.35174 0.284795,-0.88171 0.432967,-1.17771 0.499568,-0.99797 1.564106,-2.46588 2.522614,-3.47847 l 0.459064,-0.48497 0.08664,0.0536 0.08664,0.0536 -0.0555,-0.0898 -0.0555,-0.0898 0.402248,-0.33396 c 1.723466,-1.43085 3.668934,-2.22579 6.286572,-2.56874 l 0.804332,-0.10539 0.237355,-0.27753 0.237354,-0.27754 -0.339043,-1.06053 c -0.186474,-0.58329 -0.381082,-1.13907 -0.432462,-1.23507 -0.05138,-0.096 -0.09933,-0.32271 -0.106546,-0.50378 l -0.01313,-0.32921 0.105722,-0.19755 c 0.05815,-0.10865 0.237633,-0.28793 0.398857,-0.3984 l 0.293135,-0.20086 0.35971,0.0412 c 0.197841,0.0226 0.550211,0.12356 0.783044,0.22427 l 0.423332,0.18313 0.1905,0.27879 0.1905,0.27879 v 0.29342 0.29342 l -0.137016,0.19562 -0.137016,0.19562 0.232878,0.73338 c 0.128083,0.40337 0.337152,1.05724 0.464598,1.45306 0.273839,0.85047 0.384304,1.21252 0.803841,2.63454 l 0.315154,1.06821 0.273803,0.13057 0.273804,0.13057 0.140308,0.29568 c 0.184828,0.38949 0.177104,0.57465 -0.04356,1.04409 l -0.183866,0.39116 -0.383043,0.24291 -0.383042,0.24292 -0.25859,-3.1e-4 -0.258591,-3.2e-4 -0.265707,-0.16202 -0.265708,-0.16202 -0.212435,-0.4515 c -0.116839,-0.24832 -0.389802,-1.01347 -0.606585,-1.70032 l -0.39415,-1.24883 -0.609371,4.9e-4 c -1.38501,0.001 -3.31587,0.4174 -4.504033,0.97099 l -0.761999,0.35503 -0.690592,0.52243 -0.690593,0.52243 -0.709123,0.78281 c -1.082053,1.19449 -1.910421,2.36708 -2.187665,3.09673 l -0.169995,0.44739 -0.05236,0.61942 -0.05236,0.61941 0.188445,0.62042 c 0.348403,1.14704 1.164961,2.53159 1.855158,3.1456 0.687816,0.61189 1.678062,1.18264 2.509085,1.44617 0.232833,0.0738 1.014138,0.28533 1.736233,0.46999 0.722095,0.18467 1.672414,0.47106 2.111819,0.63642 l 0.798919,0.30067 0.72451,0.44163 c 1.214417,0.74026 2.601118,1.80852 4.193134,3.23023 l 0.928628,0.82928 0.442661,0.58843 c 0.523795,0.69627 0.892055,1.43967 1.088821,2.19799 l 0.142799,0.55033 -0.03829,0.889 -0.03829,0.889 -0.262972,0.66917 c -0.636098,1.61864 -1.568922,2.75303 -4.70024,5.71588 l -1.084924,1.02656 -0.09232,-0.0571 -0.09232,-0.0571 0.05756,0.0931 0.05756,0.0931 -0.488978,0.32708 c -0.268939,0.17989 -0.734468,0.43172 -1.034509,0.55962 l -0.54553,0.23254 -0.851468,0.13077 -0.851468,0.13078 -1.058332,-0.0444 c -0.582082,-0.0244 -1.117363,-0.0675 -1.189513,-0.0957 l -0.131181,-0.0512 -0.19678,0.87037 c -0.258321,1.14258 -0.728123,2.70591 -0.979663,3.25998 l -0.200788,0.44228 -0.280868,0.17124 -0.280868,0.17124 -0.350879,3.1e-4 -0.350879,3.2e-4 z m 12.432177,-11.65454 c 0,-0.0233 -0.01905,-0.0423 -0.04233,-0.0423 -0.02328,0 -0.04233,0.0191 -0.04233,0.0423 0,0.0233 0.01905,0.0423 0.04233,0.0423 0.02328,0 0.04233,-0.0191 0.04233,-0.0423 z M 31.379572,133.74161 c 0,-0.0233 -0.01905,-0.0423 -0.04233,-0.0423 -0.02328,0 -0.04233,0.0191 -0.04233,0.0423 0,0.0233 0.01905,0.0423 0.04233,0.0423 0.02328,0 0.04233,-0.019 0.04233,-0.0423 z m 22.960227,25.02619 -0.534736,-0.0671 -0.218674,-0.16326 c -0.120271,-0.0898 -0.290937,-0.29539 -0.379258,-0.45687 l -0.160585,-0.29361 0.04767,-0.25097 c 0.06299,-0.33157 0.373367,-0.77565 0.62099,-0.88847 l 0.198439,-0.0904 2.025608,0.0569 2.025609,0.0569 -0.0016,-0.37329 c -8.75e-4,-0.20531 -0.08029,-0.9448 -0.176475,-1.64329 l -0.174883,-1.27 -0.06966,-7.40832 -0.06966,-7.40833 -0.06359,-0.254 c -0.03497,-0.1397 -0.118608,-0.33898 -0.185853,-0.44285 l -0.122263,-0.18885 0.06145,-0.40381 c 0.135216,-0.88853 0.0085,-2.95473 -0.466005,-7.60047 -0.218208,-2.13627 -0.387622,-3.95061 -0.563438,-6.03414 l -0.144815,-1.71614 -2.226027,0.006 -2.226027,0.006 -0.165676,-0.0887 c -0.09112,-0.0488 -0.244831,-0.18929 -0.341575,-0.31228 l -0.175899,-0.22362 v -0.33145 -0.33146 l 0.12469,-0.24112 0.12469,-0.24113 0.404476,-0.19917 0.404475,-0.19917 h 1.947008 1.947008 l 0.01091,-0.10583 c 0.006,-0.0582 0.01567,-0.16888 0.02149,-0.24594 0.0058,-0.0771 0.164587,-0.28661 0.352815,-0.46567 l 0.342231,-0.32556 h 0.289591 c 0.159276,0 0.504945,0.0806 0.768154,0.17906 l 0.478562,0.17905 0.324019,0.32402 0.32402,0.32402 0.830425,-0.0813 c 1.144711,-0.11203 2.56088,-0.38271 3.377242,-0.64552 l 0.684153,-0.22024 0.212256,0.0533 c 0.116741,0.0293 0.312778,0.13234 0.435638,0.22898 l 0.223382,0.17571 0.08775,0.32588 0.08775,0.32587 -0.07993,0.21023 c -0.04396,0.11562 -0.201626,0.32396 -0.35037,0.46297 l -0.270445,0.25275 -0.645502,0.22173 c -1.119292,0.38446 -2.553469,0.64137 -4.35092,0.77941 -0.40815,0.0313 -0.758726,0.0839 -0.779058,0.1168 -0.04688,0.0758 0.272575,3.80725 0.674504,7.8786 0.243886,2.47046 0.354627,3.68327 0.494125,5.41159 l 0.09852,1.22059 0.248401,0.0332 c 0.848162,0.11343 4.582678,-0.32782 6.550272,-0.77393 2.665175,-0.60428 3.616596,-0.77035 4.945383,-0.86321 l 0.822073,-0.0574 -0.0389,-0.60157 c -0.0214,-0.33087 -0.0783,-1.28738 -0.126448,-2.12558 -0.10876,-1.89328 -0.286957,-4.3182 -0.503964,-6.85799 -0.09151,-1.07103 -0.227801,-2.69027 -0.302865,-3.59832 -0.07506,-0.90805 -0.142664,-1.65634 -0.150223,-1.66287 -0.0076,-0.007 -0.489995,-0.0563 -1.072077,-0.11062 -0.582083,-0.0543 -1.207227,-0.13777 -1.38921,-0.18549 l -0.330878,-0.0868 -0.230342,-0.23034 -0.230342,-0.23035 -0.05993,-0.35473 -0.05993,-0.35473 0.155486,-0.31587 0.155486,-0.31587 0.294253,-0.16946 0.294252,-0.16946 0.80855,-0.0325 0.80855,-0.0325 0.519909,0.21883 0.51991,0.21883 0.261685,-0.0912 0.261686,-0.0912 0.401599,0.0495 c 0.22088,0.0272 0.877848,0.0879 1.459931,0.13471 1.156244,0.0931 2.474941,0.28323 3.003753,0.43316 l 0.336757,0.0955 0.319408,0.3194 0.319409,0.31941 -1.32e-4,0.28513 c -7.2e-5,0.15682 -0.06675,0.41795 -0.148166,0.58028 l -0.148035,0.29516 -0.211666,0.10576 c -0.280125,0.13997 -0.718193,0.13535 -1.370578,-0.0145 -0.293931,-0.0675 -0.820871,-0.14815 -1.170979,-0.17923 l -0.63656,-0.0565 -0.11828,0.22101 c -0.06505,0.12155 -0.204563,0.27754 -0.31002,0.34664 l -0.19174,0.12563 0.03844,0.44643 c 0.08535,0.99122 0.40691,5.07692 0.714821,9.08241 0.04653,0.60537 0.141179,2.18651 0.210318,3.51366 0.167381,3.21292 0.254975,4.3621 0.507664,6.66024 0.116922,1.06338 0.291169,2.67636 0.387216,3.58441 l 0.17463,1.651 -0.0049,1.35466 c -0.0027,0.74507 -0.04286,1.83092 -0.08921,2.413 -0.04635,0.58208 -0.08514,1.57788 -0.0862,2.21288 l -0.0019,1.15456 0.359833,0.0489 c 0.197908,0.0269 0.893232,0.0724 1.545164,0.10107 0.651933,0.0287 1.306036,0.0891 1.453563,0.13429 l 0.268232,0.0821 0.123229,0.18807 c 0.06778,0.10344 0.150035,0.34674 0.182798,0.54067 l 0.05957,0.35259 -0.134899,0.28428 -0.134899,0.28428 -0.265515,0.15684 -0.265516,0.15684 -1.53228,-0.0716 c -0.842755,-0.0394 -1.722781,-0.0649 -1.955614,-0.0567 -0.232833,0.008 -0.588269,0.0152 -0.789858,0.0156 l -0.366526,7.3e-4 -0.234602,-0.12132 -0.234602,-0.12132 -0.711203,-0.0142 c -0.391162,-0.008 -0.850598,-0.0484 -1.020969,-0.0902 l -0.309766,-0.076 -0.261733,-0.2981 -0.261734,-0.2981 v -0.30176 c 0,-0.16596 0.05887,-0.42582 0.130831,-0.57746 l 0.13083,-0.2757 0.222426,-0.11809 0.222425,-0.11809 0.818959,0.009 0.818959,0.009 0.07504,-2.21031 c 0.04127,-1.21567 0.07362,-2.87706 0.07187,-3.69198 l -0.0032,-1.48166 -0.145139,-1.22767 c -0.07983,-0.67521 -0.221562,-1.87536 -0.314968,-2.66699 -0.09341,-0.79164 -0.222202,-2.07503 -0.286212,-2.85199 -0.06401,-0.77695 -0.135879,-1.44419 -0.159708,-1.48275 l -0.04332,-0.0701 -0.959912,0.0602 -0.959911,0.0601 -1.396998,0.29623 c -0.768349,0.16292 -1.682748,0.35812 -2.031997,0.43378 -2.111418,0.45736 -3.928359,0.70085 -5.790875,0.77603 l -1.345882,0.0543 0.05492,1.40441 c 0.0302,0.77243 0.05658,3.6485 0.05863,6.39127 l 0.0037,4.98687 0.0784,1.10913 c 0.06899,0.97611 0.410309,3.95236 0.459748,4.00896 0.01017,0.0116 0.923554,-0.13153 2.029739,-0.31816 l 2.011246,-0.33932 0.366282,0.16202 0.366281,0.16203 0.09191,0.17173 c 0.05055,0.0944 0.09191,0.32852 0.09191,0.52016 v 0.34844 l -0.122672,0.23722 c -0.06747,0.13048 -0.214604,0.29746 -0.326965,0.37108 l -0.204293,0.13386 -1.091199,0.21687 c -1.2256,0.24357 -2.386827,0.42387 -3.885195,0.60323 l -1.015999,0.12163 -1.82033,0.0377 -1.820331,0.0377 z M 56.1022,119.17897 c 0,-0.0233 -0.01905,-0.0423 -0.04233,-0.0423 -0.02328,0 -0.04233,0.0191 -0.04233,0.0423 0,0.0233 0.01905,0.0423 0.04233,0.0423 0.02328,0 0.04233,-0.019 0.04233,-0.0423 z m 86.69853,35.13828 c -0.72178,-0.15365 -1.73143,-0.40033 -2.24366,-0.54818 l -0.93133,-0.26882 -0.762,-0.36842 -0.762,-0.36842 -0.27462,-0.27059 -0.27461,-0.27059 -0.1,-0.33357 -0.0999,-0.33358 0.18336,-0.3774 0.18335,-0.37739 0.27587,-0.17376 0.27587,-0.17376 0.42446,0.0394 c 0.44069,0.0409 1.07814,0.29206 1.01216,0.39882 -0.0208,0.0336 0.0268,0.0559 0.10584,0.0495 l 0.14365,-0.0116 0.20292,0.30919 0.20292,0.3092 0.66557,0.21997 c 0.36606,0.12098 0.74864,0.21997 0.85017,0.21997 h 0.1846 l -0.0564,-0.86783 c -0.031,-0.47731 -0.093,-1.80128 -0.13762,-2.94216 -0.1011,-2.58277 -0.22565,-5.323 -0.33478,-7.36599 -0.046,-0.86148 -0.085,-2.84268 -0.0867,-4.40266 l -0.003,-2.83633 -0.12466,-2.37066 c -0.30937,-5.88314 -0.45933,-9.834 -0.46759,-12.31899 l -0.006,-1.82033 -0.0976,-0.56096 -0.0977,-0.56097 -0.72441,-0.10114 c -0.39842,-0.0556 -0.96624,-0.15174 -1.26183,-0.21359 l -0.53742,-0.11245 -0.2889,-0.28002 -0.28891,-0.28002 -0.0802,-0.29039 -0.0802,-0.2904 0.11627,-0.27827 0.11627,-0.27828 0.22355,-0.14647 0.22355,-0.14648 0.39735,-0.0369 0.39736,-0.0369 0.635,0.18384 0.635,0.18385 1.39699,0.0451 1.397,0.0451 0.93133,-0.10048 c 0.51224,-0.0553 1.17033,-0.1221 1.46244,-0.14851 l 0.5311,-0.048 0.33278,0.34983 0.33279,0.34983 0.054,0.28805 0.054,0.28805 -0.15477,0.2417 c -0.32812,0.51244 -0.49274,0.57923 -1.72717,0.70071 -0.53345,0.0525 -1.15089,0.11714 -1.37208,0.14366 l -0.40216,0.0482 0.002,2.08755 c 0.002,1.92349 0.12816,5.42023 0.45876,12.71321 0.0707,1.55998 0.16751,4.77942 0.21511,7.15432 0.0476,2.37489 0.12391,4.87044 0.1696,5.54566 0.0457,0.67521 0.12592,2.44686 0.1783,3.93699 0.0524,1.49013 0.11391,3.08433 0.13676,3.54267 l 0.0415,0.83334 0.26672,-0.0498 c 0.35102,-0.0655 1.35631,-0.19268 2.75475,-0.34842 l 1.13336,-0.12622 1.78764,-0.001 c 1.72175,-10e-4 2.30249,0.0349 4.7933,0.29739 0.62865,0.0662 1.46244,0.13165 1.85288,0.14534 l 0.70989,0.0249 0.01,-2.75166 0.01,-2.75166 0.16933,-0.28102 c 0.0931,-0.15455 0.28813,-0.35458 0.43333,-0.44449 l 0.26399,-0.16349 h 0.28867 0.28866 l 0.19712,0.13807 c 0.10841,0.0759 0.25328,0.27249 0.32194,0.4368 l 0.12482,0.29874 -0.0147,1.19303 c -0.008,0.65616 -0.0111,1.71313 -0.007,2.34882 l 0.008,1.15581 0.28669,0.16915 0.28669,0.16915 0.14198,0.42747 0.14198,0.42746 -0.09,0.16818 c -0.0495,0.0925 -0.09,0.28621 -0.09,0.43046 0,0.61713 -0.39997,1.10638 -1.04822,1.28221 l -0.34878,0.0946 -0.762,-0.134 c -0.4191,-0.0737 -1.54305,-0.19395 -2.49766,-0.26724 -0.95462,-0.0733 -2.23096,-0.18793 -2.83633,-0.25477 l -1.10067,-0.12152 -1.52399,-0.004 -1.524,-0.004 -1.54703,0.18399 -1.54703,0.184 -0.18134,0.32263 -0.18133,0.32264 -0.27409,0.13007 c -0.3675,0.17439 -0.54141,0.16055 -2.06884,-0.1646 z m 26.13886,-0.806 -0.21527,-0.16934 h -0.77402 -0.77401 l -0.26358,0.1363 -0.26357,0.1363 -0.32093,-0.043 -0.32092,-0.043 -0.25988,-0.18505 -0.25988,-0.18505 -0.17624,-0.34545 -0.17623,-0.34545 0.0478,-0.29456 0.0478,-0.29456 0.18888,-0.20105 0.18888,-0.20106 0.42251,-0.12547 0.4225,-0.12547 h 1.05041 1.0504 l -0.0623,-0.35983 -0.0623,-0.35983 -0.019,-8.63599 -0.019,-8.63599 -0.0972,-1.73566 c -0.30733,-5.48652 -0.4369,-8.57461 -0.50244,-11.97478 l -0.057,-2.9578 -0.97367,-0.14369 c -0.53551,-0.079 -1.42627,-0.22439 -1.97946,-0.32303 -0.55319,-0.0986 -1.19288,-0.17934 -1.42154,-0.17934 h -0.41574 l -0.33819,-0.17253 -0.33818,-0.17254 -0.13839,-0.29019 -0.13839,-0.2902 0.10048,-0.33537 0.10048,-0.33536 0.25896,-0.21791 c 0.14244,-0.11984 0.30937,-0.2179 0.37098,-0.2179 0.0616,0 0.45542,-0.13263 0.87516,-0.29473 l 0.76315,-0.29473 0.45184,-0.0489 0.45184,-0.0489 0.29032,0.15308 c 0.31852,0.16795 0.5959,0.49736 0.63311,0.75184 l 0.0239,0.16324 0.24602,0.0535 c 0.13531,0.0294 0.33309,0.058 0.4395,0.0635 l 0.19348,0.01 -0.0757,-0.14817 c -0.0416,-0.0815 -0.0985,-0.26873 -0.12641,-0.4161 l -0.0507,-0.26793 0.18762,-0.2824 0.18762,-0.2824 0.38032,-0.19682 0.38031,-0.19681 0.889,0.053 c 1.73645,0.10356 3.49917,0.47544 4.38761,0.92565 0.2192,0.11107 0.62658,0.37159 0.9053,0.57892 0.27871,0.20734 0.78575,0.53839 1.12676,0.73568 l 0.62001,0.35871 0.76739,0.77582 c 0.42207,0.4267 1.05102,1.12691 1.39766,1.556 l 0.63027,0.78019 -0.0622,0.10073 -0.0623,0.10073 0.0937,-0.0579 0.0937,-0.0579 0.51703,0.70101 c 0.6852,0.92903 1.174,1.83648 1.86863,3.46903 0.31582,0.74227 0.78198,1.71852 1.0359,2.16944 1.0552,1.8739 1.29713,2.63737 1.57441,4.96852 l 0.0806,0.67734 0.0533,3.89466 0.0533,3.89466 -0.092,0.79457 c -0.0506,0.43701 -0.14799,1.27521 -0.21639,1.86266 -0.27978,2.40308 -1.18028,4.91419 -2.34138,6.52909 -1.48501,2.0654 -2.46953,2.81184 -5.86968,4.45027 -1.79133,0.86318 -2.45204,1.09066 -3.93557,1.355 -0.64609,0.11512 -1.33461,0.26573 -1.53004,0.33468 -0.19544,0.069 -0.47876,0.12537 -0.62961,0.12537 h -0.27427 z m 2.86679,-2.46064 0.90496,-0.17464 1.10474,-0.47643 c 1.76258,-0.76014 4.01209,-2.03161 4.65854,-2.6331 0.50522,-0.47007 1.58943,-1.99924 1.92984,-2.72185 0.33814,-0.71775 0.81039,-2.08333 0.99577,-2.87941 0.0921,-0.3954 0.24982,-1.46186 0.35053,-2.36991 l 0.1831,-1.651 0.002,-0.97366 c 0.001,-0.53552 -0.0397,-2.45957 -0.091,-4.27566 l -0.0932,-3.302 -0.13197,-0.71289 c -0.18127,-0.97923 -0.47003,-1.80083 -0.88728,-2.52454 l -0.35227,-0.61101 0.0616,-0.0997 0.0616,-0.0997 -0.0869,0.0537 -0.0869,0.0537 -0.25792,-0.48511 c -0.14186,-0.26681 -0.37791,-0.78991 -0.52458,-1.16244 -0.14666,-0.37253 -0.51247,-1.17263 -0.81291,-1.778 l -0.54625,-1.10066 -0.57432,-0.77213 c -0.84195,-1.13196 -1.63751,-2.07482 -2.37177,-2.81095 l -0.64899,-0.65064 -0.46567,-0.24528 c -0.25612,-0.13491 -0.71332,-0.4253 -1.016,-0.6453 -0.61977,-0.45049 -0.94246,-0.62503 -1.31233,-0.70983 -0.1397,-0.032 -0.31802,-0.0772 -0.39626,-0.10038 l -0.14225,-0.0421 0.0917,0.2429 0.0917,0.24289 -0.0522,0.2079 c -0.0287,0.11435 -0.16662,0.33609 -0.3065,0.49276 l -0.25433,0.28487 -0.43905,0.0422 -0.43906,0.0422 0.0522,3.77681 c 0.0287,2.07725 0.0915,4.42451 0.13944,5.21614 0.19332,3.19029 0.34768,6.49836 0.43064,9.22865 l 0.0875,2.87867 -0.0998,2.37066 -0.0998,2.37066 0.0549,1.778 c 0.0302,0.9779 0.0767,2.88289 0.10338,4.23333 0.0266,1.35043 0.0632,2.50295 0.0813,2.56116 0.0423,0.13645 0.0392,0.13664 1.10385,-0.0688 z m -9.44768,-36.61297 c 0,-0.0233 -0.019,-0.0423 -0.0423,-0.0423 -0.0233,0 -0.0423,0.0191 -0.0423,0.0423 0,0.0233 0.019,0.0423 0.0423,0.0423 0.0233,0 0.0423,-0.019 0.0423,-0.0423 z m -69.087891,38.09432 c -0.06985,-0.0254 -0.431799,-0.14309 -0.804332,-0.26148 -0.372533,-0.1184 -1.211806,-0.47386 -1.865051,-0.78993 l -1.187719,-0.57467 -0.56182,-0.46051 c -0.890374,-0.72982 -1.721389,-1.7104 -2.567951,-3.03011 -0.798378,-1.2446 -1.056709,-1.87823 -1.656888,-4.064 -0.108686,-0.39581 -0.401231,-1.31021 -0.650101,-2.03199 -0.670704,-1.9452 -0.929386,-2.84521 -1.029915,-3.58329 l -0.09021,-0.66229 0.0013,-3.7827 0.0013,-3.78271 0.08566,-1.26999 c 0.192734,-2.85761 0.676459,-5.51249 1.259615,-6.9133 0.581503,-1.39683 1.38914,-2.35344 2.716103,-3.21711 0.947141,-0.61645 0.848027,-0.56771 1.546329,-0.76041 0.336967,-0.093 0.773575,-0.25862 0.97024,-0.36806 0.196664,-0.10945 0.482414,-0.2244 0.634999,-0.25545 0.152584,-0.0311 0.677476,-0.1855 1.166425,-0.3432 0.488949,-0.1577 1.230096,-0.34884 1.646992,-0.42476 l 0.757993,-0.13804 0.639005,0.0559 c 1.688727,0.14779 2.070317,0.27481 4.448998,1.48096 l 1.693329,0.85863 0.39836,0.39115 0.39837,0.39116 -0.0516,0.0835 -0.0516,0.0835 0.0833,-0.0515 0.0833,-0.0515 0.30616,0.40146 c 0.16839,0.22081 0.6366,1.02867 1.04047,1.79525 0.40388,0.76659 0.84017,1.56896 0.96953,1.78304 0.31047,0.51381 0.71382,1.44455 0.87702,2.02375 0.0722,0.25612 0.3309,1.43722 0.57497,2.62466 l 0.44376,2.159 -0.009,1.778 c -0.005,0.9779 -0.0505,2.21614 -0.10095,2.75166 -0.0505,0.53552 -0.166,1.79281 -0.25672,2.794 -0.20568,2.26987 -0.37197,3.0881 -1.07544,5.29165 -0.82794,2.59347 -1.81593,4.91255 -2.61507,6.13833 l -0.41398,0.635 -0.63904,0.64404 -0.63903,0.64404 -1.416948,0.6914 -1.416948,0.6914 -0.910053,0.30452 -0.910053,0.30452 -0.847994,0.0313 c -0.466397,0.0172 -0.905144,0.0105 -0.974994,-0.0149 z m 1.989663,-2.22753 c 0.612831,-0.19003 0.727163,-0.23862 2.074331,-0.8816 0.582082,-0.27781 1.10428,-0.50662 1.16044,-0.50846 0.05616,-0.002 0.08367,-0.0332 0.06113,-0.0696 -0.02254,-0.0365 0.03425,-0.10657 0.126208,-0.15578 0.253541,-0.13569 0.864362,-0.97041 1.348979,-1.84346 0.90479,-1.63 1.80712,-4.07607 2.6332,-7.1382 0.0947,-0.35108 0.21021,-1.03688 0.25665,-1.524 0.35561,-3.72943 0.42748,-4.59074 0.47665,-5.71167 l 0.0557,-1.26999 -0.10156,-0.889 c -0.0559,-0.48895 -0.19599,-1.30281 -0.31139,-1.80857 -0.11541,-0.50576 -0.26635,-1.24871 -0.33544,-1.65099 -0.0691,-0.40229 -0.18545,-0.94099 -0.25859,-1.1971 l -0.13298,-0.46567 -1.06336,-1.98966 c -1.26524,-2.36739 -1.336654,-2.48282 -1.811378,-2.92793 l -0.368594,-0.34561 -1.624509,-0.81548 -1.624509,-0.81547 -0.560327,-0.12995 c -0.30818,-0.0715 -0.872549,-0.15377 -1.254153,-0.18289 l -0.693827,-0.0529 -0.819747,0.2186 c -0.803327,0.21422 -1.036944,0.30453 -1.720249,0.66502 -0.186266,0.0983 -0.710585,0.28728 -1.165152,0.42002 -1.044264,0.30496 -1.511241,0.51823 -2.087433,0.95333 -0.252224,0.19047 -0.487174,0.3463 -0.52211,0.3463 -0.03494,0 -0.09527,0.0347 -0.134077,0.0771 l -0.07055,0.0771 0.105833,-0.0609 0.105833,-0.0609 v 0.0765 c 0,0.0421 -0.07499,0.14441 -0.166636,0.22735 -0.09165,0.0829 -0.336984,0.49842 -0.545186,0.92329 l -0.378551,0.77248 -0.169895,0.80433 c -0.246417,1.16661 -0.496198,2.66217 -0.558552,3.34433 -0.0298,0.32597 -0.08929,0.93556 -0.132208,1.35466 l -0.07803,0.762 2.1e-4,4.064 2.1e-4,4.06399 0.08352,0.57771 c 0.07864,0.5439 0.195397,0.92102 1.131812,3.65562 0.207297,0.60536 0.513812,1.62671 0.681144,2.26966 l 0.304239,1.16901 0.288481,0.56666 c 0.158665,0.31166 0.568998,0.97574 0.911852,1.47573 l 0.62337,0.90907 0.667544,0.68648 0.667544,0.68648 1.234395,0.60107 c 0.678917,0.33059 1.462995,0.66715 1.742394,0.74791 l 0.507999,0.14685 0.465666,0.005 0.465666,0.005 z m -9.948317,-30.5328 c 0,-0.0233 -0.01905,-0.0423 -0.04233,-0.0423 -0.02328,0 -0.04233,0.0191 -0.04233,0.0423 0,0.0233 0.01905,0.0423 0.04233,0.0423 0.02328,0 0.04233,-0.019 0.04233,-0.0423 z m 39.115935,31.88269 -0.80433,-0.0597 -0.47902,-0.17554 c -1.03893,-0.38071 -2.57033,-1.6177 -3.33165,-2.69113 -0.58826,-0.82944 -0.85363,-1.40661 -1.92704,-4.19137 -0.11668,-0.30268 -0.44173,-1.10655 -0.72236,-1.78638 -0.93788,-2.2721 -1.01375,-2.66452 -1.53709,-7.95027 -0.67525,-6.82008 -0.7452,-8.24451 -0.76095,-15.49711 l -0.005,-2.24681 -1.03717,-0.11028 c -0.57044,-0.0606 -1.49436,-0.106 -2.05316,-0.10078 l -1.016,0.01 -0.28897,-0.0846 c -0.15893,-0.0465 -0.43234,-0.184 -0.60759,-0.30544 l -0.31864,-0.22082 -0.13323,-0.28077 c -0.0733,-0.15442 -0.13324,-0.41274 -0.13324,-0.57405 v -0.29328 l 0.17041,-0.21664 0.17041,-0.21664 0.4207,-0.13973 0.4207,-0.13974 0.48839,0.0553 c 0.26862,0.0304 0.79239,0.11027 1.16395,0.17752 0.95754,0.17331 3.11658,0.35515 4.99656,0.42083 0.88448,0.0309 1.68457,0.086 1.778,0.12248 0.0934,0.0365 0.33071,0.18385 0.5273,0.32752 l 0.35743,0.26121 0.25561,0.44571 c 0.28652,0.49961 0.31132,0.70261 0.13686,1.12014 l -0.12033,0.28799 -0.27444,0.14192 -0.27445,0.14193 -0.33572,-0.045 -0.33573,-0.045 -0.31953,-0.31202 -0.31954,-0.31202 -0.56666,-0.0455 -0.56666,-0.0455 0.0401,5.32507 0.0401,5.32506 0.0976,1.143 c 0.0537,0.62864 0.1931,2.07644 0.30977,3.21732 0.11667,1.14089 0.26847,2.66488 0.33734,3.38667 0.24149,2.53096 0.39481,3.68974 0.59019,4.46066 l 0.19709,0.77768 0.69124,1.67765 c 0.38019,0.92271 0.83813,2.08781 1.01765,2.5891 0.59846,1.6711 1.20843,2.72257 2.0056,3.45726 0.22237,0.20494 0.39386,0.40403 0.38108,0.44242 -0.0128,0.0384 0.009,0.0499 0.0481,0.0257 0.0392,-0.0243 0.1658,0.0435 0.28123,0.15052 0.11544,0.10704 0.42861,0.27645 0.69593,0.37647 l 0.48603,0.18185 h 0.88332 0.88331 l 0.45864,-0.20979 0.45864,-0.20978 0.40391,-0.44638 c 0.56173,-0.62079 1.0829,-1.45287 1.29134,-2.06169 0.21147,-0.61766 0.4464,-1.75343 0.78604,-3.80002 l 0.25235,-1.52067 0.25404,-2.71266 c 0.13972,-1.49196 0.31427,-3.49371 0.38789,-4.44832 l 0.13386,-1.73567 0.0117,-2.28599 c 0.0227,-4.44746 -0.14183,-9.12266 -0.37272,-10.59308 -0.0447,-0.28477 -0.0813,-0.85238 -0.0813,-1.26135 v -0.7436 l -0.19352,0.28769 -0.19352,0.28769 -0.29332,0.1441 c -0.52884,0.25981 -1.27376,0.1424 -1.63599,-0.25786 l -0.15391,-0.17006 -0.0407,-0.49309 -0.0407,-0.49309 0.16773,-0.29633 c 0.0923,-0.16298 0.20917,-0.28681 0.25983,-0.27517 l 0.0921,0.0212 -0.0212,-0.10063 -0.0212,-0.10062 0.403,-0.27455 0.40301,-0.27455 0.48599,-0.10148 0.48599,-0.10148 0.84667,0.0487 0.84666,0.0487 1.54942,0.30097 c 0.85217,0.16553 1.66302,0.30096 1.80188,0.30096 0.56699,0 1.06056,0.36313 1.17115,0.86164 l 0.0624,0.28136 -0.0705,0.26814 -0.0705,0.26815 -0.25989,0.21869 -0.2599,0.21868 h -0.44609 c -0.24535,0 -0.9568,-0.0949 -1.581,-0.21086 -0.6242,-0.11597 -1.14955,-0.21122 -1.16745,-0.21167 -0.0353,-8.7e-4 -0.0208,0.18981 0.23168,3.04719 l 0.16831,1.905 0.0558,4.36033 0.0558,4.36033 -0.13544,2.20132 c -0.0745,1.21074 -0.15195,2.25848 -0.17213,2.32833 -0.0202,0.0698 -0.097,0.86995 -0.17064,1.778 -0.29263,3.6065 -0.7025,6.45124 -1.23698,8.58545 l -0.2524,1.0078 -0.29092,0.62968 c -0.39024,0.84461 -0.95913,1.63288 -1.69819,2.35302 l -0.61127,0.59563 -0.44053,0.23977 c -0.82835,0.45085 -1.75167,0.5885 -3.21756,0.4797 z m -14.73197,-36.45468 c 0,-0.0233 -0.019,-0.0423 -0.0423,-0.0423 -0.0233,0 -0.0423,0.0191 -0.0423,0.0423 0,0.0233 0.019,0.0423 0.0423,0.0423 0.0233,0 0.0423,-0.019 0.0423,-0.0423 z m -62.314573,-3.84559 c -0.162983,-0.033 -0.385297,-0.10828 -0.494031,-0.16723 l -0.197697,-0.10717 -0.160276,-0.353 c -0.309871,-0.68248 -0.183507,-1.15619 0.45937,-1.72207 l 0.375043,-0.33013 0.453295,-0.14238 c 0.629411,-0.1977 1.778333,-0.31591 3.077957,-0.31668 l 1.100665,-6.5e-4 0.0047,-2.43421 c 0.0026,-1.33881 0.01611,-3.882 0.03006,-5.65153 l 0.02536,-3.217331 -0.09383,-1.608665 c -0.0516,-0.884765 -0.137843,-2.103963 -0.191642,-2.709329 l -0.09782,-1.100665 -0.231104,-0.253999 c -0.127108,-0.1397 -0.290242,-0.371527 -0.362521,-0.515171 L 50.947667,90.462668 50.462818,90.096604 C 50.196151,89.895268 49.574749,89.325801 49.081924,88.83112 48.17286,87.918633 47.701474,87.385852 45.856277,85.185354 44.642168,83.737462 43.260646,82.254935 40.821812,79.782812 l -1.779919,-1.804214 -1.44305,-1.233306 -1.44305,-1.233306 -2.155277,-0.01048 -2.155278,-0.01047 -1.396998,-0.198169 -1.396998,-0.19817 -0.289473,-0.140496 c -0.15921,-0.07727 -0.365469,-0.243658 -0.458353,-0.369743 l -0.168879,-0.229247 0.01155,-0.307374 0.01156,-0.307375 0.172966,-0.279864 0.172966,-0.279864 0.286627,-0.136014 0.286627,-0.136013 0.325871,0.0013 c 0.179228,6.89e-4 0.55447,0.05425 0.833869,0.119035 0.708739,0.164327 1.892993,0.302364 2.793996,0.32567 l 0.761999,0.01971 0.02621,-0.270821 0.02621,-0.270821 0.294238,-0.258345 0.294239,-0.258345 h 0.406527 0.406526 l 0.585359,0.379188 0.585359,0.379188 0.21914,0.0018 c 0.120527,9.97e-4 0.672976,-0.134177 1.227665,-0.300386 l 1.008525,-0.302197 0.423333,0.0061 c 0.896699,0.01286 1.028725,0.0091 1.444253,-0.04126 l 0.428254,-0.0519 0.312578,0.345986 0.312577,0.345986 v 0.257128 c 0,0.141421 -0.07331,0.400826 -0.162907,0.576455 l -0.162908,0.319326 -0.331294,0.229587 c -0.182212,0.126272 -0.455315,0.265155 -0.606896,0.308628 l -0.275602,0.07904 -0.400275,-0.07591 c -0.220152,-0.04175 -0.435714,-0.08591 -0.479028,-0.09814 -0.140427,-0.03963 -0.713751,0.102248 -0.713751,0.176633 0,0.03973 0.447674,0.464686 0.994831,0.944348 1.335196,1.170491 4.384998,4.232217 5.842966,5.865811 l 0.360808,0.40427 -0.05639,0.09124 -0.05639,0.09124 0.09094,-0.0562 0.09094,-0.0562 0.875848,0.99562 c 0.481716,0.547591 1.158487,1.338519 1.503935,1.757619 1.141855,1.385304 2.831904,3.174995 2.998226,3.174995 0.04635,0 0.182296,-0.116542 0.302104,-0.258982 l 0.217832,-0.258982 0.326765,-0.07286 c 0.179721,-0.04007 0.449679,-0.05291 0.599907,-0.02853 l 0.273143,0.04432 0.471609,-0.834317 c 0.259386,-0.458874 0.59273,-1.055648 0.740766,-1.326164 0.148036,-0.270516 0.498589,-0.899165 0.779007,-1.396998 0.280417,-0.497832 0.625372,-1.1147 0.766566,-1.370816 1.517943,-2.753451 3.315831,-5.574639 5.449587,-8.55132 0.250351,-0.34925 0.685145,-0.968374 0.96621,-1.375831 l 0.511027,-0.740833 -0.573968,-0.0013 c -0.315682,-7.37e-4 -1.028579,-0.039 -1.584216,-0.08503 l -1.010249,-0.08369 -0.200291,-0.131236 c -0.110161,-0.07218 -0.27453,-0.25299 -0.365266,-0.401802 l -0.164975,-0.270566 -3.16e-4,-0.283263 -3.17e-4,-0.283262 0.182978,-0.26707 c 0.100637,-0.146888 0.262418,-0.33146 0.359512,-0.410158 l 0.176536,-0.143089 0.381319,-0.05113 0.381319,-0.05114 0.423333,0.129807 0.423333,0.129807 2.031997,7.9e-5 c 1.117598,4.3e-5 2.584446,-0.03919 3.259661,-0.08718 l 1.227665,-0.08726 0.338666,-0.178227 0.338666,-0.178227 0.677333,-0.07107 c 0.372532,-0.03909 0.945647,-0.0956 1.273588,-0.125571 l 0.596255,-0.0545 0.31391,0.296055 0.313909,0.296055 v 0.317141 0.317141 l -0.177313,0.315487 c -0.09752,0.173517 -0.278497,0.374284 -0.402166,0.446148 -0.277257,0.161114 -1.00538,0.319752 -1.467608,0.319752 H 69.119 l -0.601443,0.216953 -0.601443,0.216952 -1.186797,0.09323 -1.186798,0.09323 -0.243056,0.218981 c -0.133681,0.12044 -0.449147,0.52378 -0.701034,0.896313 -0.617722,0.913586 -2.289479,3.288117 -2.503552,3.555995 -0.100815,0.126153 -1.079202,1.546927 -1.430659,2.077543 -0.508478,0.767682 -1.668926,2.654663 -1.729285,2.811956 -0.03106,0.08095 -0.08424,0.130032 -0.118165,0.109064 -0.03393,-0.02097 -0.06212,0.0078 -0.06265,0.06399 -0.0014,0.145196 -0.920461,1.763009 -0.972185,1.711285 -0.02356,-0.02357 -0.04331,0.0048 -0.04388,0.06299 -5.7e-4,0.05821 -0.572391,1.134532 -1.270714,2.39183 -1.556231,2.80192 -2.224779,4.018832 -2.511927,4.572285 l -0.219789,0.423625 0.119439,1.312039 c 0.126479,1.389361 0.267111,3.636216 0.341789,5.460699 0.02478,0.605366 1.8e-5,2.986617 -0.05502,5.291657 l -0.100075,4.191 0.06392,0.49693 0.06391,0.49694 0.521811,-0.0575 c 0.961605,-0.10595 3.481633,-0.55992 3.804353,-0.68533 0.403592,-0.15684 0.683689,-0.15707 0.985906,-7.8e-4 l 0.238378,0.12327 0.138417,0.29169 c 0.07613,0.16043 0.138417,0.41478 0.138417,0.56523 v 0.27355 l -0.172526,0.27915 -0.172526,0.27915 -0.35664,0.16967 c -0.196152,0.0933 -0.69954,0.22895 -1.118639,0.3014 -0.419099,0.0725 -1.183852,0.20637 -1.69945,0.2976 -1.666684,0.29491 -3.051802,0.43031 -5.310237,0.51912 -1.217136,0.0478 -2.232045,0.10608 -2.255353,0.12939 -0.02331,0.0233 -0.08181,0.16247 -0.129995,0.30926 l -0.08762,0.26688 -0.253999,0.14396 c -0.327827,0.1858 -0.687231,0.24267 -1.058332,0.16747 z m 2.963329,-24.0097 c 0,-0.02328 -0.01905,-0.04233 -0.04233,-0.04233 -0.02328,0 -0.04233,0.01905 -0.04233,0.04233 0,0.02328 0.01905,0.04233 0.04233,0.04233 0.02328,0 0.04233,-0.01905 0.04233,-0.04233 z m 50.080254,19.41991 c -1.232098,-0.10053 -2.831467,-0.39275 -3.633632,-0.6639 l -0.698985,-0.23627 -1.763733,-0.90623 c -3.308879,-1.70016 -3.987616,-2.12988 -4.919967,-3.11494 -0.486131,-0.51361 -1.515519,-1.915441 -1.63121,-2.221395 -0.01772,-0.04686 -0.0809,-0.142344 -0.140404,-0.212194 -0.188655,-0.221455 -0.961869,-1.747293 -1.25401,-2.474626 -0.521384,-1.298071 -1.138626,-3.748794 -1.455849,-5.780361 l -0.145425,-0.931332 0.04899,-1.142998 0.04899,-1.142998 0.129594,-0.634999 c 0.331026,-1.622007 0.463043,-1.889198 3.257803,-6.59353 0.83799,-1.410562 1.443228,-2.063205 3.256674,-3.511755 0.691049,-0.551998 1.330454,-1.077635 1.420901,-1.168082 1.043839,-1.043839 2.961371,-2.600657 4.201292,-3.410972 0.743186,-0.485688 2.110329,-1.203716 2.42177,-1.271922 0.05237,-0.01147 0.243934,-0.08655 0.425708,-0.16685 0.444873,-0.196524 2.722873,-0.846282 3.564163,-1.016614 l 0.67734,-0.137136 0.0847,-0.140266 c 0.15151,-0.251007 0.50201,-0.552085 0.78045,-0.670404 0.60735,-0.258088 1.38435,-0.102689 2.56388,0.512769 0.39582,0.206531 0.94875,0.491857 1.22873,0.634059 l 0.50907,0.258548 1.20968,0.25642 c 1.46091,0.309673 4.60687,1.112026 5.30065,1.351888 0.57581,0.199076 1.47669,0.67162 2.30903,1.211171 0.31707,0.205533 0.76699,0.482169 0.99982,0.614748 0.37848,0.215513 1.7308,1.077095 1.94733,1.240673 0.0466,0.03518 0.29422,0.228944 0.55033,0.430591 l 0.46567,0.366631 0.99738,1.18119 c 1.73959,2.060176 1.97341,2.353668 2.34303,2.941001 0.65634,1.042942 1.11124,2.322868 1.49337,4.201822 l 0.21374,1.050974 0.005,1.192689 0.005,1.192689 -0.18192,1.735664 c -0.44665,4.261585 -0.53463,4.813563 -1.06616,6.688657 l -0.30001,1.058331 -0.5429,1.100665 -0.5429,1.100665 -0.75954,1.157279 c -0.41775,0.63651 -0.92159,1.33309 -1.11965,1.54796 -0.30334,0.32907 -1.35846,1.14709 -1.47959,1.14709 -0.0206,0 -0.30504,0.17154 -0.63214,0.38121 -2.05382,1.31646 -3.69887,1.86462 -6.73066,2.24274 -0.79163,0.0987 -1.85843,0.25497 -2.37066,0.3472 -0.51224,0.0922 -1.38853,0.22023 -1.94733,0.28446 l -1.016,0.11678 -3.64066,0.0362 -3.64066,0.0361 z m 10.24465,-2.44729 c 0.8382,-0.13544 1.9812,-0.30489 2.54,-0.37656 2.42147,-0.31058 3.64616,-0.59814 4.82303,-1.13245 0.67258,-0.30536 2.02089,-1.0847 2.76725,-1.59951 l 0.39363,-0.27151 0.32604,-0.43894 c 0.84154,-1.132977 1.76756,-2.74214 2.1467,-3.730371 0.47247,-1.23149 0.88799,-3.175205 1.05787,-4.948473 0.068,-0.709711 0.14278,-1.435379 0.16621,-1.612597 0.0234,-0.177217 0.10471,-0.969912 0.18063,-1.761544 l 0.13803,-1.439331 -0.057,-0.804332 -0.057,-0.804332 -0.21218,-0.931332 c -0.36717,-1.611639 -0.85386,-2.832077 -1.41807,-3.555995 -0.26562,-0.340804 -1.46895,-1.768057 -2.28207,-2.706738 -0.24079,-0.277974 -0.43258,-0.553789 -0.42619,-0.612921 l 0.0116,-0.107513 -0.0824,0.05094 -0.0824,0.05094 -0.26785,-0.254729 c -0.14732,-0.140101 -0.7822,-0.568971 -1.41085,-0.953045 -0.62865,-0.384073 -1.3716,-0.845042 -1.651,-1.024377 -0.2794,-0.179334 -0.83185,-0.493285 -1.22766,-0.697668 l -0.71967,-0.371607 -1.524,-0.404133 c -0.83819,-0.222273 -1.79069,-0.476493 -2.11666,-0.564932 -0.32597,-0.08844 -0.91651,-0.217334 -1.31233,-0.286434 -0.9988,-0.174364 -1.50857,-0.32913 -2.5386,-0.770724 l -0.8904,-0.381728 -0.80433,0.05755 c -1.1457,0.08197 -3.31155,0.525271 -4.61432,0.944438 -1.25461,0.403669 -2.15466,0.796234 -3.132666,1.366331 -0.532807,0.310582 -2.240329,1.650211 -3.153257,2.473873 l -0.951928,0.858849 -0.09832,-0.06077 -0.09832,-0.06076 0.05579,0.09026 0.05579,0.09026 -0.547132,0.480355 -0.547131,0.480355 -0.109405,-0.06311 -0.109404,-0.06311 0.06276,0.06928 0.06276,0.06928 -0.09352,0.112691 -0.09352,0.112691 -0.08816,-0.05448 -0.08816,-0.05448 0.05184,0.08387 0.05183,0.08387 -0.595571,0.452777 c -0.327565,0.249028 -0.830778,0.708408 -1.118252,1.020845 l -0.52268,0.568068 -1.294074,2.162514 c -1.435513,2.398873 -1.868416,3.264426 -2.103382,4.205537 l -0.158539,0.634999 v 1.481664 1.481665 l 0.197415,0.931332 c 0.369859,1.744853 0.859622,3.527277 1.206015,4.389117 0.645504,1.606042 1.723317,3.313522 2.695605,4.270395 0.730623,0.71905 1.020353,0.89066 4.452285,2.63719 l 1.777997,0.90484 0.804332,0.19146 c 0.442383,0.10531 1.223432,0.24429 1.735664,0.30885 l 0.931338,0.11738 4.19099,-0.0438 4.19099,-0.0439 z M 89.799481,99.366998 c 0,-0.02328 -0.01905,-0.04233 -0.04233,-0.04233 -0.02328,0 -0.04233,0.01905 -0.04233,0.04233 0,0.02328 0.01905,0.04233 0.04233,0.04233 0.02328,0 0.04233,-0.01905 0.04233,-0.04233 z M 125.02076,79.893695 c 0,-0.02328 -0.019,-0.04233 -0.0423,-0.04233 -0.0233,0 -0.0423,0.01905 -0.0423,0.04233 0,0.02328 0.0191,0.04233 0.0423,0.04233 0.0233,0 0.0423,-0.01905 0.0423,-0.04233 z M 91.323479,77.777032 c 0,-0.02328 -0.01905,-0.04233 -0.04233,-0.04233 -0.02328,0 -0.04233,0.01905 -0.04233,0.04233 0,0.02328 0.01905,0.04233 0.04233,0.04233 0.02328,0 0.04233,-0.01905 0.04233,-0.04233 z M 155.92405,104.7369 c -1.00521,-0.10897 -1.73135,-0.2839 -3.00567,-0.72408 -0.60536,-0.2091 -1.46968,-0.49317 -1.9207,-0.63126 -0.45102,-0.1381 -1.15447,-0.3859 -1.56321,-0.55068 l -0.74316,-0.2996 -0.59579,-0.43455 c -0.32769,-0.239 -1.06101,-0.89037 -1.62961,-1.44748 l -1.03381,-1.012944 0.0453,-0.07325 c 0.0249,-0.04029 0.01,-0.06278 -0.0332,-0.04999 -0.10385,0.03078 -0.56926,-0.529729 -1.0033,-1.208285 -1.79953,-2.813331 -2.02171,-3.2265 -2.879,-5.353725 -0.91919,-2.280841 -1.28545,-3.553276 -1.76003,-6.114706 -0.60851,-3.28429 -0.7983,-4.867105 -1.02535,-8.55132 -0.0746,-1.210732 -0.18567,-2.829979 -0.24678,-3.598328 -0.0611,-0.768349 -0.0966,-1.422013 -0.0789,-1.452588 0.0368,-0.06354 -0.92294,-0.138665 -2.91551,-0.228223 l -1.38116,-0.06208 -0.0582,-0.08105 c -0.032,-0.04458 -0.11532,-0.09293 -0.18517,-0.107444 -0.0699,-0.01452 -0.21789,-0.115792 -0.32897,-0.22506 l -0.20197,-0.19867 -0.01,-0.413613 -0.01,-0.413613 0.15476,-0.236231 0.15475,-0.236232 0.30874,-0.128999 0.30873,-0.128999 2.2272,0.152166 2.2272,0.152167 0.27865,-0.100762 c 0.39006,-0.141046 0.56635,-0.127196 1.03831,0.08158 l 0.4122,0.182336 2.43214,0.02292 2.43215,0.02292 0.24254,0.14327 c 0.32384,0.191296 0.44046,0.396383 0.49703,0.874028 l 0.0472,0.398887 -0.22757,0.270451 -0.22756,0.270452 -0.31912,0.09561 -0.31912,0.09561 -2.21914,-0.03084 -2.21914,-0.03083 0.0476,0.508253 c 0.0262,0.279539 0.14243,1.975101 0.25839,3.767915 0.11596,1.792814 0.29019,3.92641 0.38719,4.741326 0.17424,1.463851 0.6737,4.365322 1.02022,5.926657 0.20136,0.907302 0.80468,2.782325 1.13494,3.527228 0.12056,0.271938 0.36856,0.875432 0.55109,1.341098 0.30575,0.780008 1.05324,2.201846 1.37757,2.620351 0.0379,0.04894 0.23641,0.355678 0.44107,0.681644 0.20467,0.325966 0.55464,0.853271 0.77771,1.171789 l 0.4056,0.579123 1.1455,1.114207 1.14551,1.114204 0.42082,0.22587 c 0.23146,0.12422 1.50668,0.58758 2.83382,1.02969 l 2.413,0.80383 0.65021,0.097 0.65021,0.097 1.80512,0.004 c 1.91179,0.005 2.22812,-0.0216 3.37145,-0.28021 1.7181,-0.38858 3.54852,-1.12575 4.50949,-1.81614 1.22532,-0.880308 3.56115,-3.077126 4.25385,-4.000706 0.74667,-0.995517 1.75055,-2.581601 2.31058,-3.650595 0.59437,-1.134542 1.72295,-3.969314 2.04972,-5.148483 0.32416,-1.169786 0.54405,-3.095651 0.64022,-5.60735 l 0.0535,-1.396998 -0.0987,-2.32833 c -0.0543,-1.280581 -0.13422,-3.261778 -0.17763,-4.40266 -0.066,-1.73618 -0.14683,-2.818163 -0.23209,-3.108642 -0.0201,-0.06841 -3.28368,-0.04057 -3.82627,0.03264 l -0.381,0.05141 -0.27811,0.242301 -0.27811,0.2423 h -0.72509 -0.72509 l -0.29431,-0.139655 c -0.16186,-0.07681 -0.35308,-0.229374 -0.42493,-0.33903 l -0.13064,-0.199374 0.005,-0.337401 0.005,-0.337401 0.14586,-0.246921 0.14586,-0.246921 0.31875,-0.179146 c 0.17531,-0.09853 0.61689,-0.25748 0.98129,-0.353223 l 0.66255,-0.174077 2.34929,-0.09328 2.3493,-0.09328 0.1768,-0.365223 0.1768,-0.365222 0.2535,-0.180505 0.25349,-0.180505 0.39466,0.05409 0.39466,0.05409 0.20701,0.207013 c 0.11386,0.113858 0.24754,0.332289 0.29708,0.485404 l 0.0901,0.27839 0.33867,-0.02791 c 0.66488,-0.05478 1.4663,-0.264779 2.1386,-0.560375 l 0.68283,-0.30022 h 0.26417 c 0.60129,0 1.1339,0.418864 1.23796,0.973586 l 0.0524,0.279075 -0.1657,0.374599 -0.16571,0.374598 -0.29939,0.14207 c -0.16466,0.07814 -0.41665,0.142069 -0.55997,0.142069 -0.14333,0 -0.55282,0.0981 -0.90998,0.217993 l -0.64939,0.217993 -0.85522,0.11153 c -0.47038,0.06134 -0.88117,0.09597 -0.91288,0.07696 -0.13513,-0.08104 -0.14219,0.172834 -0.0323,1.162417 l 0.11651,1.049438 0.0506,2.539996 c 0.0278,1.396998 0.0927,3.161751 0.14411,3.921674 l 0.0935,1.381677 -0.0983,1.708651 c -0.0541,0.939758 -0.17135,2.35635 -0.26066,3.147982 l -0.16239,1.439331 -0.20883,0.804332 c -0.51601,1.987443 -1.86006,5.221159 -2.90323,6.985023 -1.06148,1.794832 -2.63721,3.938851 -2.84524,3.871363 -0.0394,-0.0128 -0.0503,0.01138 -0.0241,0.05372 l 0.0476,0.07698 -1.03612,0.97788 c -1.00645,0.949888 -2.11503,1.877048 -3.03916,2.541808 -0.63848,0.45927 -2.16423,1.17984 -3.11928,1.47314 -1.16342,0.35729 -1.54658,0.45802 -2.38922,0.62808 l -0.87044,0.17567 -1.94733,0.026 -1.94733,0.0259 z m -8.97466,-4.18457 c 0,-0.0233 -0.019,-0.0423 -0.0423,-0.0423 -0.0233,0 -0.0423,0.019 -0.0423,0.0423 0,0.0233 0.019,0.0423 0.0423,0.0423 0.0233,0 0.0423,-0.0191 0.0423,-0.0423 z m 20.9973,-1.100665 c 0,-0.02328 -0.019,-0.04233 -0.0423,-0.04233 -0.0233,0 -0.0423,0.01905 -0.0423,0.04233 0,0.02328 0.019,0.04233 0.0423,0.04233 0.0233,0 0.0423,-0.01905 0.0423,-0.04233 z m -26.41596,-7.281322 c 0,-0.02328 -0.019,-0.04233 -0.0423,-0.04233 -0.0233,0 -0.0423,0.01905 -0.0423,0.04233 0,0.02328 0.0191,0.04233 0.0423,0.04233 0.0233,0 0.0423,-0.01905 0.0423,-0.04233 z"
       id="path1" /></g></svg>
